<svg xmlns="http://www.w3.org/2000/svg" width="22" height="14" viewBox="0 0 22 14">
    <path fill="#11223E" fill-rule="nonzero" d="M20 11V3a1 1 0 0 0-1-1H3a1 1 0 0 0-1 1v8a1 1 0 0 0 1 1h16a1 1 0 0 0 1-1zm-1 3H3a3 3 0 0 1-3-3V3a3 3 0 0 1 3-3h16a3 3 0 0 1 3 3v8a3 3 0 0 1-3 3zm-8-5a2 2 0 1 1 0-4 2 2 0 0 1 0 4zm-2.629 1H3.664V8.794c2.601-1.881 3.087-2.295 3.087-2.889 0-.414-.387-.63-.827-.63-.667 0-1.17.252-1.603.657l-.854-1.026c.639-.702 1.592-.999 2.43-.999 1.412 0 2.43.792 2.43 1.998 0 .918-.658 1.701-2.152 2.745h2.196V10zM16 9a2 2 0 1 1 0-4 2 2 0 0 1 0 4z" opacity=".4"/>
</svg>
