<?xml version="1.0" encoding="UTF-8"?>
<svg width="36px" height="48px" viewBox="0 0 36 48" version="1.1" xmlns="http://www.w3.org/2000/svg" xmlns:xlink="http://www.w3.org/1999/xlink">
    <!-- Generator: Sketch 52.1 (67048) - http://www.bohemiancoding.com/sketch -->
    <title>alter.app</title>
    <desc>Created with Sketch.</desc>
    <defs>
        <linearGradient x1="50%" y1="0%" x2="50%" y2="100%" id="linearGradient-1">
            <stop stop-color="#EE6174" offset="0%"></stop>
            <stop stop-color="#F89948" offset="100%"></stop>
        </linearGradient>
    </defs>
    <g id="New-version" stroke="none" stroke-width="1" fill="none" fill-rule="evenodd">
        <g id="-g-Emporium_Wallet_New08" transform="translate(-498.000000, -701.000000)" fill="url(#linearGradient-1)" fill-rule="nonzero">
            <g id="Content" transform="translate(100.000000, 0.000000)">
                <g id="Steps" transform="translate(40.000000, 190.000000)">
                    <g id="01" transform="translate(0.000000, 313.000000)">
                        <g transform="translate(322.000000, 168.000000)" id="alter.app">
                            <g transform="translate(36.000000, 30.000000)">
                                <path d="M31,28 C31.5522847,28 32,28.4477153 32,29 L32,43 C31.9966939,45.7600532 29.7600532,47.9966939 27,48 L5,48 C2.23994685,47.9966939 0.00330611633,45.7600532 0,43 L0,5 C0.00330611633,2.23994685 2.23994685,0.00330611633 5,0 L27,0 C29.7600532,0.00330611633 31.9966939,2.23994685 32,5 L32,10 C32,10.5522847 31.5522847,11 31,11 C30.4477153,11 30,10.5522847 30,10 L30,9 L6,9 C5.44771525,9 5,8.55228475 5,8 C5,7.44771525 5.44771525,7 6,7 L30,7 L30,5 C30,3.34314575 28.6568542,2 27,2 L5,2 C3.34314575,2 2,3.34314575 2,5 L2,43 C2,44.6568542 3.34314575,46 5,46 L27,46 C28.6568542,46 30,44.6568542 30,43 L30,29 C30,28.4477153 30.4477153,28 31,28 Z M5,40 C5,39.4477153 5.44771525,39 6,39 L26,39 C26.5522847,39 27,39.4477153 27,40 C27,40.5522847 26.5522847,41 26,41 L6,41 C5.44771525,41 5,40.5522847 5,40 Z M24,30 C25.1045695,30 26,30.8954305 26,32 L26,36 C26,36.5522847 25.5522847,37 25,37 C24.4477153,37 24,36.5522847 24,36 L24,32 L8,32 L8,36 C8,36.5522847 7.55228475,37 7,37 C6.44771525,37 6,36.5522847 6,36 L6,32 C6,30.8954305 6.8954305,30 8,30 L24,30 Z M14,36 L12,36 C11.4477153,36 11,35.5522847 11,35 C11,34.4477153 11.4477153,34 12,34 L14,34 C14.5522847,34 15,34.4477153 15,35 C15,35.5522847 14.5522847,36 14,36 Z M20,36 L18,36 C17.4477153,36 17,35.5522847 17,35 C17,34.4477153 17.4477153,34 18,34 L20,34 C20.5522847,34 21,34.4477153 21,35 C21,35.5522847 20.5522847,36 20,36 Z M33,13 C34.6568542,13 36,14.3431458 36,16 L36,22 C36,23.6568542 34.6568542,25 33,25 L27,25 C25.3431458,25 24,23.6568542 24,22 L20,22 L20,24 C20,24.5522847 19.5522847,25 19,25 L16,25 C15.4477153,25 15,24.5522847 15,24 L15,22 L14,22 L14,23 C14,23.5522847 13.5522847,24 13,24 C12.4477153,24 12,23.5522847 12,23 L12,21 C12,20.4477153 12.4477153,20 13,20 L16,20 C16.5522847,20 17,20.4477153 17,21 L17,23 L18,23 L18,21 C18,20.4477153 18.4477153,20 19,20 L25,20 C25.5522847,20 26,20.4477153 26,21 L26,22 C26,22.5522847 26.4477153,23 27,23 L33,23 C33.5522847,23 34,22.5522847 34,22 L34,16 C34,15.4477153 33.5522847,15 33,15 L27,15 C26.4477153,15 26,15.4477153 26,16 L26,17 C26,17.5522847 25.5522847,18 25,18 L10,18 L10,26 C10,26.5522847 9.55228475,27 9,27 C8.44771525,27 8,26.5522847 8,26 L8,14 C8,13.4477153 8.44771525,13 9,13 C9.55228475,13 10,13.4477153 10,14 L10,16 L24,16 C24,14.3431458 25.3431458,13 27,13 L33,13 Z M31,20 C31,20.5522847 30.5522847,21 30,21 C29.4477153,21 29,20.5522847 29,20 L29,18 C29,17.4477153 29.4477153,17 30,17 C30.5522847,17 31,17.4477153 31,18 L31,20 Z" id="Combined-Shape"></path>
                            </g>
                        </g>
                    </g>
                </g>
            </g>
        </g>
    </g>
</svg>