<?xml version="1.0" encoding="UTF-8"?>
<svg width="135px" height="46px" viewBox="0 0 135 46" version="1.1" xmlns="http://www.w3.org/2000/svg" xmlns:xlink="http://www.w3.org/1999/xlink">
    <!-- Generator: sketchtool 53 (72520) - https://sketchapp.com -->
    <title>48988200-1E4D-4A28-9C9D-C97C97ACBB3B</title>
    <desc>Created with sketchtool.</desc>
    <defs>
        <rect id="path-1" x="0" y="0" width="135" height="45.701"></rect>
    </defs>
    <g id="2FA-(...)" stroke="none" stroke-width="1" fill="none" fill-rule="evenodd">
        <g id="2FA-popup-2" transform="translate(-513.000000, -676.000000)">
            <g id="appstore" transform="translate(513.000000, 676.000000)">
                <mask id="mask-2" fill="white">
                    <use xlink:href="#path-1"></use>
                </mask>
                <g id="Rectangle"></g>
                <g id="Group" mask="url(#mask-2)">
                    <path d="M5.484,0 L129.516,0 C132.543,0 135,2.457 135,5.484 L135,40.217 C135,43.243 132.543,45.701 129.516,45.701 L5.484,45.701 C2.457,45.701 0,43.243 0,40.217 L0,5.484 C0,2.457 2.457,0 5.484,0 Z" id="Path" fill="#000000" fill-rule="nonzero"></path>
                    <path d="M29.554,21.804 C29.524,18.535 32.231,16.945 32.354,16.871 C30.822,14.636 28.446,14.331 27.611,14.307 C25.616,14.097 23.681,15.5 22.665,15.5 C21.628,15.5 20.063,14.327 18.377,14.361 C16.206,14.395 14.175,15.652 13.062,17.603 C10.763,21.582 12.477,27.429 14.68,30.646 C15.781,32.222 17.068,33.98 18.753,33.918 C20.401,33.851 21.017,32.867 23.006,32.867 C24.976,32.867 25.555,33.918 27.273,33.877 C29.042,33.851 30.155,32.296 31.218,30.706 C32.491,28.902 33.002,27.122 33.023,27.031 C32.982,27.018 29.588,25.722 29.554,21.804 M26.308,12.191 C27.195,11.082 27.801,9.574 27.633,8.044 C26.35,8.1 24.745,8.931 23.821,10.015 C23.004,10.971 22.273,12.537 22.462,14.01 C23.903,14.117 25.383,13.282 26.308,12.191" id="Shape" fill="#FFFFFF"></path>
                    <path d="M53.427,33.692 L51.123,33.692 L49.862,29.727 L45.476,29.727 L44.274,33.692 L42.031,33.692 L46.378,20.194 L49.061,20.194 L53.427,33.692 Z M49.481,28.063 L48.34,24.54 C48.22,24.179 47.992,23.331 47.66,21.996 L47.619,21.996 C47.485,22.57 47.271,23.418 46.978,24.54 L45.856,28.063 L49.481,28.063 L49.481,28.063 Z M64.582,28.705 C64.582,30.361 64.132,31.669 63.233,32.63 C62.427,33.485 61.426,33.912 60.233,33.912 C58.943,33.912 58.016,33.452 57.454,32.53 L57.454,37.637 L55.291,37.637 L55.291,27.158 C55.291,26.118 55.264,25.052 55.211,23.959 L57.113,23.959 L57.233,25.502 L57.274,25.502 C57.995,24.339 59.09,23.758 60.558,23.758 C61.706,23.758 62.665,24.211 63.432,25.119 C64.197,26.029 64.582,27.223 64.582,28.705 L64.582,28.705 Z M62.379,28.784 C62.379,27.837 62.166,27.056 61.738,26.441 C61.27,25.801 60.642,25.48 59.855,25.48 C59.322,25.48 58.837,25.659 58.404,26.011 C57.97,26.365 57.686,26.829 57.553,27.404 C57.486,27.671 57.453,27.889 57.453,28.061 L57.453,29.686 C57.453,30.392 57.669,30.989 58.104,31.478 C58.538,31.965 59.102,32.21 59.795,32.21 C60.61,32.21 61.244,31.894 61.697,31.268 C62.152,30.641 62.379,29.813 62.379,28.784 L62.379,28.784 Z M75.776,28.705 C75.776,30.361 75.327,31.669 74.427,32.63 C73.621,33.485 72.621,33.912 71.426,33.912 C70.138,33.912 69.211,33.452 68.647,32.53 L68.647,37.637 L66.485,37.637 L66.485,27.158 C66.485,26.118 66.457,25.052 66.404,23.959 L68.306,23.959 L68.427,25.502 L68.467,25.502 C69.188,24.339 70.282,23.758 71.752,23.758 C72.899,23.758 73.858,24.211 74.626,25.119 C75.391,26.029 75.776,27.223 75.776,28.705 Z M73.572,28.784 C73.572,27.837 73.358,27.056 72.93,26.441 C72.464,25.801 71.837,25.48 71.05,25.48 C70.516,25.48 70.032,25.659 69.596,26.011 C69.163,26.365 68.879,26.829 68.746,27.404 C68.681,27.671 68.645,27.889 68.645,28.061 L68.645,29.686 C68.645,30.392 68.863,30.989 69.295,31.478 C69.729,31.964 70.293,32.21 70.989,32.21 C71.804,32.21 72.438,31.894 72.891,31.268 C73.345,30.641 73.572,29.813 73.572,28.784 L73.572,28.784 Z M88.293,29.906 C88.293,31.054 87.892,31.989 87.093,32.71 C86.214,33.497 84.988,33.891 83.416,33.891 C81.963,33.891 80.799,33.611 79.921,33.05 L80.421,31.248 C81.369,31.809 82.411,32.09 83.545,32.09 C84.36,32.09 84.994,31.905 85.446,31.539 C85.901,31.171 86.129,30.681 86.129,30.069 C86.129,29.52 85.94,29.059 85.567,28.685 C85.193,28.313 84.574,27.964 83.706,27.645 C81.343,26.764 80.16,25.474 80.16,23.779 C80.16,22.671 80.578,21.765 81.411,21.056 C82.244,20.348 83.35,19.994 84.725,19.994 C85.954,19.994 86.977,20.208 87.789,20.635 L87.247,22.398 C86.482,21.984 85.619,21.777 84.653,21.777 C83.891,21.777 83.291,21.965 82.864,22.338 C82.504,22.671 82.32,23.078 82.32,23.561 C82.32,24.093 82.528,24.536 82.943,24.881 C83.302,25.202 83.957,25.55 84.905,25.923 C86.067,26.392 86.92,26.937 87.468,27.564 C88.019,28.191 88.293,28.973 88.293,29.906 L88.293,29.906 Z M95.46,25.581 L93.077,25.581 L93.077,30.307 C93.077,31.509 93.497,32.108 94.339,32.108 C94.725,32.108 95.046,32.076 95.299,32.008 L95.359,33.65 C94.933,33.809 94.372,33.889 93.678,33.889 C92.823,33.889 92.157,33.628 91.674,33.107 C91.193,32.586 90.953,31.713 90.953,30.483 L90.953,25.577 L89.534,25.577 L89.534,23.955 L90.953,23.955 L90.953,22.172 L93.077,21.531 L93.077,23.954 L95.46,23.954 L95.46,25.581 L95.46,25.581 Z M106.193,28.745 C106.193,30.241 105.766,31.469 104.911,32.43 C104.018,33.418 102.829,33.912 101.347,33.912 C99.917,33.912 98.78,33.438 97.932,32.491 C97.084,31.543 96.66,30.348 96.66,28.907 C96.66,27.399 97.099,26.164 97.972,25.203 C98.846,24.243 100.025,23.761 101.506,23.761 C102.936,23.761 104.082,24.236 104.951,25.183 C105.781,26.103 106.193,27.288 106.193,28.745 Z M103.952,28.795 C103.952,27.903 103.759,27.138 103.373,26.498 C102.919,25.725 102.269,25.34 101.429,25.34 C100.564,25.34 99.898,25.725 99.446,26.498 C99.058,27.138 98.866,27.916 98.866,28.835 C98.866,29.728 99.058,30.495 99.446,31.132 C99.914,31.905 100.566,32.292 101.412,32.292 C102.238,32.292 102.886,31.896 103.356,31.113 C103.752,30.458 103.952,29.688 103.952,28.795 L103.952,28.795 Z M113.225,25.86 C113.011,25.821 112.782,25.801 112.544,25.801 C111.783,25.801 111.195,26.086 110.781,26.663 C110.421,27.17 110.241,27.811 110.241,28.585 L110.241,33.692 L108.079,33.692 L108.079,27.024 C108.079,25.903 108.058,24.88 108.016,23.96 L109.9,23.96 L109.979,25.822 L110.039,25.822 C110.268,25.182 110.627,24.666 111.12,24.28 C111.603,23.931 112.122,23.758 112.683,23.758 C112.883,23.758 113.063,23.773 113.223,23.797 L113.225,25.86 L113.225,25.86 Z M122.897,28.365 C122.897,28.752 122.871,29.079 122.817,29.345 L116.331,29.345 C116.354,30.307 116.67,31.043 117.271,31.55 C117.818,32.003 118.526,32.23 119.393,32.23 C120.354,32.23 121.23,32.078 122.018,31.769 L122.357,33.271 C121.436,33.671 120.348,33.872 119.094,33.872 C117.585,33.872 116.4,33.428 115.538,32.541 C114.679,31.654 114.247,30.46 114.247,28.967 C114.247,27.5 114.646,26.278 115.45,25.303 C116.29,24.263 117.424,23.742 118.853,23.742 C120.255,23.742 121.317,24.263 122.037,25.303 C122.61,26.128 122.897,27.15 122.897,28.365 L122.897,28.365 Z M120.835,27.804 C120.85,27.162 120.708,26.61 120.415,26.141 C120.04,25.539 119.464,25.239 118.692,25.239 C117.984,25.239 117.409,25.532 116.971,26.12 C116.611,26.588 116.397,27.15 116.331,27.802 L120.835,27.804 L120.835,27.804 Z" id="Shape" fill="#FFFFFF"></path>
                    <path d="M48.439,15.363 L47.306,15.363 L46.686,13.414 L44.531,13.414 L43.939,15.363 L42.837,15.363 L44.973,8.728 L46.291,8.728 L48.439,15.363 L48.439,15.363 Z M46.499,12.597 L45.938,10.864 C45.88,10.687 45.771,10.274 45.604,9.615 L45.583,9.615 C45.514,9.9 45.416,10.313 45.268,10.864 L44.717,12.597 L46.499,12.597 L46.499,12.597 Z M53.78,10.579 L51.968,15.363 L50.935,15.363 L49.182,10.579 L50.324,10.579 L51.142,13.109 C51.28,13.532 51.397,13.935 51.485,14.319 L51.515,14.319 C51.594,13.975 51.712,13.571 51.859,13.109 L52.666,10.579 L53.78,10.579 L53.78,10.579 Z M57.636,15.363 L57.557,14.812 L57.528,14.812 C57.203,15.255 56.73,15.471 56.13,15.471 C55.274,15.471 54.663,14.871 54.663,14.063 C54.663,12.883 55.687,12.272 57.459,12.272 L57.459,12.184 C57.459,11.554 57.124,11.239 56.465,11.239 C55.992,11.239 55.578,11.357 55.215,11.594 L54.999,10.895 C55.442,10.619 55.993,10.481 56.643,10.481 C57.893,10.481 58.524,11.14 58.524,12.46 L58.524,14.222 C58.524,14.704 58.544,15.079 58.593,15.364 L57.636,15.363 L57.636,15.363 Z M57.488,12.98 C56.306,12.98 55.716,13.266 55.716,13.945 C55.716,14.447 56.021,14.692 56.444,14.692 C56.986,14.692 57.488,14.279 57.488,13.718 L57.488,12.98 Z M60.891,9.791 C60.537,9.791 60.261,9.515 60.261,9.151 C60.261,8.787 60.546,8.521 60.911,8.521 C61.275,8.521 61.57,8.787 61.56,9.151 C61.56,9.536 61.285,9.791 60.891,9.791 L60.891,9.791 Z M60.38,10.579 L61.443,10.579 L61.443,15.363 L60.38,15.363 L60.38,10.579 Z M63.331,8.384 L64.394,8.384 L64.394,15.363 L63.331,15.363 L63.331,8.384 Z M68.912,15.363 L68.832,14.812 L68.803,14.812 C68.479,15.255 68.006,15.471 67.406,15.471 C66.55,15.471 65.939,14.871 65.939,14.063 C65.939,12.883 66.962,12.272 68.734,12.272 L68.734,12.184 C68.734,11.554 68.4,11.239 67.74,11.239 C67.268,11.239 66.854,11.357 66.491,11.594 L66.274,10.894 C66.717,10.618 67.268,10.48 67.918,10.48 C69.167,10.48 69.799,11.139 69.799,12.459 L69.799,14.221 C69.799,14.703 69.819,15.077 69.866,15.363 L68.912,15.363 L68.912,15.363 Z M68.764,12.98 C67.582,12.98 66.992,13.266 66.992,13.945 C66.992,14.447 67.297,14.692 67.72,14.692 C68.262,14.692 68.764,14.279 68.764,13.718 L68.764,12.98 L68.764,12.98 Z M74.105,15.471 C73.426,15.471 72.925,15.185 72.6,14.624 L72.579,14.624 L72.518,15.363 L71.614,15.363 C71.642,14.979 71.652,14.545 71.652,14.073 L71.652,8.384 L72.717,8.384 L72.717,11.279 L72.737,11.279 C73.052,10.748 73.563,10.482 74.262,10.482 C75.414,10.482 76.222,11.467 76.222,12.903 C76.222,14.388 75.325,15.471 74.105,15.471 L74.105,15.471 Z M73.889,11.317 C73.277,11.317 72.717,11.848 72.717,12.586 L72.717,13.423 C72.717,14.083 73.22,14.624 73.869,14.624 C74.666,14.624 75.14,13.975 75.14,12.942 C75.139,11.977 74.646,11.317 73.889,11.317 L73.889,11.317 Z M77.795,8.384 L78.857,8.384 L78.857,15.363 L77.795,15.363 L77.795,8.384 Z M84.642,13.227 L81.451,13.227 C81.473,14.132 82.071,14.643 82.956,14.643 C83.43,14.643 83.863,14.564 84.247,14.417 L84.412,15.156 C83.959,15.352 83.428,15.451 82.808,15.451 C81.311,15.451 80.426,14.506 80.426,13.04 C80.426,11.573 81.333,10.471 82.69,10.471 C83.909,10.471 84.679,11.376 84.679,12.745 C84.682,12.931 84.673,13.099 84.642,13.226 L84.642,13.227 Z M83.668,12.469 C83.668,11.73 83.293,11.209 82.614,11.209 C82.003,11.209 81.522,11.741 81.451,12.469 L83.668,12.469 Z M91.085,15.471 C89.687,15.471 88.781,14.427 88.781,13.01 C88.781,11.534 89.706,10.481 91.165,10.481 C92.541,10.481 93.468,11.475 93.468,12.932 C93.468,14.427 92.513,15.471 91.085,15.471 L91.085,15.471 Z M91.125,11.258 C90.358,11.258 89.866,11.976 89.866,12.98 C89.866,13.965 90.368,14.683 91.115,14.683 C91.863,14.683 92.365,13.915 92.365,12.96 C92.365,11.986 91.873,11.258 91.125,11.258 L91.125,11.258 Z M99.183,15.363 L98.122,15.363 L98.122,12.616 C98.122,11.77 97.796,11.346 97.156,11.346 C96.526,11.346 96.092,11.888 96.092,12.518 L96.092,15.363 L95.031,15.363 L95.031,11.946 C95.031,11.524 95.019,11.07 94.991,10.578 L95.926,10.578 L95.976,11.317 L96.006,11.317 C96.289,10.805 96.871,10.48 97.521,10.48 C98.523,10.48 99.183,11.248 99.183,12.497 L99.183,15.363 L99.183,15.363 Z M106.138,11.376 L104.968,11.376 L104.968,13.699 C104.968,14.291 105.174,14.586 105.587,14.586 C105.774,14.586 105.933,14.565 106.06,14.536 L106.089,15.343 C105.882,15.422 105.605,15.462 105.263,15.462 C104.425,15.462 103.926,14.999 103.926,13.788 L103.926,11.376 L103.229,11.376 L103.229,10.579 L103.926,10.579 L103.926,9.703 L104.968,9.387 L104.968,10.578 L106.138,10.578 L106.138,11.376 L106.138,11.376 Z M111.767,15.363 L110.703,15.363 L110.703,12.636 C110.703,11.78 110.377,11.347 109.738,11.347 C109.188,11.347 108.676,11.721 108.676,12.479 L108.676,15.363 L107.612,15.363 L107.612,8.384 L108.676,8.384 L108.676,11.258 L108.697,11.258 C109.03,10.736 109.514,10.48 110.134,10.48 C111.147,10.48 111.767,11.267 111.767,12.517 L111.767,15.362 L111.767,15.363 Z M117.198,13.227 L114.008,13.227 C114.029,14.132 114.627,14.643 115.514,14.643 C115.988,14.643 116.42,14.564 116.802,14.417 L116.968,15.156 C116.517,15.352 115.984,15.451 115.363,15.451 C113.867,15.451 112.982,14.506 112.982,13.04 C112.982,11.573 113.888,10.471 115.245,10.471 C116.465,10.471 117.234,11.376 117.234,12.745 C117.238,12.931 117.228,13.099 117.198,13.226 L117.198,13.227 Z M116.224,12.469 C116.224,11.73 115.85,11.209 115.171,11.209 C114.56,11.209 114.078,11.741 114.008,12.469 L116.224,12.469 L116.224,12.469 Z" id="Shape" fill="#FFFFFF"></path>
                </g>
            </g>
        </g>
    </g>
</svg>