<svg xmlns="http://www.w3.org/2000/svg" xmlns:xlink="http://www.w3.org/1999/xlink" style="isolation:isolate" viewBox="1084 611 40 40" width="40" height="40"><defs><clipPath id="_clipPath_Rh5iUYXZfB9GFAVzqBjgrQ6BLYRJgKHO"><rect x="1084" y="611" width="40" height="40"/></clipPath></defs><g clip-path="url(#_clipPath_Rh5iUYXZfB9GFAVzqBjgrQ6BLYRJgKHO)"><clipPath id="_clipPath_xzgHSG9Fqw8hAZTKEvcbRHrV1cothkdQ"><rect x="1084" y="611" width="40" height="40" transform="matrix(1,0,0,1,0,0)" fill="rgb(255,255,255)"/></clipPath><g clip-path="url(#_clipPath_xzgHSG9Fqw8hAZTKEvcbRHrV1cothkdQ)"><g><path d=" M 1089.796 620.881 L 1107.098 620.89 C 1108.09 620.889 1108.897 621.696 1108.895 622.689 L 1108.895 623.515 C 1109.263 623.356 1109.719 623.245 1110.3 623.245 C 1111.028 623.245 1111.631 623.408 1111.698 623.43 C 1111.838 623.469 1111.965 623.537 1112.075 623.634 L 1118.67 629.412 C 1118.885 629.603 1119.006 629.879 1119 630.166 L 1118.943 639.678 C 1118.929 640.184 1118.348 640.598 1117.84 640.621 C 1117.813 640.621 1115.354 640.724 1113.181 640.724 C 1111.856 640.724 1110.921 640.689 1110.325 640.614 C 1108.586 640.395 1107.827 639.882 1107.511 639.555 C 1107.184 639.317 1106.894 639.081 1106.59 638.846 C 1106.843 639.774 1106.42 640.786 1105.531 641.235 C 1105.243 641.382 1104.92 641.461 1104.6 641.461 C 1104.029 641.461 1103.506 641.224 1103.124 640.831 C 1102.936 641.086 1102.698 641.309 1102.397 641.464 C 1102.108 641.606 1101.786 641.684 1101.464 641.684 C 1100.683 641.684 1099.977 641.248 1099.624 640.552 L 1098.256 637.859 C 1098.006 637.366 1097.954 636.805 1098.127 636.282 C 1098.183 636.113 1098.271 635.954 1098.369 635.807 L 1089.809 635.812 C 1088.817 635.812 1088.008 635.005 1088.007 634.014 L 1088 622.701 C 1087.998 621.706 1088.804 620.881 1089.796 620.881 Z  M 1102.542 637.044 L 1103.907 639.74 C 1104.091 640.112 1104.572 640.271 1104.946 640.083 C 1105.327 639.889 1105.479 639.421 1105.287 639.042 L 1104.165 636.831 C 1104.165 636.831 1103.797 635.934 1103.211 635.925 C 1103.096 635.928 1102.985 635.952 1102.881 636.006 C 1102.698 636.101 1102.56 636.256 1102.497 636.454 C 1102.431 636.652 1102.444 636.859 1102.542 637.044 Z  M 1104.693 634.673 L 1105.926 635.804 L 1105.915 635.804 C 1106.688 636.474 1107.608 637.217 1108.74 638.054 C 1108.825 638.116 1108.832 638.109 1108.892 638.194 C 1108.895 638.197 1109.269 638.531 1110.56 638.691 C 1110.913 638.735 1111.652 638.728 1113.18 638.728 C 1114.508 638.728 1116.162 638.748 1117.065 638.717 L 1117.05 630.57 L 1110.982 625.251 C 1110.818 625.22 1110.57 625.184 1110.3 625.184 C 1109.905 625.184 1109.632 625.255 1109.485 625.4 L 1109.485 632.126 C 1109.485 632.467 1109.305 632.781 1109.011 632.957 C 1108.977 632.977 1108.938 632.974 1108.902 632.99 L 1108.902 633.062 L 1108.812 633.016 C 1108.562 633.099 1108.292 633.111 1108.054 632.979 C 1106.546 632.162 1103.688 630.863 1102.443 630.863 C 1102.387 630.863 1102.34 630.863 1102.307 630.869 C 1102.302 630.881 1102.297 630.887 1102.291 630.897 C 1102.265 631.026 1102.14 632.147 1104.693 634.673 Z  M 1099.41 637.269 L 1100.774 639.965 C 1100.961 640.338 1101.443 640.495 1101.815 640.307 C 1102.194 640.116 1102.345 639.647 1102.153 639.268 L 1100.787 636.572 C 1100.655 636.31 1100.392 636.145 1100.098 636.145 C 1099.975 636.145 1099.858 636.176 1099.747 636.232 C 1099.56 636.327 1099.425 636.485 1099.363 636.678 C 1099.297 636.877 1099.312 637.085 1099.41 637.269 Z  M 1089.203 634.01 C 1089.204 634.345 1089.472 634.609 1089.802 634.609 L 1102.018 634.606 C 1101.02 633.374 1100.446 632.269 1100.351 631.312 C 1100.281 630.554 1100.505 630.07 1100.67 629.83 C 1100.874 629.444 1101.354 628.92 1102.443 628.92 C 1103.866 628.92 1106.085 629.851 1107.547 630.547 L 1107.547 627.863 L 1089.201 627.858 L 1089.203 634.01 Z  M 1089.201 624.302 L 1107.698 624.294 L 1107.698 622.686 C 1107.698 622.354 1107.43 622.086 1107.1 622.086 L 1089.796 622.073 C 1089.469 622.073 1089.196 622.364 1089.196 622.694 L 1089.201 624.302 Z " fill="rgb(3,1,4)"/><path d=" M 1090.564 633.498 L 1090.577 631.872 L 1095.314 631.869 L 1095.299 633.498 L 1090.564 633.498 Z " fill="rgb(3,1,4)"/></g></g></g></svg>