<svg xmlns="http://www.w3.org/2000/svg" width="72" height="72" viewBox="0 0 72 72">
    <defs>
        <linearGradient id="a" x1="50%" x2="50%" y1="0%" y2="100%">
            <stop offset="0%" stop-color="#EE6174"/>
            <stop offset="100%" stop-color="#F89948"/>
        </linearGradient>
    </defs>
    <path fill="url(#a)" fill-rule="nonzero" d="M36 72C16.127 71.979.021 55.873 0 36 0 16.118 16.118 0 36 0s36 16.118 36 36-16.118 36-36 36zm0-66C19.439 6.018 6.018 19.439 6 36c0 16.569 13.431 30 30 30 16.569 0 30-13.431 30-30C66 19.431 52.569 6 36 6zM24.879 50.121l-6-6a3 3 0 0 1 4.242-4.242L27 43.758l21.879-21.879a3 3 0 1 1 4.242 4.242l-24 24a3 3 0 0 1-4.242 0z"/>
</svg>
