<svg xmlns="http://www.w3.org/2000/svg" width="490" height="133" viewBox="0 0 490 133">
    <g fill="none" fill-rule="evenodd">
        <path fill="#F17C89" d="M299.433 90.212l1.686-8.241-7.98 2.661 6.294 5.58"/>
        <path fill="#F89F0B" d="M384.657 58.28l13.81-11.605-16.955-6.158 3.145 17.763M229.593 26.167l.173-18.038-15.708 8.869 15.535 9.169"/>
        <path fill="#FFC361" d="M382.248 121.738l.118-12.296-10.708 6.046 10.59 6.25"/>
        <path fill="#F17C89" d="M60.326 59.405l-8.252-1.633 2.712 7.963 5.54-6.33"/>
        <path fill="#AFDB7A" d="M122.519 105.226h-14.068l7.034 12.183 7.034-12.183"/>
        <path fill="#F17C89" d="M384.657 58.28l13.81-11.605-16.955-6.158 3.145 17.763"/>
        <path fill="#FFC361" d="M229.593 26.167l.173-18.038-15.708 8.869 15.535 9.169"/>
        <path fill="#AFDB7A" d="M60.957 86.405c2.693 3.046 3.791 8.594.927 11.648a68.854 68.854 0 0 1-5.801.678c2.866-3.055 1.766-8.605-.925-11.651 1.94-.146 3.88-.368 5.799-.675"/>
        <path fill="#64AAFA" d="M259.971 45.275c-1.83-3.505-6.378-3.702-9.731-3.588.111-1.675.297-3.343.544-5.001 3.353-.115 7.899.082 9.731 3.588a61.484 61.484 0 0 0-.544 5.001"/>
        <path fill="#FFC361" d="M418.432 24.459c-.415-3.277-3.917-4.753-6.578-5.637a50.868 50.868 0 0 1 1.879-3.76c2.659.884 6.163 2.36 6.578 5.636a51.285 51.285 0 0 0-1.879 3.761M317.216 131.874c-.415-3.278-3.918-4.753-6.578-5.638a51.23 51.23 0 0 1 1.878-3.759c2.659.883 6.164 2.36 6.579 5.635a51.108 51.108 0 0 0-1.879 3.762M9.445 74.336c-2.137.06-3.378-3.022-5.644-2.981.459-.96.958-1.901 1.491-2.821 2.266-.04 3.507 3.042 5.644 2.981a38.53 38.53 0 0 0-1.491 2.821"/>
        <path fill="#F17C89" d="M292.827 14.344c1.863-.519 3.779-1.219 5.738-1.042.292.924.548 1.858.764 2.804-1.958-.177-3.872.524-5.74 1.042a36.273 36.273 0 0 0-.762-2.804"/>
        <path fill="#AFDB7A" d="M29.571 55.145c-1.882-.713-3.86-1.713-5.928-1.404.335-.946.712-1.879 1.124-2.794 2.068-.309 4.047.691 5.926 1.404a35.781 35.781 0 0 0-1.122 2.794"/>
        <path fill="#FFC361" d="M101.937 31.639c4.047-3.98 11.696-5.928 16.167-2.162a97.591 97.591 0 0 1 1.376 8.031c-4.472-3.762-12.121-1.816-16.165 2.164a99.435 99.435 0 0 0-1.378-8.033"/>
        <path fill="#64AAFA" d="M94.592 68.483c2.396 5.863 1.166 14.585-4.613 17.609a109.2 109.2 0 0 1-8.879-1.98c5.781-3.024 7.011-11.746 4.615-17.607 2.93.776 5.893 1.445 8.877 1.978"/>
        <path fill="#F17C89" d="M78.139-.011c2.466-.042 5.458 1.637 5.738 4.161a42.87 42.87 0 0 1-1.972 2.943c-.28-2.527-3.272-4.203-5.738-4.162a42.73 42.73 0 0 0 1.972-2.942"/>
        <path fill="#64AAFA" d="M350.676 12.726c-1.911-.118-4.012 1.223-4.707 3.007a33.781 33.781 0 0 1-1.501-2.352c.693-1.784 2.794-3.126 4.703-3.008.47.805.972 1.589 1.505 2.353"/>
        <path fill="#FFC361" d="M161.852 128.035c-2.89-.179-6.068 1.85-7.119 4.549a51.256 51.256 0 0 1-2.271-3.559c1.049-2.698 4.226-4.728 7.114-4.549a52.464 52.464 0 0 0 2.276 3.559"/>
        <path fill="#F17C89" d="M2.916 5.666c.941 1.819 2.079 3.647 2.319 5.71-.893.501-1.805.969-2.734 1.394C2.26 10.708 1.123 8.88.186 7.064a38.556 38.556 0 0 0 2.73-1.398"/>
        <path fill="#64AAFA" d="M270.152 3.688c-2.29 1.378-4.579 3.011-7.246 3.494a48.46 48.46 0 0 1-2.048-3.443c2.668-.484 4.956-2.12 7.248-3.496a48.022 48.022 0 0 0 2.046 3.445"/>
        <path fill="#F17C89" d="M173.298 96.834c3.12-.002 6.544.353 9.375-1.238a59.274 59.274 0 0 1-.087 4.675c-2.833 1.59-6.257 1.234-9.376 1.238a57.41 57.41 0 0 0 .088-4.675M391.668 7.814c-2.594-.166-5.596-2.181-5.68-4.86a47.75 47.75 0 0 1 2.321-2.927c.084 2.68 3.086 4.697 5.682 4.86a45.585 45.585 0 0 0-2.323 2.927"/>
        <path fill="#FFC361" d="M310.446 48.81c-2.527 5.427-9.365 10.175-15.177 8.109a105.98 105.98 0 0 1-4.327-7.426c5.811 2.064 12.649-2.682 15.177-8.109a103.048 103.048 0 0 0 4.327 7.426M465.918 25.937c7.977-.039 12.533-8.01 15.431-14.13 2.9 1.748 5.721 3.622 8.465 5.597-2.896 6.121-7.454 14.093-15.429 14.132a124.636 124.636 0 0 0-8.467-5.599M419.213 95.269c1.885 4.95 7.904 5.923 12.385 6.296a81.993 81.993 0 0 1-1.505 6.57c-4.48-.374-10.498-1.347-12.385-6.297a81.745 81.745 0 0 0 1.505-6.569M137.892 79.42c1.646-4.55 11.088-9.509 13.513-14.059.583 1.036 2.931 6.678 3.286 7.814-2.425 4.552-11.867 9.509-13.513 14.061-.361-1.131-2.7-6.779-3.286-7.816M449.25 7.204c-.162-2.668 3.641-4.343 3.498-7.173a48.53 48.53 0 0 1 3.59 1.75c.14 2.829-3.662 4.504-3.498 7.174a50.185 50.185 0 0 0-3.59-1.751"/>
        <path fill="#AFDB7A" d="M436.548 41.11c2.746 3.721 5.936 7.396 7.207 11.913a85.1 85.1 0 0 1-5.602 4.092c-1.269-4.518-4.46-8.191-7.206-11.913a85.588 85.588 0 0 0 5.601-4.092"/>
        <path fill="#64AAFA" d="M350.777 97.835c-1.014-1.594-2.211-3.184-2.602-5.061a34.584 34.584 0 0 1 2.401-1.511c.389 1.88 1.588 3.468 2.601 5.064-.82.47-1.621.974-2.4 1.508"/>
        <path fill="#F89F0B" d="M177.894 38.204c.56 2.875.844 6.095 2.816 8.42a53.977 53.977 0 0 1-4.324.756c-1.973-2.327-2.254-5.546-2.818-8.422a53.94 53.94 0 0 0 4.326-.754M168.391 13.437c-2.887 6.133-10.663 11.475-17.236 9.105a122.762 122.762 0 0 1-4.864-8.437c6.574 2.37 14.349-2.972 17.239-9.106a118.742 118.742 0 0 0 4.861 8.438M67.624 41.142c.832-2.717-1.398-5.113-3.172-6.746a43.242 43.242 0 0 1 2.799-2.287c1.776 1.631 4.004 4.028 3.176 6.745a45.158 45.158 0 0 0-2.803 2.288"/>
        <path fill="#AFDB7A" d="M332.372 59.781c3.252-.844 6.021-4.221 6.209-7.572a58.362 58.362 0 0 1 3.786 3.105c-.187 3.351-2.958 6.73-6.209 7.572a61.82 61.82 0 0 0-3.786-3.105"/>
        <path fill="#F89F0B" d="M29.988 7.626c2.257 1.643 3.485 7.666 5.618 9.741-.668.157-4.17.551-4.855.566-2.131-2.074-3.361-8.099-5.621-9.74.685-.017 4.188-.408 4.858-.567"/>
        <path fill="#AFDB7A" d="M177.894 38.204c.56 2.875.844 6.095 2.816 8.42a53.977 53.977 0 0 1-4.324.756c-1.973-2.327-2.254-5.546-2.818-8.422a53.94 53.94 0 0 0 4.326-.754"/>
        <path fill="#FFC361" d="M168.391 13.437c-2.887 6.133-10.663 11.475-17.236 9.105a122.762 122.762 0 0 1-4.864-8.437c6.574 2.37 14.349-2.972 17.239-9.106a118.742 118.742 0 0 0 4.861 8.438M67.624 41.142c.832-2.717-1.398-5.113-3.172-6.746a43.242 43.242 0 0 1 2.799-2.287c1.776 1.631 4.004 4.028 3.176 6.745a45.158 45.158 0 0 0-2.803 2.288"/>
        <path fill="#64AAFA" d="M457.977 87.915c.494-2.388-.894-5.26-3.111-6.438a45.806 45.806 0 0 1 3.354-1.493c2.218 1.178 3.607 4.05 3.112 6.438-1.139.452-2.258.953-3.355 1.493M29.988 7.626c2.257 1.643 3.485 7.666 5.618 9.741-.668.157-4.17.551-4.855.566-2.131-2.074-3.361-8.099-5.621-9.74.685-.017 4.188-.408 4.858-.567"/>
        <path fill="#AFDB7A" d="M407.431 78.675c-3.18.679-6.746 1.06-9.285 3.294a58.858 58.858 0 0 1-.924-4.781c2.539-2.235 6.105-2.615 9.283-3.296.244 1.605.554 3.202.926 4.783"/>
    </g>
</svg>
