<?xml version="1.0" encoding="UTF-8"?>
<svg width="144px" height="144px" viewBox="0 0 144 144" version="1.1" xmlns="http://www.w3.org/2000/svg" xmlns:xlink="http://www.w3.org/1999/xlink">
    <!-- Generator: Sketch 53 (72520) - https://sketchapp.com -->
    <title>icon</title>
    <desc>Created with Sketch.</desc>
    <defs>
        <linearGradient x1="50%" y1="0%" x2="50%" y2="100%" id="linearGradient-1">
            <stop stop-color="#EE6174" offset="0%"></stop>
            <stop stop-color="#F89948" offset="100%"></stop>
        </linearGradient>
    </defs>
    <g id="New-version" stroke="none" stroke-width="1" fill="none" fill-rule="evenodd">
        <g id="-g-Emporium_New_SignIn05" transform="translate(-1008.000000, -484.000000)">
            <g id="back" transform="translate(720.000000, 0.000000)">
                <g id="SignIn05" transform="translate(-279.000000, -21.000000)">
                    <g id="icon" transform="translate(567.000000, 505.000000)">
                        <path d="M129,3.33466588e-15 C137.280159,0.009918349 143.990082,6.71984055 144,15 L144,129 C143.990082,137.280159 137.280159,143.990082 129,144 L15,144 C6.71984055,143.990082 0.009918349,137.280159 1.42108547e-14,129 L1.42108547e-14,15 C0.009918349,6.71984055 6.71984055,0.009918349 15,3.33466588e-15 L129,3.33466588e-15 Z M138,129 L138,15 C138,10.0294373 133.970563,6 129,6 L15,6 C10.0294373,6 6,10.0294373 6,15 L6,129 C6,133.970563 10.0294373,138 15,138 L129,138 C133.970563,138 138,133.970563 138,129 Z M123,99 C124.656854,99 126,100.343146 126,102 L126,117 C126,118.656854 124.656854,120 123,120 L99,120 L99,114 L120,114 L120,105 L87,105 L87,99 L123,99 Z M75,99 L81,99 L81,120 L75,120 L75,99 Z M87,114 L93,114 L93,120 L87,120 L87,114 Z M60,45 C58.3431458,45 57,43.6568542 57,42 L57,24 L63,24 L63,39 L69,39 L69,27 C69,25.3431458 70.3431458,24 72,24 L84,24 C85.6568542,24 87,25.3431458 87,27 L87,45 L81,45 L81,30 L75,30 L75,42 C75,43.6568542 73.6568542,45 72,45 L60,45 Z M81,54 L87,54 L87,72 L123,72 L123,78 L84,78 C82.3431458,78 81,76.6568542 81,75 L81,54 Z M48,66 L48,60 L57,60 L57,54 L63,54 L63,63 C63,64.6568542 61.6568542,66 60,66 L48,66 Z M21,60 L30,60 L30,66 L21,66 L21,60 Z M36,60 L42,60 L42,66 L36,66 L36,60 Z M117,60 L123,60 L123,66 L117,66 L117,60 Z M93,60 L111,60 L111,66 L93,66 L93,60 Z M60,90 C60,88.3431458 61.3431458,87 63,87 L126,87 L126,93 L66,93 L66,120 L60,120 L60,90 Z M69,54 L75,54 L75,69 L69,69 L69,54 Z M54,72 C55.6568542,72 57,73.3431458 57,75 L57,84 L51,84 L51,78 L21,78 L21,72 L54,72 Z M69,75 L75,75 L75,81 L69,81 L69,75 Z" id="Combined-Shape" fill="url(#linearGradient-1)" fill-rule="nonzero"></path>
                        <path d="M24,54 L48,54 C49.6568542,54 51,52.6568542 51,51 L51,27 C51,25.3431458 49.6568542,24 48,24 L24,24 C22.3431458,24 21,25.3431458 21,27 L21,51 C21,52.6568542 22.3431458,54 24,54 Z M27,30 L45,30 L45,48 L27,48 L27,30 Z" id="Shape" fill="#FFFFFF" fill-rule="nonzero"></path>
                        <path d="M48,90 L24,90 C22.3431458,90 21,91.3431458 21,93 L21,117 C21,118.656854 22.3431458,120 24,120 L48,120 C49.6568542,120 51,118.656854 51,117 L51,93 C51,91.3431458 49.6568542,90 48,90 Z M45,114 L27,114 L27,96 L45,96 L45,114 Z" id="Shape" fill="#FFFFFF" fill-rule="nonzero"></path>
                        <path d="M96,54 L120,54 C121.656854,54 123,52.6568542 123,51 L123,27 C123,25.3431458 121.656854,24 120,24 L96,24 C94.3431458,24 93,25.3431458 93,27 L93,51 C93,52.6568542 94.3431458,54 96,54 Z M99,30 L117,30 L117,48 L99,48 L99,30 Z" id="Shape" fill="#FFFFFF" fill-rule="nonzero"></path>
                        <rect id="Rectangle" fill="#FFFFFF" x="33" y="36" width="6" height="6"></rect>
                        <rect id="Rectangle" fill="#FFFFFF" x="33" y="102" width="6" height="6"></rect>
                        <rect id="Rectangle" fill="#FFFFFF" x="105" y="36" width="6" height="6"></rect>
                    </g>
                </g>
            </g>
        </g>
    </g>
</svg>