<?xml version="1.0" encoding="UTF-8"?>
<svg width="96px" height="144px" viewBox="0 0 96 144" version="1.1" xmlns="http://www.w3.org/2000/svg" xmlns:xlink="http://www.w3.org/1999/xlink">
    <!-- Generator: Sketch 53 (72520) - https://sketchapp.com -->
    <title>icon</title>
    <desc>Created with Sketch.</desc>
    <defs>
        <linearGradient x1="50%" y1="0%" x2="50%" y2="100%" id="linearGradient-1">
            <stop stop-color="#EE6174" offset="0%"></stop>
            <stop stop-color="#F89948" offset="100%"></stop>
        </linearGradient>
    </defs>
    <g id="New-version" stroke="none" stroke-width="1" fill="none" fill-rule="evenodd">
        <g id="-g-Emporium_New_SignIn0_1" transform="translate(-1032.000000, -378.000000)">
            <g id="back" transform="translate(720.000000, 0.000000)">
                <g id="SignIn0_1" transform="translate(-278.000000, -127.000000)">
                    <g id="icon" transform="translate(590.000000, 505.000000)">
                        <path d="M96,24 C96,25.6568542 94.6568542,27 93,27 L18,27 C16.3431458,27 15,25.6568542 15,24 C15,22.3431458 16.3431458,21 18,21 L90,21 L90,15 C90,10.0294373 85.9705627,6 81,6 L15,6 C10.0294373,6 6,10.0294373 6,15 L6,129 C6,133.970563 10.0294373,138 15,138 L81,138 C85.9705627,138 90,133.970563 90,129 L90,39 C90,37.3431458 91.3431458,36 93,36 C94.6568542,36 96,37.3431458 96,39 L96,129 C95.9900817,137.280159 89.2801595,143.990082 81,144 L15,144 C6.71984055,143.990082 0.009918349,137.280159 0,129 L0,15 C0.009918349,6.71984055 6.71984055,0.009918349 15,0 L81,0 C89.2801595,0.009918349 95.9900817,6.71984055 96,15 L96,24 Z M15,120 C15,118.343146 16.3431458,117 18,117 L78,117 C79.6568542,117 81,118.343146 81,120 C81,121.656854 79.6568542,123 78,123 L18,123 C16.3431458,123 15,121.656854 15,120 Z M81,93 L81,108 C81,109.656854 79.6568542,111 78,111 C76.3431458,111 75,109.656854 75,108 L75,93 L21,93 L21,108 C21,109.656854 19.6568542,111 18,111 C16.3431458,111 15,109.656854 15,108 L15,93 C15,89.6862915 17.6862915,87 21,87 L75,87 C78.3137085,87 81,89.6862915 81,93 Z M42,105 L36,105 C34.3431458,105 33,103.656854 33,102 C33,100.343146 34.3431458,99 36,99 L42,99 C43.6568542,99 45,100.343146 45,102 C45,103.656854 43.6568542,105 42,105 Z M60,105 L54,105 C52.3431458,105 51,103.656854 51,102 C51,100.343146 52.3431458,99 54,99 L60,99 C61.6568542,99 63,100.343146 63,102 C63,103.656854 61.6568542,105 60,105 Z" id="Combined-Shape" fill="url(#linearGradient-1)" fill-rule="nonzero"></path>
                        <path d="M54,33 L42,33 C39.5921533,32.9295789 37.2618237,33.8551582 35.5584909,35.5584909 C33.8551582,37.2618237 32.9295789,39.5921533 33,42 L33,51 C26.372583,51 21,56.372583 21,63 L21,78 C21,79.6568542 22.3431458,81 24,81 C25.6568542,81 27,79.6568542 27,78 L27,63 C27,59.6862915 29.6862915,57 33,57 L36,57 C37.6568542,57 39,55.6568542 39,54 L39,42.036 C38.9115241,41.2132842 39.1976577,40.3943876 39.7792599,39.8058062 C40.3608621,39.2172248 41.1762874,38.9213438 42,39 L53.964,39 C54.7864494,38.9126615 55.6046621,39.1991681 56.1929691,39.7804992 C56.7812762,40.3618303 57.0775221,41.1765673 57,42 L57,51 L48,51 C46.3431458,51 45,52.3431458 45,54 C45,55.6568542 46.3431458,57 48,57 L63,57 C66.3137085,57 69,59.6862915 69,63 L69,78 C69,79.6568542 70.3431458,81 72,81 C73.6568542,81 75,79.6568542 75,78 L75,63 C75,56.372583 69.627417,51 63,51 L63,42 C63.0704211,39.5921533 62.1448418,37.2618237 60.4415091,35.5584909 C58.7381763,33.8551582 56.4078467,32.9295789 54,33 L54,33 Z" id="Path" fill="#FFFFFF"></path>
                        <path d="M48,81 C49.6568542,81 51,79.6568542 51,78 L51,72 L54,72 C55.6568542,72 57,70.6568542 57,69 C57,67.3431458 55.6568542,66 54,66 L42,66 C40.3431458,66 39,67.3431458 39,69 C39,70.6568542 40.3431458,72 42,72 L45,72 L45,78 C45,79.6568542 46.3431458,81 48,81 Z" id="Path" fill="#FFFFFF"></path>
                    </g>
                </g>
            </g>
        </g>
    </g>
</svg>