<?xml version="1.0" encoding="UTF-8"?>
<svg width="34px" height="34px" viewBox="0 0 34 34" version="1.1" xmlns="http://www.w3.org/2000/svg" xmlns:xlink="http://www.w3.org/1999/xlink">
    <!-- Generator: Sketch 52.1 (67048) - http://www.bohemiancoding.com/sketch -->
    <title>Shape</title>
    <desc>Created with Sketch.</desc>
    <g id="✅-Майнинг-транзакций-Ethereum,-Ethereum-Classic-и-ERC20" stroke="none" stroke-width="1" fill="none" fill-rule="evenodd">
        <g id="mining-components" transform="translate(-155.000000, -52.000000)" fill="#50C0D8" fill-rule="nonzero">
            <path d="M171.5,72.4645556 C169.967154,72.2452992 168.754701,71.0328456 168.535444,69.5 L164.516402,69.5 C164.762818,73.2437541 167.756246,76.2371823 171.5,76.4835977 L171.5,72.4645556 Z M172.5,72.4645556 L172.5,76.4835977 C176.243754,76.2371823 179.237182,73.2437541 179.483598,69.5 L175.464556,69.5 C175.245299,71.0328456 174.032846,72.2452992 172.5,72.4645556 Z M171.5,77.4855382 C167.203752,77.2363261 163.763674,73.7962482 163.514462,69.5 L159.509817,69.5 C159.765745,76.0059098 164.99409,81.2342553 171.5,81.4901828 L171.5,77.4855382 Z M172.5,77.4855382 L172.5,81.4901828 C179.00591,81.2342553 184.234255,76.0059098 184.490183,69.5 L180.485538,69.5 C180.236326,73.7962482 176.796248,77.2363261 172.5,77.4855382 Z M172.5,82.4909123 L172.5,86 L171.5,86 L171.5,82.4909123 C164.441721,82.2339273 158.766073,76.5582794 158.509088,69.5 L155,69.5 L155,68.5 L158.509088,68.5 C158.766073,61.4417206 164.441721,55.7660727 171.5,55.5090877 L171.5,52 L172.5,52 L172.5,55.5090877 C179.558279,55.7660727 185.233927,61.4417206 185.490912,68.5 L189,68.5 L189,69.5 L185.490912,69.5 C185.233927,76.5582794 179.558279,82.2339273 172.5,82.4909123 Z M168.535444,68.5 C168.754701,66.9671544 169.967154,65.7547008 171.5,65.5354444 L171.5,61.5164023 C167.756246,61.7628177 164.762818,64.7562459 164.516402,68.5 L168.535444,68.5 Z M163.514462,68.5 C163.763674,64.2037518 167.203752,60.7636739 171.5,60.5144618 L171.5,56.5098172 C164.99409,56.7657447 159.765745,61.9940902 159.509817,68.5 L163.514462,68.5 Z M175.464556,68.5 L179.483598,68.5 C179.237182,64.7562459 176.243754,61.7628177 172.5,61.5164023 L172.5,65.5354444 C174.032846,65.7547008 175.245299,66.9671544 175.464556,68.5 Z M180.485538,68.5 L184.490183,68.5 C184.234255,61.9940902 179.00591,56.7657447 172.5,56.5098172 L172.5,60.5144618 C176.796248,60.7636739 180.236326,64.2037518 180.485538,68.5 Z M172,71.5 C173.380712,71.5 174.5,70.3807119 174.5,69 C174.5,67.6192881 173.380712,66.5 172,66.5 C170.619288,66.5 169.5,67.6192881 169.5,69 C169.5,70.3807119 170.619288,71.5 172,71.5 Z" id="Shape"></path>
        </g>
    </g>
</svg>