<?xml version="1.0" encoding="UTF-8"?>
<svg width="40px" height="40px" viewBox="0 0 40 40" version="1.1" xmlns="http://www.w3.org/2000/svg" xmlns:xlink="http://www.w3.org/1999/xlink">
    <!-- Generator: Sketch 52.1 (67048) - http://www.bohemiancoding.com/sketch -->
    <title>Group 2</title>
    <desc>Created with Sketch.</desc>
    <g id="✅-Майнинг-транзакций-Ethereum,-Ethereum-Classic-и-ERC20" stroke="none" stroke-width="1" fill="none" fill-rule="evenodd">
        <g id="mining-components" transform="translate(-263.000000, -49.000000)">
            <g id="Group-2" transform="translate(263.000000, 49.000000)">
                <rect id="Rectangle-49" fill="#3F4953" x="0" y="0" width="40" height="40"></rect>
                <path d="M4.5,5.5 C5.05228475,5.5 5.5,5.05228475 5.5,4.5 C5.5,3.94771525 5.05228475,3.5 4.5,3.5 C3.94771525,3.5 3.5,3.94771525 3.5,4.5 C3.5,5.05228475 3.94771525,5.5 4.5,5.5 Z" id="Oval" fill="#8B9197" fill-rule="nonzero"></path>
                <path d="M4.5,36.5 C5.05228475,36.5 5.5,36.0522847 5.5,35.5 C5.5,34.9477153 5.05228475,34.5 4.5,34.5 C3.94771525,34.5 3.5,34.9477153 3.5,35.5 C3.5,36.0522847 3.94771525,36.5 4.5,36.5 Z" id="Oval-Copy-3" fill="#8B9197" fill-rule="nonzero"></path>
                <path d="M35.5,5.5 C36.0522847,5.5 36.5,5.05228475 36.5,4.5 C36.5,3.94771525 36.0522847,3.5 35.5,3.5 C34.9477153,3.5 34.5,3.94771525 34.5,4.5 C34.5,5.05228475 34.9477153,5.5 35.5,5.5 Z" id="Oval-Copy-2" fill="#8B9197" fill-rule="nonzero"></path>
                <path d="M35.5,36.5 C36.0522847,36.5 36.5,36.0522847 36.5,35.5 C36.5,34.9477153 36.0522847,34.5 35.5,34.5 C34.9477153,34.5 34.5,34.9477153 34.5,35.5 C34.5,36.0522847 34.9477153,36.5 35.5,36.5 Z" id="Oval-Copy-4" fill="#8B9197" fill-rule="nonzero"></path>
            </g>
        </g>
    </g>
</svg>