<?xml version="1.0" encoding="UTF-8"?>
<svg width="34px" height="34px" viewBox="0 0 34 34" version="1.1" xmlns="http://www.w3.org/2000/svg" xmlns:xlink="http://www.w3.org/1999/xlink">
    <!-- Generator: Sketch 52.1 (67048) - http://www.bohemiancoding.com/sketch -->
    <title>Group</title>
    <desc>Created with Sketch.</desc>
    <g id="✅-Майнинг-транзакций-Ethereum,-Ethereum-Classic-и-ERC20" stroke="none" stroke-width="1" fill="none" fill-rule="evenodd">
        <g id="mining-components" transform="translate(-209.000000, -52.000000)">
            <g id="Group" transform="translate(209.000000, 52.000000)">
                <circle id="Oval" fill="#DFE0E6" cx="17" cy="17" r="17"></circle>
                <path d="M19.9334836,18.2842544 C19.515575,19.2379806 18.6460094,19.9486717 17.5953192,20.1462992 C17.731734,22.2465908 18.5890476,26.3066853 23.2031038,26.0060829 C23.2031038,26.0060829 22.1195588,29.4122409 17.5469784,28.9610196 C15.1580338,28.7238583 12.8577265,24.6248742 15.7171015,19.9343297 C14.7632781,19.5168457 14.0517071,18.6479653 13.8535819,17.5976228 C11.753258,17.7337531 7.69479645,18.5907596 7.99459286,23.205646 C7.99459286,23.205646 4.58741165,22.1200546 5.04170248,17.5495205 C5.27613202,15.1605285 9.37579061,12.8585508 14.0658712,15.7178348 C14.4837425,14.7647503 15.3527609,14.0543929 16.40217,13.856262 C16.2664887,11.7566139 15.4104807,7.69545113 10.7940066,7.99611185 C10.7940066,7.99611185 11.879598,4.58995382 16.450132,5.04117512 C18.8390471,5.27833355 21.1409534,9.37721926 18.2820941,14.0676913 C19.2362241,14.4851076 19.9475795,15.3540824 20.1456105,16.4045696 C22.2459447,16.2684319 26.3043586,15.411409 26.0045639,10.7965488 C26.0045639,10.7965488 29.4117451,11.8821401 28.9584774,16.4526742 C28.7213158,18.8416219 24.6231345,21.1427453 19.9334836,18.2842544 Z" id="Combined-Shape" fill="#3F4953"></path>
            </g>
        </g>
    </g>
</svg>