<?xml version="1.0" encoding="UTF-8"?>
<svg width="15px" height="18px" viewBox="0 0 15 18" version="1.1" xmlns="http://www.w3.org/2000/svg" xmlns:xlink="http://www.w3.org/1999/xlink">
    <!-- Generator: Sketch 52.1 (67048) - http://www.bohemiancoding.com/sketch -->
    <title>copy</title>
    <desc>Created with Sketch.</desc>
    <g id="New-version" stroke="none" stroke-width="1" fill="none" fill-rule="evenodd">
        <g id="-g-Emporium_Wallet_Qiwi05" transform="translate(-1025.000000, -427.000000)" fill="#FFFFFF" fill-rule="nonzero">
            <g id="Content" transform="translate(100.000000, 0.000000)">
                <g id="01" transform="translate(40.000000, 264.000000)">
                    <g transform="translate(345.000000, 125.000000)" id="copy">
                        <g transform="translate(540.000000, 38.000000)">
                            <path d="M2,5 L2,16 L10,16 L10,5 L2,5 Z M2,3 L10,3 C11.1045695,3 12,3.79008574 12,4.76470588 L12,16.2352941 C12,17.2099143 11.1045695,18 10,18 L2,18 C0.8954305,18 0,17.2099143 0,16.2352941 L0,4.76470588 C0,3.79008574 0.8954305,3 2,3 Z" id="Rectangle-56"></path>
                            <path d="M13,15 L13,13 L13,2 L5,2 L3,2 L3,1.76470588 C3,0.790085736 3.8954305,0 5,0 L13,0 C14.1045695,0 15,0.790085736 15,1.76470588 L15,13.2352941 C15,14.2099143 14.1045695,15 13,15 Z" id="Combined-Shape"></path>
                        </g>
                    </g>
                </g>
            </g>
        </g>
    </g>
</svg>