<?xml version="1.0" encoding="UTF-8"?>
<svg width="60px" height="56px" viewBox="0 0 60 56" version="1.1" xmlns="http://www.w3.org/2000/svg" xmlns:xlink="http://www.w3.org/1999/xlink">
    <!-- Generator: Sketch 53 (72520) - https://sketchapp.com -->
    <title>Group 2</title>
    <desc>Created with Sketch.</desc>
    <g id="New-version" stroke="none" stroke-width="1" fill="none" fill-rule="evenodd">
        <g id="-g-Emporium_New_SignIn04" transform="translate(-330.000000, -403.000000)">
            <g id="Popup" transform="translate(130.000000, 160.000000)">
                <g id="icon" transform="translate(180.000000, 222.000000)">
                    <g id="Group-2" transform="translate(19.999978, 21.103278)">
                        <path d="M11.0000219,12.1967194 L11.0000219,14.6380308 L2.85309564,20.3408812 C2.3184428,20.7151384 2.00002101,21.3267166 2.00002061,21.9793438 L2,51.8967758 C2,53.0013453 2.8954305,53.8967758 3.99999991,53.8967758 L56.0000219,53.8967734 C57.1045914,53.8967734 58.0000219,53.0013429 58.0000219,51.8967734 L58.0000219,21.9793449 C58.0000219,21.3267172 57.6815998,20.7151382 57.1469463,20.3408808 L49.0000219,14.6380358 L49.0000219,12.196725 L58.2938707,18.7024168 C59.3631777,19.4509315 60.0000219,20.6740894 60.0000219,21.9793449 L60.0000219,51.8967734 C60.0000219,54.1059124 58.2091609,55.8967734 56.0000219,55.8967734 L4,55.8967758 C1.790861,55.8967758 -2.13162821e-13,54.1059148 -2.13162821e-13,51.8967758 L2.06108235e-05,21.9793425 C2.14039957e-05,20.6740884 0.636864992,19.4509318 1.70617067,18.7024176 L11.0000219,12.1967194 Z M18.5714437,6.89672219 L27.1326996,0.903840889 C28.8543001,-0.301279936 31.145722,-0.301280329 32.867323,0.903839906 L41.4285865,6.89672219 L37.9409984,6.89672219 L31.7203986,2.54230394 C30.687438,1.8192318 29.3125849,1.81923204 28.2796245,2.54230453 L22.0590301,6.89672219 L18.5714437,6.89672219 Z" id="Combined-Shape" fill="#FFFFFF" fill-rule="nonzero"></path>
                        <path d="M13.0000219,8.89672219 L13.0000219,27.8967222 L47.0000219,27.8967222 L47.0000219,8.89672219 L13.0000219,8.89672219 Z M11.0000219,6.89672219 L49.0000219,6.89672219 L49.0000219,27.8967222 L11.0000219,27.8967222 L11.0000219,6.89672219 Z" id="Combined-Shape" fill="#FFFFFF" fill-rule="nonzero"></path>
                        <polyline id="Path-2" stroke="#FFFFFF" stroke-width="2" points="1.00002188 20.8967222 30.0000219 39.8967222 59.0000219 20.8967222"></polyline>
                        <rect id="Rectangle-7" fill="#FFFFFF" x="22.0000219" y="14.8967222" width="16" height="2"></rect>
                        <rect id="Rectangle-7" fill="#FFFFFF" x="22.0000219" y="19.8967222" width="16" height="2"></rect>
                        <rect id="Rectangle-7" fill="#FFFFFF" x="22.0000219" y="24.8967222" width="16" height="2"></rect>
                        <rect id="Rectangle-7" fill="#FFFFFF" x="24.0000219" y="29.8967222" width="12" height="2"></rect>
                    </g>
                </g>
            </g>
        </g>
    </g>
</svg>