<?xml version="1.0" encoding="UTF-8"?>
<svg width="144px" height="144px" viewBox="0 0 144 144" version="1.1" xmlns="http://www.w3.org/2000/svg" xmlns:xlink="http://www.w3.org/1999/xlink">
    <!-- Generator: Sketch 53 (72520) - https://sketchapp.com -->
    <title>icon</title>
    <desc>Created with Sketch.</desc>
    <defs>
        <linearGradient x1="50%" y1="0%" x2="50%" y2="100%" id="linearGradient-1">
            <stop stop-color="#EE6174" offset="0%"></stop>
            <stop stop-color="#F89948" offset="100%"></stop>
        </linearGradient>
    </defs>
    <g id="New-version" stroke="none" stroke-width="1" fill="none" fill-rule="evenodd">
        <g id="-g-Emporium_New_SignIn04" transform="translate(-1008.000000, -378.000000)">
            <g id="back" transform="translate(720.000000, 0.000000)">
                <g id="SignIn04" transform="translate(-279.000000, -127.000000)">
                    <g id="icon" transform="translate(567.000000, 504.000000)">
                        <path d="M143.118,43.882 L143.118,43.882 L126,26.758 L126,7 C126.033883,5.39855423 125.412628,3.85266508 124.279982,2.7200185 C123.147335,1.58737191 121.601446,0.966117372 120,1 L24,1 C22.3985542,0.966117372 20.8526651,1.58737191 19.7200185,2.7200185 C18.5873719,3.85266508 17.9661174,5.39855423 18,7 L18,26.758 L0.879,43.879 L0.879,43.879 C0.316351876,44.4414782 0.000169912216,45.2044156 0,46 L0,130 C0.009918349,138.280159 6.71984055,144.990082 15,145 L129,145 C137.280159,144.990082 143.990082,138.280159 144,130 L144,46 C143.99824,45.2050249 143.681014,44.4432519 143.118,43.882 Z M21,46 C22.6568542,46 24,44.6568542 24,43 L24,7 L120,7 L120,43 C120,44.6568542 121.343146,46 123,46 C124.656854,46 126,44.6568542 126,43 L126,35.242 L136.266,45.508 L72,87.418 L7.734,45.508 L18,35.242 L18,43 C18,44.6568542 19.3431458,46 21,46 Z M138,130 C138,134.970563 133.970563,139 129,139 L15,139 C10.0294373,139 6,134.970563 6,130 L6,51.538 L56.37,84.4 L24.87,115.9 C24.0901302,116.653223 23.7773622,117.768634 24.0519085,118.817522 C24.3264549,119.86641 25.1455897,120.685545 26.194478,120.960091 C27.2433663,121.234638 28.3587766,120.92187 29.112,120.142 L61.5,87.739 L70.356,93.514 C71.351613,94.1628593 72.636387,94.1628593 73.632,93.514 L82.5,87.739 L114.879,120.121 C116.056137,121.257917 117.927254,121.241657 119.084456,120.084456 C120.241657,118.927254 120.257917,117.056137 119.121,115.879 L87.63,84.4 L138,51.538 L138,130 Z" id="Shape" fill="url(#linearGradient-1)" fill-rule="nonzero"></path>
                        <path d="M39,22 L105,22 C106.656854,22 108,20.6568542 108,19 C108,17.3431458 106.656854,16 105,16 L39,16 C37.3431458,16 36,17.3431458 36,19 C36,20.6568542 37.3431458,22 39,22 Z" id="Path" fill="#FFFFFF"></path>
                        <path d="M39,37 L105,37 C106.656854,37 108,35.6568542 108,34 C108,32.3431458 106.656854,31 105,31 L39,31 C37.3431458,31 36,32.3431458 36,34 C36,35.6568542 37.3431458,37 39,37 Z" id="Path" fill="#FFFFFF"></path>
                        <path d="M105,46 L99,46 C97.3431458,46 96,47.3431458 96,49 C96,50.6568542 97.3431458,52 99,52 L105,52 C106.656854,52 108,50.6568542 108,49 C108,47.3431458 106.656854,46 105,46 Z" id="Path" fill="#FFFFFF"></path>
                        <path d="M87,46 L81,46 C79.3431458,46 78,47.3431458 78,49 C78,50.6568542 79.3431458,52 81,52 L87,52 C88.6568542,52 90,50.6568542 90,49 C90,47.3431458 88.6568542,46 87,46 Z" id="Path" fill="#FFFFFF"></path>
                    </g>
                </g>
            </g>
        </g>
    </g>
</svg>