<?xml version="1.0" encoding="UTF-8"?>
<svg width="40px" height="40px" viewBox="0 0 40 40" version="1.1" xmlns="http://www.w3.org/2000/svg" xmlns:xlink="http://www.w3.org/1999/xlink">
    <!-- Generator: Sketch 52.1 (67048) - http://www.bohemiancoding.com/sketch -->
    <title>Error@2x</title>
    <desc>Created with Sketch.</desc>
    <g id="New-version" stroke="none" stroke-width="1" fill="none" fill-rule="evenodd">
        <g id="-g-Emporium_Elements001" transform="translate(-950.000000, -309.000000)" fill="#D0021B" fill-rule="nonzero">
            <g id="Notifications" transform="translate(925.000000, 263.000000)">
                <g id="Error" transform="translate(25.000000, 46.000000)">
                    <path d="M19.9999078,18.5857756 L25.2927035,13.2928986 L26.7069279,14.7071014 L21.4141105,20 L26.7069279,25.2928986 L25.2927035,26.7071014 L19.9999078,21.4142244 L14.7071122,26.7071014 L13.2928878,25.2928986 L18.5857051,20 L13.2928878,14.7071014 L14.7071122,13.2928986 L19.9999078,18.5857756 Z M20,38 C29.9411255,38 38,29.9411255 38,20 C38,10.0588745 29.9411255,2 20,2 C10.0588745,2 2,10.0588745 2,20 C2,29.9411255 10.0588745,38 20,38 Z M20,40 C8.954305,40 0,31.045695 0,20 C0,8.954305 8.954305,0 20,0 C31.045695,0 40,8.954305 40,20 C40,31.045695 31.045695,40 20,40 Z" id="Combined-Shape"></path>
                </g>
            </g>
        </g>
    </g>
</svg>