<svg xmlns="http://www.w3.org/2000/svg" width="24" height="25" viewBox="0 0 24 25">
    <defs>
        <linearGradient id="a" x1="50%" x2="50%" y1="0%" y2="100%">
            <stop offset="0%" stop-color="#EE6174"/>
            <stop offset="100%" stop-color="#F89948"/>
        </linearGradient>
    </defs>
    <path fill="url(#a)" fill-rule="nonzero" d="M13.417 22l1.293 1.293a1 1 0 0 1-1.414 1.414l-3-3a1 1 0 0 1 0-1.414l3-3a1 1 0 1 1 1.414 1.414L13.417 20h5.586a3 3 0 0 0 3-3V8a3 3 0 0 0-3-3h-1.995a1 1 0 0 1 0-2h1.995a5 5 0 0 1 5 5v9a5 5 0 0 1-5 5h-5.586zM10.59 3L9.296 1.707A1 1 0 1 1 10.71.293l3 3a1 1 0 0 1 0 1.414l-3 3a1 1 0 1 1-1.414-1.414L10.589 5H5a3 3 0 0 0-3 3v9a3 3 0 0 0 3 3h2.003a1 1 0 0 1 0 2H5a5 5 0 0 1-5-5V8a5 5 0 0 1 5-5h5.589z"/>
</svg>
