<?xml version="1.0" encoding="UTF-8"?>
<svg width="20px" height="14px" viewBox="0 0 20 14" version="1.1" xmlns="http://www.w3.org/2000/svg" xmlns:xlink="http://www.w3.org/1999/xlink">
    <!-- Generator: Sketch 52.1 (67048) - http://www.bohemiancoding.com/sketch -->
    <title>eye-white</title>
    <desc>Created with Sketch.</desc>
    <g id="✅-Сделки" stroke="none" stroke-width="1" fill="none" fill-rule="evenodd">
        <g id="deals-preview" transform="translate(-140.000000, -94.000000)" fill="#FFFFFF" fill-rule="nonzero">
            <g id="04" transform="translate(100.000000, 61.000000)">
                <g id="Group-4" transform="translate(40.000000, 19.000000)">
                    <path d="M10,28 C6.66666667,28 3.33333333,25.6666667 0,21 C3.33333333,16.3333333 6.66666667,14 10,14 C13.3333333,14 16.6666667,16.3333333 20,21 C16.6666667,25.6666667 13.3333333,28 10,28 Z M10,16 C7.68524567,16 5.16861413,17.6038026 2.49760861,21 C5.16861413,24.3961974 7.68524567,26 10,26 C12.3147543,26 14.8313859,24.3961974 17.5023914,21 C14.8313859,17.6038026 12.3147543,16 10,16 Z M10,23 C8.8954305,23 8,22.1045695 8,21 C8,19.8954305 8.8954305,19 10,19 C11.1045695,19 12,19.8954305 12,21 C12,22.1045695 11.1045695,23 10,23 Z" id="eye-white"></path>
                </g>
            </g>
        </g>
    </g>
</svg>