<?xml version="1.0" encoding="UTF-8" standalone="no"?>
<svg
   xmlns:dc="http://purl.org/dc/elements/1.1/"
   xmlns:cc="http://creativecommons.org/ns#"
   xmlns:rdf="http://www.w3.org/1999/02/22-rdf-syntax-ns#"
   xmlns:svg="http://www.w3.org/2000/svg"
   xmlns="http://www.w3.org/2000/svg"
   xmlns:sodipodi="http://sodipodi.sourceforge.net/DTD/sodipodi-0.dtd"
   xmlns:inkscape="http://www.inkscape.org/namespaces/inkscape"
   width="231"
   height="182"
   viewBox="0 0 231 182"
   version="1.1"
   id="svg54"
   sodipodi:docname="faq-robot.1.svg"
   inkscape:version="0.92.5 (2060ec1f9f, 2020-04-08)">
  <metadata
     id="metadata60">
    <rdf:RDF>
      <cc:Work
         rdf:about="">
        <dc:format>image/svg+xml</dc:format>
        <dc:type
           rdf:resource="http://purl.org/dc/dcmitype/StillImage" />
      </cc:Work>
    </rdf:RDF>
  </metadata>
  <defs
     id="defs58" />
  <sodipodi:namedview
     pagecolor="#ffffff"
     bordercolor="#666666"
     borderopacity="1"
     objecttolerance="10"
     gridtolerance="10"
     guidetolerance="10"
     inkscape:pageopacity="0"
     inkscape:pageshadow="2"
     inkscape:window-width="640"
     inkscape:window-height="480"
     id="namedview56"
     showgrid="false"
     inkscape:zoom="1.2967033"
     inkscape:cx="115.5"
     inkscape:cy="91"
     inkscape:window-x="0"
     inkscape:window-y="0"
     inkscape:window-maximized="0"
     inkscape:current-layer="svg54" />
  <g
     fill="none"
     fill-rule="evenodd"
     id="g52">
    <path
       id="path2"
       d="M195.92 181.696l-22.49-32.387a7.373 7.373 0 0 0-6.063-3.177H37.884a7.392 7.392 0 0 1-5.28-2.142 7.457 7.457 0 0 1-2.208-5.273V31.44c0-4.11 3.317-7.441 7.409-7.441H188.59c1.965 0 3.85.784 5.239 2.18A7.458 7.458 0 0 1 196 31.44l-.08 150.255z"
       fill-rule="nonzero"
       fill="#f4f4f4" />
    <circle
       id="circle4"
       fill-rule="nonzero"
       fill="#999999"
       r="15"
       cy="137"
       cx="141" />
    <circle
       id="circle6"
       fill-rule="nonzero"
       fill="#999999"
       r="5"
       cy="24"
       cx="226" />
    <rect
       id="rect8"
       rx="1"
       fill="#999999"
       x="167"
       height="33"
       width="3" />
    <rect
       id="rect10"
       rx="1"
       fill="#999999"
       y="40"
       x="167"
       height="10"
       width="3" />
    <path
       id="path12"
       d="M169.298 98.462a.551.551 0 0 1 .233-1.041c5.535-.399 13.286-1.685 17.655-3.562 3.305-1.427 9.994-5.143 12.962-6.776a.561.561 0 0 1 .66.053.55.55 0 0 1 .144.642 3845.193 3845.193 0 0 0-5.976 14.374c-1.037 2.571-6.014 11.571-7.674 14.541a.558.558 0 0 1-.998 0l-3.888-8.537a.574.574 0 0 1 0-.54l4.575-6.994a.562.562 0 0 0-.059-.673.574.574 0 0 0-.667-.137l-7.544 3.716a.561.561 0 0 1-.531 0l-8.892-5.066z"
       fill-rule="nonzero"
       fill="#cecece" />
    <path
       id="path14"
       d="M8.007 161L0 146.007 8.007 131 16 146.007z"
       fill-rule="nonzero"
       fill="#ababab" />
    <path
       id="path16"
       d="M35.988 98c-2.303 1.315-4.248 2.578-5.988 3.506v35.703c0 4.855 3.907 8.791 8.726 8.791h18.757a72.102 72.102 0 0 0 5.425-15.854 92.339 92.339 0 0 0 .947-19.334L35.988 98z"
       fill-rule="nonzero"
       fill="#c6c6c6" />
    <circle
       id="circle18"
       fill-rule="nonzero"
       fill="#494949"
       r="10"
       cy="128"
       cx="40" />
    <path
       id="path20"
       d="M22.18 74l-4.08-1.73c-2.954-1.231-2.814-7.651.563-14.281 3.377-6.63 8.274-11.032 11.257-9.774l4.08 1.73L22.18 74z"
       fill-rule="nonzero"
       fill="#494949" />
    <path
       id="path22"
       d="M26.121 76l-4.129-1.754c-2.828-1.23-2.658-7.617.594-14.267 3.253-6.649 8.315-11.02 11.313-9.764L38 51.943 26.121 76z"
       fill-rule="nonzero"
       fill="#2d2d2d" />
    <path
       id="path24"
       d="M112.732 90l3.675 2.055c2.625 1.468 1.942 8.006-1.575 14.464-3.518 6.457-8.506 10.674-11.157 9.18L100 113.643 112.732 90z"
       fill-rule="nonzero"
       fill="#494949" />
    <path
       id="path26"
       d="M108.738 88l3.677 2.03c2.627 1.468 1.918 8.01-1.602 14.499-3.52 6.488-8.51 10.68-11.136 9.158L96 111.631 108.738 88z"
       fill-rule="nonzero"
       fill="#2d2d2d" />
    <path
       id="path28"
       d="M39.042 40.166C32.71 43.098 18.16 78.101 18 81.113c0 1.573 15.801 19.274 32.693 27.005 18.622 8.584 43.148 14.262 44.665 13.862 5.586-1.386 22.957-38.708 22.638-41.773-.187-1.813-22.053-21.327-35.86-27.565-17.663-7.997-40.46-13.702-43.094-12.476z"
       fill-rule="nonzero"
       fill="#dddddd" />
    <path
       id="path30"
       d="M43.19 53.985S30.594 78.924 30.014 80.053c-.58 1.128 16.47 15.278 23.19 18.821A291.486 291.486 0 0 0 84.615 112c.975 0 16.365-18.638 16.312-19.688-.053-1.05-18.025-18.376-28.46-24.23-4.928-2.809-27.09-14.438-29.277-14.097zM107.831 48L110 49.488 98.442 66.26l-2.171-1.486L107.83 48z"
       fill-rule="nonzero"
       fill="#2d2d2d" />
    <path
       id="path32"
       d="M114.492 47.961c-1.81 2.275-4.982 2.613-7.179.766-2.197-1.846-2.631-5.217-.983-7.629 1.733-2.332 5.952-4.208 8.187-2.332 2.236 1.877 1.708 6.836-.025 9.195zM100.88 69.487c-.779 1.18-2.99.188-5.45-1.582-2.462-1.769-3.944-4.074-3.265-5.146 1.912-1.925 4.835-2.127 6.964-.483 2.13 1.644 2.864 4.67 1.75 7.211z"
       fill-rule="nonzero"
       fill="#2d2d2d" />
    <path
       id="path34"
       d="M55.038 81.755c-2.478 5.12-6.88 7.68-11.336 5.632-4.947-2.265-7.079-7.984-4.772-12.799 2.478-5.247 8.067-7.909 12.523-5.938 4.455 1.971 6.037 7.858 3.585 13.105zm28.288 15.102c-2.293 4.915-9.754 6.425-15.159 4.019-2.433-1.023-4.304-3.003-5.144-5.445a8.828 8.828 0 0 1 .742-7.353c2.718-4.805 8.795-6.76 13.93-4.482 5.137 2.279 7.593 8.018 5.631 13.159v.102z"
       fill-rule="nonzero"
       fill="#ffffff" />
    <ellipse
       id="ellipse36"
       transform="rotate(-65.47 43.91 81.167)"
       ry="3.51"
       rx="4.251"
       fill-rule="nonzero"
       fill="#1e1e1e"
       cy="81.167"
       cx="43.91" />
    <ellipse
       id="ellipse38"
       transform="rotate(-58.59 68.242 94.653)"
       ry="3.51"
       rx="4.251"
       fill-rule="nonzero"
       fill="#1e1e1e"
       cy="94.653"
       cx="68.242" />
    <path
       id="path40"
       d="M64.151 122.292c1.766-1.15 5.414 1.338 5.832 3.21.418 1.871-7.11 6.498-7.11 6.498s-2.648-7.114 1.278-9.708z"
       fill-rule="nonzero"
       fill="#2d2d2d" />
    <path
       id="path42"
       d="M70.35 122.698c-1.418-.949-4.443-1.95-7.467 4.437-3.025 6.386 2.462 16.594 5.353 22.288-2.034 2.565-2.998 5.95-.99 6.823 1.418.615 2.676-.821 4.256-1.514 2.248 2.027 6.611 4.232 9.1 2.822 4.256-2.463-1.793-29.085-10.251-34.856z"
       fill-rule="nonzero"
       fill="#dddddd" />
    <path
       id="path44"
       d="M81.411 142.117a75.202 75.202 0 0 0-15.411.726c.375 1.073.883 2.21 1.258 3.157A81.285 81.285 0 0 1 82 145.495c-.187-1.042-.375-2.273-.589-3.378z"
       fill-rule="nonzero"
       fill="#494949" />
    <path
       id="path46"
       d="M63.613 34l2.387.76L62.387 48 60 47.243z"
       fill-rule="nonzero"
       fill="#2d2d2d" />
    <path
       id="path48"
       d="M67.784 35.382a3.81 3.81 0 0 1-4.679 1.713 3.754 3.754 0 0 1-2.348-4.361c.764-1.944 2.827-3.061 4.89-2.649a4.46 4.46 0 0 1 2.137 5.297zm-4.916 15.89c-.294.953-1.897.873-3.821.317-1.924-.556-3.26-1.668-3.019-2.648.709-1.748 2.665-2.651 4.471-2.064a3.57 3.57 0 0 1 2.369 4.289v.105z"
       fill-rule="nonzero"
       fill="#2d2d2d" />
    <path
       id="path50"
       style="mix-blend-mode:overlay;opacity:1"
       d="M74.605 155.499c-1.653-2.633-5.787-6.108-4.96-8.056.827-1.948-1.06-9.74-5.45-13.637a10.666 10.666 0 0 1-2.584-8.846c-.25.443-.474.9-.672 1.369-3.1 6.924 2.377 17.033 5.167 22.878-1.963 2.633-2.893 6.108-.956 7.003 1.37.632 2.583-.843 4.108-1.553A12.207 12.207 0 0 0 76 158a15.005 15.005 0 0 0-1.395-2.501zM61.973 45.585l1.033-3.502-1.757-1.237-1.188 4.107c-11.134-3.554-20.667-5.555-22.268-4.792-1.602.764-4.676 5.003-7.518 10.268l-1.524-.71c-2.713-1.265-7.311 3.132-10.333 9.819-3.023 6.687-3.23 13.163-.517 14.348l1.395.658a35.459 35.459 0 0 0-1.963 6.055c0 1.08 7.75 10.189 18.083 18.113-2.118 1.211-3.953 2.29-5.58 3.317v36.41c0 4.958 3.944 8.978 8.809 8.978h1.266a11.02 11.02 0 0 0 5.942-4.028c7.31-12.163-.956-20.64-.181-38.332 1.059-5.818 5.476-34.356 10.695-41.07 5.218-6.713 18.29-13.61 18.29-13.61l-.284-.211c-4.134-1.685-8.422-3.239-12.4-4.581z"
       fill-rule="nonzero"
       fill="#2e2e2e" />
  </g>
</svg>
