<svg xmlns="http://www.w3.org/2000/svg" width="20" height="26" viewBox="0 0 20 26">
    <defs>
        <linearGradient id="a" x1="50%" x2="50%" y1="0%" y2="100%">
            <stop offset="0%" stop-color="#EE6174"/>
            <stop offset="100%" stop-color="#F89948"/>
        </linearGradient>
    </defs>
    <path fill="url(#a)" fill-rule="evenodd" d="M586 39v-2.773a1 1 0 0 0-1-1h-1v3.228h-2v-3.228h-6v3.228h-2v-3.228h-1a1 1 0 0 0-1 1V49h9v2h-11V36.227a3 3 0 0 1 3-3h1c0-2.887 2.239-5.227 5-5.227s5 2.34 5 5.227h1a3 3 0 0 1 3 3V39h-2zm-10-5.773h6c0-1.732-1.343-3.136-3-3.136s-3 1.404-3 3.136zM587.333 40L586 45.833h4L584.667 54 586 48.167h-4L587.333 40z" transform="translate(-570 -28)"/>
</svg>
