<?xml version="1.0" encoding="UTF-8"?>
<svg width="18px" height="18px" viewBox="0 0 18 18" version="1.1" xmlns="http://www.w3.org/2000/svg" xmlns:xlink="http://www.w3.org/1999/xlink">
    <!-- Generator: sketchtool 53 (72520) - https://sketchapp.com -->
    <title>07070760-30E7-411D-BE89-DECC31BEE90C</title>
    <desc>Created with sketchtool.</desc>
    <g id="Forum-(...)" stroke="none" stroke-width="1" fill="none" fill-rule="evenodd">
        <g id="Forum-Components" transform="translate(-258.000000, -76.000000)" fill="#0766DF" fill-rule="nonzero">
            <path d="M266.298438,88 L273,88 C273.552285,88 274,87.5522847 274,87 L274,79 C274,78.4477153 273.552285,78 273,78 L261,78 C260.447715,78 260,78.4477153 260,79 L260,87 C260,87.5522847 260.447715,88 261,88 L264,88 L264,89.8387503 L266.298438,88 Z M261,90 C259.5,90 258,88.5 258,87 L258,79 C258,77.5 259.5,76 261,76 L273,76 C274.5,76 276,77.5 276,79 C276,80 276,82.6666667 276,87 C276,88.5 274.5,90 273,90 L267.701562,90 L262,94 L262,90 L261,90 Z" id="forum-icon"></path>
        </g>
    </g>
</svg>