<?xml version="1.0" encoding="UTF-8"?>
<svg width="48px" height="49px" viewBox="0 0 48 49" version="1.1" xmlns="http://www.w3.org/2000/svg" xmlns:xlink="http://www.w3.org/1999/xlink">
    <!-- Generator: Sketch 52.1 (67048) - http://www.bohemiancoding.com/sketch -->
    <title>generate</title>
    <desc>Created with Sketch.</desc>
    <defs>
        <linearGradient x1="50%" y1="0%" x2="50%" y2="100%" id="linearGradient-1">
            <stop stop-color="#EE6174" offset="0%"></stop>
            <stop stop-color="#F89948" offset="100%"></stop>
        </linearGradient>
    </defs>
    <g id="New-version" stroke="none" stroke-width="1" fill="none" fill-rule="evenodd">
        <g id="-g-Emporium_Wallet_New08" transform="translate(-492.000000, -551.000000)" fill="url(#linearGradient-1)" fill-rule="nonzero">
            <g id="Content" transform="translate(100.000000, 0.000000)">
                <g id="Steps" transform="translate(40.000000, 190.000000)">
                    <g id="01" transform="translate(0.000000, 313.000000)">
                        <g transform="translate(322.000000, 18.000000)" id="generate">
                            <g transform="translate(30.000000, 30.000000)">
                                <path d="M37.435,44.092 C37.1698052,44.0919434 36.9154927,43.9865494 36.728,43.799 L32.862,39.934 L34.276,38.52 L37.435,41.678 L41.678,37.435 L38.52,34.276 C38.1900444,33.9462137 38.1319522,33.4320975 38.38,33.037 C39.4010657,31.4207039 40.1392945,29.642259 40.563,27.778 C40.6666983,27.3225456 41.0718899,26.9995547 41.539,27 L46,27 L46,21 L41.539,21 C41.0718899,21.0004453 40.6666983,20.6774544 40.563,20.222 C40.1392945,18.357741 39.4010657,16.5792961 38.38,14.963 C38.1319522,14.5679025 38.1900444,14.0537863 38.52,13.724 L41.678,10.565 L37.435,6.322 L34.276,9.48 C33.9462137,9.8099556 33.4320975,9.86804783 33.037,9.62 C31.4207039,8.59893433 29.642259,7.86070554 27.778,7.437 C27.3225456,7.33330172 26.9995547,6.9281101 27,6.461 L27,2 L21,2 L21,6.461 C21.0004453,6.9281101 20.6774544,7.33330172 20.222,7.437 C18.357741,7.86070554 16.5792961,8.59893433 14.963,9.62 C14.5679025,9.86804783 14.0537863,9.8099556 13.724,9.48 L10.565,6.322 L6.322,10.565 L9.48,13.724 C9.8099556,14.0537863 9.86804783,14.5679025 9.62,14.963 C8.59893433,16.5792961 7.86070554,18.357741 7.437,20.222 C7.33330172,20.6774544 6.9281101,21.0004453 6.461,21 L2,21 L2,27 L6.461,27 C6.9281101,26.9995547 7.33330172,27.3225456 7.437,27.778 C7.86070554,29.642259 8.59893433,31.4207039 9.62,33.037 C9.86804783,33.4320975 9.8099556,33.9462137 9.48,34.276 L6.322,37.435 L10.565,41.678 L13.724,38.52 L15.138,39.934 L11.272,43.8 C10.8815001,44.1903819 10.2484999,44.1903819 9.858,43.8 L4.2,38.142 C3.80961806,37.7515001 3.80961806,37.1184999 4.2,36.728 L7.513,33.415 C6.7171649,32.0271805 6.10153397,30.5435503 5.681,29 L1,29 C0.44771525,29 6.76353751e-17,28.5522847 0,28 L0,20 C-6.76353751e-17,19.4477153 0.44771525,19 1,19 L5.681,19 C6.10185038,17.4564019 6.71781816,15.9727697 7.514,14.585 L4.2,11.272 C3.80961806,10.8815001 3.80961806,10.2484999 4.2,9.858 L9.858,4.2 C10.2484999,3.80961806 10.8815001,3.80961806 11.272,4.2 L14.585,7.513 C15.9728195,6.7171649 17.4564497,6.10153397 19,5.681 L19,1 C19,0.44771525 19.4477153,1.01453063e-16 20,0 L28,0 C28.5522847,3.38176876e-17 29,0.44771525 29,1 L29,5.681 C30.5435981,6.10185038 32.0272303,6.71781816 33.415,7.514 L36.728,4.2 C37.1184999,3.80961806 37.7515001,3.80961806 38.142,4.2 L43.8,9.858 C44.1903819,10.2484999 44.1903819,10.8815001 43.8,11.272 L40.487,14.585 C41.2828351,15.9728195 41.898466,17.4564497 42.319,19 L47,19 C47.5522847,19 48,19.4477153 48,20 L48,28 C48,28.5522847 47.5522847,29 47,29 L42.319,29 C41.8981496,30.5435981 41.2821818,32.0272303 40.486,33.415 L43.8,36.728 C44.1903819,37.1184999 44.1903819,37.7515001 43.8,38.142 L38.142,43.8 C37.9543437,43.9871827 37.7000514,44.0922087 37.435,44.092 Z M16.0000043,25.0089654 C15.9960234,21.125587 18.7815079,17.8002102 22.6054292,17.1232541 C26.4293506,16.4462979 30.1871619,18.6133024 31.5166045,22.2620319 C32.8460472,25.9107613 31.3631092,29.9872731 28.0000043,31.9289654 L28.0000043,46.0089654 L31.0000043,46.0089654 L31.0000043,48.0089654 L17.0000043,48.0089654 L17.0000043,46.0089654 L20.0000043,46.0089654 L20.0000043,31.9289654 C17.5334714,30.4952358 16.0113121,27.8619003 16.0000043,25.0089654 Z M30.000901,25.0052384 C30.0032422,22.0316122 27.8271917,19.5048823 24.8861048,19.0661722 C21.9450179,18.6274622 19.1262992,20.4091424 18.2607202,23.2540029 C17.3951411,26.0988634 18.7438701,29.1485338 21.430901,30.4222384 C21.7781848,30.5876411 21.9998121,30.937579 22.000901,31.3222384 L22.000901,46.0052384 L26.000901,46.0052384 L26.000901,44.0052384 L24.000901,44.0052384 L24.000901,42.0052384 L26.000901,42.0052384 L26.000901,40.0052384 L24.000901,40.0052384 L24.000901,38.0052384 L26.000901,38.0052384 L26.000901,36.0052384 L24.000901,36.0052384 L24.000901,34.0052384 L26.000901,34.0052384 L26.000901,31.3202384 C26.0019899,30.935579 26.2236172,30.5856411 26.570901,30.4202384 C28.6581971,29.4225157 29.9908013,27.3187106 30.000901,25.0052384 Z M24,21 C26.209139,21 28,22.790861 28,25 C28,27.209139 26.209139,29 24,29 C21.790861,29 20,27.209139 20,25 C20,22.790861 21.790861,21 24,21 Z M24,27 C25.1045695,27 26,26.1045695 26,25 C26,23.8954305 25.1045695,23 24,23 C22.8954305,23 22,23.8954305 22,25 C22,26.1045695 22.8954305,27 24,27 Z" id="Combined-Shape"></path>
                            </g>
                        </g>
                    </g>
                </g>
            </g>
        </g>
    </g>
</svg>