<?xml version="1.0" encoding="UTF-8"?>
<svg width="135px" height="45px" viewBox="0 0 135 45" version="1.1" xmlns="http://www.w3.org/2000/svg" xmlns:xlink="http://www.w3.org/1999/xlink">
    <!-- Generator: sketchtool 53 (72520) - https://sketchapp.com -->
    <title>C5B55E31-D8A6-432B-AB3A-9883F06D7DFB</title>
    <desc>Created with sketchtool.</desc>
    <defs>
        <rect id="path-1" x="0" y="0.84" width="135" height="44.16"></rect>
        <path d="M19.256,11.278 L13.169,7.764 C13.169,7.764 2.079,1.36 1.427,0.984 C0.775,0.608 0.126,0.836 0.126,1.622 L0.126,29.244 C0.126,29.833 0.59,30.088 1.156,29.761 C1.723,29.433 13.169,22.825 13.169,22.825 L19.256,19.311 C19.256,19.311 24.421,16.329 25.107,15.933 C25.794,15.536 25.728,14.992 25.148,14.68 C24.569,14.368 19.256,11.278 19.256,11.278 L19.256,11.278 Z" id="path-3"></path>
        <linearGradient x1="49.9998541%" y1="0.000147098194%" x2="49.9998541%" y2="100.000147%" id="linearGradient-5">
            <stop stop-color="#257CB0" offset="0%"></stop>
            <stop stop-color="#4A93B5" offset="28.6%"></stop>
            <stop stop-color="#78BCBB" offset="76.7%"></stop>
            <stop stop-color="#89CFBD" offset="100%"></stop>
        </linearGradient>
        <path d="M19.256,11.278 L13.169,7.764 C13.169,7.764 2.079,1.36 1.427,0.984 C0.775,0.608 0.126,0.836 0.126,1.622 L0.126,29.244 C0.126,29.833 0.59,30.088 1.156,29.761 C1.723,29.433 13.169,22.825 13.169,22.825 L19.256,19.311 C19.256,19.311 24.421,16.329 25.107,15.933 C25.794,15.536 25.728,14.992 25.148,14.68 C24.569,14.368 19.256,11.278 19.256,11.278 L19.256,11.278 Z" id="path-6"></path>
        <linearGradient x1="0.00126473415%" y1="49.9985397%" x2="100.001265%" y2="49.9985397%" id="linearGradient-8">
            <stop stop-color="#52C1AD" offset="0%"></stop>
            <stop stop-color="#DEE89A" offset="100%"></stop>
        </linearGradient>
        <path d="M19.256,11.278 L13.169,7.764 C13.169,7.764 2.079,1.36 1.427,0.984 C0.775,0.608 0.126,0.836 0.126,1.622 L0.126,29.244 C0.126,29.833 0.59,30.088 1.156,29.761 C1.723,29.433 13.169,22.825 13.169,22.825 L19.256,19.311 C19.256,19.311 24.421,16.329 25.107,15.933 C25.794,15.536 25.728,14.992 25.148,14.68 C24.569,14.368 19.256,11.278 19.256,11.278 L19.256,11.278 Z" id="path-9"></path>
        <linearGradient x1="49.999885%" y1="0.00029205545%" x2="49.999885%" y2="99.9936528%" id="linearGradient-11">
            <stop stop-color="#EC413D" offset="0%"></stop>
            <stop stop-color="#DA4452" offset="16.7%"></stop>
            <stop stop-color="#B0487A" offset="57.5%"></stop>
            <stop stop-color="#954A92" offset="86.2%"></stop>
            <stop stop-color="#8A4A9D" offset="100%"></stop>
        </linearGradient>
        <path d="M19.256,11.278 L13.169,7.764 C13.169,7.764 2.079,1.36 1.427,0.984 C0.775,0.608 0.126,0.836 0.126,1.622 L0.126,29.244 C0.126,29.833 0.59,30.088 1.156,29.761 C1.723,29.433 13.169,22.825 13.169,22.825 L19.256,19.311 C19.256,19.311 24.421,16.329 25.107,15.933 C25.794,15.536 25.728,14.992 25.148,14.68 C24.569,14.368 19.256,11.278 19.256,11.278 L19.256,11.278 Z" id="path-12"></path>
        <linearGradient x1="50.0010991%" y1="0.000547669119%" x2="50.0010991%" y2="99.9972617%" id="linearGradient-14">
            <stop stop-color="#F58879" offset="0%"></stop>
            <stop stop-color="#F69079" offset="11.9%"></stop>
            <stop stop-color="#FCB877" offset="71.3%"></stop>
            <stop stop-color="#FEC874" offset="100%"></stop>
        </linearGradient>
    </defs>
    <g id="2FA-(...)" stroke="none" stroke-width="1" fill="none" fill-rule="evenodd">
        <g id="2FA-popup-2" transform="translate(-513.000000, -610.000000)">
            <g id="gplay" transform="translate(513.000000, 610.000000)">
                <mask id="mask-2" fill="white">
                    <use xlink:href="#path-1"></use>
                </mask>
                <g id="Rectangle"></g>
                <g id="Group" mask="url(#mask-2)">
                    <path d="M135,39.032 C135,42.327 132.329,45 129.034,45 L5.968,45 C2.672,45 0,42.328 0,39.032 L0,6.808 C0,3.512 2.672,0.84 5.968,0.84 L129.033,0.84 C132.328,0.84 135,3.512 135,6.808 L135,39.032 L135,39.032 Z" id="Path" fill="#000000" fill-rule="nonzero"></path>
                    <g id="Clipped" transform="translate(10.000000, 9.000000)">
                        <mask id="mask-4" fill="white">
                            <use xlink:href="#path-3"></use>
                        </mask>
                        <g id="Path"></g>
                        <polygon id="Path" fill="url(#linearGradient-5)" fill-rule="nonzero" mask="url(#mask-4)" points="0.126 0.342 0.126 30.247 15.206 15.294"></polygon>
                    </g>
                    <g id="Clipped" transform="translate(10.000000, 9.000000)">
                        <mask id="mask-7" fill="white">
                            <use xlink:href="#path-6"></use>
                        </mask>
                        <g id="Path"></g>
                        <polygon id="Path" fill="url(#linearGradient-8)" fill-rule="nonzero" mask="url(#mask-7)" points="19.256 11.278 13.169 7.764 0.126 0.233 0.126 0.342 15.206 15.294"></polygon>
                    </g>
                    <g id="Clipped" transform="translate(10.000000, 9.000000)">
                        <mask id="mask-10" fill="white">
                            <use xlink:href="#path-9"></use>
                        </mask>
                        <g id="Path"></g>
                        <polygon id="Path" fill="url(#linearGradient-11)" fill-rule="nonzero" mask="url(#mask-10)" points="0.126 30.247 0.126 30.356 13.169 22.825 19.256 19.31 15.206 15.294"></polygon>
                    </g>
                    <g id="Clipped" transform="translate(10.000000, 9.000000)">
                        <mask id="mask-13" fill="white">
                            <use xlink:href="#path-12"></use>
                        </mask>
                        <g id="Path"></g>
                        <polygon id="Path" fill="url(#linearGradient-14)" fill-rule="nonzero" mask="url(#mask-13)" points="19.256 11.278 15.206 15.294 19.256 19.31 26.213 15.294"></polygon>
                    </g>
                    <path d="M105.063,30.14 C104.497,30.14 103.98,30.036 103.512,29.827 C103.044,29.618 102.651,29.296 102.333,28.863 L102.238,28.863 C102.302,29.371 102.333,29.852 102.333,30.307 L102.333,33.886 L101.017,33.886 L101.017,21.284 L102.088,21.284 L102.27,22.475 L102.333,22.475 C102.672,21.998 103.067,21.655 103.516,21.443 C103.966,21.232 104.482,21.126 105.063,21.126 C106.217,21.126 107.107,21.52 107.733,22.308 C108.36,23.096 108.674,24.202 108.674,25.625 C108.674,27.053 108.355,28.163 107.718,28.954 C107.081,29.745 106.196,30.14 105.063,30.14 L105.063,30.14 Z M104.873,22.245 C103.984,22.245 103.341,22.491 102.945,22.983 C102.548,23.475 102.344,24.258 102.333,25.332 L102.333,25.625 C102.333,26.847 102.537,27.721 102.945,28.248 C103.352,28.775 104.006,29.037 104.904,29.037 C105.656,29.037 106.245,28.733 106.671,28.125 C107.096,27.517 107.309,26.678 107.309,25.609 C107.309,24.525 107.096,23.693 106.671,23.114 C106.245,22.534 105.645,22.245 104.873,22.245 L104.873,22.245 Z M111.724,29.981 L110.407,29.981 L110.407,17.634 L111.724,17.634 L111.724,29.981 Z M119.297,29.981 L119.035,28.743 L118.972,28.743 C118.538,29.289 118.105,29.658 117.674,29.85 C117.243,30.044 116.705,30.14 116.06,30.14 C115.197,30.14 114.522,29.918 114.032,29.474 C113.542,29.03 113.298,28.398 113.298,27.577 C113.298,25.821 114.703,24.901 117.512,24.816 L118.988,24.768 L118.988,24.228 C118.988,23.546 118.841,23.042 118.547,22.717 C118.254,22.391 117.784,22.229 117.139,22.229 C116.414,22.229 115.594,22.451 114.679,22.895 L114.274,21.887 C114.703,21.655 115.172,21.472 115.683,21.34 C116.193,21.208 116.705,21.141 117.218,21.141 C118.255,21.141 119.023,21.371 119.524,21.832 C120.023,22.292 120.273,23.03 120.273,24.046 L120.273,29.981 L119.297,29.981 L119.297,29.981 L119.297,29.981 Z M116.321,29.053 C117.141,29.053 117.785,28.828 118.254,28.379 C118.721,27.929 118.956,27.3 118.956,26.49 L118.956,25.704 L117.638,25.76 C116.591,25.797 115.836,25.959 115.373,26.248 C114.91,26.537 114.678,26.985 114.678,27.593 C114.678,28.069 114.822,28.432 115.111,28.68 C115.4,28.929 115.803,29.053 116.321,29.053 Z M121.038,21.284 L122.45,21.284 L124.355,26.244 C124.772,27.376 125.032,28.194 125.133,28.696 L125.196,28.696 C125.265,28.426 125.409,27.965 125.628,27.311 C125.848,26.657 126.566,24.649 127.783,21.284 L129.196,21.284 L125.458,31.188 C125.088,32.166 124.655,32.861 124.16,33.272 C123.666,33.681 123.058,33.886 122.34,33.886 C121.937,33.886 121.541,33.841 121.149,33.751 L121.149,32.696 C121.44,32.759 121.765,32.791 122.125,32.791 C123.03,32.791 123.675,32.283 124.061,31.267 L124.545,30.03 L121.038,21.284 L121.038,21.284 Z M80.662,22.093 C81.08,22.439 81.954,23.166 81.954,24.549 C81.954,25.894 81.189,26.532 80.425,27.132 C80.189,27.368 79.916,27.623 79.916,28.024 C79.916,28.423 80.189,28.642 80.389,28.806 L81.045,29.314 C81.845,29.987 82.572,30.606 82.572,31.862 C82.572,33.572 80.916,35.299 77.788,35.299 C75.15,35.299 73.877,34.044 73.877,32.697 C73.877,32.043 74.203,31.116 75.278,30.478 C76.405,29.787 77.934,29.697 78.752,29.641 C78.497,29.314 78.206,28.968 78.206,28.405 C78.206,28.096 78.298,27.914 78.388,27.695 C78.187,27.714 77.988,27.732 77.806,27.732 C75.878,27.732 74.787,26.295 74.787,24.876 C74.787,24.039 75.169,23.111 75.95,22.439 C76.988,21.584 78.224,21.438 79.208,21.438 L82.954,21.438 L81.79,22.093 L80.662,22.093 L80.662,22.093 L80.662,22.093 Z M79.37,30.17 C79.225,30.151 79.134,30.151 78.953,30.151 C78.789,30.151 77.805,30.188 77.042,30.443 C76.642,30.588 75.478,31.024 75.478,32.316 C75.478,33.607 76.733,34.536 78.68,34.536 C80.425,34.536 81.354,33.698 81.354,32.571 C81.354,31.641 80.753,31.152 79.37,30.17 Z M79.898,26.713 C80.316,26.294 80.352,25.713 80.352,25.385 C80.352,24.075 79.57,22.038 78.061,22.038 C77.587,22.038 77.078,22.274 76.787,22.638 C76.478,23.02 76.387,23.511 76.387,23.985 C76.387,25.203 77.096,27.223 78.661,27.223 C79.116,27.223 79.606,27.004 79.898,26.713 L79.898,26.713 Z M69.21,29.879 C66.323,29.879 64.779,27.626 64.779,25.592 C64.779,23.213 66.722,21.179 69.484,21.179 C72.152,21.179 73.823,23.267 73.823,25.465 C73.823,27.607 72.171,29.879 69.21,29.879 Z M71.48,28.408 C71.917,27.826 72.026,27.1 72.026,26.391 C72.026,24.792 71.263,21.742 69.011,21.742 C68.412,21.742 67.813,21.978 67.377,22.36 C66.668,22.995 66.541,23.795 66.541,24.576 C66.541,26.373 67.431,29.333 69.629,29.333 C70.337,29.333 71.063,28.988 71.48,28.408 L71.48,28.408 Z M59.367,29.879 C56.479,29.879 54.935,27.626 54.935,25.592 C54.935,23.213 56.878,21.179 59.639,21.179 C62.309,21.179 63.979,23.267 63.979,25.465 C63.98,27.607 62.327,29.879 59.367,29.879 Z M61.637,28.408 C62.073,27.826 62.182,27.1 62.182,26.391 C62.182,24.792 61.419,21.742 59.167,21.742 C58.568,21.742 57.968,21.978 57.533,22.36 C56.824,22.995 56.697,23.795 56.697,24.576 C56.697,26.373 57.587,29.333 59.785,29.333 C60.493,29.333 61.22,28.988 61.637,28.408 L61.637,28.408 Z M53.548,29.594 L50.936,30.196 C49.877,30.361 48.928,30.506 47.924,30.506 C42.884,30.506 40.967,26.799 40.967,23.896 C40.967,20.354 43.687,17.068 48.344,17.068 C49.33,17.068 50.279,17.214 51.137,17.452 C52.506,17.835 53.145,18.309 53.547,18.584 L52.031,20.026 L51.393,20.171 L51.849,19.441 C51.228,18.839 50.095,17.725 47.942,17.725 C45.056,17.725 42.883,19.917 42.883,23.112 C42.883,26.544 45.367,29.776 49.346,29.776 C50.516,29.776 51.118,29.539 51.666,29.319 L51.666,26.38 L48.909,26.526 L50.369,25.74 L54.24,25.74 L53.766,26.197 C53.637,26.307 53.62,26.344 53.583,26.488 C53.564,26.653 53.547,27.183 53.547,27.365 L53.547,29.594 L53.548,29.594 L53.548,29.594 Z" id="Shape" fill="#F9F9F9" fill-rule="nonzero"></path>
                    <path d="M86.433,29.068 C85.831,29.013 85.704,28.904 85.704,28.191 L85.704,17.857 C85.708,17.818 85.711,17.777 85.714,17.739 C85.788,17.1 85.97,16.991 86.537,16.662 L83.925,16.662 L82.555,17.319 L83.951,17.319 L83.951,17.327 L83.95,17.321 L83.95,28.593 C83.95,28.958 83.878,29.013 83.458,29.561 L86.69,29.561 L87.365,29.16 C87.055,29.122 86.744,29.104 86.433,29.068 L86.433,29.068 Z M93.863,29.236 C93.665,29.345 93.465,29.472 93.266,29.562 C92.667,29.834 92.051,29.907 91.506,29.907 C90.927,29.907 90.019,29.87 89.094,29.2 C87.807,28.292 87.245,26.733 87.245,25.373 C87.245,22.563 89.53,21.185 91.397,21.185 C92.05,21.185 92.722,21.348 93.266,21.693 C94.172,22.29 94.408,23.07 94.534,23.487 L90.274,25.211 L88.877,25.319 C89.33,27.622 90.889,28.963 92.612,28.963 C93.537,28.963 94.208,28.637 94.824,28.33 L93.863,29.236 L93.863,29.236 Z M92.159,23.831 C92.503,23.705 92.685,23.596 92.685,23.342 C92.685,22.617 91.869,21.783 90.889,21.783 C90.163,21.783 88.804,22.345 88.804,24.303 C88.804,24.611 88.84,24.938 88.859,25.265 L92.159,23.831 L92.159,23.831 Z M95.614,21.309 L95.614,22.505 L95.468,22.505 L95.468,21.309 L95.072,21.309 L95.072,21.185 L96.009,21.185 L96.009,21.309 L95.614,21.309 L95.614,21.309 Z M97.245,22.505 L97.245,21.298 L97.238,21.298 L96.87,22.505 L96.756,22.505 L96.384,21.298 L96.379,21.298 L96.379,22.505 L96.248,22.505 L96.248,21.185 L96.474,21.185 L96.81,22.252 L96.815,22.252 L97.146,21.185 L97.375,21.185 L97.375,22.505 L97.245,22.505 L97.245,22.505 Z" id="Shape" fill="#F9F9F9" fill-rule="nonzero"></path>
                    <path d="M44.594,13.513 L43.686,13.513 C43.686,13.388 43.6,13.035 43.428,12.453 L42.118,12.453 C41.941,13.025 41.852,13.379 41.852,13.513 L40.998,13.513 C40.998,13.439 41.219,12.834 41.66,11.698 C42.102,10.562 42.322,9.937 42.322,9.822 L43.394,9.822 C43.394,9.929 43.594,10.546 43.994,11.672 C44.394,12.797 44.594,13.411 44.594,13.513 L44.594,13.513 Z M43.284,11.911 C42.96,10.936 42.799,10.408 42.799,10.329 L42.754,10.329 C42.754,10.402 42.586,10.93 42.252,11.911 L43.284,11.911 L43.284,11.911 Z M48.25,13.513 L47.55,13.513 C47.55,13.435 47.29,13.026 46.77,12.285 C46.226,11.505 45.916,10.971 45.84,10.684 L45.795,10.684 C45.842,11.097 45.866,11.472 45.866,11.806 C45.866,12.273 45.879,12.842 45.905,13.513 L45.208,13.513 C45.236,12.927 45.25,12.284 45.25,11.583 C45.25,10.893 45.236,10.306 45.208,9.822 L46.05,9.822 C46.05,9.922 46.283,10.322 46.75,11.021 C47.247,11.764 47.532,12.268 47.606,12.533 L47.649,12.533 C47.603,12.111 47.58,11.733 47.58,11.398 C47.58,10.886 47.567,10.361 47.541,9.822 L48.25,9.822 C48.223,10.291 48.21,10.878 48.21,11.583 C48.21,12.293 48.223,12.936 48.25,13.513 L48.25,13.513 Z M52.359,11.54 C52.359,12.076 52.187,12.545 51.843,12.946 C51.499,13.347 51.017,13.547 50.397,13.547 C50.117,13.547 49.732,13.535 49.24,13.513 C49.265,12.942 49.277,12.298 49.277,11.582 C49.277,10.894 49.265,10.307 49.24,9.821 L49.736,9.821 C49.818,9.821 49.938,9.818 50.099,9.813 C50.26,9.807 50.365,9.804 50.414,9.804 C51.096,9.804 51.591,9.975 51.898,10.315 C52.205,10.655 52.359,11.063 52.359,11.54 L52.359,11.54 Z M51.585,11.661 C51.585,11.299 51.479,10.993 51.268,10.744 C51.056,10.496 50.733,10.371 50.298,10.371 C50.217,10.371 50.105,10.38 49.963,10.397 C49.982,10.775 49.992,11.17 49.992,11.582 C49.992,12.034 50.001,12.482 50.02,12.926 C50.141,12.95 50.264,12.963 50.388,12.963 C50.795,12.963 51.096,12.837 51.291,12.584 C51.487,12.332 51.585,12.024 51.585,11.661 L51.585,11.661 Z M56.148,13.513 L55.309,13.513 C55.09,12.844 54.922,12.431 54.805,12.274 C54.687,12.117 54.498,12.039 54.238,12.039 C54.128,12.039 54.023,12.04 53.923,12.042 C53.923,12.527 53.931,13.018 53.949,13.513 L53.16,13.513 C53.185,12.942 53.197,12.298 53.197,11.582 C53.197,10.895 53.185,10.307 53.16,9.822 L53.651,9.822 C53.708,9.822 53.826,9.819 54.007,9.813 C54.187,9.808 54.354,9.805 54.507,9.805 C55.375,9.805 55.809,10.101 55.809,10.695 C55.809,11.166 55.561,11.493 55.066,11.679 L55.066,11.721 C55.257,11.774 55.424,11.923 55.568,12.168 C55.711,12.412 55.905,12.861 56.148,13.513 L56.148,13.513 Z M55.085,10.904 C55.085,10.528 54.843,10.34 54.359,10.34 C54.182,10.34 54.025,10.353 53.889,10.38 C53.91,10.673 53.92,11.055 53.92,11.525 C54.024,11.529 54.112,11.531 54.184,11.531 C54.785,11.531 55.085,11.322 55.085,10.904 L55.085,10.904 Z M60.213,11.599 C60.213,12.179 60.035,12.66 59.679,13.042 C59.324,13.424 58.884,13.615 58.361,13.615 C57.862,13.615 57.444,13.44 57.108,13.089 C56.771,12.739 56.603,12.293 56.603,11.753 C56.603,11.172 56.781,10.691 57.136,10.309 C57.492,9.928 57.931,9.737 58.455,9.737 C58.954,9.737 59.371,9.911 59.708,10.261 C60.044,10.611 60.213,11.057 60.213,11.599 L60.213,11.599 Z M59.43,11.681 C59.43,11.286 59.329,10.966 59.127,10.72 C58.925,10.474 58.675,10.352 58.378,10.352 C58.102,10.352 57.868,10.475 57.675,10.723 C57.483,10.97 57.386,11.283 57.386,11.661 C57.386,12.054 57.487,12.374 57.691,12.621 C57.894,12.868 58.143,12.991 58.438,12.991 C58.714,12.991 58.948,12.867 59.141,12.618 C59.334,12.37 59.43,12.057 59.43,11.681 L59.43,11.681 Z M61.816,13.513 L61.013,13.513 C61.038,12.927 61.05,12.284 61.05,11.582 C61.05,10.892 61.038,10.305 61.013,9.822 L61.816,9.822 C61.791,10.298 61.779,10.885 61.779,11.582 C61.779,12.295 61.791,12.938 61.816,13.513 Z M65.925,11.54 C65.925,12.076 65.753,12.545 65.409,12.946 C65.065,13.347 64.583,13.547 63.963,13.547 C63.683,13.547 63.298,13.535 62.806,13.513 C62.831,12.942 62.843,12.298 62.843,11.582 C62.843,10.894 62.831,10.307 62.806,9.821 L63.303,9.821 C63.384,9.821 63.505,9.818 63.665,9.813 C63.826,9.807 63.931,9.804 63.98,9.804 C64.662,9.804 65.157,9.975 65.464,10.315 C65.772,10.655 65.925,11.063 65.925,11.54 L65.925,11.54 Z M65.151,11.661 C65.151,11.299 65.046,10.993 64.834,10.744 C64.622,10.496 64.299,10.371 63.864,10.371 C63.783,10.371 63.672,10.38 63.53,10.397 C63.548,10.775 63.558,11.17 63.558,11.582 C63.558,12.034 63.567,12.482 63.586,12.926 C63.707,12.95 63.831,12.963 63.954,12.963 C64.361,12.963 64.662,12.837 64.857,12.584 C65.053,12.332 65.151,12.024 65.151,11.661 Z M71.377,13.513 L70.47,13.513 C70.47,13.388 70.384,13.035 70.211,12.453 L68.902,12.453 C68.724,13.025 68.635,13.379 68.635,13.513 L67.782,13.513 C67.782,13.439 68.003,12.834 68.444,11.698 C68.885,10.562 69.106,9.937 69.106,9.822 L70.178,9.822 C70.178,9.929 70.378,10.546 70.777,11.672 C71.177,12.797 71.377,13.411 71.377,13.513 Z M70.067,11.911 C69.744,10.936 69.582,10.408 69.582,10.329 L69.537,10.329 C69.537,10.402 69.37,10.93 69.035,11.911 L70.067,11.911 L70.067,11.911 Z M74.684,10.788 C74.684,11.24 74.517,11.574 74.181,11.789 C73.846,12.004 73.434,12.112 72.946,12.112 C72.857,12.112 72.794,12.11 72.756,12.107 C72.756,12.462 72.767,12.931 72.787,13.513 L71.991,13.513 C72.015,12.967 72.028,12.323 72.028,11.582 C72.028,10.902 72.015,10.315 71.991,9.822 L72.484,9.822 C72.554,9.822 72.688,9.819 72.886,9.813 C73.085,9.808 73.257,9.805 73.402,9.805 C73.761,9.805 74.065,9.886 74.312,10.049 C74.56,10.211 74.684,10.457 74.684,10.788 L74.684,10.788 Z M73.953,10.944 C73.953,10.54 73.685,10.337 73.148,10.337 C73.013,10.337 72.872,10.352 72.723,10.38 C72.743,10.737 72.754,11.142 72.754,11.593 C72.801,11.597 72.856,11.599 72.918,11.599 C73.608,11.599 73.953,11.381 73.953,10.944 L73.953,10.944 Z M78.085,10.788 C78.085,11.24 77.917,11.574 77.582,11.789 C77.246,12.004 76.835,12.112 76.347,12.112 C76.258,12.112 76.195,12.11 76.157,12.107 C76.157,12.462 76.167,12.931 76.188,13.513 L75.391,13.513 C75.416,12.967 75.428,12.323 75.428,11.582 C75.428,10.902 75.416,10.315 75.391,9.822 L75.885,9.822 C75.955,9.822 76.089,9.819 76.287,9.813 C76.486,9.808 76.657,9.805 76.803,9.805 C77.162,9.805 77.466,9.886 77.713,10.049 C77.961,10.211 78.085,10.457 78.085,10.788 L78.085,10.788 Z M77.354,10.944 C77.354,10.54 77.085,10.337 76.548,10.337 C76.414,10.337 76.272,10.352 76.123,10.38 C76.144,10.737 76.154,11.142 76.154,11.593 C76.202,11.597 76.256,11.599 76.319,11.599 C77.009,11.599 77.354,11.381 77.354,10.944 L77.354,10.944 Z M83.645,11.599 C83.645,12.179 83.467,12.66 83.112,13.042 C82.756,13.424 82.317,13.615 81.793,13.615 C81.294,13.615 80.876,13.44 80.54,13.089 C80.204,12.739 80.036,12.293 80.036,11.753 C80.036,11.172 80.213,10.691 80.569,10.309 C80.924,9.927 81.364,9.737 81.887,9.737 C82.386,9.737 82.804,9.911 83.14,10.261 C83.477,10.611 83.645,11.057 83.645,11.599 L83.645,11.599 Z M82.862,11.681 C82.862,11.286 82.761,10.966 82.559,10.72 C82.357,10.474 82.107,10.352 81.811,10.352 C81.534,10.352 81.3,10.475 81.107,10.723 C80.915,10.97 80.818,11.283 80.818,11.661 C80.818,12.054 80.92,12.374 81.123,12.621 C81.326,12.868 81.575,12.991 81.87,12.991 C82.146,12.991 82.38,12.867 82.573,12.618 C82.766,12.37 82.862,12.057 82.862,11.681 L82.862,11.681 Z M87.488,13.513 L86.788,13.513 C86.788,13.435 86.528,13.026 86.008,12.285 C85.464,11.505 85.154,10.971 85.078,10.684 L85.033,10.684 C85.08,11.097 85.104,11.472 85.104,11.806 C85.104,12.273 85.117,12.842 85.143,13.513 L84.446,13.513 C84.474,12.927 84.488,12.284 84.488,11.583 C84.488,10.893 84.474,10.306 84.446,9.822 L85.288,9.822 C85.288,9.922 85.521,10.322 85.988,11.021 C86.485,11.764 86.771,12.268 86.844,12.533 L86.887,12.533 C86.841,12.111 86.819,11.733 86.819,11.398 C86.819,10.886 86.805,10.361 86.779,9.822 L87.488,9.822 C87.461,10.291 87.448,10.878 87.448,11.583 C87.448,12.293 87.461,12.936 87.488,13.513 L87.488,13.513 Z" id="Shape" fill="#F9F9FA" fill-rule="nonzero"></path>
                </g>
            </g>
        </g>
    </g>
</svg>