<?xml version="1.0" encoding="UTF-8"?>
<svg width="19px" height="19px" viewBox="0 0 19 19" version="1.1" xmlns="http://www.w3.org/2000/svg" xmlns:xlink="http://www.w3.org/1999/xlink">
    <!-- Generator: Sketch 52.1 (67048) - http://www.bohemiancoding.com/sketch -->
    <title>Judge</title>
    <desc>Created with Sketch.</desc>
    <g id="✅-Сделки" stroke="none" stroke-width="1" fill="none" fill-rule="evenodd">
        <g id="deals-disput" transform="translate(-1024.000000, -809.000000)" fill="#D0021B">
            <g id="Group" transform="translate(740.000000, 238.000000)">
                <g id="03" transform="translate(0.000000, 42.000000)">
                    <g id="Button03-Copy" transform="translate(278.000000, 525.000000)">
                        <g id="Judge" transform="translate(14.318759, 14.849242) rotate(-315.000000) translate(-14.318759, -14.849242) translate(5.818759, 3.349242)">
                            <path d="M9.28932188,12.1248917 L9.28932188,22.1248917 L7.28932188,22.1248917 L7.28932188,12.1248917 L2.78932188,12.1248917 C1.40861001,12.1248917 0.289321881,11.0056036 0.289321881,9.62489168 L0.289321881,5.62489168 C0.289321881,4.24417981 1.40861001,3.12489168 2.78932188,3.12489168 L7.28932188,3.12489168 L7.28932188,0.124891681 L9.28932188,0.124891681 L9.28932188,3.12489168 L13.7893219,3.12489168 C15.1700338,3.12489168 16.2893219,4.24417981 16.2893219,5.62489168 L16.2893219,9.62489168 C16.2893219,11.0056036 15.1700338,12.1248917 13.7893219,12.1248917 L9.28932188,12.1248917 Z M2.78932188,5.12489168 C2.51317951,5.12489168 2.28932188,5.34874931 2.28932188,5.62489168 L2.28932188,9.62489168 C2.28932188,9.90103406 2.51317951,10.1248917 2.78932188,10.1248917 L13.7893219,10.1248917 C14.0654643,10.1248917 14.2893219,9.90103406 14.2893219,9.62489168 L14.2893219,5.62489168 C14.2893219,5.34874931 14.0654643,5.12489168 13.7893219,5.12489168 L2.78932188,5.12489168 Z M4.28932188,5.12489168 L6.28932188,5.12489168 L6.28932188,10.1248917 L4.28932188,10.1248917 L4.28932188,5.12489168 Z M10.2893219,5.12489168 L12.2893219,5.12489168 L12.2893219,10.1248917 L10.2893219,10.1248917 L10.2893219,5.12489168 Z" id="Combined-Shape"></path>
                        </g>
                    </g>
                </g>
            </g>
        </g>
    </g>
</svg>