<?xml version="1.0" encoding="UTF-8"?>
<svg width="14px" height="18px" viewBox="0 0 14 18" version="1.1" xmlns="http://www.w3.org/2000/svg" xmlns:xlink="http://www.w3.org/1999/xlink">
    <!-- Generator: sketchtool 53 (72520) - https://sketchapp.com -->
    <title>FBB28AEB-2D03-4740-9D2B-6196103CBB6C</title>
    <desc>Created with sketchtool.</desc>
    <g id="Forum-(...)" stroke="none" stroke-width="1" fill="none" fill-rule="evenodd">
        <g id="Forum-Components" transform="translate(-374.000000, -111.000000)" fill="#F7931A">
            <path d="M387.960115,121.538747 C387.746286,118.854252 386.45012,117.171991 385.306641,115.687484 C384.247818,114.313157 383.333333,113.126352 383.333333,111.375642 C383.333333,111.235017 383.251667,111.106486 383.122167,111.042045 C382.992266,110.977217 382.836187,110.987834 382.718099,111.070591 C381.000766,112.255568 379.56788,114.252758 379.067344,116.158367 C378.719859,117.485058 378.673885,118.976526 378.667432,119.961568 C377.081495,119.634932 376.722234,117.347386 376.718443,117.32246 C376.700578,117.203808 376.625401,117.100554 376.516026,117.044163 C376.405521,116.988511 376.27562,116.984468 376.163583,117.037941 C376.080422,117.076753 374.122281,118.036167 374.008349,121.866825 C374.000365,121.994267 374,122.122095 374,122.249888 C374,125.971421 377.140339,128.999428 381,128.999428 C381.005323,128.999779 381.01101,129.000518 381.015568,128.999428 C381.017099,128.999428 381.018594,128.999428 381.02049,128.999428 C384.870672,128.988775 388,125.964847 388,122.249888 C388,122.062751 387.960115,121.538747 387.960115,121.538747 Z M381,128.249475 C379.713313,128.249475 378.666667,127.174362 378.666667,125.852804 C378.666667,125.807769 378.666302,125.762347 378.669693,125.706695 C378.68526,125.149363 378.795036,124.768902 378.915422,124.515848 C379.141026,124.983109 379.544328,125.412648 380.199448,125.412648 C380.414406,125.412648 380.588349,125.244918 380.588349,125.037672 C380.588349,124.503789 380.59976,123.887852 380.737609,123.331961 C380.860292,122.839071 381.153453,122.31468 381.524891,121.894317 C381.690083,122.439942 382.012156,122.88154 382.326609,123.312555 C382.776651,123.929195 383.241859,124.566754 383.323526,125.65396 C383.328448,125.718402 383.333406,125.78323 383.333406,125.852804 C383.333333,127.174327 382.286687,128.249475 381,128.249475 Z" id="hot"></path>
        </g>
    </g>
</svg>