<svg xmlns="http://www.w3.org/2000/svg" width="19" height="19" viewBox="0 0 19 19">
    <path fill="#fff" fill-rule="evenodd" d="M8.435 11.85l-7.071 7.07-1.414-1.414 7.07-7.071L3.84 7.253a2.5 2.5 0 0 1 0-3.535L6.667.889a2.5 2.5 0 0 1 3.536 0l3.182 3.182 2.121-2.121 1.414 1.414L14.8 5.485l3.182 3.182a2.5 2.5 0 0 1 0 3.536l-2.828 2.828a2.5 2.5 0 0 1-3.536 0L8.435 11.85zm.354-9.547a.5.5 0 0 0-.708 0L5.253 5.132a.5.5 0 0 0 0 .707l7.778 7.778a.5.5 0 0 0 .707 0l2.829-2.828a.5.5 0 0 0 0-.708L8.789 2.303zm1.06 1.061l1.414 1.414-3.535 3.536-1.414-1.415 3.535-3.535zm4.243 4.243l1.414 1.414-3.535 3.535-1.415-1.414 3.536-3.535z"/>
</svg>
