<?xml version="1.0" encoding="UTF-8"?>
<svg width="18px" height="20px" viewBox="0 0 18 20" version="1.1" xmlns="http://www.w3.org/2000/svg" xmlns:xlink="http://www.w3.org/1999/xlink">
    <!-- Generator: sketchtool 53 (72520) - https://sketchapp.com -->
    <title>B073B313-7C3D-4296-B0D1-38D4706E3110</title>
    <desc>Created with sketchtool.</desc>
    <g id="Forum-(...)" stroke="none" stroke-width="1" fill="none" fill-rule="evenodd">
        <g id="Forum-Components" transform="translate(-296.000000, -110.000000)" fill="#11223E" fill-rule="nonzero">
            <path d="M310,119 L300,119 C298.895431,119 298,119.895431 298,121 L298,126 C298,127.104569 298.895431,128 300,128 L310,128 C311.104569,128 312,127.104569 312,126 L312,121 C312,119.895431 311.104569,119 310,119 Z M301,117 L309,117 L309,116 C309,113.790861 307.209139,112 305,112 C302.790861,112 301,113.790861 301,116 L301,117 Z M311,117.126017 C312.725227,117.57006 314,119.136161 314,121 L314,126 C314,128.209139 312.209139,130 310,130 L300,130 C297.790861,130 296,128.209139 296,126 L296,121 C296,119.136161 297.274773,117.57006 299,117.126017 L299,116 C299,112.686292 301.686292,110 305,110 C308.313708,110 311,112.686292 311,116 L311,117.126017 Z M305,122 C305.552285,122 306,122.447715 306,123 L306,124 C306,124.552285 305.552285,125 305,125 C304.447715,125 304,124.552285 304,124 L304,123 C304,122.447715 304.447715,122 305,122 Z" id="lock"></path>
        </g>
    </g>
</svg>