<?xml version="1.0" encoding="UTF-8"?>
<svg width="144px" height="144px" viewBox="0 0 144 144" version="1.1" xmlns="http://www.w3.org/2000/svg" xmlns:xlink="http://www.w3.org/1999/xlink">
    <!-- Generator: Sketch 53 (72520) - https://sketchapp.com -->
    <title>icon</title>
    <desc>Created with Sketch.</desc>
    <defs>
        <linearGradient x1="50%" y1="0%" x2="50%" y2="100%" id="linearGradient-1">
            <stop stop-color="#EE6174" offset="0%"></stop>
            <stop stop-color="#F89948" offset="100%"></stop>
        </linearGradient>
    </defs>
    <g id="New-version" stroke="none" stroke-width="1" fill="none" fill-rule="evenodd">
        <g id="-g-Emporium_New_SignIn01" transform="translate(-1008.000000, -378.000000)" fill-rule="nonzero">
            <g id="back" transform="translate(720.000000, 0.000000)">
                <g id="SignIn01" transform="translate(-279.000000, -127.000000)">
                    <g id="icon" transform="translate(567.000000, 505.000000)">
                        <path d="M141,81 C142.656854,81 144,82.3431458 144,84 L144,99 C143.990082,107.280159 137.280159,113.990082 129,114 L54,114 L54,129 C54.0031653,130.006023 53.5018677,130.94666 52.665,131.505 L45,136.605 L45,138 L99,138 L99,136.605 L91.335,131.496 C90.5007908,130.939426 89.9998499,130.002836 90,129 L90,123 C90,121.343146 91.3431458,120 93,120 C94.6568542,120 96,121.343146 96,123 L96,127.395 L103.665,132.504 C104.499209,133.060574 105.00015,133.997164 105,135 L105,138 C105,141.313708 102.313708,144 99,144 L45,144 C41.6862915,144 39,141.313708 39,138 L39,135 C38.9968347,133.993977 39.4981323,133.05334 40.335,132.495 L48,127.395 L48,114 L15,114 C6.71984055,113.990082 0.009918349,107.280159 0,99 L0,15 C0.009918349,6.71984055 6.71984055,0.009918349 15,0 L75,0 C76.6568542,1.01453063e-16 78,1.34314575 78,3 C78,4.65685425 76.6568542,6 75,6 L15,6 C10.0294373,6 6,10.0294373 6,15 L6,99 C6,103.970563 10.0294373,108 15,108 L129,108 C133.970563,108 138,103.970563 138,99 L138,87 L78,87 C76.3431458,87 75,85.6568542 75,84 C75,82.3431458 76.3431458,81 78,81 L141,81 Z M108,72 C88.1266591,71.9785055 72.0214945,55.8733409 72,36 C72,16.117749 88.117749,-1.21743675e-15 108,0 C127.882251,1.21743675e-15 144,16.117749 144,36 C144,55.882251 127.882251,72 108,72 Z M108,6 C91.4389967,6.01818711 78.0181871,19.4389967 78,36 C78,52.5685425 91.4314575,66 108,66 C124.568542,66 138,52.5685425 138,36 C138,19.4314575 124.568542,6 108,6 Z M96.879,50.121 L90.879,44.121 C89.7420834,42.9438633 89.7583429,41.0727457 90.9155443,39.9155443 C92.0727457,38.7583429 93.9438633,38.7420834 95.121,39.879 L99,43.758 L120.879,21.879 C121.632223,21.0991302 122.747634,20.7863622 123.796522,21.0609085 C124.84541,21.3354549 125.664545,22.1545897 125.939091,23.203478 C126.213638,24.2523663 125.90087,25.3677766 125.121,26.121 L101.121,50.121 C99.9495004,51.2921458 98.0504996,51.2921458 96.879,50.121 Z" id="Combined-Shape" fill="url(#linearGradient-1)"></path>
                        <path d="M48,27 L36,27 C33.5921533,26.9295789 31.2618237,27.8551582 29.5584909,29.5584909 C27.8551582,31.2618237 26.9295789,33.5921533 27,36 L27,45 C20.372583,45 15,50.372583 15,57 L15,81 C15,87.627417 20.372583,93 27,93 L57,93 C63.627417,93 69,87.627417 69,81 L69,57 C69,50.372583 63.627417,45 57,45 L57,36 C57.0704211,33.5921533 56.1448418,31.2618237 54.4415091,29.5584909 C52.7381763,27.8551582 50.4078467,26.9295789 48,27 Z M63,57 L63,81 C63,84.3137085 60.3137085,87 57,87 L27,87 C23.6862915,87 21,84.3137085 21,81 L21,57 C21,53.6862915 23.6862915,51 27,51 L30,51 C31.6568542,51 33,49.6568542 33,48 L33,36.036 C32.9115241,35.2132842 33.1976577,34.3943876 33.7792599,33.8058062 C34.3608621,33.2172248 35.1762874,32.9213438 36,33 L47.964,33 C48.7864494,32.9126615 49.6046621,33.1991681 50.1929691,33.7804992 C50.7812762,34.3618303 51.0775221,35.1765673 51,36 L51,45 L42,45 C40.3431458,45.0000001 39.0000001,46.3431458 39.0000001,48 C39.0000001,49.6568542 40.3431458,50.9999999 42,51 L57,51 C60.3137085,51 63,53.6862915 63,57 Z" id="Shape" fill="#FFFFFF"></path>
                        <path d="M48,60 L36,60 C34.3431458,60 33,61.3431458 33,63 C33,64.6568542 34.3431458,66 36,66 L39,66 L39,75 C39,76.6568542 40.3431458,78 42,78 C43.6568542,78 45,76.6568542 45,75 L45,66 L48,66 C49.6568542,66 51,64.6568542 51,63 C51,61.3431458 49.6568542,60 48,60 Z" id="Path" fill="#FFFFFF"></path>
                    </g>
                </g>
            </g>
        </g>
    </g>
</svg>