<?xml version="1.0" encoding="UTF-8"?>
<svg width="138px" height="144px" viewBox="0 0 138 144" version="1.1" xmlns="http://www.w3.org/2000/svg" xmlns:xlink="http://www.w3.org/1999/xlink">
    <!-- Generator: Sketch 53 (72520) - https://sketchapp.com -->
    <title>icon</title>
    <desc>Created with Sketch.</desc>
    <defs>
        <linearGradient x1="50%" y1="0%" x2="50%" y2="100%" id="linearGradient-1">
            <stop stop-color="#EE6174" offset="0%"></stop>
            <stop stop-color="#F89948" offset="100%"></stop>
        </linearGradient>
    </defs>
    <g id="New-version" stroke="none" stroke-width="1" fill="none" fill-rule="evenodd">
        <g id="-g-Emporium_New_SignIn07" transform="translate(-1011.000000, -378.000000)" fill-rule="nonzero">
            <g id="back" transform="translate(720.000000, 0.000000)">
                <g id="SignIn07" transform="translate(-279.000000, -127.000000)">
                    <g id="icon" transform="translate(570.000000, 505.000000)">
                        <path d="M84,144 L12,144 C5.372583,144 6.66133815e-16,138.627417 0,132 L0,12 C-6.66133815e-16,5.372583 5.372583,1.21743675e-15 12,0 L84,0 C90.627417,4.05812251e-16 96,5.372583 96,12 L96,18 C96,19.6568542 94.6568542,21 93,21 C91.3431458,21 90,19.6568542 90,18 L90,12 C90,8.6862915 87.3137085,6 84,6 L12,6 C8.6862915,6 6,8.6862915 6,12 L6,132 C6,135.313708 8.6862915,138 12,138 L84,138 C87.3137085,138 90,135.313708 90,132 L90,123 C90,121.343146 91.3431458,120 93,120 C94.6568542,120 96,121.343146 96,123 L96,132 C96,138.627417 90.627417,144 84,144 Z M78,24 L18,24 C16.3431458,24 15,22.6568542 15,21 C15,19.3431458 16.3431458,18 18,18 L78,18 C79.6568542,18 81,19.3431458 81,21 C81,22.6568542 79.6568542,24 78,24 Z M66,126 L18,126 C16.3431458,126 15,124.656854 15,123 C15,121.343146 16.3431458,120 18,120 L66,120 C67.6568542,120 69,121.343146 69,123 C69,124.656854 67.6568542,126 66,126 Z" id="Combined-Shape" fill="url(#linearGradient-1)"></path>
                        <path d="M81,117 C80.2044156,116.99983 79.4414782,116.683648 78.879,116.121 L67.758,105 L36,105 C29.372583,105 24,99.627417 24,93 L24,45 C24,38.372583 29.372583,33 36,33 L126,33 C132.627417,33 138,38.372583 138,45 L138,93 C138,99.627417 132.627417,105 126,105 L94.242,105 L83.121,116.121 C82.5585218,116.683648 81.7955844,116.99983 81,117 L81,117 Z M36,39 C32.6862915,39 30,41.6862915 30,45 L30,93 C30,96.3137085 32.6862915,99 36,99 L69,99 C69.7955844,99.0001699 70.5585218,99.3163519 71.121,99.879 L81,109.758 L90.879,99.879 C91.4414782,99.3163519 92.2044156,99.0001699 93,99 L126,99 C129.313708,99 132,96.3137085 132,93 L132,45 C132,41.6862915 129.313708,39 126,39 L36,39 Z" id="Shape" fill="#FFFFFF"></path>
                        <path d="M81,78 C76.0294373,78 72,73.9705627 72,69 C72,64.0294373 76.0294373,60 81,60 C85.9705627,60 90,64.0294373 90,69 C90,73.9705627 85.9705627,78 81,78 L81,78 Z M81,66 C79.3431458,66 78,67.3431458 78,69 C78,70.6568542 79.3431458,72 81,72 C82.6568542,72 84,70.6568542 84,69 C84,67.3431458 82.6568542,66 81,66 Z" id="Shape" fill="#FFFFFF"></path>
                        <path d="M108,78 C103.029437,78 99,73.9705627 99,69 C99,64.0294373 103.029437,60 108,60 C112.970563,60 117,64.0294373 117,69 C117,73.9705627 112.970563,78 108,78 Z M108,66 C106.343146,66 105,67.3431458 105,69 C105,70.6568542 106.343146,72 108,72 C109.656854,72 111,70.6568542 111,69 C111,67.3431458 109.656854,66 108,66 Z" id="Shape" fill="#FFFFFF"></path>
                        <path d="M54,78 C49.0294373,78 45,73.9705627 45,69 C45,64.0294373 49.0294373,60 54,60 C58.9705627,60 63,64.0294373 63,69 C63,73.9705627 58.9705627,78 54,78 Z M54,66 C52.3431458,66 51,67.3431458 51,69 C51,70.6568542 52.3431458,72 54,72 C55.6568542,72 57,70.6568542 57,69 C57,67.3431458 55.6568542,66 54,66 Z" id="Shape" fill="#FFFFFF"></path>
                    </g>
                </g>
            </g>
        </g>
    </g>
</svg>