<svg xmlns="http://www.w3.org/2000/svg" width="60" height="56" viewBox="0 0 60 56">
    <path fill="#FFF" fill-rule="nonzero" d="M2.485 20.777L11 26.357V14.74l-8.147 5.703a1.999 1.999 0 0 0-.368.333zM2 22.851V52a2 2 0 0 0 2 2h52a2 2 0 0 0 2-2V22.85L30 41.196 2 22.85zm55.515-2.074a1.999 1.999 0 0 0-.368-.333L49 14.741v11.615l8.515-5.579zM46.491 28H13.51L30 38.804 46.491 28zM13 27.667l.509.333H46.49l.509-.333V9H13v18.667zM11 12.3V7h7.571l8.562-5.993a5 5 0 0 1 5.734 0L41.43 7H49v5.3l9.294 6.506A4 4 0 0 1 60 22.083V52a4 4 0 0 1-4 4H4a4 4 0 0 1-4-4V22.083a4 4 0 0 1 1.706-3.277L11 12.3zM37.941 7l-6.22-4.354a3 3 0 0 0-3.441 0L22.059 7h15.882zM22 15h16v2H22v-2zm0 5h16v2H22v-2zm0 5h16v2H22v-2zm2 5h12v2H24v-2z"/>
</svg>
