<?xml version="1.0" encoding="UTF-8"?>
<svg width="13px" height="18px" viewBox="0 0 13 18" version="1.1" xmlns="http://www.w3.org/2000/svg" xmlns:xlink="http://www.w3.org/1999/xlink">
    <!-- Generator: Sketch 52 (66869) - http://www.bohemiancoding.com/sketch -->
    <title>05</title>
    <desc>Created with Sketch.</desc>
    <g id="New-version" stroke="none" stroke-width="1" fill="none" fill-rule="evenodd" opacity="0.5">
        <g id="-g-Emporium_Profile02" transform="translate(-612.000000, -541.000000)" fill="#11223E" fill-rule="nonzero">
            <g id="Content" transform="translate(100.000000, 0.000000)">
                <g id="Me02" transform="translate(40.000000, 139.000000)">
                    <g id="02" transform="translate(430.000000, 120.000000)">
                        <g id="05" transform="translate(42.000000, 282.000000)">
                            <path d="M3,0 L10,0 C11.6568542,-3.04359188e-16 13,1.34314575 13,3 L13,15 C13,16.6568542 11.6568542,18 10,18 L3,18 C1.34314575,18 2.02906125e-16,16.6568542 0,15 L0,3 C-2.02906125e-16,1.34314575 1.34314575,-5.83819232e-16 3,0 Z M3,1 C1.8954305,1 1,1.8954305 1,3 L1,15 C1,16.1045695 1.8954305,17 3,17 L10,17 C11.1045695,17 12,16.1045695 12,15 L12,3 C12,1.8954305 11.1045695,1 10,1 L3,1 Z M1,3 L12,3 L12,4 L1,4 L1,3 Z M1,13 L12,13 L12,14 L1,14 L1,13 Z M6.5,16 C6.22385763,16 6,15.7761424 6,15.5 C6,15.2238576 6.22385763,15 6.5,15 C6.77614237,15 7,15.2238576 7,15.5 C7,15.7761424 6.77614237,16 6.5,16 Z" id="Combined-Shape"></path>
                        </g>
                    </g>
                </g>
            </g>
        </g>
    </g>
</svg>