<svg xmlns="http://www.w3.org/2000/svg" xmlns:xlink="http://www.w3.org/1999/xlink" width="97" height="104" viewBox="0 0 97 104">
    <defs>
        <path id="a" d="M3.08 64.86a21.846 21.846 0 0 0-2.172-.122H.87c.46-.322 1.186-.496 2.082-.562.032.214.074.442.128.684m3.234-1.602a6.675 6.675 0 0 0-.146-.44 4.64 4.64 0 0 0-.314-.682c.07-.44.228-.766.46-.994v2.116m81.734-6.802c-.046 0-.09-.002-.136-.006l-.152-.01v-1.324c1.22-1.876 2.146-4.95 2.402-8.47.356-4.864-.674-9.068-2.402-10.512v-1.246l1.718.126c2.432.178 4.054 5.12 3.62 11.04-.424 5.81-2.668 10.402-5.05 10.402M68.194 18.034h-1.842l2.068-11.8c-1.996-.796-3.17-2.91-2.658-5.016.046-.188.106-.382.178-.576h8.368c.188.932.198 1.876.008 2.654-.466 1.922-2.188 3.202-4.108 3.256l-2.014 11.482m-8.074 0h-7.236c-1.8-.196-3.504-.306-5.044-.306h-.146c-2.65.012-5.386.122-8.11.306h-3.716c4.808-.524 9.924-.876 14.76-.898h.142c2.73 0 5.966.346 9.35.898m-25.046 0h-1.68l-.97-6.798c-1.338-.156-2.4-1.074-2.492-2.264-.108-1.386 1.018-3.454 2.662-3.58.054-.004.106-.006.16-.006 1.582 0 3.028 1.786 3.132 3.128.084 1.094-.68 2.08-1.812 2.514l1 7.006"/>
        <linearGradient id="b" x1="47.674%" x2="57.562%" y1="131.861%" y2="-80.813%">
            <stop offset="0%" stop-color="#FFFFFE"/>
            <stop offset="100%" stop-color="#E3E8EF"/>
        </linearGradient>
    </defs>
    <g fill="none" fill-rule="evenodd">
        <path fill="#E4715E" d="M84.76 103.478H15.314a6 6 0 0 1-6-6V28.034c0-3.316 2.686-6 6-6H84.76c3.314 0 6 2.684 6 6v69.444a6 6 0 0 1-6 6"/>
        <g transform="translate(3 4)">
            <mask id="c" fill="#fff">
                <use xlink:href="#a"/>
            </mask>
            <path fill="url(#b)" d="M3.08 64.86a21.846 21.846 0 0 0-2.172-.122H.87c.46-.322 1.186-.496 2.082-.562.032.214.074.442.128.684m3.234-1.602a6.675 6.675 0 0 0-.146-.44 4.64 4.64 0 0 0-.314-.682c.07-.44.228-.766.46-.994v2.116m81.734-6.802c-.046 0-.09-.002-.136-.006l-.152-.01v-1.324c1.22-1.876 2.146-4.95 2.402-8.47.356-4.864-.674-9.068-2.402-10.512v-1.246l1.718.126c2.432.178 4.054 5.12 3.62 11.04-.424 5.81-2.668 10.402-5.05 10.402M68.194 18.034h-1.842l2.068-11.8c-1.996-.796-3.17-2.91-2.658-5.016.046-.188.106-.382.178-.576h8.368c.188.932.198 1.876.008 2.654-.466 1.922-2.188 3.202-4.108 3.256l-2.014 11.482m-8.074 0h-7.236c-1.8-.196-3.504-.306-5.044-.306h-.146c-2.65.012-5.386.122-8.11.306h-3.716c4.808-.524 9.924-.876 14.76-.898h.142c2.73 0 5.966.346 9.35.898m-25.046 0h-1.68l-.97-6.798c-1.338-.156-2.4-1.074-2.492-2.264-.108-1.386 1.018-3.454 2.662-3.58.054-.004.106-.006.16-.006 1.582 0 3.028 1.786 3.132 3.128.084 1.094-.68 2.08-1.812 2.514l1 7.006" mask="url(#c)"/>
        </g>
        <path fill="#D62849" d="M70.658 102.886h-2.884c.088-1.114.262-3.678.262-6.658 0-2.73-.146-5.808-.636-8.442.946 1.432 2.17 2.784 3.456 4.026.33 5.522-.198 11.074-.198 11.074m9.876-2.11c-.552 0-.97-.314-1.26-.816.2-.314.41-.64.66-.928l.062.022c.622.202 1.364.364 2.13.446-.436.68-.852 1.276-1.592 1.276m5.628-1.814c-.042 0-.084 0-.128-.002.328-.186.606-.424.814-.716 2.124-3-9.96-18.83-17.376-20.25-.308-.06-.706-.138-1.13-.138-.534 0-1.106.124-1.592.566-.662-.302-1.406-.528-2.066-.528-.38 0-.732.074-1.024.254a343.303 343.303 0 0 0-3.086-6.456 186.11 186.11 0 0 0 3.06-.336c.692 1.41 1.798 3.696 2.966 6.21.292-.182.644-.256 1.026-.256.656 0 1.398.224 2.058.524.486-.444 1.062-.57 1.598-.57.422 0 .818.078 1.126.138 7.416 1.42 19.5 17.25 17.376 20.25-.634.892-1.908 1.254-3.286 1.304h-.002c-.11.004-.222.006-.334.006M26.456 84.076c-.296 0-.636-.018-1.016-.052a5.23 5.23 0 0 0 .278-.242c.2.098.418.146.648.146.118 0 .238-.014.362-.038l-.058.184c-.068.002-.14.002-.214.002m2.898-6.07a1.394 1.394 0 0 0-.274-.208 1.414 1.414 0 0 0-.718-.186c-.116 0-.232.012-.352.036a1.56 1.56 0 0 0-.062-.186c-1.26-3.092-9.02-5.908-14.628-7.296.004-.008.006-.016.008-.022a293.44 293.44 0 0 0-1.492-.324 64.941 64.941 0 0 0-2.118-.426 10.995 10.995 0 0 0-.404-2.136v-2.116c.13-.126.282-.222.456-.29.284-.112.538-.166.766-.166.716 0 1.19.532 1.568 1.54.24.642.476 1.664.55 2.576.56.104 1.11.218 1.654.332l.462.094c.468.102.974.21 1.494.324l-.01.024c5.182 1.284 12.202 3.782 14.234 6.594a44.812 44.812 0 0 0-1.134 1.836m50.186-9.228c2.172-.472 3.538-.858 3.778-1.05.906-.72 1.602-3.332 2.116-6.872.856.064 2.114.156 2.542.186a1.547 1.547 0 0 0 .274 0c-.5 3.142-1.158 5.426-1.996 6.094-.336.266-2.866.912-6.714 1.642m11.22-8.338c-.252-.02-.634-.048-1.05-.078.366-.316.718-.738 1.05-1.246v1.324m-77.948-3.286c-1.578-1.64-2.684-5.45-2.684-9.89 0-4.592 1.184-8.512 2.85-10.05-.486 6.426-.424 14.398-.166 19.94m77.948-17.02c-.376-.314-.784-.496-1.218-.528-1.486-.11-2.42-.178-2.924-.214-.028-5.008-.274-8.858-.674-9.54-.642-1.092-17.66-6.472-30.06-7.818h7.236c1.726.28 3.49.614 5.248.984.266-.044.54-.068.824-.068l.16-.916h1.842l-.214 1.22c.424.152.806.368 1.158.61 8.698 2.068 16.316 4.674 16.74 5.396.402.682.646 4.534.674 9.54l1.208.088v1.246M24.546 24.266c3.204-.696 7.35-1.394 11.888-1.952l-.04-.28h1.68l.012.086c.26-.03.52-.058.782-.086h3.716c-6.546.44-13.018 1.3-18.038 2.232"/>
        <path fill="#F1F3F6" d="M77.308 4.642H68.94C69.674 2.674 71.7.57 73.684.57c.212 0 .424.024.632.074 1.568.382 2.622 2.164 2.992 3.998"/>
        <path fill="#D1D7E4" d="M34.472 70.478c-6.5 9-8.124 11.374-10 24.5-1.2 8.414 0 8.5 0 8.5h43.25s1.25-13-1.25-19-6.5-14-6.5-14h-25.5"/>
        <path fill="#3A4D8F" d="M55.536 90.228a8.374 8.374 0 0 1-8.376 8.374 8.373 8.373 0 0 1-8.374-8.374 8.376 8.376 0 0 1 16.75 0"/>
        <path fill="#26337D" d="M29.204 81.832c-.95 1.642-2.542 2.498-3.558 1.91-1.016-.586-1.07-2.392-.12-4.034.946-1.642 2.538-2.498 3.554-1.91 1.016.586 1.07 2.392.124 4.034"/>
        <path fill="#D1D7E4" d="M11.836 69.82a64.941 64.941 0 0 0-2.118-.426c-.074-.912-.31-1.936-.55-2.576-.5-1.332-1.166-1.832-2.332-1.374-.87.342-1.21 1.376-.756 3.416-2.75-.276-5.048-.134-5.578.96-2.5 5.166 8.436 10.898 12.07 12.272 5.196 1.964 10.514 2.898 11.876 2.478 2.374-.734 4.194-5.404 3.5-7.108-1.376-3.376-10.502-6.424-16.112-7.642"/>
        <path fill="#3A4D8F" d="M6.48 78.956c.526.432 1.188.636 1.71 1.026 1.882-2.91 4.194-7 5.138-9.838a293.44 293.44 0 0 0-1.492-.324l-.464-.094c-.836 2.348-2.988 6.278-4.892 9.23"/>
        <path fill="#D62849" d="M67.722 103.478s.02-.212.052-.592c-.03.366-.05.576-.052.592"/>
        <path fill="#C9233D" d="M67.774 102.886"/>
        <path fill="#B5BCD4" d="M67.722 103.478H41.944c.002-.056.168-2.556 1.38-5.804a8.333 8.333 0 0 0 3.836.928 8.374 8.374 0 0 0 2.312-16.426c-.814-3.83-3.384-7.512-5.91-9.762.884.05 1.762.078 2.632.078h.09c4.678 0 9.608-.322 14.29-.8a350.05 350.05 0 0 1 3.086 6.456c-.188.116-.35.274-.48.484-.968 1.568.902 5.156 2.886 6.55.318.89.778 1.76 1.334 2.604.49 2.634.636 5.712.636 8.442 0 2.98-.174 5.544-.262 6.658-.032.38-.052.592-.052.592"/>
        <path fill="#344388" d="M47.16 98.602a8.333 8.333 0 0 1-3.836-.928c.82-2.196 2.122-4.734 4.176-7.09 2.192-2.514 2.588-5.504 1.972-8.408a8.374 8.374 0 0 1-2.312 16.426"/>
        <path fill="#26337D" d="M63.18 78.632c.944-1.53 3.668-.344 4.856.53 1.186.874 1.728 6.416-.346 6.584-2.348.192-5.746-5.11-4.51-7.114"/>
        <path fill="#D1D7E4" d="M69.472 77.994c-1.226-.236-3.886-.78-3.886 4.55 0 5.624 6.872 10.724 10.5 13.816-.582 2.286-.114 5.008 1.512 5.008 1.124 0 1.504-1.378 2.336-2.336 2.122.716 5.7.922 6.914-.788 2.124-3-9.96-18.83-17.376-20.25"/>
        <path fill="#3A4D8F" d="M82.214 88.228c-3.164 1.278-7.554 3.28-9.8 4.824.506.49 1.006.958 1.49 1.396 2.13-1.358 6.452-3.344 9.55-4.568a52.31 52.31 0 0 0-1.24-1.652"/>
        <path fill="#C9233D" d="M79.274 99.96c.2-.314.41-.64.66-.928l.062.022-.062-.022c-.25.288-.46.614-.66.928"/>
        <path fill="#292C6C" d="M66.062 85.168c-1.57-1.106-3.046-3.568-3.116-5.328 1.438.698 1.636.618 2.64 1.326l.064.048c-.042.396-.064.838-.064 1.33 0 .89.172 1.766.476 2.624"/>
        <path fill="#B5BCD4" d="M77.598 101.368c-1.182 0-1.752-1.436-1.752-3.1 0-.624.08-1.282.24-1.908-3.048-2.6-8.378-6.62-10.004-11.178-.006-.004-.014-.008-.02-.014a7.834 7.834 0 0 1-.476-2.624c0-.492.022-.934.064-1.33 1.346.98 1.164 1.818 1.434 3.454.272 1.664.808 1.954 4.416 3.998 2.45 1.392 4.388 1 5.508 1.856-1.788.858-3.462 1.752-4.594 2.53.506.49 1.006.958 1.49 1.396.986-.628 2.442-1.392 4.03-2.152.316 1.69 3.316 3.954 4.232 4.704.438.358.952 1.468 1.396 2.548a10.87 10.87 0 0 1-3.566-.494l-.062-.022c-.25.288-.46.614-.66.928-.468.734-.89 1.408-1.676 1.408"/>
        <path fill="#344388" d="M73.904 94.448a60.651 60.651 0 0 1-1.49-1.396c1.132-.778 2.806-1.672 4.594-2.53.442.336.756.866.926 1.774-1.588.76-3.044 1.524-4.03 2.152"/>
        <path fill="#3A4D8F" d="M15.006 58.602H11.61c-2.44 0-4.416-4.81-4.416-10.746 0-5.936 1.976-10.746 4.416-10.746h3.396v21.492"/>
        <path fill="#26337D" d="M17.79 58.602h-3.398c-2.438 0-4.416-4.81-4.416-10.746 0-5.936 1.978-10.746 4.416-10.746h3.398v21.492"/>
        <path fill="#3A4D8F" d="M86.154 39.358l3.388.248c2.432.178 4.054 5.12 3.62 11.04-.432 5.92-2.754 10.574-5.186 10.396-.672-.048-3.388-.248-3.388-.248l1.566-21.436"/>
        <path fill="#26337D" d="M83.378 39.156l3.39.248c2.432.176 4.052 5.12 3.618 11.04-.43 5.918-2.754 10.574-5.184 10.396-.672-.048-3.39-.248-3.39-.248l1.566-21.436"/>
        <path fill="#D1D7E4" d="M15.194 26.978c-3.638 4.244-2.626 34.5-1.75 36.75.452 1.164 17.896 8.752 32.75 8.764 16.5.014 36.148-3.986 37.124-4.764 3.612-2.876 3.876-35.75 2.626-37.876-.74-1.256-23.126-8.18-35.25-8.124-15.512.072-34 3.5-35.5 5.25"/>
        <path fill="#26337D" d="M23.318 35.102s-.874 22.626-.874 23.626 17.25 5.75 23.374 6.124c8.642.53 26.75-.624 27.5-.874s5.75-19.25 5.376-20c-.376-.75-19.432-7.5-29.074-8.334-4.59-.396-24.802-1.542-26.302-.542M35.532 25.392l-1.648.234-1.542-10.83 1.646-.236 1.544 10.832"/>
        <path fill="#26337D" d="M35.952 13.106c.106 1.388-1.142 2.614-2.784 2.74-1.644.128-3.064-.894-3.172-2.282-.108-1.388 1.02-3.454 2.664-3.58 1.642-.126 3.184 1.734 3.292 3.122M37.698 26.356c.106.802-1.096 1.266-2.662 1.506-1.566.238-2.924-.146-3.04-.858-.208-1.302.88-2.73 2.446-2.97 1.564-.242 3.05.796 3.256 2.322"/>
        <path fill="#FFFFFE" d="M41.944 52.04c0 4.798-2.43 8.062-6.376 8.062-3.944 0-7.912-3.264-7.912-8.062s3.2-8.688 7.144-8.688c3.946 0 7.144 3.89 7.144 8.688M67.944 53.978c0 4.488-4.954 8.124-9.75 8.124s-7.616-3.636-7.616-8.124 3.888-8.126 8.684-8.126c4.794 0 8.682 3.638 8.682 8.126"/>
        <path fill="#222551" d="M37.606 55.766c.268 1.88-.772 3.582-2.32 3.802-1.55.222-3.022-1.124-3.29-3.002-.268-1.88.772-3.582 2.32-3.804 1.548-.22 3.02 1.124 3.29 3.004M59.674 58.69c-.228 1.886-1.672 3.262-3.224 3.074-1.554-.188-2.628-1.868-2.402-3.752.23-1.886 1.672-3.262 3.226-3.074 1.552.188 2.626 1.868 2.4 3.752"/>
        <path fill="#D62849" d="M63.634 71.356c6.516-.774 12.298-1.792 15.892-2.574l.014-.004c-3.592.782-9.382 1.804-15.906 2.578"/>
        <path fill="#C9233D" d="M79.526 68.782c2.178-.476 3.552-.862 3.792-1.054.906-.722 1.602-3.332 2.116-6.872-.514 3.54-1.21 6.152-2.116 6.872-.24.192-1.606.578-3.778 1.05l-.014.004"/>
        <path fill="#B5BCD4" d="M60.574 71.692"/>
        <path fill="#828DB9" d="M46.284 72.492h-.09.09c4.678 0 9.608-.322 14.29-.8-4.682.478-9.612.8-14.29.8"/>
        <path fill="#344388" d="M85.434 60.856c0-.004 0-.008.002-.014-.002.006-.002.01-.002.014"/>
        <path fill="#292C6C" d="M85.436 60.842c.832-5.744 1.186-13.928 1.186-20.458 0 6.53-.354 14.714-1.186 20.458"/>
        <path fill="#B5BCD4" d="M46.284 72.492h-.09c-.87 0 12.302-.748 13.778-2.014.83-.71 5.244-3.022 8.234-6.072 2.884-.178 4.874-.35 5.112-.428.75-.25 5.75-19.25 5.376-20-.188-.376-5.06-2.256-11.086-4.144.416-.848.906-1.754 1.478-2.724 1.912-3.25-7.34-9.966-13.456-15.104 12.42 1.3 29.666 6.748 30.314 7.848.426.726.676 5.044.678 10.53 0 6.53-.354 14.714-1.186 20.458-.002.006-.002.01-.002.014-.514 3.54-1.21 6.15-2.116 6.872-.24.192-1.614.578-3.792 1.054-3.594.782-9.376 1.8-15.892 2.574a186.11 186.11 0 0 1-3.06.336c-4.682.478-9.612.8-14.29.8"/>
        <path fill="#292C6C" d="M68.206 64.406c2.382-2.426 3.86-5.32 1.908-8.24-.784-1.17-1.56-2.216-2.242-3.232-.22-1.612-.946-3.076-2.024-4.25-.512-2.252-.162-4.938 1.76-8.85 6.026 1.888 10.898 3.768 11.086 4.144.374.75-4.626 19.75-5.376 20-.238.078-2.228.25-5.112.428"/>
        <path fill="#FFFFFE" d="M67.872 52.934c-.926-1.384-1.674-2.716-2.024-4.25 1.078 1.174 1.804 2.638 2.024 4.25"/>
        <path fill="#26337D" d="M67.732 25.624l-1.786-.314 2.848-16.252 1.79.314-2.852 16.252"/>
        <path fill="#26337D" d="M74.38 7.888c-.56 2.314-2.93 3.722-5.294 3.15-2.362-.576-3.822-2.914-3.26-5.228.562-2.312 3.194-5.146 5.556-4.572 2.362.572 3.562 4.338 2.998 6.65M70.988 28.234c-.208 1.122-2.254 1.182-4.74.772-2.484-.408-4.37-1.556-4.212-2.564.284-1.84 2.602-3.242 5.09-2.834 2.486.408 4.258 2.488 3.862 4.626"/>
        <path fill="#B5BCD4" d="M23.52 84.668c-2.114 0-6.574-.922-10.948-2.576-1.032-.39-2.65-1.132-4.382-2.112a70.88 70.88 0 0 0 2.56-4.282c.616-.074 1.22-.108 1.812-.108 4.47 0 8.174 1.98 9.626 3.504 1.1 1.16 3.454 1.92 5.132 2.338-.666 1.452-1.7 2.774-2.872 3.138-.216.066-.53.098-.928.098M8.176 79.972c-.264-.15-.53-.306-.798-.466.278.144.552.284.798.466m-1.692-1.02C2.88 76.642-.55 73.48.298 70.444c1.688 3.202 3.758 5.772 7.058 5.772.268 0 .544-.016.828-.052-.562.97-1.142 1.92-1.7 2.788"/>
        <path fill="#344388" d="M8.19 79.98c-.004-.004-.01-.006-.014-.008-.246-.182-.52-.322-.798-.466a36.149 36.149 0 0 1-.894-.554 71.514 71.514 0 0 0 1.7-2.788c.29-.036.59-.09.9-.164a14.846 14.846 0 0 1 1.666-.302 70.88 70.88 0 0 1-2.56 4.282"/>
    </g>
</svg>
