<svg xmlns="http://www.w3.org/2000/svg" width="154" height="20" viewBox="0 0 154 20">
    <g fill="none" fill-rule="nonzero">
        <path fill="#FFF" d="M7 7.354A4 4 0 0 1 14 10v10h-2V10a2 2 0 1 0-4 0v10H6V10a2 2 0 1 0-4 0v10H0V10a4 4 0 0 1 7-2.646zM19 6v9a3 3 0 0 0 6 0V6h2v9a5 5 0 0 1-10 0V6h2zm11-6h2v20h-2V0zM124 6v9a3 3 0 0 0 6 0V6h2v9a5 5 0 1 1-10 0V6h2zm13 14h-2v-9a5 5 0 0 1 5-5v2a3 3 0 0 0-3 3v9zm9-8v-1h4.5a1.5 1.5 0 0 0 0-3H146v4zm0 0v3a3 3 0 0 0 3 3h4v2h-4a5 5 0 0 1-5-5V6h6.5a3.5 3.5 0 1 1 0 7H146v-1zM85 20h-2v-9a5 5 0 0 1 10 0v9h-2v-9a3 3 0 0 0-6 0v9zm19-7.5v1-1zm0 1v.5h-4a2 2 0 1 0 0 4h4v-4.5zm0-1V11a3 3 0 0 0-3-3h-4V6h4a5 5 0 0 1 5 5v9h-6a4 4 0 1 1 0-8h4v.5zM48 6h2v14h-2V6zm17 0h2v14h-2V6zm-4 0v2h-4a2 2 0 1 0 0 4h1a4 4 0 1 1 0 8h-4v-2h4a2 2 0 1 0 0-4h-1a4 4 0 1 1 0-8h4zm17 7h-2v-2h4v4a5 5 0 0 1-10 0V6h9v2h-7v7a3 3 0 0 0 6 0v-2z"/>
        <path fill="#006FEE" d="M41 12h3v2h-3a4 4 0 0 0 4 4v2a6 6 0 0 1-6-6h-3v-2h3a4 4 0 0 0-4-4V6a6 6 0 0 1 6 6zM115 12h3v2h-3a4 4 0 0 0 4 4v2a6 6 0 0 1-6-6h-3v-2h3a4 4 0 0 0-4-4V6a6 6 0 0 1 6 6z"/>
    </g>
</svg>
