<?xml version="1.0" encoding="UTF-8"?>
<svg width="157px" height="20px" viewBox="0 0 157 20" version="1.1" xmlns="http://www.w3.org/2000/svg" xmlns:xlink="http://www.w3.org/1999/xlink">
    <!-- Generator: Sketch 52.1 (67048) - http://www.bohemiancoding.com/sketch -->
    <title>multisig</title>
    <desc>Created with Sketch.</desc>
    <g id="New-version" stroke="none" stroke-width="1" fill="none" fill-rule="evenodd">
        <g id="-g-Emporium_Wallet_New07" transform="translate(-1006.000000, -842.000000)">
            <g id="Content" transform="translate(100.000000, 0.000000)">
                <g id="Scheme" transform="translate(710.000000, 260.000000)">
                    <g id="04" transform="translate(109.000000, 480.000000)">
                        <g id="multisig" transform="translate(86.000000, 102.000000)">
                            <path d="M2.39648438,15.4130859 C2.00390429,15.4130859 1.66699359,15.2724623 1.38574219,14.9912109 C1.10449078,14.7099595 0.963867188,14.3730488 0.963867188,13.9804688 C0.963867188,13.5820293 1.10595561,13.2436537 1.39013672,12.965332 C1.67431783,12.6870103 2.00976369,12.5478516 2.39648438,12.5478516 C2.78320506,12.5478516 3.11865092,12.6870103 3.40283203,12.965332 C3.68701314,13.2436537 3.82910156,13.5820293 3.82910156,13.9804688 C3.82910156,14.3730488 3.68847797,14.7099595 3.40722656,14.9912109 C3.12597516,15.2724623 2.78906446,15.4130859 2.39648438,15.4130859 Z M8.42578125,15 L8.42578125,5.18261719 L9.85839844,5.18261719 L9.85839844,7.43261719 C10.3095726,6.47753429 10.7299785,5.81836119 11.1196289,5.45507812 C11.5092793,5.09179506 11.9033183,4.91015625 12.3017578,4.91015625 C12.7763696,4.91015625 13.15869,5.09618955 13.4487305,5.46826172 C13.738771,5.84033389 13.8837891,6.3691372 13.8837891,7.0546875 L13.8837891,7.58203125 C14.0771494,6.98437201 14.3100572,6.49951358 14.5825195,6.12744141 C14.8549818,5.75536923 15.1376938,5.45947375 15.4306641,5.23974609 C15.7236343,5.02001843 16.060545,4.91015625 16.4414062,4.91015625 C16.8632834,4.91015625 17.2236313,5.0888654 17.5224609,5.44628906 C17.8212906,5.80371272 17.9707031,6.51561967 17.9707031,7.58203125 L17.9707031,15 L16.5380859,15 L16.5380859,8.29394531 C16.5380859,7.74316131 16.520508,7.36670023 16.4853516,7.16455078 C16.4501951,6.96240133 16.3798833,6.80859428 16.2744141,6.703125 C16.1689448,6.59765572 16.0546881,6.54492188 15.9316406,6.54492188 C15.6269516,6.54492188 15.3002947,6.7778297 14.9516602,7.24365234 C14.6030256,7.70947499 14.2470721,8.48143992 13.8837891,9.55957031 L13.8837891,15 L12.5126953,15 L12.5126953,8.30273438 C12.5126953,7.43554254 12.4277352,6.92578201 12.2578125,6.7734375 C12.0878898,6.62109299 11.9355475,6.54492188 11.8007812,6.54492188 C11.5019516,6.54492188 11.1811541,6.80566146 10.8383789,7.32714844 C10.4956038,7.84863542 10.1689469,8.51659749 9.85839844,9.33105469 L9.85839844,15 L8.42578125,15 Z M28.0429688,5.18261719 L28.0429688,15 L26.4082031,15 L26.4082031,12.8466797 C25.8808567,13.6552775 25.2949251,14.2617167 24.6503906,14.6660156 C24.0058562,15.0703145 23.3613313,15.2724609 22.7167969,15.2724609 C22.1425753,15.2724609 21.6167016,15.1186539 21.1391602,14.8110352 C20.6616187,14.5034164 20.3291025,14.0991236 20.1416016,13.5981445 C19.9541006,13.0971655 19.8603516,12.1201245 19.8603516,10.6669922 L19.8603516,5.18261719 L21.4951172,5.18261719 L21.4951172,10.8691406 C21.4951172,11.8125047 21.5405269,12.4350571 21.6313477,12.7368164 C21.7221684,13.0385757 21.8891589,13.2861318 22.1323242,13.4794922 C22.3754895,13.6728525 22.6376939,13.7695312 22.9189453,13.7695312 C23.4931669,13.7695312 24.10986,13.4985379 24.769043,12.956543 C25.428226,12.4145481 25.9746072,11.7304729 26.4082031,10.9042969 L26.4082031,5.18261719 L28.0429688,5.18261719 Z M33.4042969,15 L33.4042969,2.18554688 L30.46875,2.18554688 L30.46875,0.814453125 L35.0390625,0.814453125 L35.0390625,13.6376953 L38.1064453,13.6376953 L38.1064453,15 L33.4042969,15 Z M55.1220703,15 L55.1220703,6.54492188 L52.3974609,6.54492188 L52.3974609,5.18261719 L56.7568359,5.18261719 L56.7568359,13.6376953 L59.4902344,13.6376953 L59.4902344,15 L55.1220703,15 Z M54.8496094,1.640625 C54.8496094,1.27148253 54.9755847,0.996094658 55.2275391,0.814453125 C55.4794934,0.632811592 55.7167958,0.541992188 55.9394531,0.541992188 C56.1679699,0.541992188 56.4082019,0.632811592 56.6601562,0.814453125 C56.9121106,0.996094658 57.0380859,1.27148253 57.0380859,1.640625 C57.0380859,2.00390807 56.9121106,2.27636628 56.6601562,2.45800781 C56.4082019,2.63964935 56.1679699,2.73046875 55.9394531,2.73046875 C55.7167958,2.73046875 55.4794934,2.63964935 55.2275391,2.45800781 C54.9755847,2.27636628 54.8496094,2.00390807 54.8496094,1.640625 Z M63.2871094,14.4814453 L63.2871094,12.75 C63.9433627,13.1777365 64.6376917,13.4780265 65.3701172,13.6508789 C66.1025427,13.8237313 66.7236303,13.9101562 67.2333984,13.9101562 C68.0595744,13.9101562 68.6542951,13.7768568 69.0175781,13.5102539 C69.3808612,13.243651 69.5625,12.9111348 69.5625,12.5126953 C69.5625,12.2490221 69.4775399,12.0234384 69.3076172,11.8359375 C69.1376945,11.6484366 68.7158237,11.4169936 68.0419922,11.1416016 L67.4794922,10.9130859 L66.3457031,10.4648438 C65.126947,9.990232 64.3593766,9.55078327 64.0429688,9.14648438 C63.7207015,8.74804488 63.5595703,8.26172162 63.5595703,7.6875 C63.5595703,6.87890221 63.8715789,6.21386979 64.4956055,5.69238281 C65.119632,5.17089583 66.1318289,4.91015625 67.5322266,4.91015625 C68.5810599,4.91015625 69.5742141,5.06249848 70.5117188,5.3671875 L70.5117188,6.85253906 C69.4335884,6.46581838 68.4199266,6.27246094 67.4707031,6.27246094 C66.7792934,6.27246094 66.2387715,6.39404175 65.8491211,6.63720703 C65.4594707,6.88037231 65.2646484,7.18359193 65.2646484,7.546875 C65.2646484,7.89843926 65.4345686,8.17968645 65.7744141,8.390625 C66.1084001,8.60156355 66.6533165,8.84472519 67.4091797,9.12011719 L68.5166016,9.52441406 C69.5302785,9.89355653 70.2421854,10.2949197 70.6523438,10.7285156 C71.0625021,11.1621115 71.2675781,11.7040983 71.2675781,12.3544922 C71.2675781,13.2041058 70.9409212,13.9028293 70.2875977,14.4506836 C69.6342741,14.9985379 68.5898509,15.2724609 67.1542969,15.2724609 C65.9003844,15.2724609 64.6113347,15.0087917 63.2871094,14.4814453 Z M76.7255859,15 L76.7255859,6.54492188 L74.0009766,6.54492188 L74.0009766,5.18261719 L78.3603516,5.18261719 L78.3603516,13.6376953 L81.09375,13.6376953 L81.09375,15 L76.7255859,15 Z M76.453125,1.640625 C76.453125,1.27148253 76.5791003,0.996094658 76.8310547,0.814453125 C77.0830091,0.632811592 77.3203114,0.541992188 77.5429688,0.541992188 C77.7714855,0.541992188 78.0117175,0.632811592 78.2636719,0.814453125 C78.5156263,0.996094658 78.6416016,1.27148253 78.6416016,1.640625 C78.6416016,2.00390807 78.5156263,2.27636628 78.2636719,2.45800781 C78.0117175,2.63964935 77.7714855,2.73046875 77.5429688,2.73046875 C77.3203114,2.73046875 77.0830091,2.63964935 76.8310547,2.45800781 C76.5791003,2.27636628 76.453125,2.00390807 76.453125,1.640625 Z M91.3330078,12.7939453 C90.8349584,13.6142619 90.2358433,14.2324198 89.5356445,14.6484375 C88.8354457,15.0644552 88.1923857,15.2724609 87.6064453,15.2724609 C86.7861287,15.2724609 86.0493197,14.9179723 85.3959961,14.2089844 C84.7426725,13.4999965 84.4160156,12.4248119 84.4160156,10.9833984 C84.4160156,9.846674 84.6328103,8.83154744 85.0664062,7.93798828 C85.5000022,7.04442913 86.0800745,6.3383815 86.8066406,5.81982422 C87.5332068,5.30126694 88.4326118,5.04199219 89.5048828,5.04199219 C89.8154312,5.04199219 90.2841766,5.07421843 90.9111328,5.13867188 C91.0048833,5.15039068 91.1455069,5.16503897 91.3330078,5.18261719 L92.9765625,5.18261719 L92.9765625,12.1259766 C92.9765625,13.7783286 92.9545901,14.7875958 92.9106445,15.1538086 C92.866699,15.5200214 92.7949224,15.8906231 92.6953125,16.265625 C92.4609363,17.1386762 91.9262737,17.8271459 91.0913086,18.3310547 C90.2563435,18.8349635 89.2470762,19.0869141 88.0634766,19.0869141 C86.8740175,19.0869141 85.669928,18.7822296 84.4511719,18.1728516 L84.4511719,16.5205078 C84.9140648,16.8369156 85.4838833,17.116698 86.1606445,17.3598633 C86.8374057,17.6030286 87.4921843,17.7246094 88.125,17.7246094 C88.6230494,17.7246094 89.0947243,17.6455086 89.5400391,17.4873047 C89.9853538,17.3291008 90.3457017,17.1005874 90.6210938,16.8017578 C90.8964858,16.5029282 91.0839839,16.1557637 91.1835938,15.7602539 C91.2832036,15.3647441 91.3330078,14.8388705 91.3330078,14.1826172 L91.3330078,12.7939453 Z M91.3330078,10.8515625 L91.3330078,6.64160156 C90.7529268,6.48925705 90.2138697,6.41308594 89.7158203,6.41308594 C88.7080028,6.41308594 87.8686557,6.80273048 87.1977539,7.58203125 C86.5268521,8.36133202 86.1914062,9.42186829 86.1914062,10.7636719 C86.1914062,11.736333 86.3745099,12.4702124 86.7407227,12.965332 C87.1069354,13.4604517 87.5244117,13.7080078 87.9931641,13.7080078 C88.5029322,13.7080078 89.0654266,13.4501979 89.6806641,12.9345703 C90.2959015,12.4189427 90.8466773,11.7246137 91.3330078,10.8515625 Z M95.578125,15 L95.578125,5.18261719 L97.2128906,5.18261719 L97.2128906,7.32714844 C97.681643,6.57128528 98.247067,5.97949433 98.9091797,5.55175781 C99.5712924,5.1240213 100.233395,4.91015625 100.895508,4.91015625 C101.475589,4.91015625 102.002927,5.06396331 102.477539,5.37158203 C102.952151,5.67920076 103.284667,6.08202876 103.475098,6.58007812 C103.665528,7.07812749 103.760742,8.05663333 103.760742,9.515625 L103.760742,15 L102.125977,15 L102.125977,9.31347656 C102.125977,8.37011247 102.080567,7.7475601 101.989746,7.44580078 C101.898925,7.14404146 101.731935,6.89648534 101.48877,6.703125 C101.245604,6.50976466 100.98047,6.41308594 100.693359,6.41308594 C100.119138,6.41308594 99.5024447,6.68554415 98.8432617,7.23046875 C98.1840787,7.77539335 97.6406271,8.45800371 97.2128906,9.27832031 L97.2128906,15 L95.578125,15 Z M112.831055,12.7939453 C112.333005,13.6142619 111.73389,14.2324198 111.033691,14.6484375 C110.333493,15.0644552 109.690433,15.2724609 109.104492,15.2724609 C108.284176,15.2724609 107.547367,14.9179723 106.894043,14.2089844 C106.240719,13.4999965 105.914062,12.4248119 105.914062,10.9833984 C105.914062,9.846674 106.130857,8.83154744 106.564453,7.93798828 C106.998049,7.04442913 107.578121,6.3383815 108.304688,5.81982422 C109.031254,5.30126694 109.930659,5.04199219 111.00293,5.04199219 C111.313478,5.04199219 111.782223,5.07421843 112.40918,5.13867188 C112.50293,5.15039068 112.643554,5.16503897 112.831055,5.18261719 L114.474609,5.18261719 L114.474609,12.1171875 C114.474609,13.3007872 114.597655,14.2617151 114.84375,15 L113.138672,15 C113.009765,14.4609348 112.907227,13.7255906 112.831055,12.7939453 Z M112.831055,10.8515625 L112.831055,6.64160156 C112.250974,6.48925705 111.711917,6.41308594 111.213867,6.41308594 C110.20605,6.41308594 109.366703,6.80273048 108.695801,7.58203125 C108.024899,8.36133202 107.689453,9.42186829 107.689453,10.7636719 C107.689453,11.736333 107.872557,12.4702124 108.23877,12.965332 C108.604982,13.4604517 109.022459,13.7080078 109.491211,13.7080078 C110.000979,13.7080078 110.563473,13.4501979 111.178711,12.9345703 C111.793948,12.4189427 112.344724,11.7246137 112.831055,10.8515625 Z M136.060547,5.18261719 L136.060547,15 L134.425781,15 L134.425781,12.8466797 C133.898435,13.6552775 133.312503,14.2617167 132.667969,14.6660156 C132.023434,15.0703145 131.378909,15.2724609 130.734375,15.2724609 C130.160153,15.2724609 129.63428,15.1186539 129.156738,14.8110352 C128.679197,14.5034164 128.346681,14.0991236 128.15918,13.5981445 C127.971679,13.0971655 127.87793,12.1201245 127.87793,10.6669922 L127.87793,5.18261719 L129.512695,5.18261719 L129.512695,10.8691406 C129.512695,11.8125047 129.558105,12.4350571 129.648926,12.7368164 C129.739747,13.0385757 129.906737,13.2861318 130.149902,13.4794922 C130.393068,13.6728525 130.655272,13.7695312 130.936523,13.7695312 C131.510745,13.7695312 132.127438,13.4985379 132.786621,12.956543 C133.445804,12.4145481 133.992185,11.7304729 134.425781,10.9042969 L134.425781,5.18261719 L136.060547,5.18261719 Z M139.620117,15 L139.620117,5.18261719 L141.254883,5.18261719 L141.254883,7.32714844 C141.764651,6.51855064 142.349118,5.91357623 143.008301,5.51220703 C143.667484,5.11083784 144.401363,4.91015625 145.209961,4.91015625 C145.801761,4.91015625 146.393552,5.00097565 146.985352,5.18261719 L146.985352,8.72460938 L145.412109,8.72460938 L145.412109,6.48339844 C145.136717,6.4365232 144.919923,6.41308594 144.761719,6.41308594 C144.152341,6.41308594 143.55469,6.65331791 142.96875,7.13378906 C142.38281,7.61426021 141.811526,8.33495613 141.254883,9.29589844 L141.254883,15 L139.620117,15 Z M157.751953,14.3496094 C156.445306,14.9707062 155.20899,15.28125 154.042969,15.28125 C153.158199,15.28125 152.367191,15.0615256 151.669922,14.6220703 C150.972653,14.182615 150.414553,13.5542033 149.995605,12.7368164 C149.576658,11.9194295 149.367188,11.0449265 149.367188,10.1132812 C149.367188,9.21679239 149.566404,8.35547288 149.964844,7.52929688 C150.363283,6.70312087 150.919918,6.06006089 151.634766,5.60009766 C152.349613,5.14013442 153.14648,4.91015625 154.025391,4.91015625 C155.191412,4.91015625 156.127438,5.32616771 156.833496,6.15820312 C157.539554,6.99023854 157.892578,8.27342883 157.892578,10.0078125 L157.892578,10.359375 L151.125,10.359375 C151.125,11.0390659 151.267088,11.6601534 151.55127,12.2226562 C151.835451,12.7851591 152.208982,13.2070298 152.671875,13.4882812 C153.134768,13.7695327 153.662106,13.9101562 154.253906,13.9101562 C155.308599,13.9101562 156.474603,13.5585973 157.751953,12.8554688 L157.751953,14.3496094 Z M151.22168,9.13769531 L156.117188,9.13769531 L156.117188,8.90039062 C156.117188,8.09765224 155.9209,7.45898675 155.52832,6.984375 C155.13574,6.50976325 154.611331,6.27246094 153.955078,6.27246094 C153.292965,6.27246094 152.720217,6.51415774 152.236816,6.99755859 C151.753416,7.48095945 151.41504,8.19433122 151.22168,9.13769531 Z" id=".multisignature" fill="#FFFFFF"></path>
                            <path d="M125.390625,14.6044922 C124.623043,14.9267594 124.066408,15.118652 123.720703,15.1801758 C123.374998,15.2416995 123.041017,15.2724609 122.71875,15.2724609 C122.0332,15.2724609 121.406253,15.1406263 120.837891,14.8769531 C120.269528,14.6132799 119.840333,14.2236354 119.550293,13.7080078 C119.260252,13.1923802 119.115234,12.3955132 119.115234,11.3173828 L119.115234,7.36230469 L116.663086,7.36230469 L116.663086,6 L119.115234,6 L119.115234,6.04492188 L120.75,6.04492188 L120.75,6 L125.118164,6 L125.118164,7.36230469 L120.75,7.36230469 L120.75,11.2910156 C120.75,12.0820352 120.843749,12.6401351 121.03125,12.965332 C121.218751,13.290529 121.469237,13.5292961 121.782715,13.6816406 C122.096193,13.8339851 122.466795,13.9101562 122.894531,13.9101562 C123.685551,13.9101562 124.517574,13.6611353 125.390625,13.1630859 L125.390625,14.6044922 Z" id="Path" fill="#2B8EFF"></path>
                            <path d="M49.7783203,14.6044922 C49.0107383,14.9267594 48.4541033,15.118652 48.1083984,15.1801758 C47.7626936,15.2416995 47.4287125,15.2724609 47.1064453,15.2724609 C46.420895,15.2724609 45.7939482,15.1406263 45.2255859,14.8769531 C44.6572237,14.6132799 44.2280288,14.2236354 43.9379883,13.7080078 C43.6479478,13.1923802 43.5029297,12.3955132 43.5029297,11.3173828 L43.5029297,7.36230469 L41.0507812,7.36230469 L41.0507812,6 L43.5029297,6 L43.5029297,6.04492188 L45.1376953,6.04492188 L45.1376953,6 L49.5058594,6 L49.5058594,7.36230469 L45.1376953,7.36230469 L45.1376953,11.2910156 C45.1376953,12.0820352 45.2314444,12.6401351 45.4189453,12.965332 C45.6064463,13.290529 45.856932,13.5292961 46.1704102,13.6816406 C46.4838883,13.8339851 46.85449,13.9101562 47.2822266,13.9101562 C48.0732461,13.9101562 48.9052691,13.6611353 49.7783203,13.1630859 L49.7783203,14.6044922 Z" id="Path" fill="#2B8EFF"></path>
                            <path d="M45.1353906,9.60449219 C44.3678087,9.92675942 43.8111736,10.118652 43.4654688,10.1801758 C43.1197639,10.2416995 42.7857829,10.2724609 42.4635156,10.2724609 C41.7779653,10.2724609 41.1510185,10.1406263 40.5826563,9.87695313 C40.014294,9.61327993 39.5850991,9.22363539 39.2950586,8.70800781 C39.0050181,8.19238023 38.86,7.3955132 38.86,6.31738281 L38.86,2.36230469 L38.86,1 L40.4947656,1 L40.4947656,2.36230469 L40.4947656,6.29101562 C40.4947656,7.08203521 40.5885147,7.64013509 40.7760156,7.96533203 C40.9635166,8.29052897 41.2140023,8.52929611 41.5274805,8.68164062 C41.8409586,8.83398514 42.2115604,8.91015625 42.6392969,8.91015625 C43.4303165,8.91015625 44.2623394,8.6611353 45.1353906,8.16308594 L45.1353906,9.60449219 Z" id="t" fill="#2B8EFF" transform="translate(41.997695, 5.636230) scale(-1, -1) translate(-41.997695, -5.636230) "></path>
                            <path d="M120.735391,9.60449219 C119.967809,9.92675942 119.411174,10.118652 119.065469,10.1801758 C118.719764,10.2416995 118.385783,10.2724609 118.063516,10.2724609 C117.377965,10.2724609 116.751018,10.1406263 116.182656,9.87695313 C115.614294,9.61327993 115.185099,9.22363539 114.895059,8.70800781 C114.605018,8.19238023 114.46,7.3955132 114.46,6.31738281 L114.46,2.36230469 L114.46,1 L116.094766,1 L116.094766,2.36230469 L116.094766,6.29101562 C116.094766,7.08203521 116.188515,7.64013509 116.376016,7.96533203 C116.563517,8.29052897 116.814002,8.52929611 117.12748,8.68164062 C117.440959,8.83398514 117.81156,8.91015625 118.239297,8.91015625 C119.030316,8.91015625 119.862339,8.6611353 120.735391,8.16308594 L120.735391,9.60449219 Z" id="t" fill="#2B8EFF" transform="translate(117.597695, 5.636230) scale(-1, -1) translate(-117.597695, -5.636230) "></path>
                        </g>
                    </g>
                </g>
            </g>
        </g>
    </g>
</svg>