<?xml version="1.0" encoding="UTF-8"?>
<svg width="18px" height="14px" viewBox="0 0 18 14" version="1.1" xmlns="http://www.w3.org/2000/svg" xmlns:xlink="http://www.w3.org/1999/xlink">
    <!-- Generator: Sketch 52 (66869) - http://www.bohemiancoding.com/sketch -->
    <title>06</title>
    <desc>Created with Sketch.</desc>
    <g id="New-version" stroke="none" stroke-width="1" fill="none" fill-rule="evenodd" opacity="0.5">
        <g id="-g-Emporium_Profile02" transform="translate(-610.000000, -582.000000)" fill="#11223E" fill-rule="nonzero">
            <g id="Content" transform="translate(100.000000, 0.000000)">
                <g id="Me02" transform="translate(40.000000, 139.000000)">
                    <g id="02" transform="translate(430.000000, 120.000000)">
                        <g id="06" transform="translate(40.000000, 323.000000)">
                            <path d="M2,0 L16,0 C17.1045695,-2.02906125e-16 18,0.8954305 18,2 L18,12 C18,13.1045695 17.1045695,14 16,14 L2,14 C0.8954305,14 1.3527075e-16,13.1045695 0,12 L0,2 C-1.3527075e-16,0.8954305 0.8954305,2.02906125e-16 2,0 Z M2,1 C1.44771525,1 1,1.44771525 1,2 L1,12 C1,12.5522847 1.44771525,13 2,13 L16,13 C16.5522847,13 17,12.5522847 17,12 L17,2 C17,1.44771525 16.5522847,1 16,1 L2,1 Z M9,3 L15,3 L15,4 L9,4 L9,3 Z M9,6 L15,6 L15,7 L9,7 L9,6 Z M3,9 L15,9 L15,10 L3,10 L3,9 Z M3,3 L7,3 L7,7 L3,7 L3,3 Z M4,4 L4,6 L6,6 L6,4 L4,4 Z" id="Combined-Shape"></path>
                        </g>
                    </g>
                </g>
            </g>
        </g>
    </g>
</svg>