<svg xmlns="http://www.w3.org/2000/svg" width="25" height="25" viewBox="0 0 25 25">
    <defs>
        <linearGradient id="a" x1="50%" x2="50%" y1="0%" y2="100%">
            <stop offset="0%" stop-color="#EE6174"/>
            <stop offset="100%" stop-color="#F89948"/>
        </linearGradient>
    </defs>
    <g fill="none" fill-rule="evenodd">
        <rect width="25" height="25" fill="url(#a)" rx="5"/>
        <path fill="#FFF" fill-rule="nonzero" d="M8.125 8.75h8.75v-2.5h-8.75v2.5zm0 1.25v9.375h8.75V10h-8.75zm10-3.75v2.5a1.25 1.25 0 0 0 0-2.5zm0 3.75v9.375c0 .69-.56 1.25-1.25 1.25h-8.75c-.69 0-1.25-.56-1.25-1.25V10a2.5 2.5 0 0 1 0-5h11.25a2.5 2.5 0 1 1 0 5zM6.875 8.75v-2.5a1.25 1.25 0 1 0 0 2.5zm1.25 0V10h8.75V8.75h-8.75zm4.375 4.375c1.111 0 1.875-.535 1.875-.938 0-.402-.764-.937-1.875-.937s-1.875.535-1.875.938c0 .402.764.937 1.875.937zm0 1.25c-1.726 0-3.125-.98-3.125-2.188 0-1.208 1.4-2.187 3.125-2.187 1.726 0 3.125.98 3.125 2.188 0 1.208-1.4 2.187-3.125 2.187zm-.625 1.25h1.25v2.5h-1.25v-2.5zm0-9.375h1.25v2.5h-1.25v-2.5z"/>
    </g>
</svg>
