<svg xmlns="http://www.w3.org/2000/svg" xmlns:xlink="http://www.w3.org/1999/xlink" width="415" height="301" viewBox="0 0 415 301">
    <defs>
        <linearGradient id="c" x1="50%" x2="50%" y1="0%" y2="100%">
            <stop offset="0%" stop-color="#EE6174"/>
            <stop offset="100%" stop-color="#F89948"/>
        </linearGradient>
        <path id="b" d="M177.854 123.032c-13.225-1.616-22.634-13.647-21.018-26.871l.098-.802c1.617-13.224 13.647-22.633 26.871-21.017l.802.097c13.224 1.618 22.634 13.648 21.017 26.872l-.098.801c-1.616 13.225-13.647 22.634-26.871 21.018l-.801-.098z"/>
        <filter id="a" width="201.7%" height="201.7%" x="-50.9%" y="-40.7%" filterUnits="objectBoundingBox">
            <feOffset dy="5" in="SourceAlpha" result="shadowOffsetOuter1"/>
            <feGaussianBlur in="shadowOffsetOuter1" result="shadowBlurOuter1" stdDeviation="7.5"/>
            <feColorMatrix in="shadowBlurOuter1" values="0 0 0 0 0.968627451 0 0 0 0 0.576470588 0 0 0 0 0.101960784 0 0 0 0.3 0"/>
        </filter>
        <path id="d" d="M6.85 24.102L.766 12.409 6.85.715l6.083 11.694L6.85 24.102"/>
    </defs>
    <g fill="none" fill-rule="evenodd">
        <path fill="#E4EDF1" d="M341.588 243.052H82.551a5 5 0 0 1-5-5V49.539a5 5 0 0 1 5-5h259.037a5 5 0 0 1 5 5v188.513a5 5 0 0 1-5 5"/>
        <path fill="#FFFFFE" d="M321.663 208.654H102.476a4 4 0 0 1-4-4V78.063h227.187v126.591a4 4 0 0 1-4 4"/>
        <path fill="#BBC7DB" d="M107.127 202.604a2.129 2.129 0 0 1-1.237-3.863l45.025-32.103a2.129 2.129 0 0 1 2.451-.015l21.768 15.115 45.067-38.411a2.133 2.133 0 0 1 2.664-.079l24.597 18.569 72.149-73.692a2.131 2.131 0 0 1 3.011-.031c.841.823.856 2.171.031 3.011l-73.46 75.03a2.129 2.129 0 0 1-2.803.21l-24.727-18.667-45.015 38.366a2.127 2.127 0 0 1-2.595.128l-21.886-15.196-43.805 31.233a2.115 2.115 0 0 1-1.235.395" opacity=".5"/>
        <path fill="#D2DAE3" d="M346.588 146.611h-99.757a5.324 5.324 0 0 1-5.324-5.324V99.593a5.324 5.324 0 0 1 5.324-5.324h99.757v52.342"/>
        <path fill="#E69B99" d="M150.381 52.222c-5.44 6.814-12.821 28.226-17.002 31.409-3.054 2.325-17.246 7.389-18.6 7.483-1.354.094-15.066-5.965-15.066-5.965s17.816-8.913 19.57-10.029c1.754-1.116 4.303-8.636 5.213-13.618.909-4.982 6.331-15.823 6.331-15.823l19.554 6.543"/>
        <path fill="#EFA9A7" d="M154.047 47.226c-1.559 8.578 4.143 27.896 1.836 33.638-1.431 3.563-12.384 21.365-13.531 22.09-1.148.725-20.23-5.293-20.23-5.293s15.843-12.063 16.858-13.878c1.015-1.813-1.763-11.296-3.324-16.114-1.561-4.817-1.928-16.934-1.928-16.934l20.319-3.509"/>
        <path fill="#D1D7E4" d="M283.683 295.987c12.977-2.909 14.698-8.423 5.261-11.108-9.437-2.686-101.265-11.292-105.072.494-3.154 9.76 9.33 9.276 21.494 8.792 6.611-.263 13.128-.526 16.988.855 10.961 3.924 24.964 7.525 31.561 3.832 6.597-3.693 23.095-1.369 29.768-2.865" opacity=".4"/>
        <g transform="translate(-1)">
            <use fill="#000" filter="url(#a)" xlink:href="#b"/>
            <use fill="url(#c)" xlink:href="#b"/>
        </g>
        <path fill="#FFFFFE" d="M179.126 96.688c1.728.235 3.368.578 5.022.089.948-.28 1.632-.818 1.852-1.86.207-.982-.084-1.806-.844-2.363-1.571-1.154-3.444-1.253-5.313-1.413l-.717 5.547zm-1.154 9.175c.358.047.627.08.895.118 1.592.229 3.184.361 4.788.093.87-.146 1.623-.503 2.149-1.214.915-1.239.401-3.029-1.086-3.803-1.738-.906-3.638-1.142-5.554-1.317-.383-.034-.459.132-.498.464-.137 1.175-.311 2.345-.458 3.518-.089.702-.156 1.407-.236 2.141zm-.744-18.499l.622-4.708 2.951.406c-.178 1.387-.329 2.698-.525 4.001-.067.448.066.622.503.652.503.035 1.004.109 1.599.178l.601-4.536 2.946.349-.568 4.601c1.082.39 2.162.742 3.212 1.167 2.991 1.208 4.081 5.287 2.058 7.802-.447.556-1.117.933-1.72 1.422.26.153.569.349.891.521 1.745.931 2.379 2.502 2.299 4.343-.078 1.8-.544 3.52-1.949 4.814a5.654 5.654 0 0 1-3.231 1.478c-1.422.164-2.858.202-4.383.3l-.599 4.578-2.954-.366.577-4.66-2.14-.291-.617 4.658-2.94-.369.585-4.736-5.725-.763.998-3.405c.702.077 1.414.116 2.109.243.587.107 1.063-.195 1.163-.913.57-4.105 1.091-8.217 1.617-12.328.122-.954-.364-1.576-1.338-1.738-.705-.117-1.415-.199-2.187-.304l.407-3.136 5.738.74z"/>
        <path fill="#F8974A" d="M382.512 69.658h18.643a2 2 0 0 1 2 2v.161c0 1.106-.895 2-2 2h-18.643c-1.105 0-2-.894-2-2v-.161a2 2 0 0 1 2-2M367.359 69.658h4.118a2 2 0 0 1 2 2v.161a2 2 0 0 1-2 2h-4.118a2 2 0 0 1-2-2v-.161a2 2 0 0 1 2-2"/>
        <path fill="#F2BDB9" d="M39.184 36.688c5.452-2.725 24.115-15.936 27.89-16.356 3.775-.419 30.826-2.097 39.633-3.146 8.808-1.047 26.88-5.415 32.923-3.984 7.969 1.888 24.745 23.486 29.148 25.584 2.548 1.213 35.65 27.051 37.956 28.519 2.307 1.468 15.728 8.597 16.357 9.856.629 1.258-.21 4.613-1.258 5.032-1.049.42-18.56.715-25.27-2.01-5.607-2.279-21.494-14.346-22.961-14.975-1.468-.629-29.778-11.114-31.875-11.533-2.097-.42-3.984-2.727-5.242-1.888s-20.131 13.841-22.019 13.631c-1.887-.21 7.656 14.53 11.431 17.676 3.774 3.145 22.843 6.05 29.143 18.915 3.573 7.299 6.96 20.511 6.122 21.56-.839 1.049-2.09 2.541-2.929 1.912-.838-.629-16.924-17.081-24.265-17.914-11.846-1.344-36.278-16.985-46.344-26.212-3.958-3.629-5.242-6.291-6.919-5.453-1.678.839-11.275 5.097-18.245 11.745-5.523 5.267-10.694 15.307-10.694 15.307s-19.16-6.906-32.504-17.824C7.729 75.693-.03 52.207-.03 52.207c7.34-2.098 33.761-12.792 39.214-15.519z"/>
        <path fill="#25244F" d="M51.766 102.954s-19.16-6.906-32.504-17.824c13.306 10.887 32.394 17.784 32.504 17.824"/>
        <path fill="#E6EEF3" d="M77.551 77.446c1.537-.78 2.672-1.303 3.154-1.544.21-.105.414-.155.618-.155.325 0 .649.127.997.36l.006.007.001.001c-.353-.236-.681-.366-1.009-.366-.203 0-.405.049-.613.153-.482.241-1.617.764-3.154 1.544"/>
        <path fill="#E98FAA" d="M51.766 102.954c-.11-.04-19.198-6.937-32.504-17.824l-.022-.018-.004-.004c-4.154-3.408-7.812-8.635-10.799-13.927 4.938 2.899 10.28 5.044 14.597 5.044 1.243 0 2.402-.178 3.442-.568 6.388-2.395 26.351-17.302 35.135-18.632a7.378 7.378 0 0 1 1.095-.082c8.311 0 15.423 14.098 19.614 19.164-.348-.233-.672-.36-.997-.36-.204 0-.408.05-.618.155-.482.241-1.617.764-3.154 1.544-3.818 1.937-10.122 5.461-15.091 10.201l-.161.155c-5.45 5.295-10.51 15.106-10.533 15.152"/>
        <path fill="#FFFFFE" d="M216.12 82.465c-5.998 0-15.128-.483-19.557-2.282 4.429 1.798 13.56 2.282 19.561 2.282l.266-.001-.27.001"/>
        <path fill="#249083" d="M154.291 58.047c-6.19-2.249-11.684-4.196-12.564-4.372l-.051-.011.051.011c.88.176 6.374 2.123 12.564 4.372m-12.665-4.394c-1.739-.399-3.329-2.048-4.526-2.048 1.198 0 2.787 1.649 4.526 2.048"/>
        <path fill="#E98FAA" d="M216.124 82.465c-6.001 0-15.132-.484-19.561-2.282l-.093-.039c-1.805-.752-4.619-2.468-7.668-4.48-6.56-4.329-14.204-10.029-15.2-10.456-.852-.365-10.748-4.051-19.311-7.161-6.19-2.249-11.684-4.196-12.564-4.372l-.051-.011-.003-.001a.05.05 0 0 1-.012-.002l-.014-.003-.006-.002-.015-.003c-1.739-.399-3.328-2.048-4.526-2.048-.219 0-.424.055-.615.182l-.049.032c-1.614 1.085-19.806 13.602-21.921 13.601-.017 0-.034 0-.049-.002-.434-.049 1.268-7.15 3.93-10.877 2.661-3.727 9.176-12.861 16.274-12.861 5.324 0 10.646 4.36 12.473 5.23 2.196 1.046 6.802 1.342 10.792 1.342 2.779 0 5.26-.144 6.42-.277a5 5 0 0 1 .596-.035c4.353 0 8.014 5.397 10.051 6.245 2.13.888 14.593 15.843 16.681 17.569 4.082 3.371 15.005 7.566 29.17 10.575-.958.076-2.531.13-4.447.135h-.016l-.266.001"/>
        <path fill="#EFAAA7" d="M187.511 234.384c-5.323-6.655-7.186-15.172-6.654-19.964.532-4.791 15.438-1.33 18.366 0 2.928 1.331-11.712 19.964-11.712 19.964"/>
        <path fill="#293894" d="M407.379 187.623a5.439 5.439 0 1 1-10.877-.001 5.439 5.439 0 0 1 10.877.001"/>
        <g transform="translate(366)">
            <mask id="e" fill="#fff">
                <use xlink:href="#d"/>
            </mask>
            <path fill="#006FEE" d="M6.85 24.102L.766 12.409 6.85.715l6.083 11.694L6.85 24.102" mask="url(#e)"/>
        </g>
        <path fill="#F2BDB9" d="M197.487 287.619c-6.234-10.656-17.961-30.61-12.371-50.84 5.59-20.229 23.424-41.79 50.573-41.523 27.151.265 49.509 19.697 51.373 37.53 1.863 17.834-4.677 49.822-6.008 52.485-1.331 2.662-4.44 2.655-6.569 2.122-2.13-.533-11.912-7.581-18.212-7.227-5.321.3-19.164 12.148-22.269 13.035-2.418.691-3.574.333-4.905-.466-1.331-.798-8.138-10.173-13.373-10.439-3.27-.167-11.712 7.186-13.309 7.453-1.597.266-3.795-.189-4.93-2.13"/>
        <path fill="#EFAAA7" d="M215.992 221.341c5.59-2.928 12.777-8.251 17.834-4.791 5.058 3.46 5.323 17.834 5.323 17.834h-5.855s-.002-9.482-4.614-11.21c-3.895-1.46-8.961 1.728-8.961 1.728l-3.727-3.561M201.933 256.917c0 7.657-6.208 13.865-13.865 13.865-7.658 0-13.865-6.208-13.865-13.865 0-7.658 6.207-13.865 13.865-13.865 7.657 0 13.865 6.207 13.865 13.865"/>
        <path fill="#EDF3F7" d="M231.775 293.568c.585-.001 1.26-.101 2.083-.326-.824.225-1.497.325-2.083.326"/>
        <path fill="#8E8CA4" d="M253.766 280.836c.954-.39 1.805-.63 2.507-.67-.702.04-1.553.28-2.507.67"/>
        <path fill="#EDF3F7" d="M233.865 293.24l.139-.039c2.696-.77 13.481-9.799 19.762-12.365-6.281 2.566-17.066 11.595-19.762 12.365l-.139.039m-4.718-.476l-.048-.029c-1.331-.798-8.138-10.173-13.373-10.439l-.013-.001.013.001c5.235.266 12.042 9.641 13.373 10.439l.048.029M197.552 287.727a2.805 2.805 0 0 1-.065-.108l-.357-.61.357.61c.021.037.043.073.065.108m79.12-.054c1.703-.001 3.464-.568 4.382-2.402l.002-.004-.002.004c-.918 1.834-2.679 2.401-4.382 2.402M274.386 287.365c-1.583-.486-6.553-3.826-11.524-5.786 4.97 1.96 9.941 5.3 11.524 5.786"/>
        <path fill="#8E8CA4" d="M261.5 281.078c-.132-.044-.264-.088-.396-.13.132.042.264.086.396.13m-3.028-.777l-.141-.022.141.022m-1.3-.138"/>
        <path fill="#EDA5B1" d="M231.771 293.568h-.002c-1.024-.001-1.776-.306-2.582-.78l-.001-.001-.021-.012-.017-.01-.001-.001-.048-.029c-1.331-.798-8.138-10.173-13.373-10.439l-.013-.001h-.016l-.011-.001H215.659l-.004-.001H215.614c-3.344 0-11.602 7.178-13.192 7.455l-.005.001-.023.004h-.003c-.262.042-.54.065-.826.065H201.555c-1.422-.002-3.052-.563-4.003-2.091a2.805 2.805 0 0 1-.065-.108l-.357-.61c-2.166-3.704-4.904-8.448-7.348-13.879 8.481 5.53 14.004 6.617 18.498 6.617 2.413 0 4.53-.313 6.648-.421.258-.013.533-.019.825-.019 2.056 0 4.922.302 8.046.605 3.124.302 6.506.604 9.597.604 5.309 0 9.755-.892 10.545-4.209 1.775-7.453 3.496-16.663 8.518-19.39 2.109-1.146 4.513-1.486 7.04-1.486 1.848 0 3.761.182 5.671.364 1.91.182 3.817.364 5.653.364 3.533 0 6.801-.674 9.319-3.32 2.652-2.789 5.323-8.429 7.211-15.403.529 18.163-5.033 45.176-6.284 47.804l-.001.001-.001.003-.001.001-.001.003-.001.001-.001.003v.001l-.002.003-.001.001-.001.002v.001l-.002.003-.001.002v.002l-.002.004c-.918 1.834-2.679 2.401-4.382 2.402h-.004-.002a9.066 9.066 0 0 1-2.157-.274l-.024-.006-.067-.019-.011-.003-.021-.006c-1.583-.486-6.554-3.826-11.524-5.786a29.5 29.5 0 0 0-1.133-.422l-.178-.061-.035-.012-.016-.006c-.132-.044-.264-.088-.396-.13a18.067 18.067 0 0 0-2.632-.647l-.141-.022a11.312 11.312 0 0 0-1.159-.116 8.89 8.89 0 0 0-.899.003c-.702.04-1.553.28-2.507.67-6.281 2.566-17.066 11.595-19.762 12.365l-.139.039-.007.002c-.823.225-1.498.325-2.083.326h-.004"/>
        <path fill="#F2BDB9" d="M197.487 256.742c0 6.028-4.647 10.914-10.378 10.914-5.732 0-10.378-4.886-10.378-10.914 0-6.027 4.646-10.913 10.378-10.913 5.731 0 10.378 4.886 10.378 10.913"/>
        <path fill="#27377F" d="M193.183 234.927c-.462 1.278-1.51 2.072-2.339 1.772-.829-.3-1.127-1.58-.664-2.858.462-1.279 1.509-2.072 2.339-1.773.829.3 1.127 1.58.664 2.859M212.109 240.002c-.246 1.63-1.302 2.821-2.359 2.662-1.058-.16-1.715-1.61-1.469-3.24.246-1.63 1.302-2.821 2.359-2.662 1.057.159 1.715 1.61 1.469 3.24"/>
        <path fill="#B45A56" d="M221.139 208.654a2.13 2.13 0 0 1-.879-4.071c4.949-2.24 14.945-5.448 26.29-1.77a2.128 2.128 0 0 1 1.368 2.682 2.127 2.127 0 0 1-2.683 1.368c-9.979-3.237-18.832-.387-23.218 1.601-.286.129-.583.19-.878.19" opacity=".3"/>
        <path fill="#E98FAA" d="M180.125 257.497a1.397 1.397 0 1 1 0-2.794 1.397 1.397 0 0 1 0 2.794M189.465 259.712a1.397 1.397 0 1 1 0-2.795 1.397 1.397 0 0 1 0 2.795"/>
        <path fill="#F27763" d="M215.238 158.066c3.06 12.34-.417 23.821-7.765 25.643-7.348 1.821-15.786-6.705-18.846-19.045-3.059-12.341.418-23.821 7.766-25.643 7.348-1.822 15.786 6.705 18.845 19.045"/>
        <path fill="#F58856" d="M210.767 159.067c2.834 11.43.335 21.883-5.582 23.351-5.916 1.467-13.01-6.609-15.843-18.038-2.834-11.429-.335-21.883 5.582-23.35 5.916-1.467 13.01 6.609 15.843 18.037"/>
        <path fill="#F27763" d="M290.978 18.095c3.569 3.393-1.112 14.109-10.455 23.935-9.342 9.825-19.81 15.039-23.378 11.646-3.57-3.393 1.111-14.11 10.454-23.935 9.343-9.826 19.81-15.04 23.379-11.646"/>
        <path fill="#F58856" d="M289.035 18.694c2.803 2.665-1.972 12.238-10.666 21.38-8.694 9.143-18.014 14.395-20.816 11.73-2.803-2.665 1.973-12.238 10.667-21.38 8.693-9.143 18.013-14.395 20.815-11.73"/>
        <path fill="#F2F6F8" d="M398.382 138.792H233.538a5 5 0 0 1-5-5V91.449a5 5 0 0 1 5-5h164.844a5 5 0 0 1 5 5v42.343a5 5 0 0 1-5 5"/>
        <path fill="#BBC7DB" fill-opacity=".5" d="M377.947 118.66h-87.625a4 4 0 0 1-4-4v-4.079a4 4 0 0 1 4-4h87.625a4 4 0 0 1 4 4v4.079a4 4 0 0 1-4 4"/>
        <path fill="#DDE3EC" d="M117.474 258.555h-70.32a2 2 0 0 1-2-2v-7.667a2 2 0 0 1 2-2h70.32a2 2 0 0 1 2 2v7.667a2 2 0 0 1-2 2M132.714 245.932h-70.32a2 2 0 0 1-2-2v-7.667a2 2 0 0 1 2-2h70.32a2 2 0 0 1 2 2v7.667a2 2 0 0 1-2 2"/>
        <path fill="#D1D7E4" d="M90.479 196.798c2.166.539 9.676-5.781 12.082-8.769 2.418-3 4.001-8 2.668-9.271-4.108-3.918-18.917 11.771-18.917 11.771l4.167 6.269"/>
        <path fill="#006FEE" d="M114.871 175.686a7.63 7.63 0 1 1-15.261.001 7.63 7.63 0 0 1 15.261-.001"/>
        <path fill="#8E8CA4" d="M98.234 180.235c.169-.434.838-2.102 1.513-3.104.127.665.341 1.299.629 1.891a21.3 21.3 0 0 0-2.142 1.213"/>
        <path fill="#C4C9DC" d="M101.34 180.525l-3.147-.184.041-.106a21.3 21.3 0 0 1 2.142-1.213c.263.54.587 1.044.964 1.503"/>
        <path fill="#DD4A53" d="M101.341 180.525h-.001a7.634 7.634 0 0 1-1.593-3.394c.307-.457.615-.775.878-.777l.013-.001c1.32 0 1.284 1.681.703 4.172"/>
        <path fill="#D1D7E4" d="M101.341 180.525c.583-2.5-.561-4.395-1.46-4.15-1.253.342-1.923 4.083-1.923 4.083l3.383.067"/>
        <path fill="#3A4D8F" d="M103.038 187.395c.194-.274.378-.561.557-.854-2.519-1.041-5.78-3.622-7.045-5.155-.267.193-.534.391-.801.593 1.33 1.62 4.57 4.239 7.289 5.416"/>
        <path fill="#C4C9DC" d="M94.803 194.921c-.269-.763-.538-1.388-.777-1.831-1.034-1.916-2.479-4.202-3.977-6.242 1.486-1.389 3.28-2.98 5.126-4.42-.604.994-.949 1.775-.6 2.449.613 1.185.762 2.873 0 3.811-.762.937-.325 3.749.3 4.749.148.238.336.618.535 1.057-.204.147-.407.29-.607.427"/>
        <path fill="#D1D7E4" d="M93.347 212.168c.973 2.747-1.881 16.298-3.777 19.547-2.187 3.75-4.46 3.307-5.562 1.375-1.989-3.485-.577-16.86-.577-16.86l9.916-4.062"/>
        <path fill="#8E8CA4" d="M84.111 233.261a4.074 4.074 0 0 1-.103-.171c-.822-1.439-1.063-4.567-1.063-7.742 0 3.175.241 6.302 1.063 7.742.033.058.068.116.103.171"/>
        <path fill="#C4C9DC" d="M86.14 234.54c-.817 0-1.528-.493-2.029-1.279a4.074 4.074 0 0 1-.103-.171c-.822-1.44-1.063-4.567-1.063-7.742 0-2.755.181-5.546.322-7.301a20.523 20.523 0 0 0 2.851-.302c-.253 1.226-.187 2.361.194 3.255 1.063 2.5.863 6.25.088 7.25s-1.558 4.451-.167 6.288c-.031.002-.062.002-.093.002"/>
        <path fill="#B1BFD7" d="M71.764 186.064c-6.123 8.999-4.792 23.501-3.099 26.281 2.266 3.719 8.932 5.742 13.766 5.719 18.88-.087 13.873-20.751 11.595-24.974-2.548-4.722-7.595-11.693-9.762-11.693-2.167 0-12.5 4.667-12.5 4.667"/>
        <path fill="#3A4D8F" d="M90.382 197.619c.661 2.663-.625 5.275-2.872 5.833-2.248.559-4.607-1.147-5.268-3.81-.662-2.664.624-5.276 2.872-5.834 2.248-.559 4.606 1.148 5.268 3.811"/>
        <path fill="#D1D7E4" d="M46.639 165.022c-1.75 2-1.108 12.006 2.325 17.412 3.55 5.588 8.8 9.463 11.8 9.463s18.75-4.875 27.333-10c5.756-3.436 10.887-9.033 11.334-10.333.958-2.791-5.792-20.292-10.667-22.667-1.614-.786-18.125 2.625-23.667 5-4.658 1.997-16.743 9.167-18.458 11.125"/>
        <path fill="#26337D" d="M99.02 167.806c-.94-3.679-3.089-9.102-5.478-13.244-8.151 2.335-21.142 8.647-21.98 9.835-.881 1.25 6.285 13.227 7.285 13.531 1 .302 9.416-3.129 13.917-5.614 2.319-1.28 4.432-3.145 6.256-4.508M78.085 149.191l-1.11.304-2.762-10.095 1.111-.303 2.761 10.094"/>
        <path fill="#26337D" d="M77.102 137.219c.303 1.478-.675 2.927-2.186 3.238-1.511.31-2.981-.639-3.285-2.117-.303-1.479.44-3.818 1.951-4.127 1.511-.31 3.217 1.526 3.52 3.006M80.658 149.809c.184.701-.973 1.287-2.509 1.725-1.537.439-2.928.289-3.111-.332-.335-1.132.616-2.563 2.152-3.002 1.537-.438 3.118.275 3.468 1.609M66.464 155.327l-.846.631-4.149-5.562.846-.631 4.149 5.562"/>
        <path fill="#26337D" d="M62.966 148.358c.48.741.159 1.802-.718 2.372-.877.57-1.978.432-2.459-.308-.481-.74-.482-2.233.396-2.802.876-.57 2.3-.002 2.781.738M67.962 155.206c.304.414-.226 1.038-1.025 1.647-.798.609-1.671.808-1.953.446-.512-.661-.339-1.787.459-2.397.799-.609 1.941-.483 2.519.304M70.508 198.752c0 1.228-1.511 2.225-3.375 2.225s-3.375-.997-3.375-2.225c0-1.229 1.511-2.225 3.375-2.225s3.375.996 3.375 2.225"/>
        <path fill="#FFFFFE" d="M88.895 169.032c-1.767 1.632-5.008 2.281-6.861.277-1.853-2.005-1.616-5.905.151-7.538 1.766-1.632 4.7-1.331 6.553.674 1.853 2.005 1.923 4.954.157 6.587"/>
        <path fill="#222551" d="M87.172 163.078c0 1.074-.816 1.944-1.822 1.944-1.007 0-1.823-.87-1.823-1.944 0-1.073.816-1.943 1.823-1.943 1.006 0 1.822.87 1.822 1.943"/>
        <path fill="#FFFFFE" d="M96.611 165.338c.679-.347.934-.698 1.192-1.434-.533-2.038-1.348-4.251-2.531-6.171-.921-.453-1.664-.396-2.525.043-1.656.847-2.134 3.226-1.066 5.314 1.067 2.088 3.275 3.095 4.93 2.248"/>
        <path fill="#222551" d="M95.676 159.131c.259.946-.157 1.886-.929 2.097-.772.21-1.609-.385-1.868-1.332-.259-.948.157-1.887.93-2.098.772-.211 1.608.386 1.867 1.333"/>
        <path fill="#8E8CA4" d="M67.947 195.812c.405-2.091 1.006-4.183 1.856-6.147v-.001c-.85 1.965-1.451 4.057-1.856 6.148m-7.183-3.915c-3 0-8.25-3.875-11.8-9.463-2.213-3.484-3.266-8.879-3.266-12.81 0 3.931 1.053 9.326 3.266 12.81 3.55 5.588 8.8 9.463 11.8 9.463h.008-.008m8.369-39.39c1.037-.329 2.018-.615 2.586-.721-.902.238-1.771.479-2.586.721"/>
        <path fill="#9BABCC" d="M82.351 218.065c-1.632 0-3.467-.231-5.268-.68-.309-2.598-1.169-4.694-2.07-5.839-.599-.762-2.051-1.214-3.304-1.214-.374 0-.73.04-1.04.125-.18.048-.345.111-.488.19-.602.33-1.119.89-1.562 1.619-.703-1.247-1.333-4.51-1.372-8.536.921-1.095 1.6-2.023 1.795-2.51.087-.217.15-.462.192-.727.776-.408 1.274-1.036 1.274-1.741 0-.87-.759-1.624-1.864-1.99-.195-.389-.429-.719-.697-.95.405-2.091 1.006-4.183 1.856-6.148 3.917-1.259 8.483-2.951 12.568-4.815-1.701 1.541-13.994 7.051-7.776 16.128 1.943 2.834 3.108 11.504 4.248 12.773 2.806 3.125 9.337 3.432 9.352 3.463l-.066.019-3.437.7a22.27 22.27 0 0 1-2.341.133"/>
        <path fill="#C4C9DC" d="M60.764 191.897c-3 0-8.25-3.875-11.8-9.463-2.213-3.484-3.266-8.879-3.266-12.81-.001-2.168.319-3.891.941-4.602 1.628-1.859 12.604-8.416 17.697-10.783l.756 1.013c-.486.628-.533 1.498-.108 2.047.095.122.258.181.463.181.4 0 .962-.224 1.49-.627.799-.609 1.329-1.233 1.025-1.647a1.706 1.706 0 0 0-1.388-.688 1.86 1.86 0 0 0-.631.111l-.614-.823a93.984 93.984 0 0 1 3.804-1.299 88.223 88.223 0 0 1 2.586-.721l.003-.001a5.555 5.555 0 0 1 1.009-.095c.787 0 1.395.186 1.435.477.417 3-10.556 6.967-10.977 11.717-.219 2.468 6.054 17.538 9.421 19.433 2.314 1.303 5.258 1.853 7.423 1.853.985 0 1.809-.114 2.339-.322l-.001.001c-4.085 1.864-8.651 3.556-12.568 4.815v-.001c-4.191 1.347-7.643 2.201-8.962 2.233h-.001l-.007.001h-.069"/>
        <path fill="#282F76" d="M65.092 155.252l-.756-1.013c.271-.127.525-.241.761-.342l.232-.091.614.823a1.896 1.896 0 0 0-.851.623"/>
        <path fill="#282F76" d="M65.447 157.48c-.205 0-.368-.059-.463-.181-.425-.549-.378-1.419.108-2.047a1.896 1.896 0 0 1 .851-.623 1.86 1.86 0 0 1 .631-.111c.534 0 1.055.234 1.388.688.304.414-.226 1.038-1.025 1.647-.528.403-1.09.627-1.49.627M69.234 200.493c.18-1.151-.056-2.664-.59-3.731 1.105.366 1.864 1.12 1.864 1.99 0 .705-.498 1.333-1.274 1.741"/>
        <path fill="#26337D" d="M65.264 177.928c0 4.19-3.694 7.587-8.25 7.587s-8.25-3.397-8.25-7.587c0-4.191 3.694-7.588 8.25-7.588s8.25 3.397 8.25 7.588"/>
        <path fill="#3A4D8F" d="M63.196 177.94a6.907 6.907 0 1 1-13.814.002 6.907 6.907 0 0 1 13.814-.002"/>
        <path fill="#26337D" d="M58.222 177.601c.352 1.288-.227 2.569-1.294 2.861-1.068.292-2.218-.516-2.571-1.804-.352-1.289.227-2.569 1.295-2.861 1.067-.292 2.218.516 2.57 1.804"/>
        <path fill="#D1D7E4" d="M67.542 195.553c-8.911-3.851-16.666 14.711-15 17.583.834 1.436 2.873.163 4.823-1.072.302 1.585.791 3.116 1.853 2.797 1.047-.314 1.448-2.82 1.406-4.683 2.757-1.917 7.826-7.477 8.418-8.958.667-1.667-.049-5.04-1.5-5.667"/>
        <path fill="#3A4D8F" d="M61.638 209.396c.248-.206.503-.423.767-.659-1.393-1.205-4.414-3.774-7.51-4.845-.154.297-.303.595-.446.894 2.857.943 5.774 3.389 7.189 4.61"/>
        <path fill="#D1D7E4" d="M75.013 211.546c1.434 1.823 2.766 6.057 1.932 10.89-.591 3.429-2.514 8.794-5.416 11.325-1.605 1.399-4.118.862-4.961-1.531-.601-1.709-1.185-18.953 3.613-21.583 1.225-.671 3.952-.221 4.832.899"/>
        <path fill="#798FBB" d="M70.181 210.647"/>
        <path fill="#C4C9DC" d="M69.531 234.516c-1.221 0-2.428-.767-2.963-2.286-.199-.565-.396-2.834-.397-5.711-.001-5.813.8-14.112 4.01-15.872.143-.078.308-.142.488-.19a3.983 3.983 0 0 1 1.034-.124c.1 0 .201.003.303.009-1.734 2.009-3.284 4.575-2.09 6.741 1.334 2.417 1.5 7.167.084 9.417-1.417 2.25-.723 6.083.347 7.167.154.155.311.347.465.556a2.975 2.975 0 0 1-1.281.293"/>
        <path fill="#8E8CA4" d="M52.468 212.982"/>
        <path fill="#C4C9DC" d="M53.169 213.688a1.183 1.183 0 0 1-.59-.492 1.946 1.946 0 0 1-.041-.068 1.098 1.098 0 0 1-.07-.146 2.28 2.28 0 0 1-.139-.653v-.003l-.001-.01c-.325-4.083 5.541-17.276 12.757-17.276.332 0 .667.028 1.004.086-2.123 1.046-4.339 1.837-4.339 3.626 0 2.248-2.198 4.031-3.323 5.14-.194.191-.495.643-.859 1.261-.858-.502-1.762-.946-2.673-1.261-.154.297-.303.595-.446.894.885.292 1.776.729 2.627 1.228-1.283 2.308-3.015 5.833-3.907 7.674"/>
        <path fill="#36478A" d="M57.076 206.014c-.851-.499-1.742-.936-2.627-1.228.143-.299.292-.597.446-.894.911.315 1.815.759 2.673 1.261-.154.26-.319.549-.492.861"/>
        <path fill="#DDE3EC" d="M397.589 261.771h-70.32a2 2 0 0 1-2-2v-7.667a2 2 0 0 1 2-2h70.32a2 2 0 0 1 2 2v7.667a2 2 0 0 1-2 2M412.747 249.104h-70.32a2 2 0 0 1-2-2v-7.668a2 2 0 0 1 2-2h70.32a2 2 0 0 1 2 2v7.668a2 2 0 0 1-2 2M393.657 236.436h-70.32a2 2 0 0 1-2-2v-7.666a2 2 0 0 1 2-2h70.32a2 2 0 0 1 2 2v7.666a2 2 0 0 1-2 2M383.397 223.77h-70.32a2 2 0 0 1-2-2v-7.668a2 2 0 0 1 2-2h70.32a2 2 0 0 1 2 2v7.668a2 2 0 0 1-2 2"/>
        <path fill="#FFF" d="M81.865 245.91h2.882v-11.624h-2.882zM86.113 245.91h2.882v-11.624h-2.882zM90.36 245.91h2.883v-11.624H90.36zM94.608 245.91h2.883v-11.624h-2.883zM98.856 245.91h2.883v-11.624h-2.883zM103.104 245.91h2.883v-11.624h-2.883zM107.352 245.91h2.882v-11.624h-2.882zM111.6 245.91h2.882v-11.624H111.6zM115.848 245.91h2.882v-11.624h-2.882zM66.314 258.533h2.882V246.91h-2.882zM70.563 258.533h2.882V246.91h-2.882zM74.81 258.533h2.883V246.91H74.81zM79.058 258.533h2.882V246.91h-2.882zM83.306 258.533h2.883V246.91h-2.883zM87.554 258.533h2.883V246.91h-2.883zM91.802 258.533h2.882V246.91h-2.882zM96.05 258.533h2.882V246.91H96.05zM100.297 258.533h2.883V246.91h-2.883zM347.475 261.728h2.882v-11.624h-2.882zM351.723 261.728h2.881v-11.624h-2.881zM355.971 261.728h2.881v-11.624h-2.881zM360.218 261.728h2.883v-11.624h-2.883zM364.466 261.728h2.883v-11.624h-2.883zM368.714 261.728h2.883v-11.624h-2.883zM372.962 261.728h2.883v-11.624h-2.883zM377.21 261.728h2.882v-11.624h-2.882zM381.458 261.728h2.882v-11.624h-2.882zM364.592 248.954h2.883v-11.518h-2.883z" opacity=".5"/>
        <path fill="#D7E0EA" d="M367.475 237.436h-2.883v-.022h2.085v-.083h.798v.105"/>
        <path fill="#FFF" d="M368.84 248.954h2.883v-11.518h-2.883z" opacity=".5"/>
        <path fill="#D7E0EA" d="M371.723 237.436h-2.883v-.022h2.085v-.083h.798v.105"/>
        <path fill="#FFF" d="M373.088 248.954h2.882v-11.518h-2.882z" opacity=".5"/>
        <path fill="#D7E0EA" d="M375.97 237.436h-2.882v-.022h2.085v-.083h.797v.105"/>
        <path fill="#FFF" d="M377.336 248.954h2.882v-11.623h-2.882zM381.583 248.954h2.883v-11.623h-2.883zM385.831 248.954h2.883v-11.623h-2.883zM390.079 248.954h2.883v-11.623h-2.883z" opacity=".5"/>
        <path fill="#FFFFFE" d="M394.327 237.436h2.883v-.105h-2.883z"/>
        <path fill="#FFF" d="M394.327 248.954h2.883v-11.518h-2.883z" opacity=".5"/>
        <path fill="#FFFFFE" d="M398.575 237.436h2.882v-.105h-2.882z"/>
        <path fill="#FFF" d="M398.575 248.954h2.882v-11.518h-2.882zM338.307 236.414h2.882v-11.623h-2.882zM342.555 236.414h2.882v-11.623h-2.882zM346.803 236.414h2.883v-11.623h-2.883zM351.051 236.414h2.882v-11.623h-2.882zM355.299 236.414h2.882v-11.623h-2.882zM359.546 236.414h2.883v-11.623h-2.883zM364.592 236.414h-.798v-11.623h2.883v11.54h-2.085v.083" opacity=".5"/>
        <path fill="#EAEFF4" d="M364.592 237.414h2.085v-.083h-2.085z"/>
        <path fill="#FFF" d="M368.84 236.414h-.798v-11.623h2.883v11.54h-2.085v.083" opacity=".5"/>
        <path fill="#EAEFF4" d="M368.84 237.414h2.085v-.083h-2.085z"/>
        <path fill="#FFF" d="M373.088 236.414h-.798v-11.623h2.883v11.54h-2.085v.083" opacity=".5"/>
        <path fill="#EAEFF4" d="M373.088 237.414h2.085v-.083h-2.085z"/>
        <path fill="#FFF" d="M327.005 223.747h2.882v-11.623h-2.882zM331.252 223.747h2.883v-11.623h-2.883zM335.5 223.747h2.883v-11.623H335.5zM339.748 223.747h2.883v-11.623h-2.883zM343.996 223.747h2.883v-11.623h-2.883zM348.244 223.747h2.882v-11.623h-2.882zM352.492 223.747h2.882v-11.623h-2.882zM356.739 223.747h2.883v-11.623h-2.883zM360.987 223.747h2.883v-11.623h-2.883z" opacity=".5"/>
        <path fill="#BBC7DB" fill-opacity=".5" d="M269.09 125.961h-18.56a4 4 0 0 1-4-4v-18.56a4 4 0 0 1 4-4h18.56a4 4 0 0 1 4 4v18.56a4 4 0 0 1-4 4"/>
    </g>
</svg>
