<?xml version="1.0" encoding="UTF-8"?>
<svg width="91px" height="34px" viewBox="0 0 91 34" version="1.1" xmlns="http://www.w3.org/2000/svg" xmlns:xlink="http://www.w3.org/1999/xlink">
    <!-- Generator: Sketch 52.1 (67048) - http://www.bohemiancoding.com/sketch -->
    <title>qiwi_logo_rgb_small 2</title>
    <desc>Created with Sketch.</desc>
    <g id="[После-релиза]-Кошельки" stroke="none" stroke-width="1" fill="none" fill-rule="evenodd">
        <g id="wallet-popup-paysystem-add-after" transform="translate(-535.000000, -360.000000)" fill="#FF8C00">
            <g id="Popup" transform="translate(415.000000, 165.000000)">
                <g id="Group" transform="translate(40.000000, 155.000000)">
                    <g id="qiwi_logo_rgb_small-2" transform="translate(80.000000, 40.000000)">
                        <path d="M22.2622411,29.1599625 C25.0969212,29.1599625 28.1722874,30.131633 31.5763657,33.1479049 C31.9173891,33.4501476 32.3713688,33.0746526 32.0740505,32.6994653 C28.7287588,28.4757613 25.6346178,27.6712169 22.548787,26.9913246 C18.7744459,26.1596953 16.8329517,24.0359937 15.4799383,21.7042308 C15.2106283,21.2400943 15.0899774,21.3219645 15.0656626,21.9181399 C15.0361154,22.6475853 15.086284,23.6127923 15.2497167,24.5623024 C15.0973642,24.5693814 14.9440884,24.5672269 14.7901969,24.5672269 C9.39045467,24.5672269 5.01316702,20.1899392 5.01316702,14.7901969 C5.01316702,9.39045467 9.39045467,5.01316702 14.7901969,5.01316702 C20.1899392,5.01316702 24.5675347,9.39045467 24.5675347,14.7901969 C24.5675347,15.1743099 24.5487599,15.554114 24.5056703,15.926839 C23.7913063,15.7981858 22.3862776,15.78372 21.4004492,15.8689758 C21.0295708,15.9009852 21.0815861,16.0736514 21.3619763,16.1244356 C24.594004,16.7082997 26.8146572,18.7113504 27.3221911,22.3459581 C27.3338869,22.429675 27.4431498,22.4546054 27.4865472,22.3822764 C28.8164769,20.1631621 29.5803939,17.5657827 29.5803939,14.7901969 C29.5803939,6.62194796 22.9587537,0 14.7901969,0 C6.62194796,0 0,6.62194796 0,14.7901969 C0,22.9587537 6.62194796,29.5813172 14.7901969,29.5813172 C16.957296,29.5813172 19.1071592,29.1599625 22.2622411,29.1599625 Z M23.3631804,23.7897674 C24.0212201,24.3462388 24.2215867,25.0076641 23.8734843,25.4742629 C23.6798889,25.7300305 23.3662582,25.870995 22.9901476,25.870995 C22.6208081,25.870995 22.2446975,25.7343394 21.9836977,25.5065801 C21.3853678,24.9836571 21.2096238,24.1360231 21.6002002,23.654343 C21.7528605,23.4659798 22.0009335,23.362257 22.2982517,23.362257 C22.659281,23.362257 23.0375461,23.5143018 23.3631804,23.7897674 Z M26.3994582,22.3770441 C26.496102,23.0252348 26.2911186,23.2936215 26.0855197,23.2936215 C25.861146,23.2936215 25.5795247,23.0307749 25.2471192,22.5124686 C24.9193305,22.0006257 24.7992951,21.413376 24.9618045,21.1166734 C25.0692207,20.9203079 25.2939022,20.8350521 25.5773702,20.9421605 C26.126147,21.1496061 26.341595,21.9898533 26.3994582,22.3770441 Z M46.9014892,18.9898939 L45.1963722,16.9391368 C45.0178582,16.7239966 45.1708262,16.3980545 45.4502931,16.3980545 L49.0174963,16.3980545 C49.1873924,15.8923673 49.2834207,15.3522084 49.2834207,14.7911203 C49.2834207,12.2220569 47.3711658,10.0069437 44.7467015,10.0069437 C42.1222371,10.0069437 40.2099823,12.2220569 40.2099823,14.7911203 C40.2099823,17.3601837 42.1222371,19.543903 44.7467015,19.543903 C45.5420124,19.543903 46.2705344,19.3407663 46.9014892,18.9898939 Z M54.6166818,22.4558365 C54.8019671,22.6608199 54.6499224,22.9907631 54.3707633,22.9907631 L50.4779259,22.9907631 C50.3197255,22.9907631 50.1692197,22.9202809 50.0679591,22.7983989 L49.4080727,22.0049347 C48.0642928,22.8762679 46.4641298,23.3847252 44.7467015,23.3847252 C40.0080768,23.3847252 36.1530966,19.529745 36.1530966,14.7911203 C36.1530966,10.0524956 40.0080768,6.19720763 44.7467015,6.19720763 C49.4853262,6.19720763 53.3403064,10.0524956 53.3403064,14.7911203 C53.3403064,16.4993151 52.8373892,18.091168 51.9746739,19.4303312 L54.6166818,22.4558365 Z M90.5774142,6.59270859 L87.4004796,6.59270859 C87.1671802,6.59270859 86.9778938,6.78199504 86.9778938,7.01560222 L86.9778938,22.5666384 C86.9778938,22.7999378 87.1671802,22.9892242 87.4004796,22.9892242 L90.5774142,22.9892242 C90.8107135,22.9892242 91,22.7999378 91,22.5666384 L91,7.01560222 C91,6.78199504 90.8107135,6.59270859 90.5774142,6.59270859 Z M85.2315339,6.59270859 L81.6769498,6.59270859 C81.4910489,6.59270859 81.3270007,6.71335947 81.2728309,6.88971904 L78.4600034,16.0798071 L75.3686325,6.8795622 C75.3110771,6.70843494 75.1497989,6.59270859 74.9678993,6.59270859 L72.4874773,6.59270859 C72.3055776,6.59270859 72.1439916,6.70843494 72.0864362,6.8795622 L68.9950653,16.0798071 L66.1822379,6.88971904 C66.1280681,6.71335947 65.9640198,6.59270859 65.778119,6.59270859 L62.2235349,6.59270859 C62.0878027,6.59270859 61.9600728,6.65765077 61.8806648,6.76691368 C61.8012568,6.87617659 61.779712,7.01683335 61.8228016,7.14456324 L67.0434143,22.7042173 C67.1009697,22.8753446 67.2625557,22.9907631 67.4444553,22.9907631 L70.2655929,22.9907631 C70.4474926,22.9907631 70.6087708,22.8753446 70.666634,22.7045251 L73.7275344,13.6141587 L76.7884348,22.7045251 C76.846298,22.8753446 77.0075762,22.9907631 77.1894759,22.9907631 L80.0106134,22.9907631 C80.1925131,22.9907631 80.3540991,22.8753446 80.4116545,22.7042173 L85.6322671,7.14456324 C85.6753567,7.01683335 85.6538119,6.87617659 85.574404,6.76691368 C85.494996,6.65765077 85.3672661,6.59270859 85.2315339,6.59270859 Z M60.477175,7.01560222 L60.477175,22.5666384 C60.477175,22.7999378 60.2878886,22.9892242 60.0545892,22.9892242 L56.8776546,22.9892242 C56.6443552,22.9892242 56.4550688,22.7999378 56.4550688,22.5666384 L56.4550688,7.01560222 C56.4550688,6.78199504 56.6443552,6.59270859 56.8776546,6.59270859 L60.0545892,6.59270859 C60.2878886,6.59270859 60.477175,6.78199504 60.477175,7.01560222 Z" id="qiwi_logo_rgb_small"></path>
                    </g>
                </g>
            </g>
        </g>
    </g>
</svg>