<svg xmlns="http://www.w3.org/2000/svg" width="54" height="53" viewBox="0 0 54 53">
    <defs>
        <linearGradient id="a" x1="50%" x2="50%" y1="0%" y2="100%">
            <stop offset="0%" stop-color="#EE6174"/>
            <stop offset="100%" stop-color="#F89948"/>
        </linearGradient>
    </defs>
    <path fill="url(#a)" fill-rule="evenodd" d="M29.02 54.462c-3.404 0-5.724.455-8.062.455C12.145 54.917 5 47.77 5 38.957 5 30.146 12.145 23 20.958 23s15.958 7.145 15.958 15.958c0 2.994-.825 5.797-2.26 8.191-.046.078-.164.051-.177-.039-.548-3.922-2.943-6.083-6.43-6.713-.303-.054-.36-.24.04-.275 1.065-.092 2.58-.077 3.351.062.047-.402.067-.812.067-1.226 0-5.826-4.723-10.55-10.55-10.55-5.825 0-10.548 4.724-10.548 10.55 0 5.826 4.723 10.549 10.549 10.549.166 0 .331.002.495-.006a14.245 14.245 0 0 1-.198-2.852c.026-.644.156-.732.447-.232 1.46 2.516 3.555 4.808 7.627 5.705 3.33.734 6.668 1.601 10.277 6.159.32.405-.169.81-.537.484-3.672-3.254-6.99-4.303-10.05-4.303zm-4.605-1.765c.215-.019.421-.037.62-.053a11.9 11.9 0 0 1-1.784-1.224l-1.704.08a9.258 9.258 0 0 1-.506.007h-.083c-6.93 0-12.55-5.618-12.55-12.55 0-6.93 5.62-12.548 12.55-12.548 6.93 0 12.549 5.618 12.549 12.549 0 .504-.026.987-.08 1.456l-.037.321c.437.389.834.82 1.188 1.292.223-.996.338-2.024.338-3.07C34.916 31.25 28.666 25 20.958 25 13.249 25 7 31.25 7 38.958c0 7.709 6.25 13.959 13.958 13.959h.106c.841-.006 1.236-.035 3.35-.22zm5.793-4.029c.71.6.926 1.314.55 1.817-.209.276-.547.428-.953.428-.398 0-.804-.147-1.086-.393-.645-.564-.835-1.479-.414-1.998.165-.203.433-.315.753-.315.39 0 .798.164 1.15.461zm3.275-1.525c.105.7-.116.99-.338.99-.242 0-.546-.284-.905-.843-.354-.553-.483-1.186-.308-1.506.116-.212.359-.304.664-.188.593.223.825 1.13.887 1.547zm25.152-30.567v16.13H42.5a3.513 3.513 0 0 1-3.5-3.507v-8.853c0-2.124.724-3.358 3.292-5.275.706-.527 2.048-1.57 3.83-2.972l.075-.06a1062.315 1062.315 0 0 0 3.995-3.16l.374-.296L53.81 6v10.576h4.824zM41 20.346v8.853a1.512 1.512 0 0 0 1.507 1.507h14.128v-12.13h-4.824v-8.428s-6.344 5.049-8.323 6.526C41.097 18.459 41 19.19 41 20.346zm10.81-1.77h2.344v7.276l-11.208 3.647 8.864-6.04v-4.883zm-4.236 1.498c-.416-.35-.333-1.133.186-1.75.518-.618 1.275-.837 1.691-.487.416.348.333 1.132-.186 1.75-.518.617-1.275.835-1.691.487z" transform="translate(-5 -6)"/>
</svg>
