<svg xmlns="http://www.w3.org/2000/svg" width="14" height="14" viewBox="0 0 14 14">
    <path fill="#006FEE" fill-rule="nonzero" d="M7 14A7 7 0 1 1 7 0a7 7 0 0 1 0 14zm0-1A6 6 0 1 0 7 1a6 6 0 0 0 0 12zm-.69-4.178v-.671c0-.198.015-.363.044-.495.03-.132.073-.251.132-.357.059-.107.137-.21.237-.309.099-.099.221-.218.368-.357.117-.11.235-.222.352-.335.117-.114.224-.231.319-.353.095-.12.174-.249.237-.385a1.08 1.08 0 0 0 .093-.456 1.184 1.184 0 0 0-.341-.836 1.11 1.11 0 0 0-.369-.242 1.19 1.19 0 0 0-.456-.088c-.36 0-.65.114-.875.341-.223.227-.357.524-.401.891l-1.122-.11c.095-.638.361-1.138.798-1.501.436-.364.977-.545 1.622-.545.308 0 .596.046.863.138.268.091.501.223.699.395.198.173.354.385.467.639.114.253.171.54.171.863 0 .279-.04.522-.121.731-.08.21-.194.406-.341.589l-.66.682-.11.099a5 5 0 0 0-.28.28.961.961 0 0 0-.248.522 2.797 2.797 0 0 0-.022.386v.484H6.31zm-.209 1.518c0-.198.071-.368.215-.511a.698.698 0 0 1 .511-.215c.198 0 .368.071.511.214a.698.698 0 0 1 .215.512.698.698 0 0 1-.215.511.698.698 0 0 1-.511.215.698.698 0 0 1-.511-.215.698.698 0 0 1-.215-.511z"/>
</svg>
