<svg xmlns="http://www.w3.org/2000/svg" width="14" height="14" viewBox="0 0 14 14">
    <path fill="#006FEE" fill-rule="nonzero" d="M7 14A7 7 0 1 1 7 0a7 7 0 0 1 0 14zm0-1A6 6 0 1 0 7 1a6 6 0 0 0 0 12zm-.69-4.178v-.671c0-.198.015-.363.044-.495.03-.132.073-.251.132-.358.059-.106.137-.208.237-.308.099-.098.221-.218.368-.357.117-.11.235-.222.352-.335.117-.114.224-.232.319-.353.095-.12.174-.249.236-.384.063-.136.094-.288.094-.457a1.184 1.184 0 0 0-.341-.836 1.11 1.11 0 0 0-.369-.242 1.19 1.19 0 0 0-.456-.088c-.36 0-.65.114-.874.341-.224.227-.358.524-.402.891l-1.122-.11c.095-.638.361-1.139.797-1.501.437-.364.978-.545 1.623-.545.308 0 .596.046.864.137.267.092.5.224.698.397.198.172.354.384.467.638.114.253.171.54.171.863 0 .279-.04.523-.121.731-.08.21-.194.406-.341.589l-.66.682-.11.099c-.117.11-.21.204-.28.28a.961.961 0 0 0-.248.523 2.797 2.797 0 0 0-.022.385v.484H6.31zm-.209 1.518c0-.198.071-.368.214-.511a.698.698 0 0 1 .512-.215c.198 0 .369.072.512.215a.698.698 0 0 1 .214.511.698.698 0 0 1-.214.512.698.698 0 0 1-.512.214.698.698 0 0 1-.512-.214.698.698 0 0 1-.214-.512z"/>
</svg>
