<?xml version="1.0" encoding="UTF-8"?>
<svg width="14px" height="14px" viewBox="0 0 14 14" version="1.1" xmlns="http://www.w3.org/2000/svg" xmlns:xlink="http://www.w3.org/1999/xlink">
    <!-- Generator: Sketch 52.1 (67048) - http://www.bohemiancoding.com/sketch -->
    <title>icon</title>
    <desc>Created with Sketch.</desc>
    <g id="New-version" stroke="none" stroke-width="1" fill="none" fill-rule="evenodd">
        <g id="-g-Emporium_Wallet_New04" transform="translate(-1146.000000, -198.000000)" fill="#FFFFFF" fill-rule="nonzero">
            <g id="Content" transform="translate(100.000000, 0.000000)">
                <g id="01" transform="translate(40.000000, 140.000000)">
                    <g id="00" transform="translate(1006.000000, 58.000000)">
                        <g id="icon">
                            <path d="M7,14 C3.13400675,14 0,10.8659932 0,7 C0,3.13400675 3.13400675,0 7,0 C10.8659932,0 14,3.13400675 14,7 C14,10.8659932 10.8659932,14 7,14 Z M7,13 C10.3137085,13 13,10.3137085 13,7 C13,3.6862915 10.3137085,1 7,1 C3.6862915,1 1,3.6862915 1,7 C1,10.3137085 3.6862915,13 7,13 Z M6.31,8.822 L6.31,8.151 C6.31,7.95299901 6.32466652,7.78800066 6.354,7.656 C6.38333348,7.52399934 6.42733304,7.40483387 6.486,7.2985 C6.54466696,7.19216614 6.6234995,7.0895005 6.7225,6.9905 C6.82150049,6.89149951 6.9443326,6.77233403 7.091,6.633 C7.20833392,6.52299945 7.32566608,6.41116724 7.443,6.2975 C7.56033392,6.18383277 7.66666619,6.06650061 7.762,5.9455 C7.85733381,5.8244994 7.93616635,5.69616735 7.9985,5.5605 C8.06083364,5.42483266 8.092,5.27266751 8.092,5.104 C8.092,4.93533249 8.06083364,4.77950072 7.9985,4.6365 C7.93616635,4.49349929 7.85366718,4.37066718 7.751,4.268 C7.64833282,4.16533282 7.52550071,4.08466696 7.3825,4.026 C7.23949928,3.96733304 7.08733414,3.938 6.926,3.938 C6.56666487,3.938 6.27516778,4.05166553 6.0515,4.279 C5.82783221,4.50633447 5.69400022,4.8033315 5.65,5.17 L4.528,5.06 C4.62333381,4.42199681 4.88916448,3.92150182 5.3255,3.5585 C5.76183551,3.19549819 6.30266344,3.014 6.948,3.014 C7.25600154,3.014 7.54383199,3.05983288 7.8115,3.1515 C8.079168,3.24316713 8.31199901,3.37516581 8.51,3.5475 C8.70800099,3.7198342 8.86383276,3.93249874 8.9775,4.1855 C9.09116723,4.43850127 9.148,4.72633172 9.148,5.049 C9.148,5.32766806 9.10766707,5.57149896 9.027,5.7805 C8.94633293,5.98950105 8.8326674,6.18566575 8.686,6.369 L8.026,7.051 L7.916,7.15 C7.79866608,7.26000055 7.70516701,7.35349962 7.6355,7.4305 C7.56583298,7.50750039 7.51083353,7.58816625 7.4705,7.6725 C7.43016646,7.75683376 7.40266674,7.85033282 7.388,7.953 C7.37333326,8.05566718 7.366,8.18399923 7.366,8.338 L7.366,8.822 L6.31,8.822 Z M6.101,10.34 C6.101,10.141999 6.17249928,9.97150072 6.3155,9.8285 C6.45850071,9.68549929 6.62899901,9.614 6.827,9.614 C7.02500099,9.614 7.19549928,9.68549929 7.3385,9.8285 C7.48150071,9.97150072 7.553,10.141999 7.553,10.34 C7.553,10.538001 7.48150071,10.7084993 7.3385,10.8515 C7.19549928,10.9945007 7.02500099,11.066 6.827,11.066 C6.62899901,11.066 6.45850071,10.9945007 6.3155,10.8515 C6.17249928,10.7084993 6.101,10.538001 6.101,10.34 Z" id="Combined-Shape"></path>
                        </g>
                    </g>
                </g>
            </g>
        </g>
    </g>
</svg>