<?xml version="1.0" encoding="UTF-8"?>
<svg width="144px" height="144px" viewBox="0 0 144 144" version="1.1" xmlns="http://www.w3.org/2000/svg" xmlns:xlink="http://www.w3.org/1999/xlink">
    <!-- Generator: Sketch 53 (72520) - https://sketchapp.com -->
    <title>icon</title>
    <desc>Created with Sketch.</desc>
    <defs>
        <linearGradient x1="50%" y1="0%" x2="50%" y2="100%" id="linearGradient-1">
            <stop stop-color="#EE6174" offset="0%"></stop>
            <stop stop-color="#F89948" offset="100%"></stop>
        </linearGradient>
    </defs>
    <g id="New-version" stroke="none" stroke-width="1" fill="none" fill-rule="evenodd">
        <g id="-g-Emporium_New_SignIn03" transform="translate(-1008.000000, -379.000000)" fill-rule="nonzero">
            <g id="back" transform="translate(720.000000, 0.000000)">
                <g id="SignIn03" transform="translate(-279.000000, -126.000000)">
                    <g id="icon" transform="translate(567.000000, 504.000000)">
                        <path d="M66,139 C67.6568542,139 69,140.343146 69,142 C69,143.656854 67.6568542,145 66,145 L15,145 C6.71984055,144.990082 0.009918349,138.280159 1.70530257e-13,130 L1.70530257e-13,16 C0.009918349,7.71984055 6.71984055,1.00991835 15,1 L129,1 C133.023023,0.847636994 136.9275,2.37900669 139.774247,5.2257533 C142.620993,8.0724999 144.152363,11.9769765 144,16 C144,17.6568542 142.656854,19 141,19 C139.343146,19 138,17.6568542 138,16 C138.127965,13.5729057 137.218387,11.2057942 135.498073,9.48891334 C133.777758,7.77203253 131.408834,6.86718581 128.982,7 L15,7 C10.0294373,7 6,11.0294373 6,16 L6,130 C6,134.970563 10.0294373,139 15,139 L66,139 Z M141,25 C142.656854,25 144,26.3431458 144,28 L144,70 C144,71.6568542 142.656854,73 141,73 C139.343146,73 138,71.6568542 138,70 L138,31 L18,31 C16.3431458,31 15,29.6568542 15,28 C15,26.3431458 16.3431458,25 18,25 L141,25 Z M18,13 L24,13 C25.6568542,13 27,14.3431458 27,16 C27,17.6568542 25.6568542,19 24,19 L18,19 C16.3431458,19 15,17.6568542 15,16 C15,14.3431458 16.3431458,13 18,13 Z M36,13 L42,13 C43.6568542,13 45,14.3431458 45,16 C45,17.6568542 43.6568542,19 42,19 L36,19 C34.3431458,19 33,17.6568542 33,16 C33,14.3431458 34.3431458,13 36,13 Z M123,13 L129,13 C130.656854,13 132,14.3431458 132,16 C132,17.6568542 130.656854,19 129,19 L123,19 C121.343146,19 120,17.6568542 120,16 C120,14.3431458 121.343146,13 123,13 Z" id="Combined-Shape" fill="url(#linearGradient-1)"></path>
                        <path d="M129,82 L129,70 C129.070421,67.5921533 128.144842,65.2618237 126.441509,63.5584909 C124.738176,61.8551582 122.407847,60.9295789 120,61 L96,61 C93.5921533,60.9295789 91.2618237,61.8551582 89.5584909,63.5584909 C87.8551582,65.2618237 86.9295789,67.5921533 87,70 L87,82 C80.372583,82 75,87.372583 75,94 L75,133 C75,139.627417 80.372583,145 87,145 L129,145 C135.627417,145 141,139.627417 141,133 L141,94 C141,87.372583 135.627417,82 129,82 Z M135,133 C135,136.313708 132.313708,139 129,139 L87,139 C83.6862915,139 81,136.313708 81,133 L81,94 C81,90.6862915 83.6862915,88 87,88 L90,88 C91.6568542,88 93,86.6568542 93,85 L93,70.036 C92.9115241,69.2132842 93.1976577,68.3943876 93.7792599,67.8058062 C94.3608621,67.2172248 95.1762874,66.9213438 96,67 L119.964,67 C120.786449,66.9126615 121.604662,67.1991681 122.192969,67.7804992 C122.781276,68.3618303 123.077522,69.1765673 123,70 L123,82 L105,82 C103.343146,82 102,83.3431458 102,85 C102,86.6568542 103.343146,88 105,88 L129,88 C132.313708,88 135,90.6862915 135,94 L135,133 Z" id="Shape" fill="#FFFFFF"></path>
                        <path d="M108,100 C103.621688,99.9917038 99.8757572,103.142464 99.133838,107.457466 C98.3919189,111.772468 100.870358,115.993443 105,117.448 L105,124 C105,125.656854 106.343146,127 108,127 C109.656854,127 111,125.656854 111,124 L111,117.448 C115.129642,115.993443 117.608081,111.772468 116.866162,107.457466 C116.124243,103.142464 112.378312,99.9917038 108,100 L108,100 Z M108,112 C106.343146,112 105,110.656854 105,109 C105,107.343146 106.343146,106 108,106 C109.656854,106 111,107.343146 111,109 C111,110.656854 109.656854,112 108,112 Z" id="Shape" fill="#FFFFFF"></path>
                    </g>
                </g>
            </g>
        </g>
    </g>
</svg>