<svg xmlns="http://www.w3.org/2000/svg" width="720" height="900" viewBox="0 0 720 900">
    <defs>
        <linearGradient id="a" x1="50%" x2="50%" y1="0%" y2="100%">
            <stop offset="0%" stop-color="#EE6174"/>
            <stop offset="100%" stop-color="#F89948"/>
        </linearGradient>
    </defs>
    <g fill="none" fill-rule="evenodd" transform="translate(-217 -127)">
        <g fill="#FFF" fill-rule="nonzero">
            <path d="M576.5 741c90.299 0 163.5-73.201 163.5-163.5S666.799 414 576.5 414 413 487.201 413 577.5 486.201 741 576.5 741zm0 1C485.65 742 412 668.35 412 577.5S485.65 413 576.5 413 741 486.65 741 577.5 667.35 742 576.5 742z" opacity=".15"/>
            <path d="M576.5 844C723.684 844 843 724.684 843 577.5S723.684 311 576.5 311 310 430.316 310 577.5 429.316 844 576.5 844zm0 1C428.764 845 309 725.236 309 577.5S428.764 310 576.5 310 844 429.764 844 577.5 724.236 845 576.5 845z" opacity=".1"/>
            <path d="M576.5 947C780.57 947 946 781.57 946 577.5S780.57 208 576.5 208 207 373.43 207 577.5 372.43 947 576.5 947zm0 1C371.878 948 206 782.121 206 577.5 206 372.878 371.878 207 576.5 207 781.121 207 947 372.878 947 577.5 947 782.121 781.121 948 576.5 948z" opacity=".08"/>
            <path d="M576.5 1049c260.955 0 472.5-211.545 472.5-472.5C1049 315.545 837.455 104 576.5 104 315.545 104 104 315.545 104 576.5c0 260.955 211.545 472.5 472.5 472.5zm0 1C314.993 1050 103 838.007 103 576.5S314.993 103 576.5 103 1050 314.993 1050 576.5 838.007 1050 576.5 1050z" opacity=".05"/>
            <path d="M576.5 1152c317.84 0 575.5-257.66 575.5-575.5S894.34 1 576.5 1 1 258.66 1 576.5 258.66 1152 576.5 1152zm0 1C258.108 1153 0 894.892 0 576.5S258.108 0 576.5 0 1153 258.108 1153 576.5 894.892 1153 576.5 1153z" opacity=".03"/>
        </g>
        <circle cx="416" cy="433" r="3" fill="#FFF" fill-rule="nonzero" opacity=".15"/>
        <circle cx="466" cy="765" r="3" fill="#FFF" fill-rule="nonzero" opacity=".15"/>
        <circle cx="791" cy="595" r="3" fill="#FFF" fill-rule="nonzero" opacity=".15"/>
        <circle cx="675" cy="447" r="4" fill="#F79848" fill-rule="nonzero"/>
        <circle cx="413" cy="592" r="4" fill="#EE6273" fill-rule="nonzero"/>
        <circle cx="683" cy="703" r="4" fill="#1984FF" fill-rule="nonzero"/>
        <path fill="url(#a)" fill-rule="nonzero" d="M143.118 43.882L126 26.758V7a5.877 5.877 0 0 0-6-6H24a5.877 5.877 0 0 0-6 6v19.758L.879 43.879A3 3 0 0 0 0 46v84c.01 8.28 6.72 14.99 15 15h114c8.28-.01 14.99-6.72 15-15V46a3 3 0 0 0-.882-2.118zM21 46a3 3 0 0 0 3-3V7h96v36a3 3 0 0 0 6 0v-7.758l10.266 10.266L72 87.418 7.734 45.508 18 35.242V43a3 3 0 0 0 3 3zm117 84a9 9 0 0 1-9 9H15a9 9 0 0 1-9-9V51.538L56.37 84.4l-31.5 31.5a3 3 0 1 0 4.242 4.242L61.5 87.739l8.856 5.775a3 3 0 0 0 3.276 0l8.868-5.775 32.379 32.382a3 3 0 0 0 4.242-4.242L87.63 84.4 138 51.538V130z" transform="translate(505 504)"/>
        <path fill="#FFF" d="M544 526h66a3 3 0 0 0 0-6h-66a3 3 0 0 0 0 6zM544 541h66a3 3 0 0 0 0-6h-66a3 3 0 0 0 0 6zM610 550h-6a3 3 0 0 0 0 6h6a3 3 0 0 0 0-6zM592 550h-6a3 3 0 0 0 0 6h6a3 3 0 0 0 0-6z"/>
    </g>
</svg>
