<?xml version="1.0" encoding="UTF-8"?>
<svg width="144px" height="144px" viewBox="0 0 144 144" version="1.1" xmlns="http://www.w3.org/2000/svg" xmlns:xlink="http://www.w3.org/1999/xlink">
    <!-- Generator: Sketch 53 (72520) - https://sketchapp.com -->
    <title>icon</title>
    <desc>Created with Sketch.</desc>
    <defs>
        <linearGradient x1="50%" y1="0%" x2="50%" y2="100%" id="linearGradient-1">
            <stop stop-color="#EE6174" offset="0%"></stop>
            <stop stop-color="#F89948" offset="100%"></stop>
        </linearGradient>
    </defs>
    <g id="New-version" stroke="none" stroke-width="1" fill="none" fill-rule="evenodd">
        <g id="-g-Emporium_New_SignIn02" transform="translate(-1008.000000, -431.000000)">
            <g id="back" transform="translate(720.000000, 0.000000)">
                <g id="SignIn02" transform="translate(-279.000000, -74.000000)">
                    <g id="icon" transform="translate(567.000000, 505.000000)">
                        <path d="M135,42 C139.970563,42 144,46.0294373 144,51 L144,135 C144,139.970563 139.970563,144 135,144 L9,144 C4.02943725,144 6.08718376e-16,139.970563 0,135 L0,51 C6.08718376e-16,46.0294373 4.02943725,42 9,42 L12,42 L12,36 C12,34.3431458 13.3431458,33 15,33 L129,33 C130.656854,33 132,34.3431458 132,36 L132,42 L135,42 Z M138,135 L138,51 C138,49.3431458 136.656854,48 135,48 L129,48 C127.343146,48 126,46.6568542 126,45 L126,39 L18,39 L18,42 L93,42 L93,48 L9,48 C7.34314575,48 6,49.3431458 6,51 L6,135 C6,136.656854 7.34314575,138 9,138 L135,138 C136.656854,138 138,136.656854 138,135 Z M60,27 L60,18 L54,18 L54,12 L60,12 L60,6 C60,2.6862915 62.6862915,-2.02906125e-16 66,0 L78,0 C81.3137085,2.02906125e-16 84,2.6862915 84,6 L84,12 L90,12 L90,18 L84,18 L84,27 L78,27 L78,18 L66,18 L66,27 L60,27 Z M66,6 L66,12 L78,12 L78,6 L66,6 Z M126,60 C127.656854,60 129,61.3431458 129,63 L129,72 C129,73.6568542 127.656854,75 126,75 L84,75 C82.3431458,75 81,73.6568542 81,72 L81,63 C81,61.3431458 82.3431458,60 84,60 L126,60 Z M123,69 L123,66 L87,66 L87,69 L123,69 Z M81,81 L87,81 L87,87 L81,87 L81,81 Z M93,81 L99,81 L99,87 L93,87 L93,81 Z M123,81 L129,81 L129,87 L123,87 L123,81 Z M123,117 L129,117 L129,123 L123,123 L123,117 Z M111,117 L117,117 L117,123 L111,123 L111,117 Z M81,93 L129,93 L129,99 L81,99 L81,93 Z M96,105 L129,105 L129,111 L96,111 L96,105 Z" id="Combined-Shape" fill="url(#linearGradient-1)" fill-rule="nonzero"></path>
                        <rect id="Rectangle" fill="#FFFFFF" x="60" y="120" width="6" height="12"></rect>
                        <rect id="Rectangle" fill="#FFFFFF" x="30" y="120" width="6" height="12"></rect>
                        <path d="M69.948,108.156 C65.5471942,106.694571 61.2253591,105.00529 57,103.095 L57,102.957 C64.318663,99.478181 68.9869944,92.1033845 69,84 L69,75 C68.9999998,63.4020204 59.5979796,54.0000004 48,54.0000004 C36.4020204,54.0000004 27.0000002,63.4020204 27,75 L27,84 C27.0130056,92.1033845 31.681337,99.478181 39,102.957 L39,103.095 C34.7746409,105.00529 30.4528058,106.694571 26.052,108.156 C15.126,111.798 15,119.667 15,120 L15,132 L21,132 L21,120.081 C21,119.919 21.3,116.061 27.948,113.844 C33.2063986,112.130845 38.3481844,110.07854 43.341,107.7 C44.3630081,107.189322 45.0062364,106.142477 45,105 L45,100.953 C44.9988221,99.6822824 44.1971944,98.5501486 42.999,98.127 C37.0159647,96.0036102 33.0134178,90.3486468 33,84 L33,75 C33,66.7157288 39.7157288,60 48,60 C56.2842712,60 63,66.7157288 63,75 L63,84 C62.9865822,90.3486468 58.9840353,96.0036102 53.001,98.127 C51.8028056,98.5501486 51.0011779,99.6822824 51,100.953 L51,105 C50.9937636,106.142477 51.6369919,107.189322 52.659,107.7 C57.6514429,110.083645 62.793236,112.140963 68.052,113.859 C74.7,116.061 75,119.919 75,120 L75,132 L81,132 L81,120 C81,119.667 80.874,111.798 69.948,108.156 Z" id="Path" fill="#FFFFFF"></path>
                    </g>
                </g>
            </g>
        </g>
    </g>
</svg>