<svg xmlns="http://www.w3.org/2000/svg" width="109" height="124" viewBox="0 0 109 124">
    <g fill="none" fill-rule="nonzero">
        <path fill="#D1D7E4" d="M62.521 121.697c8.029-1.391 9.094-4.03 3.257-5.313-5.841-1.286-62.658-5.404-65.015.235-1.95 4.669 5.773 4.438 13.3 4.206 4.09-.125 8.123-.251 10.511.41 6.784 1.876 15.447 3.6 19.529 1.833 4.082-1.767 14.29-.654 18.418-1.37" opacity=".4"/>
        <path fill="#1323A4" d="M34.174 101.926c.602 1.89-1.232 2.685-2.646 2.76-1.415.076-5.605-1.433-5.902-3.638-.297-2.205.074-5.539 1.382-5.146 2.066.62 6.92 5.25 7.166 6.024"/>
        <path fill="#D3DCFF" d="M25.124 96.236c-2.039-.408-2.432 3.842-2.432 7.805 0 2.179.607 5.339 1.436 8.063.71 2.33 1.578 4.342 2.372 5.137.791.792 3.534 1.247 4.608-.005.389-.453.848-1.274 1.32-2.296 1.474-3.2 3.054-8.423 2.905-10.9-10.013-3.731-8.171-7.398-10.209-7.804"/>
        <path fill="#B3C7F4" d="M45.836 53.297c-9.224 5.244-11.579 6.664-18.418 17.326-4.384 6.838-5.347 11.799-4.388 17.924 2.474 15.808 23.55 20.298 35.152 9.845 3.38-3.044 7.522-12.291 9.078-19.722 1.272-6.08.75-15.26.75-15.26L45.837 53.297"/>
        <path fill="#233FE1" d="M56.313 78.813a8.005 8.005 0 0 1-13.801 1.323 7.997 7.997 0 0 1-.764-7.964 8.005 8.005 0 0 1 13.801-1.323 7.997 7.997 0 0 1 .764 7.964m-21.688-43.1l-2.955-1.346c-2.12-.968-1.93-5.933.425-11.093 2.354-5.157 5.984-8.554 8.104-7.589l2.955 1.348-8.53 18.68"/>
        <path fill="#26337D" d="M37.043 36.818L34.09 35.47c-2.12-.967-1.93-5.932.425-11.09 2.355-5.16 5.984-8.558 8.104-7.59l2.953 1.347-8.529 18.68"/>
        <path fill="#233FE1" d="M104.13 47.205l2.846 1.559c2.045 1.119 1.494 6.057-1.232 11.03-2.725 4.973-6.591 8.098-8.636 6.979l-2.848-1.56 9.87-18.008"/>
        <path fill="#1323A4" d="M101.796 45.926l2.848 1.56c2.044 1.12 1.493 6.058-1.233 11.032-2.724 4.973-6.59 8.096-8.634 6.979l-2.85-1.56 9.869-18.01"/>
        <path fill="#D3DCFF" d="M47.335 8.303c-4.847 2.245-15.97 28.942-16.103 31.245-.068 1.193 12.089 14.704 25 20.606 14.343 6.555 33.015 10.87 34.173 10.582 4.281-1.066 17.557-29.533 17.311-31.876-.143-1.386-16.861-16.282-27.428-21.042-13.516-6.09-30.953-10.441-32.953-9.515"/>
        <path fill="#1323A4" d="M51.178 18.586S41.438 37.902 41.04 38.77c-.396.87 12.72 11.84 17.895 14.595 7.307 3.887 23.51 10.065 24.262 10.145.752.08 12.64-14.45 12.61-15.25-.028-.8-13.922-14.225-21.976-18.775-3.834-2.164-20.953-11.174-22.654-10.9m42.383 9.376l-1.43-.983 8.926-12.994 1.43.983-8.926 12.994"/>
        <path fill="#1323A4" d="M106.378 15.185c-1.406 1.788-4.026 2.071-5.853.636s-2.166-4.047-.762-5.835c1.407-1.786 4.82-3.207 6.647-1.772 1.826 1.437 1.374 5.185-.032 6.971M95.354 31.521c-.627.893-2.428.133-4.427-1.208-2-1.34-3.181-3.087-2.646-3.9.978-1.485 3.55-1.785 5.55-.445 2 1.342 2.716 3.851 1.523 5.553"/>
        <path fill="#FFFFFE" d="M60.651 40.694c-1.903 4.169-5.31 6.044-8.743 4.478-3.43-1.565-5.584-5.975-3.68-10.145 1.905-4.169 6.229-6.282 9.66-4.717 3.43 1.563 4.668 6.213 2.763 10.384m21.84 11.994c-1.78 3.9-7.532 5.097-11.7 3.196-4.171-1.902-5.18-6.182-3.398-10.083 1.78-3.899 6.604-5.52 10.772-3.617 4.171 1.902 6.108 6.605 4.327 10.504"/>
        <path fill="#222551" d="M53.876 41.408c-.753 1.65-2.468 2.487-3.827 1.866-1.36-.62-1.852-2.46-1.098-4.111.753-1.651 2.465-2.484 3.827-1.865 1.36.62 1.852 2.463 1.098 4.11m18.636 10.685c-.945 1.549-2.746 2.174-4.024 1.393-1.274-.778-1.543-2.665-.596-4.212.946-1.548 2.747-2.172 4.023-1.393 1.275.779 1.543 2.666.597 4.212"/>
        <path fill="#1323A4" d="M45.403 103.264c-1.021 1.698 1.435 3.272 2.794 3.671 1.358.4 4.953.24 5.752-1.836.798-2.075 2.158-5.75 0-5.75s-8.128 3.219-8.546 3.915"/>
        <path fill="#D3DCFF" d="M43.044 104.971c10.395-3.795 12.37-5.534 14.447-5.622 2.077-.085 1.144 3.002-.453 6.628-1.599 3.628-6.073 12.137-7.084 12.616-1.011.48-3.684.684-4.55-.718-1.298-2.1-3.061-9.708-2.36-12.904"/>
        <path fill="#1323A4" d="M66.55 71.361c1.551-.887 4.749 1.014 5.12 2.428.368 1.416-6.289 4.881-6.289 4.881s-2.272-5.334 1.17-7.309"/>
        <path fill="#D3DCFF" d="M71.208 71.361c-1.065-.754-3.365-1.545-5.678 3.517-2.44 5.343 1.882 13.166 3.989 17.675-1.544 1.92-2.28 4.706-.735 5.41 1.07.489 2.025-.654 3.232-1.205 1.709 1.6 5.02 3.347 6.913 2.248 3.321-1.93-1.288-23.08-7.72-27.645"/>
        <path fill="#233FE1" d="M79.021 87.405c-3.56-.158-8.9-.028-11.703.464.268.685.673 1.425.944 2.051 2.612-.366 7.736-.498 11.208-.318-.134-.69-.275-1.483-.449-2.197"/>
        <path fill="#25244F" d="M26.141 96.313c.02-.03.04-.06.06-.087-1.588-2.145-2.707-4.712-3.171-7.68.464 2.968 1.583 5.534 3.172 7.68-.021.027-.041.057-.06.087m6.245-73.655c2.039-4.166 4.88-7.042 6.926-7.134-2.047.093-4.888 2.968-6.926 7.134m33.996-10.153a172.93 172.93 0 0 0-1.514-.485l.939-3.184 1.374.96-.799 2.709"/>
        <path fill="#292C6C" d="M29.91 101.38c-3.003-2.037-3.309-3.79-3.98-4.638a2.59 2.59 0 0 1 .211-.429c.02-.03.04-.06.06-.087a17.822 17.822 0 0 0 4.122 3.988 8.62 8.62 0 0 0-.411 1.164l-.002.002"/>
        <path fill="#7F9FF1" d="M28.911 118.003c-.993-.018-1.985-.336-2.411-.762-.794-.795-1.662-2.807-2.372-5.137-.829-2.724-1.436-5.884-1.436-8.063 0-3.785.357-7.832 2.169-7.832.09 0 .182.01.27.029h.002l.008.001c.317.064.6.246.788.51l.001-.007c.671.848.977 2.601 3.98 4.638-1.468 5.323-1.058 11.137-.999 16.623m1.412-17.79a17.822 17.822 0 0 1-4.121-3.987c-1.589-2.146-2.708-4.712-3.172-7.68a26.19 26.19 0 0 1-.338-4.052c-.003-4.438 1.344-8.596 4.726-13.87 6.73-10.491 9.133-12.044 17.991-17.083 2.536 1.906 5.268 3.724 8.079 5.242-.156 4.172.35 7.68.95 10.807a7.999 7.999 0 0 0-2.085-1.376 8.008 8.008 0 0 0-10.517 3.766 8 8 0 0 0 3.49 10.607 8.008 8.008 0 0 0 10.7-3.206c.069 2.822-.503 5.596-2.398 8.678-3.455 5.617-19.586 3.694-23.305 12.155"/>
        <path fill="#0B12DA" d="M49.026 83.495a7.998 7.998 0 1 1-4.192-14.808 8.008 8.008 0 0 1 9.604.903c.695 3.618 1.516 6.732 1.589 9.791a8.011 8.011 0 0 1-7.001 4.114M32.782 34.873l-1.112-.506c-.985-.45-1.472-1.763-1.474-3.558-.001-2.068.64-4.773 1.899-7.535a.637.637 0 0 0 .021-.047l.006-.013.033-.072.006-.012.06-.127.046-.095.004-.01.038-.079.07-.143.008-.018c2.038-4.166 4.88-7.04 6.926-7.134l.1-.003h.002c.27 0 .525.051.761.154l.023.01c.22.103.691.317 1.196.547l-.273.498c-2.08.585-4.743 3.565-6.607 7.65-1.832 4.01-2.354 7.906-1.498 9.894l-.235.6"/>
        <path fill="#292C6C" d="M33.017 34.274c-.856-1.988-.334-5.884 1.498-9.894 1.864-4.085 4.527-7.065 6.607-7.65-3.046 5.592-6.2 12.722-8.105 17.544"/>
        <path fill="#B5C3FF" d="M53.488 58.783c-2.81-1.518-5.543-3.336-8.079-5.242l.011-.006c-7.808-5.874-13.733-12.568-14.164-13.853l-.002-.006-.001-.001-.002-.008-.001-.001v-.005l-.002-.003-.001-.003-.003-.013a.298.298 0 0 1-.012-.074v-.002l-.002-.004v-.005l.002-.003V39.541c.008-.097.023-.193.045-.288l.001-.003v-.005c.161-.737.704-2.31 1.506-4.37l-.002-.002.235-.599c1.905-4.822 5.059-11.952 8.105-17.544l.275-.497c2.142-3.876 4.21-6.933 5.727-7.819l.003-.001.014-.01h.003l.007-.005.006-.003a.086.086 0 0 0 .01-.006l.007-.003a.012.012 0 0 1 .006-.003.024.024 0 0 1 .01-.006l.005-.004.01-.004.002-.002.012-.007.003-.002.012-.006h.002l.012-.007.003-.002a.054.054 0 0 0 .013-.006.054.054 0 0 1 .014-.006l.001-.001.013-.006.003-.002.012-.006h.001a.045.045 0 0 1 .012-.006l.003-.001.012-.006c.181-.085.488-.125.907-.125 2.524 0 9.11 1.473 16.627 3.843v-.001c.5.158 1.006.319 1.514.485v.001a151.73 151.73 0 0 1 9.721 3.54l.212.147s-7.392 3.846-12.15 8.173c-5.632-2.875-11.679-5.786-12.902-5.786a.5.5 0 0 0-.086.006S41.438 37.902 41.04 38.77c-.313.69 7.854 7.718 13.834 11.979-.653 3.505-1.128 6.364-1.372 7.69l-.015.343"/>
        <path fill="#060A91" d="M54.875 50.75c-5.98-4.26-14.147-11.29-13.834-11.979.398-.869 10.137-20.185 10.137-20.185a.5.5 0 0 1 .086-.006c1.223 0 7.27 2.911 12.901 5.786a20.59 20.59 0 0 0-2.25 2.355c-.81 1.021-1.597 2.696-2.343 4.764a5.713 5.713 0 0 0-4.085-1.691c-2.845 0-5.78 1.997-7.258 5.233-1.905 4.17.25 8.58 3.68 10.145a5.78 5.78 0 0 0 2.415.55 5.29 5.29 0 0 0 1.587-.246 272.382 272.382 0 0 0-1.036 5.274"/>
        <path fill="#FFFFFE" d="M54.324 45.721a5.78 5.78 0 0 1-2.416-.55c-3.43-1.564-5.584-5.974-3.68-10.144 1.479-3.236 4.414-5.233 7.26-5.233a5.713 5.713 0 0 1 4.084 1.69c-1.395 3.868-2.649 9.108-3.661 13.992a5.29 5.29 0 0 1-1.587.245m-2.5-8.628c-1.127 0-2.29.79-2.873 2.07-.754 1.65-.261 3.49 1.098 4.111.304.139.627.205.954.205 1.125 0 2.289-.79 2.873-2.07.754-1.648.261-3.49-1.098-4.11a2.299 2.299 0 0 0-.954-.206"/>
        <path fill="#171739" d="M51.003 43.479c-.327 0-.65-.066-.954-.205-1.36-.62-1.852-2.46-1.098-4.111.583-1.28 1.746-2.07 2.873-2.07.326 0 .648.067.954.205 1.36.62 1.852 2.463 1.098 4.11-.584 1.28-1.748 2.07-2.873 2.07"/>
        <path fill="#26337D" d="M65.652 14.99l-1.526-.45 2.955-10.025 1.525.449-2.954 10.025"/>
        <path fill="#1323A4" d="M70.89 4.479c-.458 1.247-2.028 1.82-3.508 1.279-1.48-.544-2.308-1.996-1.852-3.243.457-1.248 2.256-2.596 3.736-2.056 1.48.543 2.082 2.771 1.624 4.02m-3.738 12.206c-.225.741-1.456.666-2.913.253-1.456-.41-2.483-1.283-2.3-1.95.33-1.214 1.846-2.023 3.302-1.611 1.456.412 2.337 1.902 1.91 3.308"/>
        <path fill="#25244F" d="M44.1 114.453c-.674-2.406-1.218-5.441-1.216-7.697-.002 2.256.542 5.29 1.216 7.697"/>
        <path fill="#B5BCD4" d="M45.403 117.875c-.418-.678-.886-1.93-1.303-3.422.417 1.493.885 2.744 1.303 3.422"/>
        <path fill="#292C6C" d="M47.902 103.114c.57-.23 1.103-.448 1.602-.656l-.002.001c-.497.208-1.03.425-1.6.655"/>
        <path fill="#8195BF" d="M47.293 118.893c-.775-.108-1.498-.399-1.88-1.003l-.002-.003-.008-.012c-.418-.678-.886-1.93-1.303-3.422-.674-2.406-1.218-5.441-1.216-7.697 0-.678.05-1.283.16-1.783 1.879-.687 3.48-1.306 4.858-1.859.535-.215 1.068-.433 1.6-.655-1.65 2.291-4.6 4.036-4.6 6.997 0 2.448 2.088 7.08 2.391 9.437"/>
        <path fill="#25244F" d="M67.93 96.383c0-1.15.641-2.653 1.589-3.83-.948 1.177-1.59 2.68-1.59 3.83"/>
        <path fill="#B5C3FF" d="M77.32 99.342c-1.816-.089-4.014-1.378-5.304-2.584-1.002.457-1.832 1.325-2.699 1.325a1.26 1.26 0 0 1-.533-.12 1.412 1.412 0 0 1-.264-.154c-.41-.31-.59-.818-.59-1.426 0-1.15.641-2.653 1.589-3.83v-.002c-.478-1.022-1.07-2.215-1.671-3.51.15.305.295.604.414.88 1.09-.153 2.615-.264 4.275-.33.067.704.029 1.267-.116 1.605-.648 1.506 2.6 4.277 3.895 6.212.386.578.72 1.26 1.004 1.934M67.318 87.87c-1.31-2.962-2.515-6.323-2.512-9.37 0-.468.028-.93.09-1.383.047-.33.109-.658.191-.977.112-.434.258-.855.443-1.262l.01-.018c.173-.38.348-.718.52-1.033-.133 2.51.142 5.164 2.056 6.827 2 1.736 3.34 4.474 3.992 6.77-1.842.082-3.56.228-4.79.445v.001"/>
        <path fill="#0B12DA" d="M68.262 89.92c-.119-.275-.265-.574-.414-.88-.18-.388-.356-.778-.53-1.17v-.001c1.23-.217 2.948-.363 4.79-.446.226.797.369 1.538.43 2.167-1.661.067-3.186.178-4.276.33"/>
    </g>
</svg>
