<svg xmlns="http://www.w3.org/2000/svg" width="24" height="24" viewBox="0 0 24 24">
    <g fill="#006FEE" fill-rule="evenodd">
        <path fill-rule="nonzero" d="M12 24C5.373 24 0 18.627 0 12S5.373 0 12 0s12 5.373 12 12-5.373 12-12 12zm0-2c5.523 0 10-4.477 10-10S17.523 2 12 2 2 6.477 2 12s4.477 10 10 10z"/>
        <path fill-rule="nonzero" d="M8.914 17.406C9.652 15.746 10.646 15 12 15c1.354 0 2.348.746 3.086 2.406l1.828-.812C15.874 14.254 14.202 13 12 13c-2.202 0-3.874 1.254-4.914 3.594l1.828.812z"/>
        <circle cx="7.5" cy="9.5" r="1.5"/>
        <circle cx="16.5" cy="9.5" r="1.5"/>
    </g>
</svg>
