<svg xmlns="http://www.w3.org/2000/svg" width="48" height="42" viewBox="0 0 48 42">
    <defs>
        <linearGradient id="a" x1="50%" x2="50%" y1="0%" y2="100%">
            <stop offset="0%" stop-color="#EE6174"/>
            <stop offset="100%" stop-color="#F89948"/>
        </linearGradient>
    </defs>
    <path fill="url(#a)" fill-rule="evenodd" d="M30 13a1 1 0 0 1-2 0 7.008 7.008 0 0 1 7-7 1 1 0 0 1 0 2 5.006 5.006 0 0 0-5 5zm-7 11a1 1 0 0 1 0 2H4a4 4 0 0 1-4-4V12a4 4 0 0 1 4-4h14a1 1 0 0 1 0 2H4a2 2 0 0 0-2 2v10a2 2 0 0 0 2 2h19zM9 14a1 1 0 0 1 0 2H7a1 1 0 0 1 0-2h2zm-4 5a1 1 0 0 1 1-1h12a1 1 0 0 1 0 2H6a1 1 0 0 1-1-1zm29 11a1 1 0 0 0-1 1v2h4v-2a1 1 0 0 1 2 0v2h1a1 1 0 0 1 0 2h-1v4a3 3 0 0 1-3 3h-2a3 3 0 0 1-3-3v-4h-1a1 1 0 0 1 0-2h1v-2a3 3 0 0 1 3-3v-2.043A13.052 13.052 0 0 1 23.74 19.5a1 1 0 0 1 1.732-1A11 11 0 1 0 24 13a2.916 2.916 0 0 1-3 3h-8a1 1 0 0 1 0-2h8a.919.919 0 0 0 1-1.012C22.003 5.943 27.62.184 34.662.004c7.043-.18 12.946 5.285 13.309 12.321.362 7.035-4.947 13.079-11.971 13.624V29a1 1 0 0 1-1 1h-1zm3 5h-4v4a1 1 0 0 0 1 1h2a1 1 0 0 0 1-1v-4z"/>
</svg>
