<svg xmlns="http://www.w3.org/2000/svg" width="72" height="72" viewBox="0 0 72 72">
    <g fill="#11223E" fill-rule="nonzero" opacity=".1">
        <path d="M36 72c19.882 0 36-16.118 36-36S55.882 0 36 0 0 16.118 0 36c.021 19.873 16.127 35.979 36 36zm0-66c16.569 0 30 13.431 30 30 0 16.569-13.431 30-30 30C19.431 66 6 52.569 6 36 6.018 19.439 19.439 6.018 36 6z"/>
        <path d="M43.218 41.683l4.55 4.55a2.5 2.5 0 0 1-3.536 3.535l-4.977-4.977A11.952 11.952 0 0 1 34 46c-6.627 0-12-5.373-12-12s5.373-12 12-12 12 5.373 12 12c0 2.923-1.045 5.601-2.782 7.683zM34 41a7 7 0 1 0 0-14 7 7 0 0 0 0 14z"/>
    </g>
</svg>
