<svg xmlns="http://www.w3.org/2000/svg" width="8" height="9" viewBox="0 0 8 9">
    <g fill="none" fill-rule="evenodd">
        <g fill="#FFF">
            <g>
                <path d="M21 21.586l1.293-1.293c.39-.39 1.024-.39 1.414 0 .39.39.39 1.024 0 1.414l-3 3c-.39.39-1.024.39-1.414 0l-3-3c-.39-.39-.39-1.024 0-1.414.39-.39 1.024-.39 1.414 0L19 21.586V17c0-.552.448-1 1-1s1 .448 1 1v4.586z" transform="translate(-336 -632) translate(320 616) matrix(1 0 0 -1 0 41)"/>
            </g>
        </g>
    </g>
</svg>
