<?xml version="1.0" encoding="UTF-8"?>
<svg width="48px" height="48px" viewBox="0 0 48 48" version="1.1" xmlns="http://www.w3.org/2000/svg" xmlns:xlink="http://www.w3.org/1999/xlink">
    <!-- Generator: Sketch 52.1 (67048) - http://www.bohemiancoding.com/sketch -->
    <title>Group</title>
    <desc>Created with Sketch.</desc>
    <defs>
        <linearGradient x1="50%" y1="0%" x2="50%" y2="100%" id="linearGradient-1">
            <stop stop-color="#EE6174" offset="0%"></stop>
            <stop stop-color="#F89948" offset="100%"></stop>
        </linearGradient>
    </defs>
    <g id="New-version" stroke="none" stroke-width="1" fill="none" fill-rule="evenodd">
        <g id="-g-Emporium_Wallet_New07" transform="translate(-906.000000, -1255.000000)" fill="url(#linearGradient-1)">
            <g id="Content" transform="translate(100.000000, 0.000000)">
                <g id="Scheme" transform="translate(710.000000, 260.000000)">
                    <g id="06" transform="translate(0.000000, 958.000000)">
                        <g id="Group" transform="translate(95.000000, 37.000000)">
                            <path d="M25,42 C25.5522847,42 26,42.4477153 26,43 C26,43.5522847 25.5522847,44 25,44 C13.9595593,43.9873253 5.01267466,35.0404407 5,24 L5,10 L2,10 C1.60734867,10.0003367 1.25083617,9.77085226 1.08855071,9.413307 C0.926265248,9.05576175 0.988242534,8.63632991 1.247,8.341 L8.247,0.341 C8.44255191,0.133628663 8.71496768,0.0160816854 9,0.0160816854 C9.28503232,0.0160816854 9.55744809,0.133628663 9.753,0.341 L16.753,8.341 C17.0117575,8.63632991 17.0737348,9.05576175 16.9114493,9.413307 C16.7491638,9.77085226 16.3926513,10.0003367 16,10 L12,10 L12,14 C12,14.5522847 11.5522847,15 11,15 C10.4477153,15 10,14.5522847 10,14 L10,9 C10,8.44771525 10.4477153,8 11,8 L13.8,8 L9,2.519 L4.2,8 L6,8 C6.55228475,8 7,8.44771525 7,9 L7,24 C7.01157214,33.9363282 15.0636718,41.9884279 25,42 Z M48.91,38.587 C49.0721081,38.9439141 49.0107276,39.3626305 48.753,39.658 L41.753,47.658 C41.5631039,47.875306 41.288587,47.9999795 41,47.9999795 C40.711413,47.9999795 40.4368961,47.875306 40.247,47.658 L33.247,39.658 C32.988898,39.362627 32.9273183,38.9436316 33.0895198,38.5864867 C33.2517214,38.2293418 33.6077478,38.000007 34,38 L38,38 L38,34 C38,33.4477153 38.4477153,33 39,33 C39.5522847,33 40,33.4477153 40,34 L40,39 C40,39.5522847 39.5522847,40 39,40 L36.2,40 L41,45.481 L45.8,40 L44,40 C43.4477153,40 43,39.5522847 43,39 L43,24 C42.9884279,14.0636718 34.9363282,6.01157214 25,6 C24.4477153,6 24,5.55228475 24,5 C24,4.44771525 24.4477153,4 25,4 C36.0404407,4.01267466 44.9873253,12.9595593 45,24 L45,38 L48,38 C48.3921981,38.0002868 48.7480223,38.2298129 48.91,38.587 Z M23,31 C21.3431458,31 20,29.6568542 20,28 L20,27 C20,26.4477153 20.4477153,26 21,26 C21.5522847,26 22,26.4477153 22,27 L22,28 C22,28.5522847 22.4477153,29 23,29 L27,29 C27.5522847,29 28,28.5522847 28,28 L28,26 C28,25.4477153 27.5522847,25 27,25 L23,25 C21.3431458,25 20,23.6568542 20,22 L20,20 C20,18.3431458 21.3431458,17 23,17 L24,17 L24,16 C24,15.4477153 24.4477153,15 25,15 C25.5522847,15 26,15.4477153 26,16 L26,17 L27,17 C28.6568542,17 30,18.3431458 30,20 L30,21 C30,21.5522847 29.5522847,22 29,22 C28.4477153,22 28,21.5522847 28,21 L28,20 C28,19.4477153 27.5522847,19 27,19 L23,19 C22.4477153,19 22,19.4477153 22,20 L22,22 C22,22.5522847 22.4477153,23 23,23 L27,23 C28.6568542,23 30,24.3431458 30,26 L30,28 C30,29.6568542 28.6568542,31 27,31 L26,31 L26,32 C26,32.5522847 25.5522847,33 25,33 C24.4477153,33 24,32.5522847 24,32 L24,31 L23,31 Z M11,24 C11.0082673,16.2714405 17.2714405,10.0082673 25,10 C32.7319865,10 39,16.2680135 39,24 C39,31.7319865 32.7319865,38 25,38 C17.2680135,38 11,31.7319865 11,24 Z M25,12 C18.375553,12.0071648 13.0071648,17.375553 13,24 C13,30.627417 18.372583,36 25,36 C31.627417,36 37,30.627417 37,24 C37,17.372583 31.627417,12 25,12 Z" id="Combined-Shape"></path>
                        </g>
                    </g>
                </g>
            </g>
        </g>
    </g>
</svg>