<svg xmlns="http://www.w3.org/2000/svg" width="24" height="24" viewBox="0 0 24 24">
    <path fill="#11223E" fill-rule="nonzero" d="M18.727 14.727a1.5 1.5 0 0 1 1.373-.909h.082a1.818 1.818 0 0 0 0-3.636h-.155a1.5 1.5 0 0 1-1.372-.91V9.2a1.5 1.5 0 0 1 .3-1.655l.054-.054a1.818 1.818 0 1 0-2.573-2.573l-.054.055a1.5 1.5 0 0 1-1.655.3 1.5 1.5 0 0 1-.909-1.373v-.082a1.818 1.818 0 0 0-3.636 0v.155a1.5 1.5 0 0 1-.91 1.372H9.2a1.5 1.5 0 0 1-1.655-.3l-.054-.054a1.818 1.818 0 1 0-2.573 2.573l.055.054a1.5 1.5 0 0 1 .3 1.655 1.5 1.5 0 0 1-1.373.982h-.082a1.818 1.818 0 0 0 0 3.636h.155a1.5 1.5 0 0 1 1.372.909 1.5 1.5 0 0 1-.3 1.655l-.054.054a1.818 1.818 0 1 0 2.573 2.573l.054-.055a1.5 1.5 0 0 1 1.655-.3 1.5 1.5 0 0 1 .982 1.373v.082a1.818 1.818 0 0 0 3.636 0v-.155a1.5 1.5 0 0 1 .909-1.372 1.5 1.5 0 0 1 1.655.3l.054.054a1.818 1.818 0 1 0 2.573-2.573l-.055-.054a1.5 1.5 0 0 1-.3-1.655zm2.888 2.996a3.817 3.817 0 0 1-3.82 3.82 3.819 3.819 0 0 1-1.988-.56 3.82 3.82 0 0 1-7.463.024 3.818 3.818 0 0 1-5.328-5.2 3.82 3.82 0 0 1-.023-7.463 3.818 3.818 0 0 1 5.265-5.287 3.82 3.82 0 0 1 7.462-.104 3.818 3.818 0 0 1 5.223 5.305 3.82 3.82 0 0 1 .104 7.462c.369.597.568 1.29.568 2.003zM12 16a4 4 0 1 1 0-8 4 4 0 0 1 0 8zm0-2a2 2 0 1 0 0-4 2 2 0 0 0 0 4z"/>
</svg>
