<?xml version="1.0" encoding="UTF-8"?>
<svg width="18px" height="18px" viewBox="0 0 18 18" version="1.1" xmlns="http://www.w3.org/2000/svg" xmlns:xlink="http://www.w3.org/1999/xlink">
    <!-- Generator: sketchtool 53 (72520) - https://sketchapp.com -->
    <title>2492BB80-3ECE-4D3E-83E2-EE2F1362932F</title>
    <desc>Created with sketchtool.</desc>
    <g id="Forum-(...)" stroke="none" stroke-width="1" fill="none" fill-rule="evenodd">
        <g id="Forum-Components" transform="translate(-258.000000, -112.000000)" fill="#11223E" fill-rule="nonzero">
            <path d="M263.177694,126.649727 L258,130 L261.350273,124.822306 L259.065996,122.538029 C258.281018,121.753051 258.281018,120.48035 259.065996,119.695373 L259.77666,118.984709 C260.561638,118.199731 261.834338,118.199731 262.619316,118.984709 L266.172635,115.431389 L265.461971,114.720725 L267.593963,112.588733 C268.378941,111.803756 269.651641,111.803756 270.436619,112.588733 L275.411267,117.563381 C276.196244,118.348359 276.196244,119.621059 275.411267,120.406037 L273.279275,122.538029 L272.568611,121.827365 L269.015291,125.380684 C269.800269,126.165662 269.800269,127.438362 269.015291,128.22334 L268.304627,128.934004 C267.51965,129.718982 266.246949,129.718982 265.461971,128.934004 L263.177694,126.649727 Z M268.304627,114.720725 L269.015291,115.431389 L262.619316,121.827365 L261.197988,120.406037 L260.487324,121.116701 L266.883299,127.512676 L267.593963,126.802012 L266.172635,125.380684 L272.568611,118.984709 L273.279275,119.695373 L273.989939,118.984709 L269.015291,114.010061 L268.304627,114.720725 Z" id="Shape"></path>
        </g>
    </g>
</svg>