<?xml version="1.0" encoding="UTF-8"?>
<svg width="48px" height="47px" viewBox="0 0 48 47" version="1.1" xmlns="http://www.w3.org/2000/svg" xmlns:xlink="http://www.w3.org/1999/xlink">
    <!-- Generator: Sketch 52.1 (67048) - http://www.bohemiancoding.com/sketch -->
    <title>Group</title>
    <desc>Created with Sketch.</desc>
    <g id="New-version" stroke="none" stroke-width="1" fill="none" fill-rule="evenodd">
        <g id="-g-Emporium_Wallet_New07" transform="translate(-1216.000000, -1253.000000)" fill="#006FEE">
            <g id="Content" transform="translate(100.000000, 0.000000)">
                <g id="Scheme" transform="translate(710.000000, 260.000000)">
                    <g id="07" transform="translate(310.000000, 958.000000)">
                        <g id="Group" transform="translate(96.000000, 35.000000)">
                            <path d="M11,47 C10.620974,47.0001766 10.2744246,46.7860516 10.105,46.447 L0.105,26.447 C-0.049938316,26.1369384 -0.0332633877,25.7687558 0.149068406,25.4739691 C0.331400201,25.1791823 0.653381965,24.9998384 1,25 C2.07338802,25.0427025 3.11580381,24.6350045 3.87540415,23.8754042 C4.63500449,23.1158038 5.04270247,22.073388 5,21 L5,19 C5,18.4477153 5.44771525,18 6,18 L7,18 L7,15 C7,14.4477153 7.44771525,14 8,14 L14,14 C14.5522847,14 15,14.4477153 15,15 L15,18 L16,18 C16.5522847,18 17,18.4477153 17,19 L17,21 C17,24.955 20.837,25 21,25 C21.346618,24.9998384 21.6685998,25.1791823 21.8509316,25.4739691 C22.0332634,25.7687558 22.0499383,26.1369384 21.895,26.447 L11.895,46.447 C11.7255754,46.7860516 11.379026,47.0001766 11,47 Z M2.522,26.808 L11,43.764 L19.478,26.808 C16.7469652,26.2577518 14.837509,23.7811725 15,21 L15,20 L14,20 C13.4477153,20 13,19.5522847 13,19 L13,16 L9,16 L9,19 C9,19.5522847 8.55228475,20 8,20 L7,20 L7,21 C7.16249099,23.7811725 5.25303475,26.2577518 2.522,26.808 Z" id="Shape" fill-rule="nonzero"></path>
                            <path d="M17,16 L5,16 C4.44771525,16 4,15.5522847 4,15 L4,12 C4,10.8954305 4.8954305,10 6,10 L16,10 C17.1045695,10 18,10.8954305 18,12 L18,15 C18,15.5522847 17.5522847,16 17,16 Z M6,14 L16,14 L16,12 L6,12 L6,14 Z" id="Shape" fill-rule="nonzero"></path>
                            <path d="M15,12 L7,12 C6.44771525,12 6,11.5522847 6,11 L6,1 C6,0.44771525 6.44771525,1.01453063e-16 7,0 C7.55228475,-1.01453063e-16 8,0.44771525 8,1 L8,10 L14,10 L14,1 C14,0.44771525 14.4477153,1.01453063e-16 15,0 C15.5522847,-1.01453063e-16 16,0.44771525 16,1 L16,11 C16,11.5522847 15.5522847,12 15,12 Z" id="Path"></path>
                            <path d="M11,46 C10.4477153,46 10,45.5522847 10,45 L10,30 C10,29.4477153 10.4477153,29 11,29 C11.5522847,29 12,29.4477153 12,30 L12,45 C12,45.5522847 11.5522847,46 11,46 Z" id="Path"></path>
                            <path d="M11,31 C9.34314575,31 8,29.6568542 8,28 C8,26.3431458 9.34314575,25 11,25 C12.6568542,25 14,26.3431458 14,28 C14,29.6568542 12.6568542,31 11,31 Z M11,27 C10.4477153,27 10,27.4477153 10,28 C10,28.5522847 10.4477153,29 11,29 C11.5522847,29 12,28.5522847 12,28 C12,27.4477153 11.5522847,27 11,27 Z" id="Shape" fill-rule="nonzero"></path>
                            <path d="M43,47 L17,47 C16.4477153,47 16,46.5522847 16,46 C16,45.4477153 16.4477153,45 17,45 L43,45 C44.6568542,45 46,43.6568542 46,42 C46,40.3431458 44.6568542,39 43,39 C41.3431458,39 40,40.3431458 40,42 C40,42.5522847 39.5522847,43 39,43 C38.4477153,43 38,42.5522847 38,42 C38,39.2385763 40.2385763,37 43,37 C45.7614237,37 48,39.2385763 48,42 C48,44.7614237 45.7614237,47 43,47 Z" id="Path"></path>
                            <path d="M27,42 L20,42 C19.4477153,42 19,41.5522847 19,41 C19,40.4477153 19.4477153,40 20,40 L27,40 C27.5522847,40 28,40.4477153 28,41 C28,41.5522847 27.5522847,42 27,42 Z" id="Path"></path>
                            <path d="M32,37 L23,37 C22.4477153,37 22,36.5522847 22,36 C22,35.4477153 22.4477153,35 23,35 L32,35 C32.5522847,35 33,35.4477153 33,36 C33,36.5522847 32.5522847,37 32,37 Z" id="Path"></path>
                            <path d="M33,42 L31,42 C30.4477153,42 30,41.5522847 30,41 C30,40.4477153 30.4477153,40 31,40 L33,40 C33.5522847,40 34,40.4477153 34,41 C34,41.5522847 33.5522847,42 33,42 Z" id="Path"></path>
                        </g>
                    </g>
                </g>
            </g>
        </g>
    </g>
</svg>