<?xml version="1.0" encoding="UTF-8"?>
<svg width="22px" height="22px" viewBox="0 0 22 22" version="1.1" xmlns="http://www.w3.org/2000/svg" xmlns:xlink="http://www.w3.org/1999/xlink">
    <!-- Generator: Sketch 54.1 (76490) - https://sketchapp.com -->
    <title>stories</title>
    <desc>Created with Sketch.</desc>
    <g id="🎨-Компоненты" stroke="none" stroke-width="1" fill="none" fill-rule="evenodd">
        <g id="-g-Emporium_UI" transform="translate(-1014.000000, -3648.000000)" fill="#11223E">
            <path d="M1024.98145,3650 C1024.0648,3650 1023.16772,3650.13673 1022.31094,3650.40254 L1021.71833,3648.49235 C1022.76647,3648.16718 1023.8633,3648 1024.98145,3648 C1031.05658,3648 1035.98145,3652.92487 1035.98145,3659 C1035.98145,3665.07513 1031.05658,3670 1024.98145,3670 C1021.9106,3670 1019.03976,3668.73391 1016.97499,3666.54302 C1015.70894,3665.19964 1014.79626,3663.55837 1014.33171,3661.7634 L1016.26791,3661.26229 C1016.64756,3662.72921 1017.39402,3664.07156 1018.43047,3665.17132 C1020.12117,3666.96528 1022.46738,3668 1024.98145,3668 C1029.95201,3668 1033.98145,3663.97056 1033.98145,3659 C1033.98145,3654.02944 1029.95201,3650 1024.98145,3650 L1024.98145,3650 Z M1018.68441,3649.97967 L1019.83054,3651.61869 C1019.08882,3652.13736 1018.42814,3652.76547 1017.8724,3653.48006 L1016.29365,3652.25224 C1016.97217,3651.37979 1017.77866,3650.61304 1018.68441,3649.97967 Z M1014.68306,3655.12665 L1016.55493,3655.831 C1016.23842,3656.67217 1016.04937,3657.55973 1015.99667,3658.47171 L1014,3658.35633 C1014.06438,3657.24214 1014.29572,3656.15607 1014.68306,3655.12665 Z M1021.98145,3656 C1021.98145,3655.22471 1022.82549,3654.74431 1023.49208,3655.1402 L1028.70156,3658.2341 C1029.35405,3658.62161 1029.35405,3659.56618 1028.70156,3659.9537 L1023.49208,3663.0476 C1022.82549,3663.44348 1021.98145,3662.96308 1021.98145,3662.1878 L1021.98145,3656 Z M1023.98145,3660.43084 L1026.23257,3659.0939 L1023.98145,3657.75696 L1023.98145,3660.43084 Z" id="stories"></path>
        </g>
    </g>
</svg>