<?xml version="1.0" encoding="UTF-8"?>
<svg width="22px" height="22px" viewBox="0 0 22 22" version="1.1" xmlns="http://www.w3.org/2000/svg" xmlns:xlink="http://www.w3.org/1999/xlink">
    <!-- Generator: Sketch 54.1 (76490) - https://sketchapp.com -->
    <title>stories</title>
    <desc>Created with Sketch.</desc>
    <defs>
        <linearGradient x1="50%" y1="0%" x2="50%" y2="100%" id="linearGradient-1">
            <stop stop-color="#EE6174" offset="0%"></stop>
            <stop stop-color="#F89948" offset="100%"></stop>
        </linearGradient>
    </defs>
    <g id="🎨-Компоненты" stroke="none" stroke-width="1" fill="none" fill-rule="evenodd">
        <g id="-g-Emporium_UI" transform="translate(-974.000000, -3648.000000)" fill="url(#linearGradient-1)">
            <path d="M984.981451,3650 C984.064803,3650 983.167721,3650.13673 982.310943,3650.40254 L981.718334,3648.49235 C982.766475,3648.16718 983.863304,3648 984.981451,3648 C991.056584,3648 995.981451,3652.92487 995.981451,3659 C995.981451,3665.07513 991.056584,3670 984.981451,3670 C981.910603,3670 979.03976,3668.73391 976.974987,3666.54302 C975.708942,3665.19964 974.79626,3663.55837 974.331707,3661.7634 L976.267913,3661.26229 C976.647562,3662.72921 977.394019,3664.07156 978.430474,3665.17132 C980.121166,3666.96528 982.467378,3668 984.981451,3668 C989.952014,3668 993.981451,3663.97056 993.981451,3659 C993.981451,3654.02944 989.952014,3650 984.981451,3650 L984.981451,3650 Z M978.684413,3649.97967 L979.830541,3651.61869 C979.088817,3652.13736 978.428143,3652.76547 977.872404,3653.48006 L976.293649,3652.25224 C976.972166,3651.37979 977.778656,3650.61304 978.684413,3649.97967 Z M974.683064,3655.12665 L976.554935,3655.831 C976.238418,3656.67217 976.049366,3657.55973 975.99667,3658.47171 L974,3658.35633 C974.064381,3657.24214 974.295718,3656.15607 974.683064,3655.12665 Z M981.981451,3656 C981.981451,3655.22471 982.825494,3654.74431 983.492085,3655.1402 L988.701557,3658.2341 C989.354046,3658.62161 989.354046,3659.56618 988.701557,3659.9537 L983.492085,3663.0476 C982.825494,3663.44348 981.981451,3662.96308 981.981451,3662.1878 L981.981451,3656 Z M983.981451,3660.43084 L986.232571,3659.0939 L983.981451,3657.75696 L983.981451,3660.43084 Z" id="stories"></path>
        </g>
    </g>
</svg>