<svg xmlns="http://www.w3.org/2000/svg" width="22" height="22" viewBox="0 0 22 22">
    <path fill="#6EAB27" fill-rule="nonzero" d="M10 16v2H3.5A3.5 3.5 0 0 1 2 11.337V9a7 7 0 0 1 4.019-6.335 3 3 0 0 1 5.962 0A7 7 0 0 1 16 9v2h-2V9a5 5 0 0 0-2.871-4.526l-1.012-.477-.123-1.111a1 1 0 0 0-1.988 0l-.123 1.111-1.012.477A5 5 0 0 0 4 9v3.6l-1.142.543A1.5 1.5 0 0 0 3.5 16H10zm-5 4h8a4.992 4.992 0 0 1-4 2 4.992 4.992 0 0 1-4-2zm9.707-4.707L20 10l1.414 1.414-6.707 6.707L11 14.414 12.414 13l2.293 2.293z"/>
</svg>
