<?xml version="1.0" encoding="UTF-8"?>
<svg width="40px" height="40px" viewBox="0 0 40 40" version="1.1" xmlns="http://www.w3.org/2000/svg" xmlns:xlink="http://www.w3.org/1999/xlink">
    <!-- Generator: Sketch 52.1 (67048) - http://www.bohemiancoding.com/sketch -->
    <title>Done@2x</title>
    <desc>Created with Sketch.</desc>
    <g id="New-version" stroke="none" stroke-width="1" fill="none" fill-rule="evenodd">
        <g id="-g-Emporium_Elements001" transform="translate(-950.000000, -158.000000)" fill="#6EAB27" fill-rule="nonzero">
            <g id="Notifications" transform="translate(925.000000, 112.000000)">
                <g id="Done" transform="translate(25.000000, 46.000000)">
                    <path d="M20,38 C29.9411255,38 38,29.9411255 38,20 C38,10.0588745 29.9411255,2 20,2 C10.0588745,2 2,10.0588745 2,20 C2,29.9411255 10.0588745,38 20,38 Z M20,40 C8.954305,40 0,31.045695 0,20 C0,8.954305 8.954305,0 20,0 C31.045695,0 40,8.954305 40,20 C40,31.045695 31.045695,40 20,40 Z M28.2928932,14.2928932 L29.7071068,15.7071068 L18,27.4142136 L11.2928932,20.7071068 L12.7071068,19.2928932 L18,24.5857864 L28.2928932,14.2928932 Z" id="Combined-Shape"></path>
                </g>
            </g>
        </g>
    </g>
</svg>