<svg xmlns="http://www.w3.org/2000/svg" width="22" height="22" viewBox="0 0 22 22">
    <path fill="#FFF" fill-rule="nonzero" d="M13.71 20.293a1 1 0 0 1-1.414 1.414l-3-3a1 1 0 0 1 0-1.414l3-3a1 1 0 1 1 1.414 1.414L12.417 17h4.586a3 3 0 0 0 3-3V8a3 3 0 0 0-3-3h-.995a1 1 0 0 1 0-2h.995a5 5 0 0 1 5 5v6a5 5 0 0 1-5 5h-4.586l1.293 1.293zM9.59 3L8.296 1.707A1 1 0 0 1 9.71.293l3 3a1 1 0 0 1 0 1.414l-3 3a1 1 0 1 1-1.414-1.414L9.589 5H5a3 3 0 0 0-3 3v6a3 3 0 0 0 3 3h1.003a1 1 0 0 1 0 2H5a5 5 0 0 1-5-5V8a5 5 0 0 1 5-5h4.589z"/>
</svg>
