<?xml version="1.0" encoding="UTF-8"?>
<svg width="26px" height="25px" viewBox="0 0 26 25" version="1.1" xmlns="http://www.w3.org/2000/svg" xmlns:xlink="http://www.w3.org/1999/xlink">
    <!-- Generator: Sketch 52.1 (67048) - http://www.bohemiancoding.com/sketch -->
    <title>Icon</title>
    <desc>Created with Sketch.</desc>
    <defs>
        <linearGradient x1="50%" y1="0%" x2="50%" y2="100%" id="linearGradient-1">
            <stop stop-color="#EE6174" offset="0%"></stop>
            <stop stop-color="#F89948" offset="100%"></stop>
        </linearGradient>
    </defs>
    <g id="✅-Кошельки" stroke="none" stroke-width="1" fill="none" fill-rule="evenodd">
        <g id="wallets-list-1" transform="translate(-1003.000000, -223.000000)">
            <g id="tabs" transform="translate(140.000000, 201.000000)">
                <g id="tab-copy-2" transform="translate(840.000000, 0.000000)">
                    <g id="Icon" transform="translate(20.000000, 19.000000)">
                        <rect id="Rectangle" fill="#11223E" opacity="0" x="0" y="0" width="32" height="32"></rect>
                        <g id="payment" transform="translate(3.000000, 3.000000)" fill="url(#linearGradient-1)">
                            <path d="M6,6 L20,6 L20,2 L6,2 L6,6 Z M6,8 L6,23 L20,23 L20,8 L6,8 Z M22,2 L22,6 C23.1045695,6 24,5.1045695 24,4 C24,2.8954305 23.1045695,2 22,2 Z M22,8 L22,23 C22,24.1045695 21.1045695,25 20,25 L6,25 C4.8954305,25 4,24.1045695 4,23 L4,8 C1.790861,8 0,6.209139 0,4 C0,1.790861 1.790861,0 4,0 L22,0 C24.209139,0 26,1.790861 26,4 C26,6.209139 24.209139,8 22,8 Z M4,6 L4,2 C2.8954305,2 2,2.8954305 2,4 C2,5.1045695 2.8954305,6 4,6 Z M6,6 L6,8 L20,8 L20,6 L6,6 Z M13,13 C14.777974,13 16,12.1445818 16,11.5 C16,10.8554182 14.777974,10 13,10 C11.222026,10 10,10.8554182 10,11.5 C10,12.1445818 11.222026,13 13,13 Z M13,15 C10.2385763,15 8,13.4329966 8,11.5 C8,9.56700338 10.2385763,8 13,8 C15.7614237,8 18,9.56700338 18,11.5 C18,13.4329966 15.7614237,15 13,15 Z M12,17 L14,17 L14,21 L12,21 L12,17 Z M12,2 L14,2 L14,6 L12,6 L12,2 Z" id="Combined-Shape"></path>
                        </g>
                    </g>
                </g>
            </g>
        </g>
    </g>
</svg>