<?xml version="1.0" encoding="UTF-8"?>
<svg width="26px" height="26px" viewBox="0 0 26 26" version="1.1" xmlns="http://www.w3.org/2000/svg" xmlns:xlink="http://www.w3.org/1999/xlink">
    <!-- Generator: Sketch 52.1 (67048) - http://www.bohemiancoding.com/sketch -->
    <title>Icon</title>
    <desc>Created with Sketch.</desc>
    <defs>
        <linearGradient x1="50%" y1="0%" x2="50%" y2="100%" id="linearGradient-1">
            <stop stop-color="#EE6174" offset="0%"></stop>
            <stop stop-color="#F89948" offset="100%"></stop>
        </linearGradient>
    </defs>
    <g id="✅-Кошельки" stroke="none" stroke-width="1" fill="none" fill-rule="evenodd">
        <g id="wallets-list-1" transform="translate(-163.000000, -223.000000)">
            <g id="tabs" transform="translate(140.000000, 201.000000)">
                <g id="tab-copy">
                    <g id="Icon" transform="translate(20.000000, 19.000000)">
                        <rect id="Rectangle" fill="#11223E" opacity="0" x="0" y="0" width="32" height="32"></rect>
                        <path d="M16,27 C22.0751322,27 27,22.0751322 27,16 C27,9.92486775 22.0751322,5 16,5 C9.92486775,5 5,9.92486775 5,16 C5,22.0751322 9.92486775,27 16,27 Z M16,29 C8.82029825,29 3,23.1797017 3,16 C3,8.82029825 8.82029825,3 16,3 C23.1797017,3 29,8.82029825 29,16 C29,23.1797017 23.1797017,29 16,29 Z M16,23 C19.8659932,23 23,19.8659932 23,16 C23,12.1340068 19.8659932,9 16,9 C12.1340068,9 9,12.1340068 9,16 C9,19.8659932 12.1340068,23 16,23 Z M16,25 C11.0294373,25 7,20.9705627 7,16 C7,11.0294373 11.0294373,7 16,7 C20.9705627,7 25,11.0294373 25,16 C25,20.9705627 20.9705627,25 16,25 Z M16,12 C16.5522847,12 17,12.4477153 17,13 L17,19 C17,19.5522847 16.5522847,20 16,20 C15.4477153,20 15,19.5522847 15,19 L15,13 C15,12.4477153 15.4477153,12 16,12 Z" id="Crypto" fill="url(#linearGradient-1)"></path>
                    </g>
                </g>
            </g>
        </g>
    </g>
</svg>