<svg xmlns="http://www.w3.org/2000/svg" width="18" height="18" viewBox="0 0 18 18">
    <path fill="#11223E" fill-rule="nonzero" d="M1.511 8.193a1 1 0 0 0 .293.682l7.217 7.217a1 1 0 0 0 1.414 0l5.657-5.657a1 1 0 0 0 0-1.414L8.875 1.804a1 1 0 0 0-.682-.293c-3.697-.094-5.946.142-6.243.439-.297.297-.533 2.546-.439 6.243zm-1 .025c-.103-4.06.141-6.385.732-6.975C1.833.652 4.159.408 8.218.51a2 2 0 0 1 1.364.586l7.217 7.217a2 2 0 0 1 0 2.828L11.142 16.8a2 2 0 0 1-2.828 0L1.097 9.582A2 2 0 0 1 .51 8.218zM6.9 6.9a1 1 0 1 0-1.414-1.414A1 1 0 0 0 6.9 6.9zm.708.708a2 2 0 1 1-2.829-2.829 2 2 0 0 1 2.829 2.829z" opacity=".5"/>
</svg>
