<svg xmlns="http://www.w3.org/2000/svg" width="72" height="72" viewBox="0 0 72 72">
    <g fill="#11223E" fill-rule="evenodd" opacity=".1">
        <path fill-rule="nonzero" d="M36 72c19.882 0 36-16.118 36-36S55.882 0 36 0 0 16.118 0 36c.021 19.873 16.127 35.979 36 36zm0-66c16.569 0 30 13.431 30 30 0 16.569-13.431 30-30 30C19.431 66 6 52.569 6 36 6.018 19.439 19.439 6.018 36 6z"/>
        <g transform="translate(20 24)">
            <rect width="22" height="5" x="10" y="10" rx="2.5"/>
            <rect width="22" height="5" x="10" rx="2.5"/>
            <rect width="22" height="5" x="10" y="20" rx="2.5"/>
            <rect width="7" height="5" y="10" rx="2.5"/>
            <rect width="7" height="5" rx="2.5"/>
            <rect width="7" height="5" y="20" rx="2.5"/>
        </g>
    </g>
</svg>
