<?xml version="1.0" encoding="UTF-8"?>
<svg width="36px" height="36px" viewBox="0 0 36 36" version="1.1" xmlns="http://www.w3.org/2000/svg" xmlns:xlink="http://www.w3.org/1999/xlink">
    <!-- Generator: Sketch 52.1 (67048) - http://www.bohemiancoding.com/sketch -->
    <title>transactions</title>
    <desc>Created with Sketch.</desc>
    <g id="New-version" stroke="none" stroke-width="1" fill="none" fill-rule="evenodd">
        <g id="-g-Emporium_Wallet_New05" transform="translate(-140.000000, -1564.000000)" fill="#006FEE" fill-rule="nonzero">
            <g id="Content" transform="translate(100.000000, 0.000000)">
                <g id="05" transform="translate(40.000000, 1564.000000)">
                    <g id="transactions">
                        <path d="M18,36 C8.0588745,36 0,27.9411255 0,18 C0,8.0588745 8.0588745,0 18,0 C27.9411255,0 36,8.0588745 36,18 C36,27.9411255 27.9411255,36 18,36 Z M18,34 C26.836556,34 34,26.836556 34,18 C34,9.163444 26.836556,2 18,2 C9.163444,2 2,9.163444 2,18 C2,26.836556 9.163444,34 18,34 Z M10,12 L11,12 C11.5522847,12 12,12.4477153 12,13 C12,13.5522847 11.5522847,14 11,14 L10,14 C9.44771525,14 9,13.5522847 9,13 C9,12.4477153 9.44771525,12 10,12 Z M16,12 L26,12 C26.5522847,12 27,12.4477153 27,13 C27,13.5522847 26.5522847,14 26,14 L16,14 C15.4477153,14 15,13.5522847 15,13 C15,12.4477153 15.4477153,12 16,12 Z M10,17 L11,17 C11.5522847,17 12,17.4477153 12,18 C12,18.5522847 11.5522847,19 11,19 L10,19 C9.44771525,19 9,18.5522847 9,18 C9,17.4477153 9.44771525,17 10,17 Z M16,17 L26,17 C26.5522847,17 27,17.4477153 27,18 C27,18.5522847 26.5522847,19 26,19 L16,19 C15.4477153,19 15,18.5522847 15,18 C15,17.4477153 15.4477153,17 16,17 Z M10,22 L11,22 C11.5522847,22 12,22.4477153 12,23 C12,23.5522847 11.5522847,24 11,24 L10,24 C9.44771525,24 9,23.5522847 9,23 C9,22.4477153 9.44771525,22 10,22 Z M16,22 L26,22 C26.5522847,22 27,22.4477153 27,23 C27,23.5522847 26.5522847,24 26,24 L16,24 C15.4477153,24 15,23.5522847 15,23 C15,22.4477153 15.4477153,22 16,22 Z" id="Combined-Shape"></path>
                    </g>
                </g>
            </g>
        </g>
    </g>
</svg>