<svg xmlns="http://www.w3.org/2000/svg" width="14" height="12" viewBox="0 0 14 12">
    <path fill="#FFF" fill-rule="evenodd" d="M14 1.382a5.65 5.65 0 0 1-1.65.463 2.935 2.935 0 0 0 1.262-1.63 5.668 5.668 0 0 1-1.824.715A2.837 2.837 0 0 0 9.691 0C8.106 0 6.82 1.32 6.82 2.946c0 .232.025.457.076.67C4.507 3.496 2.39 2.32.975.539c-.246.435-.388.94-.388 1.48 0 1.022.507 1.924 1.278 2.452A2.81 2.81 0 0 1 .564 4.1v.036c0 1.427.99 2.619 2.304 2.889a2.84 2.84 0 0 1-1.297.049c.365 1.17 1.426 2.023 2.681 2.046A5.669 5.669 0 0 1 0 10.343a7.98 7.98 0 0 0 4.403 1.324c5.282 0 8.17-4.49 8.17-8.382 0-.129-.002-.255-.008-.382a5.894 5.894 0 0 0 1.433-1.525l.002.004z"/>
</svg>
