<?xml version="1.0" encoding="UTF-8"?>
<svg width="24px" height="19px" viewBox="0 0 24 19" version="1.1" xmlns="http://www.w3.org/2000/svg" xmlns:xlink="http://www.w3.org/1999/xlink">
    <!-- Generator: Sketch 52.1 (67048) - http://www.bohemiancoding.com/sketch -->
    <title>Group 2</title>
    <desc>Created with Sketch.</desc>
    <g id="✅-Сделки" stroke="none" stroke-width="1" fill="none" fill-rule="evenodd">
        <g id="deals-disput" transform="translate(-783.000000, -809.000000)" fill="#11223E">
            <g id="Group" transform="translate(740.000000, 238.000000)">
                <g id="03" transform="translate(0.000000, 42.000000)">
                    <g id="Group-3" transform="translate(40.000000, 523.000000)">
                        <g id="Group-2">
                            <rect id="Rectangle" opacity="0" x="0" y="0" width="32" height="32"></rect>
                            <g id="upload-cloud" transform="translate(3.000000, 6.000000)" fill-rule="nonzero">
                                <path d="M13.005461,13.4120065 L13.005461,17.997793 C13.005461,18.5500777 12.5577457,18.997793 12.005461,18.997793 C11.4531762,18.997793 11.005461,18.5500777 11.005461,17.997793 L11.005461,13.4120065 L9.71256775,14.7048997 C9.32204346,15.095424 8.68887848,15.095424 8.29835419,14.7048997 C7.9078299,14.3143754 7.9078299,13.6812105 8.29835419,13.2906862 L11.2983542,10.2906862 C11.6888785,9.90016188 12.3220435,9.90016188 12.7125678,10.2906862 L15.7125678,13.2906862 C16.103092,13.6812105 16.103092,14.3143754 15.7125678,14.7048997 C15.3220435,15.095424 14.6888785,15.095424 14.2983542,14.7048997 L13.005461,13.4120065 Z M18.0061212,5.99779317 C20.7483357,5.99960367 23.1403705,7.86033676 23.8167698,10.5178219 C24.4931691,13.1753071 23.2817866,15.9532039 20.8741212,17.2657932 C20.3892151,17.5301499 19.7818175,17.3513593 19.5174608,16.8664532 C19.253104,16.3815471 19.4318946,15.7741495 19.9168007,15.5097927 C21.521911,14.6347332 22.3294993,12.782802 21.8785665,11.0111452 C21.4276336,9.23948846 19.8329437,7.99899974 18.005461,7.99779296 L16.745461,7.99779296 C16.2895808,7.99779296 15.8914046,7.68946806 15.7772945,7.24810021 C15.0519905,4.44268813 12.6731719,2.37415398 9.79422259,2.04543855 C6.9152733,1.71672312 4.13139375,3.19578577 2.79236407,5.76549438 C1.4533344,8.335203 1.83598859,11.4642903 3.75479452,13.6356002 C4.12051347,14.0494457 4.08149921,14.6814075 3.66765372,15.0471265 C3.25380823,15.4128455 2.62184638,15.3738312 2.25612742,14.9599857 C-0.210908776,12.1683016 -0.702892724,8.14518929 1.01871685,4.84127821 C2.74032643,1.53736714 6.31960014,-0.364284837 10.0211064,0.0583492857 C13.4611584,0.451130836 16.3458166,2.7759764 17.4847221,5.99779308 L18.0061212,5.99779317 Z" id="Shape"></path>
                            </g>
                        </g>
                    </g>
                </g>
            </g>
        </g>
    </g>
</svg>