<svg xmlns="http://www.w3.org/2000/svg" xmlns:xlink="http://www.w3.org/1999/xlink" width="18" height="18" viewBox="0 0 18 18">
    <defs>
        <rect id="a" width="18" height="18" rx="9"/>
    </defs>
    <g fill="none" fill-rule="evenodd">
        <mask id="b" fill="#fff">
            <use xlink:href="#a"/>
        </mask>
        <use fill="#D8D8D8" xlink:href="#a"/>
        <g mask="url(#b)">
            <path fill="#D0021B" d="M10 0h8v2h-8z"/>
            <path fill="#3B3A7C" d="M0 0h10v10H0z"/>
            <path fill="#FFF" d="M4 4h1v1H4zM6 6h1v1H6zM6 2h1v1H6zM4 0h1v1H4zM8 0h1v1H8zM0 4h1v1H0zM2 6h1v1H2zM0 8h1v1H0zM8 8h1v1H8zM8 4h1v1H8zM4 8h1v1H4z"/>
            <path fill="#D0021B" d="M10 4h8v2h-8zM10 8h8v2h-8zM0 12h18v2H0zM0 16h18v2H0z"/>
            <path fill="#FFF" d="M10 2h8v2h-8zM10 6h8v2h-8zM0 10h18v2H0zM0 14h18v2H0z"/>
        </g>
        <rect width="17" height="17" x=".5" y=".5" stroke="#000" mask="url(#b)" opacity=".1" rx="8.5"/>
    </g>
</svg>
