<?xml version="1.0" encoding="UTF-8"?>
<svg width="48px" height="48px" viewBox="0 0 48 48" version="1.1" xmlns="http://www.w3.org/2000/svg" xmlns:xlink="http://www.w3.org/1999/xlink">
    <!-- Generator: Sketch 52.1 (67048) - http://www.bohemiancoding.com/sketch -->
    <title>use_own</title>
    <desc>Created with Sketch.</desc>
    <defs>
        <linearGradient x1="50%" y1="0%" x2="50%" y2="100%" id="linearGradient-1">
            <stop stop-color="#EE6174" offset="0%"></stop>
            <stop stop-color="#F89948" offset="100%"></stop>
        </linearGradient>
    </defs>
    <g id="New-version" stroke="none" stroke-width="1" fill="none" fill-rule="evenodd">
        <g id="-g-Emporium_Wallet_New08" transform="translate(-492.000000, -851.000000)" fill="url(#linearGradient-1)" fill-rule="nonzero">
            <g id="Content" transform="translate(100.000000, 0.000000)">
                <g id="Steps" transform="translate(40.000000, 190.000000)">
                    <g id="01" transform="translate(0.000000, 313.000000)">
                        <g transform="translate(322.000000, 318.000000)" id="use_own">
                            <g transform="translate(30.000000, 30.000000)">
                                <path d="M34,45 C34,45.5522847 33.5522847,46 33,46 L3,46 C2.44771525,46 2,45.5522847 2,45 L2,25 C2,24.4477153 2.44771525,24 3,24 L33,24 C33.5522847,24 34,24.4477153 34,25 L34,26 L36,26 L36,25 C36,23.3431458 34.6568542,22 33,22 L33,15 C33,6.71572875 26.2842712,5.07265313e-16 18,0 C9.71572875,-5.07265313e-16 3,6.71572875 3,15 L3,22 C1.34314575,22 2.86744138e-15,23.3431458 2.66453526e-15,25 L2.66453526e-15,45 C2.86744138e-15,46.6568542 1.34314575,48 3,48 L33,48 C34.6568542,48 36,46.6568542 36,45 L36,44 L34,44 L34,45 Z M9,22 L9,15 C9,10.0294373 13.0294373,6 18,6 C22.9705627,6 27,10.0294373 27,15 L27,22 L9,22 Z M5,15 C5,7.82029825 10.8202983,2 18,2 C25.1797017,2 31,7.82029825 31,15 L31,22 L29,22 L29,15 C29,8.92486775 24.0751322,4 18,4 C11.9248678,4 7,8.92486775 7,15 L7,22 L5,22 L5,15 Z M40,27 C43.8833785,26.9960191 47.2087552,29.7815036 47.8857113,33.605425 C48.5626675,37.4293463 46.395663,41.1871576 42.7469336,42.5166003 C39.0982042,43.8460429 35.0216923,42.363105 33.08,39 L19,39 L19,42 L17,42 L17,28 L19,28 L19,31 L33.08,31 C34.5137296,28.5334671 37.1470652,27.0113079 40,27 Z M40,41 C42.9736262,41.0023412 45.5003561,38.8262907 45.9390662,35.8852038 C46.3777762,32.9441169 44.596096,30.1253982 41.7512355,29.2598192 C38.906375,28.3942401 35.8567046,29.7429691 34.583,32.43 C34.4175973,32.7772838 34.0676594,32.9989111 33.683,33 L19,33 L19,37 L21,37 L21,35 L23,35 L23,37 L25,37 L25,35 L27,35 L27,37 L29,37 L29,35 L31,35 L31,37 L33.685,37 C34.0696594,37.0010889 34.4195973,37.2227162 34.585,37.57 C35.5827227,39.6572961 37.6865278,40.9899003 40,41 Z M40,31 C42.209139,31 44,32.790861 44,35 C44,37.209139 42.209139,39 40,39 C37.790861,39 36,37.209139 36,35 C36,32.790861 37.790861,31 40,31 Z M40,37 C41.1045695,37 42,36.1045695 42,35 C42,33.8954305 41.1045695,33 40,33 C38.8954305,33 38,33.8954305 38,35 C38,36.1045695 38.8954305,37 40,37 Z" id="Combined-Shape"></path>
                            </g>
                        </g>
                    </g>
                </g>
            </g>
        </g>
    </g>
</svg>