<svg xmlns="http://www.w3.org/2000/svg" width="16" height="10" viewBox="0 0 16 10">
    <path fill="#FFF" fill-rule="nonzero" d="M15.633.65c.111-.375 0-.65-.53-.65h-1.75c-.445 0-.65.238-.761.5 0 0-.89 2.192-2.152 3.616-.408.412-.593.543-.816.543-.11 0-.272-.13-.272-.505V.65c0-.45-.129-.65-.5-.65h-2.75c-.279 0-.446.209-.446.406 0 .427.63.525.695 1.724v2.604c0 .571-.102.675-.324.675-.594 0-2.037-2.202-2.893-4.721C2.966.198 2.798 0 2.351 0H.6C.1 0 0 .238 0 .5 0 .97.593 3.292 2.763 6.364 4.21 8.463 6.247 9.6 8.102 9.6c1.113 0 1.25-.253 1.25-.688V7.326c0-.505.106-.606.458-.606.26 0 .705.131 1.743 1.143 1.187 1.2 1.383 1.737 2.05 1.737h1.75c.5 0 .75-.253.606-.751-.157-.497-.724-1.218-1.476-2.073-.408-.487-1.02-1.011-1.205-1.274-.26-.337-.186-.487 0-.786 0 0 2.132-3.036 2.355-4.066z"/>
</svg>
