<svg xmlns="http://www.w3.org/2000/svg" width="13" height="11" viewBox="0 0 13 11">
    <defs>
        <linearGradient id="a" x1="50%" x2="50%" y1="0%" y2="100%">
            <stop offset="0%" stop-color="#EE6174"/>
            <stop offset="100%" stop-color="#F89948"/>
        </linearGradient>
    </defs>
    <path fill="url(#a)" fill-rule="nonzero" d="M27 57.659h-3a1 1 0 0 1-1-1v-2a2 2 0 1 0 0-4v-2a1 1 0 0 1 1-1h3v2h1v-2h7a1 1 0 0 1 1 1v2a2 2 0 1 0 0 4v2a1 1 0 0 1-1 1h-7v-1h-1v1zm1-7h-1v2h1v-2zm0 3h-1v2h1v-2z" transform="translate(-23 -47)"/>
</svg>
