<?xml version="1.0" encoding="UTF-8"?>
<svg width="48px" height="42px" viewBox="0 0 48 42" version="1.1" xmlns="http://www.w3.org/2000/svg" xmlns:xlink="http://www.w3.org/1999/xlink">
    <!-- Generator: Sketch 52.1 (67048) - http://www.bohemiancoding.com/sketch -->
    <title>Group</title>
    <desc>Created with Sketch.</desc>
    <g id="New-version" stroke="none" stroke-width="1" fill="none" fill-rule="evenodd">
        <g id="-g-Emporium_Wallet_New07" transform="translate(-1061.000000, -780.000000)" fill="#FFFFFF" fill-rule="nonzero">
            <g id="Content" transform="translate(100.000000, 0.000000)">
                <g id="Scheme" transform="translate(710.000000, 260.000000)">
                    <g id="04" transform="translate(109.000000, 480.000000)">
                        <g id="Group" transform="translate(141.000000, 39.000000)">
                            <path d="M42,33 C42.5522847,33 43,33.4477153 43,34 L43,38 C42.9966939,40.7600532 40.7600532,42.9966939 38,43 L6,43 C3.23994685,42.9966939 1.00330612,40.7600532 1,38 L1,6 C0.949212331,4.65899217 1.4596689,3.35749997 2.40858443,2.40858443 C3.35749997,1.4596689 4.65899217,0.949212331 6,1 L26,1 C26.2651948,1.00005664 26.5195073,1.10545063 26.707,1.293 L28.707,3.293 C29.0859722,3.68537889 29.0805524,4.30908478 28.6948186,4.69481858 C28.3090848,5.08055237 27.6853789,5.08597221 27.293,4.707 L25.586,3 L6,3 C5.19106471,2.95704903 4.40200862,3.26000567 3.82967642,3.83329176 C3.25734421,4.40657786 2.95570199,5.19613735 3,6.005 L3,38 C3,39.6568542 4.34314575,41 6,41 L38,41 C39.6568542,41 41,39.6568542 41,38 L41,34 C41,33.4477153 41.4477153,33 42,33 Z M47,21 C48.1045695,21 49,21.8954305 49,23 L49,29 C49,30.1045695 48.1045695,31 47,31 L33,31 C31.8954305,31 31,30.1045695 31,29 L31,23 C31,21.8954305 31.8954305,21 33,21 L41,21 L41,12 C41,10.3431458 39.6568542,9 38,9 L7,9 C6.44771525,9 6,8.55228475 6,8 C6,7.44771525 6.44771525,7 7,7 L38,7 C40.7600532,7.00330612 42.9966939,9.23994685 43,12 L43,22 C43,22.5522847 42.5522847,23 42,23 L33,23 L33,29 L47,29 L47,23 L46,23 C45.4477153,23 45,22.5522847 45,22 C45,21.4477153 45.4477153,21 46,21 L47,21 Z M36,25 L38,25 C38.5522847,25 39,25.4477153 39,26 C39,26.5522847 38.5522847,27 38,27 L36,27 C35.4477153,27 35,26.5522847 35,26 C35,25.4477153 35.4477153,25 36,25 Z M7,33 C7.55228475,33 8,33.4477153 8,34 L8,36 L10,36 C10.5522847,36 11,36.4477153 11,37 C11,37.5522847 10.5522847,38 10,38 L8,38 C7.46618474,38.0112942 6.95088836,37.8042094 6.5733395,37.4266605 C6.19579064,37.0491116 5.98870579,36.5338153 6,36 L6,34 C6,33.4477153 6.44771525,33 7,33 Z M37,17 C36.4477153,17 36,16.5522847 36,16 L36,14 L34,14 C33.4477153,14 33,13.5522847 33,13 C33,12.4477153 33.4477153,12 34,12 L36,12 C36.5338153,11.9887058 37.0491116,12.1957906 37.4266605,12.5733395 C37.8042094,12.9508884 38.0112942,13.4661847 38,14 L38,16 C38,16.5522847 37.5522847,17 37,17 Z M14,37 C14,36.4477153 14.4477153,36 15,36 L35,36 C35.5522847,36 36,36.4477153 36,37 C36,37.5522847 35.5522847,38 35,38 L15,38 C14.4477153,38 14,37.5522847 14,37 Z M29,12 C29.5522847,12 30,12.4477153 30,13 C30,13.5522847 29.5522847,14 29,14 L9,14 C8.44771525,14 8,13.5522847 8,13 C8,12.4477153 8.44771525,12 9,12 L29,12 Z" id="Combined-Shape"></path>
                        </g>
                    </g>
                </g>
            </g>
        </g>
    </g>
</svg>