<?xml version="1.0" encoding="UTF-8"?>
<svg width="36px" height="36px" viewBox="0 0 36 36" version="1.1" xmlns="http://www.w3.org/2000/svg" xmlns:xlink="http://www.w3.org/1999/xlink">
    <!-- Generator: Sketch 52.1 (67048) - http://www.bohemiancoding.com/sketch -->
    <title>wallet</title>
    <desc>Created with Sketch.</desc>
    <g id="New-version" stroke="none" stroke-width="1" fill="none" fill-rule="evenodd">
        <g id="-g-Emporium_Wallet_Qiwi04" transform="translate(-140.000000, -200.000000)" fill="#006FEE" fill-rule="nonzero">
            <g id="Content" transform="translate(100.000000, 0.000000)">
                <g id="04" transform="translate(40.000000, 200.000000)">
                    <g id="wallet">
                        <path d="M27,16 L27,20 L27,23.3333333 C27,24.8060927 25.6568542,26 24,26 L12,26 C10.3431458,26 9,24.8060927 9,23.3333333 L9,12.6666667 C9,11.1939073 10.3431458,10 12,10 L24,10 C25.6568542,10 27,11.1939073 27,12.6666667 L27,16 Z M25,20 L25,16 L20,16 C18.8954305,16 18,16.8954305 18,18 C18,19.1045695 18.8954305,20 20,20 L25,20 Z M25,14 L25,13.2 C25,12.5372583 24.3731986,12 23.6,12 L12.4,12 C11.6268014,12 11,12.5372583 11,13.2 L11,22.8 C11,23.4627417 11.6268014,24 12.4,24 L23.6,24 C24.3731986,24 25,23.4627417 25,22.8 L25,22 L20,22 C17.790861,22 16,20.209139 16,18 C16,15.790861 17.790861,14 20,14 L25,14 Z M18,36 C8.0588745,36 0,27.9411255 0,18 C0,8.0588745 8.0588745,0 18,0 C27.9411255,0 36,8.0588745 36,18 C36,27.9411255 27.9411255,36 18,36 Z M18,34 C26.836556,34 34,26.836556 34,18 C34,9.163444 26.836556,2 18,2 C9.163444,2 2,9.163444 2,18 C2,26.836556 9.163444,34 18,34 Z M21,19 C20.4477153,19 20,18.5522847 20,18 C20,17.4477153 20.4477153,17 21,17 C21.5522847,17 22,17.4477153 22,18 C22,18.5522847 21.5522847,19 21,19 Z" id="Combined-Shape"></path>
                    </g>
                </g>
            </g>
        </g>
    </g>
</svg>