<svg xmlns="http://www.w3.org/2000/svg" width="135" height="30" viewBox="0 0 135 30">
    <g fill="none" fill-rule="evenodd">
        <path fill="#F00" d="M5.447 24.942V16.85L.041 2.34H2.76L6.744 13.53 11.327 0h2.498l-5.88 16.944v7.998H5.447"/>
        <path fill="#000" d="M67.916 9.01l-2.972 7.46 3.32 8.472h-2.56l-2.467-6.575-2.402 6.575H58.4l3.32-8.25-3.004-7.683h2.56l2.055 5.785 2.181-5.785h2.403zm-17.323 6.512h4.078c0-2.72-.443-4.71-1.866-4.71-1.517 0-2.054 1.864-2.212 4.71zm2.718 9.641c-3.288 0-5.31-2.624-5.31-7.523 0-5.122 1.422-8.852 4.804-8.852 2.656 0 4.394 1.992 4.394 7.398v1.359h-6.638c0 3.603 1.012 5.5 2.972 5.5 1.39 0 2.402-.632 3.034-1.074l.57 1.896c-1.013.79-2.245 1.296-3.826 1.296zM43.07 11.57c-.506-.506-1.043-.759-1.865-.759-1.992 0-2.94 3.003-2.94 6.26 0 3.73.695 6.006 2.497 6.006 1.233 0 1.897-.6 2.308-1.233V11.57zm-7.429 6.007c0-5.912 2.213-8.789 5.406-8.789.758 0 1.548.253 2.023.6V2.34h2.466v22.603H43.7l-.19-1.264h-.158c-.695.885-1.58 1.485-2.876 1.485-3.13 0-4.837-2.655-4.837-7.586zm-8.915 7.365H24.26V8.978h2.465v1.39h.158c.443-.6 1.644-1.58 3.13-1.58 2.087 0 3.193 1.17 3.193 3.604v12.55h-2.497V12.613c0-1.201-.538-1.612-1.486-1.612-1.044 0-1.929.79-2.498 1.58v12.361zm-7.966-8.314h-.285c-3.066 0-3.73 1.36-3.73 3.414 0 1.834.6 3.035 1.865 3.035.854 0 1.707-.57 2.15-1.265v-5.184zm2.719 8.314H19.39a7.548 7.548 0 0 1-.221-1.264h-.158c-.696.885-1.58 1.485-2.972 1.485-2.276 0-3.825-1.707-3.825-4.836 0-3.414 1.739-5.564 6.196-5.564h.348v-.949c0-2.086-.696-2.97-2.086-2.97-1.265 0-2.34.663-3.161 1.39l-.475-2.181c.727-.6 2.182-1.265 3.794-1.265 2.813 0 4.362 1.201 4.362 5.058v7.492c0 1.518.158 2.845.285 3.604zM76.782 9.484l-.664 15.458h-1.296l.98-22.603h1.738l3.382 13.942a20.92 20.92 0 0 1 .538 3.129h.063a21.23 21.23 0 0 1 .57-3.13L85.57 2.34h1.77l.98 22.602h-1.518L86.14 9.357c-.095-1.77-.063-3.13-.063-4.52h-.096c-.189 1.422-.41 2.75-.758 4.078l-3.161 12.487h-1.233l-3.13-12.487a26.68 26.68 0 0 1-.727-4.047h-.095c0 1.233-.031 3.066-.094 4.616M99.04 16.976c0-4.995-1.517-7.05-3.382-7.05-1.866 0-3.384 2.213-3.384 7.05 0 4.963 1.518 7.081 3.384 7.081 1.865 0 3.383-2.276 3.383-7.08zm-8.251.095c0-5.311 2.119-8.378 4.869-8.378 2.75 0 4.867 2.719 4.867 8.188 0 5.279-2.118 8.377-4.867 8.377-2.75 0-4.87-2.75-4.87-8.187zM104.733 13.309v11.633h-1.486V9.01h1.36l.063 2.624h.063c.442-1.17 1.707-2.94 3.856-2.94 2.12 0 3.352 1.328 3.352 3.857v12.392h-1.486V12.74c0-1.897-.696-2.782-2.15-2.782-1.58 0-2.782 1.328-3.572 3.35M116.02 16.059h5.787c.252-4.236-1.012-6.132-2.624-6.132-1.676 0-3.036 2.149-3.162 6.132zm3.478 7.903c2.118 0 3.225-1.707 3.225-1.707l.474 1.201s-1.2 1.802-3.73 1.802c-3.382 0-4.932-3.066-4.932-8.282s1.96-8.283 4.648-8.283c2.75 0 4.52 2.877 4.014 8.536h-7.207c.063 4.362 1.2 6.733 3.508 6.733zM125.539 29.937l-.158-1.391c.252.063.569.126.98.126 1.074 0 1.833-1.043 2.307-2.813l.127-.474-3.952-16.376h1.486l2.528 10.4c.285 1.202.507 2.372.665 3.605h.095c.22-1.265.474-2.435.758-3.604l2.466-10.4h1.328l-4.078 16.754c-.538 2.15-1.486 4.236-3.73 4.236-.348 0-.601-.032-.822-.063"/>
    </g>
</svg>
