<svg xmlns="http://www.w3.org/2000/svg" width="24" height="24" viewBox="0 0 24 24">
    <path fill="#0766DF" fill-rule="evenodd" d="M12 24C5.373 24 0 18.627 0 12S5.373 0 12 0s12 5.373 12 12-5.373 12-12 12zm0-2c5.523 0 10-4.477 10-10S17.523 2 12 2 2 6.477 2 12s4.477 10 10 10zm-.73-7.746a2.093 2.093 0 0 1-.54-1.443c0-1.95 2.393-2.18 2.393-3.311 0-.508-.377-.934-1.279-.934-.82 0-1.508.41-2.016 1.016L8.5 8.09c.869-1.016 2.18-1.59 3.59-1.59 2.115 0 3.41 1.066 3.41 2.59 0 2.394-2.738 2.574-2.738 3.951a.99.99 0 0 0 .295.689l-1.787.524zm.787 3.525a1.344 1.344 0 0 1-1.327-1.328c0-.721.606-1.328 1.327-1.328.722 0 1.328.607 1.328 1.328 0 .721-.606 1.328-1.328 1.328z"/>
</svg>
