<svg xmlns="http://www.w3.org/2000/svg" width="15" height="15" viewBox="0 0 15 15">
    <path fill="#11223E" fill-rule="nonzero" d="M14.953 6.667a7.507 7.507 0 0 1-.003 1.706.417.417 0 0 1-.44.368l-.092-.003a1.68 1.68 0 0 0-1.534 1.017 1.662 1.662 0 0 0 .42 1.87.416.416 0 0 1 .045.57 7.467 7.467 0 0 1-1.214 1.2.42.42 0 0 1-.566-.047c-.446-.49-1.24-.675-1.857-.422a1.667 1.667 0 0 0-1.026 1.599.417.417 0 0 1-.372.43 7.441 7.441 0 0 1-1.687-.005.417.417 0 0 1-.368-.438 1.663 1.663 0 0 0-1.015-1.628c-.618-.26-1.42-.076-1.87.42a.417.417 0 0 1-.57.046 7.449 7.449 0 0 1-1.187-1.2.417.417 0 0 1 .046-.566c.513-.47.681-1.215.419-1.854A1.645 1.645 0 0 0 .539 8.702c-.215 0-.468-.157-.492-.369A7.513 7.513 0 0 1 .05 6.627a.408.408 0 0 1 .433-.368c.733 0 1.373-.397 1.632-1.014a1.662 1.662 0 0 0-.419-1.87.417.417 0 0 1-.045-.571 7.45 7.45 0 0 1 1.214-1.2.418.418 0 0 1 .566.048c.446.49 1.243.673 1.856.423a1.669 1.669 0 0 0 1.027-1.6.417.417 0 0 1 .372-.43A7.488 7.488 0 0 1 8.373.05c.22.026.381.217.368.438a1.666 1.666 0 0 0 1.013 1.628c.62.26 1.424.075 1.87-.42a.417.417 0 0 1 .57-.046c.437.35.837.753 1.189 1.2a.417.417 0 0 1-.046.566 1.67 1.67 0 0 0-.42 1.854 1.666 1.666 0 0 0 1.554 1.028c.212 0 .458.158.482.37zM7.5 9.7c1.213 0 2.2-.987 2.2-2.2s-.987-2.2-2.2-2.2-2.2.987-2.2 2.2.987 2.2 2.2 2.2z" opacity=".3"/>
</svg>
