<svg xmlns="http://www.w3.org/2000/svg" width="40" height="40" viewBox="0 0 40 40">
    <defs>
        <linearGradient id="a" x1="50%" x2="50%" y1="0%" y2="100%">
            <stop offset="0%" stop-color="#EE6174"/>
            <stop offset="100%" stop-color="#F89948"/>
        </linearGradient>
    </defs>
    <g fill="none" fill-rule="evenodd">
        <path fill="url(#a)" d="M0 0h40v40H0z"/>
        <path fill="#FFF" fill-rule="nonzero" d="M22.4 9.6H11.2a1.6 1.6 0 0 0-1.6 1.6v15.592l3.482-3.482 2.375 2.374 4.3-4.76h5.486l1.91 1.909 2.945-2.946.302.302V11.2a1.6 1.6 0 0 0-1.6-1.6H24v3.2h-1.6V9.6zm0 20.8v-7.877h-1.933l-4.951 5.483-2.434-2.433-3.465 3.464A1.6 1.6 0 0 0 11.2 30.4h11.2zm1.6 0h4.8a1.6 1.6 0 0 0 1.6-1.6v-6.952l-3.248 3.247-2.572-2.572H24V30.4zM11.2 8h17.6a3.2 3.2 0 0 1 3.2 3.2v17.6a3.2 3.2 0 0 1-3.2 3.2H11.2A3.2 3.2 0 0 1 8 28.8V11.2A3.2 3.2 0 0 1 11.2 8zm12 11.2a2.4 2.4 0 1 1 0-4.8 2.4 2.4 0 0 1 0 4.8z"/>
    </g>
</svg>
