<svg xmlns="http://www.w3.org/2000/svg" width="14" height="14" viewBox="0 0 14 14">
    <g fill="none" fill-rule="nonzero">
        <path fill="#FFF" d="M2.6 2c.5-.2 1.4-.1 1.7.5.2.5.4 1.2.4 1.1 0-.4 0-1.2.1-1.6.1-.3.3-.6.7-.7.3-.1.6-.1.9-.1.3.1.6.3.8.5.4.6.4 1.9.4 1.8.1-.3.1-1.2.3-1.6.1-.2.5-.4.7-.5.3-.1.7-.1 1 0 .2 0 .6.3.7.5.2.3.3 1.3.4 1.7 0 .1.1-.4.3-.7.4-.6 1.8-.8 1.9.6v2.3c0 .4-.1 1.3-.2 1.7-.1.3-.4 1-.7 1.4 0 0-1.1 1.2-1.2 1.8-.1.6-.1.6-.1 1s.1.9.1.9-.8.1-1.2 0c-.4-.1-.9-.8-1-1.1-.2-.3-.5-.3-.7 0-.2.4-.7 1.1-1 1.1-.7.1-2.1 0-3.1 0 0 0 .2-1-.2-1.4l-1.1-1.1-.8-.9c-.3-.4-1-.9-1.2-2-.2-.9-.2-1.4 0-1.8.2-.4.7-.6.9-.6.2 0 .7 0 .9.1.2.1.3.2.5.4.2.3.3.5.2.1-.1-.3-.3-.6-.4-1-.1-.4-.4-.9-.4-1.5-.5 0-.4-.6.4-.9"/>
        <path fill="#000" d="M3.958 2.656c-.18-.334-.803-.474-1.219-.308l-.007.003a1.2 1.2 0 0 0-.371.21c.126.06.214.19.214.339 0 .25.058.483.192.84l.105.28c.04.11.07.201.092.289.036.145.088.279.176.471l.111.24c.044.097.077.18.1.248l.013.041c.03.124.046.202.05.268.016.353-.387.58-.667.3a1.014 1.014 0 0 1-.13-.173c-.06-.091-.097-.148-.082-.139-.223-.223-.274-.265-.403-.33a1.222 1.222 0 0 0-.309-.048 5.599 5.599 0 0 0-.423-.012c-.138 0-.46.184-.565.393-.152.304-.152.727.034 1.565.085.467.27.833.564 1.194.09.111.484.537.547.624l.785.884 1.1 1.1c.209.208.312.499.347.846.015.148.017.298.008.448l.684.018.104.003c1.01.03 1.494.028 1.892-.025.051 0 .469-.5.688-.933.348-.523.976-.523 1.368.09.091.273.533.804.735.854.086.022.226.033.398.033.088 0 .182-.003.277-.008a5.406 5.406 0 0 1-.033-.33 5.155 5.155 0 0 1-.001-.607c.01-.147.024-.238.098-.686.042-.25.186-.538.414-.88.076-.114.161-.233.253-.355a11.288 11.288 0 0 1 .603-.728c.227-.302.517-.912.636-1.266.089-.355.189-1.222.189-1.609V4.178l.001-.651c-.033-.462-.22-.67-.509-.705-.27-.032-.583.102-.705.286a1.209 1.209 0 0 0-.099.19c-.04.093-.071.184-.113.316l-.04.12c.011.028.011.028-.252.239-.469-.141-.469-.141-.475-.287-.008-.06-.008-.06.003.005a5.501 5.501 0 0 1-.076-.384l-.077-.45c-.074-.409-.142-.67-.218-.79-.045-.088-.325-.292-.365-.292l-.119-.02a1.36 1.36 0 0 0-.713-.02c-.303.152-.507.282-.533.333-.054.11-.1.317-.14.632-.012.093-.023.193-.045.384-.03.27-.054.413-.094.535l-.254-.085-.475.008-.001-.017-.001-.02-.002-.048a5.78 5.78 0 0 0-.108-.923 2.508 2.508 0 0 0-.18-.569 1.828 1.828 0 0 0-.6-.39c-.236 0-.349.006-.48.026-.085.012-.163.03-.264.063-.216.054-.352.205-.427.427-.038.15-.063.402-.077.725-.01.237-.012.439-.012.784.009.046.009.046-.093.255-.505.124-.505.124-.586-.021-.053-.085-.053-.085-.067-.123a3.95 3.95 0 0 1-.068-.191 29.3 29.3 0 0 0-.196-.578 8.618 8.618 0 0 0-.107-.286zm.454-.628c.01-.051.02-.1.032-.147.158-.473.472-.821.937-.937.117-.039.238-.067.364-.085.19-.029.337-.034.655-.034l.119.02c.342.113.694.337.993.647.034.051.066.106.096.164.14-.223.38-.37.873-.612.363-.12.824-.125 1.194-.014.344.047.807.396.937.662.112.167.186.406.262.783a1.59 1.59 0 0 1 1.234-.397c.654.08 1.108.584 1.167 1.422v2.3c0 .446-.107 1.375-.22 1.819-.15.451-.473 1.13-.779 1.534a10.551 10.551 0 0 0-.58.702c-.084.11-.16.218-.228.32-.173.258-.279.47-.298.587-.07.416-.082.5-.09.61a4.71 4.71 0 0 0 .002.509 4.958 4.958 0 0 0 .086.645.375.375 0 0 1-.321.446 6.335 6.335 0 0 1-.758.047 2.45 2.45 0 0 1-.58-.055c-.493-.123-1.1-.852-1.221-1.256-.052-.077-.024-.077-.053-.04-.329.658-.87 1.307-1.282 1.303-.406.058-.906.06-1.967.03l-.104-.004c-.575-.017-.81-.022-1.082-.022a.375.375 0 0 1-.368-.449 2.454 2.454 0 0 0 .034-.67c-.02-.191-.068-.328-.131-.39L2.22 10.348l-.82-.924C1.345 9.352.966 8.941.851 8.8c-.368-.453-.61-.93-.717-1.519-.217-.976-.217-1.553.03-2.049.236-.471.824-.807 1.236-.807.196 0 .324.003.477.013.136.01.254.025.358.048-.023-.093.018.019-.17-.482a3.55 3.55 0 0 1-.222-.81c-.265-.136-.394-.426-.286-.75.11-.33.444-.619.908-.794.626-.249 1.466-.118 1.947.378zM11.075 3.6c0-.013 0-.013-.007-.065-.002-.051-.002-.084-.025-.111l.032.176z"/>
        <path fill="#000" d="M9.975 9.7a.375.375 0 0 1-.75 0V6.3a.375.375 0 0 1 .75 0v3.4zM7.975 9.689a.375.375 0 0 1-.75.022l-.1-3.4a.375.375 0 1 1 .75-.022l.1 3.4zM5.225 6.3a.375.375 0 0 1 .75 0v3.4a.375.375 0 0 1-.75 0V6.3z"/>
    </g>
</svg>
