<svg xmlns="http://www.w3.org/2000/svg" width="21" height="22" viewBox="0 0 21 22">
    <path fill="#11223E" fill-rule="nonzero" d="M10 16v2H3.5A3.5 3.5 0 0 1 2 11.337V9a7 7 0 0 1 4.019-6.335 3 3 0 0 1 5.962 0A7 7 0 0 1 16 9v2h-2V9a5 5 0 0 0-2.871-4.526l-1.012-.477-.123-1.111a1 1 0 0 0-1.988 0l-.123 1.111-1.012.477A5 5 0 0 0 4 9v3.6l-1.142.543A1.5 1.5 0 0 0 3.5 16H10zm-5 4h8a4.992 4.992 0 0 1-4 2 4.992 4.992 0 0 1-4-2zm13-4h2a1 1 0 0 1 0 2h-2v2a1 1 0 0 1-2 0v-2h-2a1 1 0 0 1 0-2h2v-2a1 1 0 0 1 2 0v2z"/>
</svg>
