<svg xmlns="http://www.w3.org/2000/svg" width="18" height="18" viewBox="0 0 18 18">
    <path fill="#11223E" fill-rule="nonzero" d="M5.178 14.65L0 18l3.35-5.178-2.284-2.284a2.01 2.01 0 0 1 0-2.843l.71-.71a2.01 2.01 0 0 1 2.843 0L8.173 3.43l-.711-.71L9.594.589a2.01 2.01 0 0 1 2.843 0l4.974 4.974a2.01 2.01 0 0 1 0 2.843l-2.132 2.132-.71-.71-3.554 3.553a2.01 2.01 0 0 1 0 2.842l-.71.711a2.01 2.01 0 0 1-2.843 0L5.178 14.65zm5.127-11.93l.71.711L4.62 9.827 3.198 8.406l-.71.71 6.395 6.397.711-.711-1.421-1.421 6.396-6.396.71.71.71-.71-4.974-4.975-.71.71z"/>
</svg>
