<svg xmlns="http://www.w3.org/2000/svg" width="18" height="18" viewBox="0 0 18 18">
    <path fill="#ffffff" fill-rule="nonzero" d="M7.016 7.43L4.62 9.827 3.198 8.406l-.71.71 6.395 6.397.711-.711-1.421-1.421 2.397-2.397L7.016 7.43zm4.975 4.975l-.976.976a2.01 2.01 0 0 1 0 2.842l-.71.711a2.01 2.01 0 0 1-2.843 0L5.178 14.65 0 18l3.35-5.178-2.284-2.284a2.01 2.01 0 0 1 0-2.843l.71-.71a2.01 2.01 0 0 1 2.843 0l.976-.976-3.302-3.302 1.414-1.414 13 13-1.414 1.414-3.302-3.302zM7.863 3.741l.31-.31-.711-.71L9.594.589a2.01 2.01 0 0 1 2.843 0l4.974 4.974a2.01 2.01 0 0 1 0 2.843l-2.132 2.132-.71-.71-.31.31-1.422-1.422 1.732-1.731.71.71.71-.71-4.974-4.975-.71.71.71.711-1.731 1.732L7.863 3.74z"/>
</svg>
