<?xml version="1.0" encoding="UTF-8"?>
<svg width="18px" height="22px" viewBox="0 0 18 22"  version="1.1" xmlns="http://www.w3.org/2000/svg" xmlns:xlink="http://www.w3.org/1999/xlink">
    <!-- Generator: Sketch 52 (66869) - http://www.bohemiancoding.com/sketch -->
    <title>Notification</title>
    <desc>Created with Sketch.</desc>
    <g id="New-version" stroke="none"  stroke-width="1" fill="none"  fill-rule="evenodd">
        <g id="-g-Emporium_Icons&amp;Tooltip01" transform="translate(-1175.000000, -49.000000)">
            <g id="Content" transform="translate(100.000000, 0.000000)">
                <g id="Header" transform="translate(40.000000, 20.000000)">
                    <g id="Notification" transform="translate(1035.000000, 29.000000)">
                        <path d="M11.565983,3.57455512 L10.9506549,3.28293316 L10.9965213,2.6035449 C10.9988355,2.5692662 11,2.53474306 11,2.5 C11,1.67157288 10.3284271,1 9.5,1 L8.5,1 C7.67157288,1 7,1.67157288 7,2.5 C7,2.53474306 7.00116451,2.5692662 7.00347871,2.6035449 L7.04934513,3.28293316 L6.43401696,3.57455512 C4.35402502,4.56032394 3,6.65759847 3,9 L3,11.9688676 L2.42909232,12.2400762 C1.56318251,12.6514251 1,13.5246125 1,14.5 C1,15.8807119 2.11928813,17 3.5,17 L14.5,17 C15.8807119,17 17,15.8807119 17,14.5 C17,13.5246125 16.4368175,12.6514251 15.5709077,12.2400762 L15,11.9688676 L15,9 C15,6.65759847 13.645975,4.56032394 11.565983,3.57455512 Z" id="Combined-Shape" stroke="#fff" stroke-opacity=".2" stroke-width="2"></path>
                        <path d="M4.99963381,20 L13.0003662,20 C12.0881599,21.2144467 10.6358178,22 9,22 C7.36418217,22 5.91184014,21.2144467 4.99963381,20 Z" id="Combined-Shape" fill="#fff" opacity=".2"></path>
                    </g>
                </g>
            </g>
        </g>
    </g>
</svg>
