<svg xmlns="http://www.w3.org/2000/svg" width="352" height="234" viewBox="0 0 352 234">
    <g fill="none" fill-rule="evenodd">
        <path fill="#E4EDF6" d="M7.69 229c-5.89.87-6.67 2.52-2.39 3.32 4.28.8 45.92 3.38 47.65-.15 2.2-4.5-12.48-1.71-17.45-2.88-4.97-1.17-11.32-2.25-14.32-1.15s-10.47.43-13.49.86z"/>
        <path fill="#37B586" d="M8.6 150c-.85-5.69-7.4-39.23-5.52-41.59 1.88-2.36 3.17-1.61 3.77-.43.6 1.18 17.72 69 17.72 69l-8.74 1L8.6 150z"/>
        <path fill="#53C3A2" d="M14.25 180.35C11.37 171.42-1.31 140.8.57 133.5c.53-2.08 2.92-2.26 3.76.13.84 2.39 16 44.3 16 44.3l-6.08 2.42zM17.81 160.14c-.85-10.07-.82-15.39 1.21-16.31 2.03-.92 3.77 30.07 3.77 30.07l-2.22.26-2.76-14.02z"/>
        <path fill="#37B586" d="M15.19 180.13c-2.75-4.42-11.61-21.29-11.39-24 .22-2.71 2.56-3.06 4.2-.76 1.64 2.3 12.33 22.28 12.33 22.28l-5.14 2.48z"/>
        <path fill="#37B586" d="M19.64 180.07c-1.36-2.83-4.1-25.47-2.49-27.85 1.61-2.38 3 .24 3.46 2.2.46 1.96 2.29 25.17 2.29 25.17l-3.26.48z"/>
        <path fill="#771F61" d="M31.53 184.72c-2.92-1-3.68-2.37-5-5.13a7.44 7.44 0 0 1-.31-.72c-.84-2.37-3.51-9.84-3.51-9.84s-1.53-2.4-2.34-.64c-.51 1.11-3.23 7.16-4.09 7.26-1.4.17-3.45-5.46-4.59-3.92-1.14 1.54.37 5.18.52 10.36v1.22c-.2 3.34.64 5.43-1.59 7.93-6.22 7-11.44 17.22-9.69 24.91 2.41 10.53 13.27 17.33 25.63 16.87a32.76 32.76 0 0 0 6.05-.81c14.7-3.35 24.36-16 21.57-28.21-2.02-8.56-13.29-16.14-22.65-19.28z"/>
        <path fill="#FAEBEE" d="M52.27 205.22c2.57 11.26-8.16 24.35-19.66 27-11.5 2.65-26.61-4.07-29.18-15.32C.86 205.65 14.34 186.77 21 185.26c6.32-1.45 28.7 8.74 31.27 19.96z"/>
        <path fill="#771F61" d="M45.73 210.17c2.28 10-3.76 18.64-13.21 20.79-9.45 2.15-18.74-3-21-13-2.26-10 6.67-24.5 12.13-25.75 5.19-1.21 19.8 7.96 22.08 17.96z"/>
        <path fill="#FAEBEE" d="M44.58 212.78c1.94 8.52-4.39 16.06-11.76 17.74-7.37 1.68-17.51-3.15-19.46-11.67-1.95-8.52 6.37-23.74 10.62-24.72 4.07-.92 18.65 10.12 20.6 18.65z"/>
        <path fill="#771F61" d="M39.24 216.06c1.65 7.2-1.49 13.33-6.81 14.55-5.32 1.22-10.8-2.95-12.44-10.15-1.64-7.2 3-17.23 6-17.93 3.01-.67 11.61 6.33 13.25 13.53z"/>
        <path fill="#FAEBEE" d="M38.6 218.58c.93 5.84-3.61 11-6.26 11.6-2.65.6-8.76-1.88-10.08-7.64-2.09-9.14 1.91-17.68 4.2-18.2 2.29-.52 10.75 5.52 12.14 14.24z"/>
        <path fill="#771F61" d="M37.68 220.36c.78 4.94-3.05 9.29-5.3 9.81-2.25.52-7.4-1.59-8.52-6.46-1.76-7.73 1.62-14.95 3.56-15.39 1.94-.44 9.08 4.68 10.26 12.04z"/>
        <path fill="#FAEBEE" d="M36.71 221c.75 4.54-2.44 8.47-4.35 8.9-1.91.43-6.36-1.6-7.36-6.09-1.63-7.11 1.13-13.68 2.77-14.06 1.64-.38 7.82 4.44 8.94 11.25z"/>
        <path fill="#37B586" d="M65.66 39.11L55.73 20 65.66.9 75.6 20z"/>
        <rect width="195.85" height="212.76" x="99.2" y="20" fill="#E4EDF6" rx="5"/>
        <path fill="#D3DCF9" d="M104.2 20H290a5 5 0 0 1 5 5v7.81H99.2V25a5 5 0 0 1 5-5z"/>
        <circle cx="108.81" cy="26.86" r="1.96" fill="#FFF"/>
        <circle cx="117.31" cy="26.86" r="1.96" fill="#37B586"/>
        <circle cx="125.81" cy="26.86" r="1.96" fill="#F27762"/>
        <path fill="#D5DDEB" d="M250.11 203.13H99.5L99.2 69l150.91-.13a6.17 6.17 0 0 1 6.17 6.17V197a6.16 6.16 0 0 1-6.17 6.13z"/>
        <rect width="190.61" height="134.28" x="58.22" y="62.66" fill="#EFF5FF" rx="5"/>
        <path fill="#D3DCF9" d="M63.22 62.66h180.61a5 5 0 0 1 5 5v7.47H58.22v-7.47a5 5 0 0 1 5-5z"/>
        <circle cx="67.57" cy="69.33" r="1.91" fill="#FFF"/>
        <circle cx="75.85" cy="69.33" r="1.91" fill="#37B586"/>
        <circle cx="84.12" cy="69.33" r="1.91" fill="#F27762"/>
        <path fill="#1E32A4" d="M282.11 54.29l-7.6-7.19-7.6 7.19V20.08a2.43 2.43 0 0 1 2.43-2.43h10.34a2.43 2.43 0 0 1 2.43 2.43v34.21z"/>
        <rect width="48.54" height="87.14" x="72.43" y="87.61" fill="#FFF" rx="3"/>
        <rect width="91.82" height="51.76" x="137.3" y="129.8" fill="#FFF" rx="3"/>
        <rect width="91.82" height="23.06" x="137.3" y="92.23" fill="#FFF" rx="3"/>
        <rect width="161.45" height="23.06" x="166.95" y="98.5" fill="#2342D4" rx="3"/>
        <rect width="154.98" height="16.49" x="170.19" y="101.78" fill="#FFF" rx="2"/>
        <circle cx="295.05" cy="195.7" r="12.21" fill="#2342D4"/>
        <circle cx="322.22" cy="75.4" r="6.11" fill="#F27762"/>
        <rect width="48.81" height="48.81" x="168.531" y="12.565" fill="#F27762" rx="22.67" transform="rotate(-13.34 192.936 36.97)"/>
        <path fill="#FFF" fill-rule="nonzero" d="M186.2 27.39l-1-4.61 2.89-.64c.32 1.35.63 2.63.9 3.91.09.44.27.56.69.44.42-.12 1-.25 1.55-.39l-1-4.44 2.87-.69 1.06 4.49c1.14 0 2.27-.06 3.4 0a5.13 5.13 0 0 1 4.61 6.57 11.16 11.16 0 0 1-1.11 1.92c.29 0 .65.13 1 .18a4.31 4.31 0 0 1 3.65 3.26 6.61 6.61 0 0 1-.16 5.16A5.62 5.62 0 0 1 203 45c-1.27.64-2.59 1.17-4 1.79l1 4.48-2.88.68-1.07-4.55-2.1.47 1 4.56-2.87.67-1.09-4.62-5.61 1.26-.24-3.52c.68-.17 1.36-.38 2-.5a.93.93 0 0 0 .77-1.25c-.88-4-1.82-8-2.75-12.07a1.43 1.43 0 0 0-1.85-1.16c-.69.14-1.38.31-2.14.47l-.71-3.06 5.74-1.26zm7.09 17l.87-.2a15.22 15.22 0 0 0 4.5-1.56 3.14 3.14 0 0 0 1.59-1.88 2.58 2.58 0 0 0-2.33-3.17 14.34 14.34 0 0 0-5.63.69c-.37.1-.39.28-.31.6.28 1.15.52 2.3.79 3.44.16.69.34 1.37.52 2.08zm-2.09-9a11.68 11.68 0 0 0 4.71-1.65 2.37 2.37 0 0 0 1.09-2.37 2.19 2.19 0 0 0-1.6-1.92c-1.87-.53-3.65 0-5.45.52l1.25 5.42z"/>
        <path fill="#F27762" d="M180.356 2.481l2.535 1.165-1.165 2.535-2.535-1.165zM224.932 22.965l2.535 1.165-1.165 2.535-2.535-1.165zM159.872 47.048l2.535 1.165-1.165 2.535-2.535-1.165zM204.438 67.532l2.535 1.165-1.165 2.535-2.535-1.165zM209.05 4.422l.976 2.622-2.622.976-.976-2.622zM225.423 49.55l.968 2.617-2.617.968-.968-2.616zM162.882 21.403l.976 2.622-2.622.976-.977-2.622zM179.425 66.581l.968 2.617-2.616.968-.969-2.616z"/>
        <rect width="117.93" height="59.46" x="36.01" y="156.42" fill="#D3DCF9" rx="5"/>
        <rect width="108.86" height="51.11" x="40.41" y="160.79" fill="#FFF" rx="2.93"/>
        <rect width="11.05" height="28.58" x="49.77" y="176.46" fill="#1E32A4" rx="2"/>
        <rect width="11.05" height="23.45" x="69.05" y="181.59" fill="#1E32A4" rx="2"/>
        <rect width="11.05" height="33.49" x="88.33" y="171.55" fill="#1E32A4" rx="2"/>
        <rect width="11.05" height="26.08" x="107.61" y="178.96" fill="#1E32A4" rx="2"/>
        <rect width="11.05" height="17.67" x="126.9" y="187.37" fill="#1E32A4" rx="2"/>
        <rect width="52.38" height="2.56" x="275.59" y="134.71" fill="#37B586" rx="1.04"/>
        <rect width="52.38" height="2.56" x="34.63" y="97.22" fill="#F27762" rx="1.04" transform="rotate(180 60.82 98.5)"/>
        <rect width="13.03" height="2.56" x="338.32" y="134.71" fill="#37B586" rx="1.04"/>
        <rect width="3.19" height="3.19" x="168.04" y="137.97" fill="#B0B7FA" rx="1.46"/>
        <rect width="41.05" height="3.19" x="176.33" y="137.97" fill="#E8F0FC" rx="1.46"/>
        <rect width="3.19" height="3.19" x="168.04" y="148.56" fill="#B0B7FA" rx="1.46"/>
        <rect width="41.05" height="3.19" x="176.33" y="148.56" fill="#E8F0FC" rx="1.46"/>
        <rect width="3.19" height="3.19" x="168.04" y="159.15" fill="#B0B7FA" rx="1.46"/>
        <rect width="41.05" height="3.19" x="176.33" y="159.15" fill="#E8F0FC" rx="1.46"/>
        <rect width="3.19" height="3.19" x="168.04" y="169.73" fill="#B0B7FA" rx="1.46"/>
        <rect width="41.05" height="3.19" x="176.33" y="169.73" fill="#E8F0FC" rx="1.46"/>
    </g>
</svg>
