<svg xmlns="http://www.w3.org/2000/svg" width="48" height="42" viewBox="0 0 48 42">
    <defs>
        <linearGradient id="a" x1="50%" x2="50%" y1="0%" y2="100%">
            <stop offset="0%" stop-color="#EE6174"/>
            <stop offset="100%" stop-color="#F89948"/>
        </linearGradient>
    </defs>
    <path fill="url(#a)" fill-rule="evenodd" d="M42 33a1 1 0 0 1 1 1v4a5.006 5.006 0 0 1-5 5H6a5.006 5.006 0 0 1-5-5V6a4.821 4.821 0 0 1 5-5h20a1 1 0 0 1 .707.293l2 2a1 1 0 0 1-1.414 1.414L25.586 3H6a2.853 2.853 0 0 0-3 3.005V38a3 3 0 0 0 3 3h32a3 3 0 0 0 3-3v-4a1 1 0 0 1 1-1zm5-12a2 2 0 0 1 2 2v6a2 2 0 0 1-2 2H33a2 2 0 0 1-2-2v-6a2 2 0 0 1 2-2h8v-9a3 3 0 0 0-3-3H7a1 1 0 1 1 0-2h31a5.006 5.006 0 0 1 5 5v10a1 1 0 0 1-1 1h-9v6h14v-6h-1a1 1 0 0 1 0-2h1zm-11 4h2a1 1 0 0 1 0 2h-2a1 1 0 0 1 0-2zM7 33a1 1 0 0 1 1 1v2h2a1 1 0 0 1 0 2H8a1.959 1.959 0 0 1-2-2v-2a1 1 0 0 1 1-1zm30-16a1 1 0 0 1-1-1v-2h-2a1 1 0 0 1 0-2h2a1.959 1.959 0 0 1 2 2v2a1 1 0 0 1-1 1zM14 37a1 1 0 0 1 1-1h20a1 1 0 0 1 0 2H15a1 1 0 0 1-1-1zm15-25a1 1 0 0 1 0 2H9a1 1 0 0 1 0-2h20z" transform="translate(-1 -1)"/>
</svg>
