<svg xmlns="http://www.w3.org/2000/svg" width="48" height="42" viewBox="0 0 48 42">
    <defs>
        <linearGradient id="a" x1="50%" x2="50%" y1="0%" y2="100%">
            <stop offset="0%" stop-color="#EE6174"/>
            <stop offset="100%" stop-color="#F89948"/>
        </linearGradient>
    </defs>
    <path fill="url(#a)" fill-rule="evenodd" d="M15.257 39.117h-.004a1 1 0 1 1-.6 1.906 21 21 0 1 1 25.16-29.364 1 1 0 1 1-1.791.89 19 19 0 1 0-22.765 26.568zM48 18v2a1.978 1.978 0 0 1-.278 1c.18.303.276.648.278 1v2a1.978 1.978 0 0 1-.278 1c.18.303.276.648.278 1v2a1.978 1.978 0 0 1-.278 1c.18.303.276.648.278 1v2a1.978 1.978 0 0 1-.278 1c.18.303.276.648.278 1v2a1.978 1.978 0 0 1-.278 1c.18.303.276.648.278 1v2a2 2 0 0 1-2 2H36a1.978 1.978 0 0 1-1-.278c-.303.18-.648.276-1 .278H24a2 2 0 0 1-2-2v-2c.002-.352.098-.697.278-1A1.978 1.978 0 0 1 22 36v-2a2 2 0 0 1 2-2h10v-2h-5a1 1 0 0 1 0-2h5v-2h-4a1 1 0 0 1 0-2h4v-2c.002-.352.098-.697.278-1A1.978 1.978 0 0 1 34 20v-2a2 2 0 0 1 2-2h10a2 2 0 0 1 2 2zm-12 0v2h10v-2H36zm10 6v-2H36v2h10zm0 4v-2H36v2h10zm0 4v-2H36v2h10zm0 4v-2H36v2h10zm-12-2H24v2h10v-2zm-10 6h10v-2H24v2zm22 0v-2H36v2h10zM22 28v1a1 1 0 0 1-2 0v-1h-1a3 3 0 0 1-3-3v-1a1 1 0 0 1 2 0v1a1 1 0 0 0 1 1h4a1 1 0 0 0 1-1v-2a1 1 0 0 0-1-1h-4a3 3 0 0 1-3-3v-2a3 3 0 0 1 3-3h1v-1a1 1 0 0 1 2 0v1h1a3 3 0 0 1 3 3v1a1 1 0 0 1-2 0v-1a1 1 0 0 0-1-1h-4a1 1 0 0 0-1 1v2a1 1 0 0 0 1 1h4a3 3 0 0 1 3 3v2a3 3 0 0 1-3 3h-1z"/>
</svg>
