<svg xmlns="http://www.w3.org/2000/svg" width="251" height="280" viewBox="0 0 251 280">
    <g fill="none" fill-rule="evenodd">
        <rect width="140.08" height="198.73" x="109.93" y="35.97" fill="#E4EDF6" rx="5"/>
        <path fill="#D5DDEB" d="M146.7 198.91h-36.65V76.43h36.65a5.18 5.18 0 0 1 5.18 5.18v112.13a5.18 5.18 0 0 1-5.18 5.17z"/>
        <path fill="#F9A7A7" d="M91.23 226.15c5.38-2.74 14.34-6.64 16.25-7.94 1.91-1.3 10.46-6.65 14.3-7.8a21.69 21.69 0 0 1 6.17-.81.93.93 0 0 1 .74 1.49l-6.11 8.19-19.66 12.1-11.69-5.23z"/>
        <path fill="#FEB1B0" d="M109.93 224.86c4.27-3.1 16-9.31 17.6-10.48 1.6-1.17 10.6-6.6 14.49-7.5a27.59 27.59 0 0 1 6.09-.68.82.82 0 0 1 .71 1.24l-4.4 7.6-26.73 14.35-7.76-4.53z"/>
        <path fill="#F9BDBD" d="M117.29 225.25c5.44-.39 18.5-5.47 22.25-7.46 3.75-1.99 11.13-6.38 17.34-6.51a28.73 28.73 0 0 1 10.44 2.11.92.92 0 0 1 0 1.7c-3.89 1.72-12.53 5.71-15.77 8.74a95 95 0 0 1-8.93 7.24l-20.31.78-5.02-6.6z"/>
        <rect width="131.97" height="122.48" x="27.12" y="69.07" fill="#2342D4" rx="5"/>
        <rect width="110.81" height="100.1" x="37.7" y="80.27" fill="#FFF" rx="3"/>
        <path fill="#FCC2C2" d="M0 225.12s17.59 4.4 25.87 4.4h12.94s.78-8.8 6.21-15c5.43-6.2 12.16-14.23 14.49-20.44 2.33-6.21-.78-28.72-1.29-31.31s8-3.11 14 7.5 4.4 31.31 5.43 36c1.03 4.69 6 13.2 13.72 14.23 7.72 1.03 12.94 0 19.92 1.81 6.98 1.81 11.65 5.7 15.27 6 3.62.3 17.08-.26 18.89-.52 1.81-.26 16.82-7.51 27.95-6.21a49.44 49.44 0 0 1 11.78 2.73 1.79 1.79 0 0 1-.18 3.4c-5.26 1.4-13.36 3.72-15.74 5.25-3.63 2.33-14.49 9.32-18.89 9.84-4.4.52-14.75 0-18.89 1.29-4.14 1.29-34.16 7.76-40.11 9.31-5.95 1.55-24.07 1.56-33.12 4.66-9.05 3.1-37.52 11.39-37.52 11.39s-12.94-8.54-16.31-18.37C1.05 241.25 0 225.12 0 225.12z"/>
        <path fill="#292665" d="M173.41 227.45c-5.86.34-16.56 9.66-23.11 11.38-6.55 1.72-17.94-.69-21.42 0-3.48.69-16.19 4.83-24.82 6.21-8.63 1.38-40 .35-53.13 4.14-9.27 2.69-24.61 8.33-38.14 13.77a62.06 62.06 0 0 0 7.87 6.42s28.46-8.28 37.52-11.39c9.06-3.11 27.17-3.1 33.12-4.66 5.95-1.56 36-8 40.11-9.31 4.11-1.31 14.49-.78 18.89-1.29s15.26-7.51 18.89-9.84c2.38-1.53 10.48-3.85 15.74-5.25a1.75 1.75 0 0 0 1.19-1.06c-4.26.31-9.57.69-12.71.88z" style="mix-blend-mode:overlay"/>
        <path fill="#D5DDEB" d="M188.58 36H219v19.28a2 2 0 0 1-2 2h-26.42a2 2 0 0 1-2-2V36z"/>
        <rect width="30.38" height="30.38" x="188.58" y="76.43" fill="#D5DDEB" rx="2"/>
        <rect width="30.38" height="30.38" x="188.58" y="125.96" fill="#D5DDEB" rx="2"/>
        <rect width="30.38" height="30.38" x="188.58" y="175.48" fill="#D5DDEB" rx="2"/>
        <path fill="#D5DDEB" d="M190.58 225H217a2 2 0 0 1 2 2v7.68h-30.42V227a2 2 0 0 1 2-2z"/>
        <rect width="30.38" height="30.38" x="197.81" y="22.5" fill="#EFF5FF" rx="3"/>
        <rect width="23.16" height="22.48" x="201.42" y="26.45" fill="#FFF" rx="2"/>
        <rect width="30.38" height="30.38" x="197.81" y="72.02" fill="#EFF5FF" rx="3"/>
        <rect width="30.38" height="30.38" x="197.81" y="121.55" fill="#EFF5FF" rx="3"/>
        <rect width="30.38" height="30.38" x="197.81" y="171.08" fill="#EFF5FF" rx="3"/>
        <rect width="30.38" height="30.38" x="197.81" y="220.6" fill="#EFF5FF" rx="3"/>
        <circle cx="192.83" cy="274.68" r="5.32" fill="#2342D4"/>
        <circle cx="52.58" cy="136.74" r="5.58" fill="#2342D4"/>
        <circle cx="213" cy="274.68" r="5.32" fill="#2342D4"/>
        <circle cx="233.18" cy="274.68" r="5.32" fill="#2342D4"/>
        <path fill="#F27762" d="M213.86 44.42a1.53 1.53 0 0 1-1.24-.63l-8.71-11.73a1.551 1.551 0 1 1 2.49-1.85l7.18 9.67L225 16.28a1.53 1.53 0 0 1 2.07-.72 1.56 1.56 0 0 1 .73 2.07l-12.54 25.91a1.55 1.55 0 0 1-1.25.87l-.15.01z"/>
        <ellipse cx="121.923" cy="181.384" fill="#F27762" rx="23.83" ry="14.19" transform="rotate(-48.66 121.923 181.384)"/>
        <ellipse cx="120.508" cy="179.995" fill="#F98C7D" rx="22.07" ry="11.42" transform="rotate(-48.66 120.508 179.995)"/>
        <ellipse cx="108.966" cy="75.508" fill="#F27762" rx="21.27" ry="7.72" transform="rotate(-46.44 108.966 75.508)"/>
        <ellipse cx="108.295" cy="74.951" fill="#F98C7D" rx="19.79" ry="6.07" transform="rotate(-46.44 108.295 74.95)"/>
        <ellipse cx="113.1" cy="153.862" fill="#F27762" rx="8.9" ry="21.27" transform="rotate(-42.83 113.1 153.862)"/>
        <ellipse cx="113.793" cy="153.153" fill="#F98C7D" rx="6.99" ry="19.79" transform="rotate(-42.83 113.793 153.153)"/>
        <path fill="#37B586" d="M80.35 133.1L72 117.06l8.35-16.05 8.34 16.05z"/>
        <rect width="43.99" height="2.15" x="74.65" y="21.39" fill="#2342D4" rx="1.04" transform="rotate(90 96.645 22.465)"/>
        <rect width="10.95" height="2.15" x="91.17" y="57.56" fill="#2342D4" rx="1.04" transform="rotate(90 96.645 58.635)"/>
        <rect width="43.99" height="2.15" x="111.08" y="124.44" fill="#2342D4" rx="1.04" transform="rotate(90 133.075 125.515)"/>
        <rect width="10.95" height="2.15" x="127.6" y="160.6" fill="#2342D4" rx="1.04" transform="rotate(90 133.075 161.675)"/>
        <rect width="10.95" height="2.15" x="109.39" y="118.13" fill="#2342D4" rx="1.04" transform="rotate(-90 114.865 119.205)"/>
        <rect width="19.11" height="2.15" x="105.31" y="137.96" fill="#2342D4" rx="1.04" transform="rotate(-90 114.865 139.035)"/>
        <rect width="23.16" height="22.48" x="201.42" y="75.97" fill="#FFF" rx="2"/>
        <rect width="23.16" height="22.48" x="201.42" y="125.5" fill="#FFF" rx="2"/>
        <rect width="23.16" height="22.48" x="201.42" y="175.03" fill="#FFF" rx="2"/>
        <rect width="23.16" height="22.48" x="201.42" y="224.55" fill="#FFF" rx="2"/>
        <path fill="#F27762" d="M213.86 144a1.53 1.53 0 0 1-1.24-.63l-8.71-11.73a1.551 1.551 0 1 1 2.49-1.85l7.18 9.67 11.4-23.6a1.55 1.55 0 0 1 2.07-.73 1.57 1.57 0 0 1 .73 2.08l-12.52 25.91a1.55 1.55 0 0 1-1.26.88h-.14zM213.86 192.41a1.54 1.54 0 0 1-1.24-.62l-8.71-11.73a1.551 1.551 0 1 1 2.49-1.85l7.18 9.67 10.89-22.56a1.554 1.554 0 1 1 2.8 1.35l-12 24.87a1.55 1.55 0 0 1-1.25.87h-.16z"/>
    </g>
</svg>
