<?xml version="1.0" encoding="UTF-8" standalone="no"?>
<svg
   xmlns:dc="http://purl.org/dc/elements/1.1/"
   xmlns:cc="http://creativecommons.org/ns#"
   xmlns:rdf="http://www.w3.org/1999/02/22-rdf-syntax-ns#"
   xmlns:svg="http://www.w3.org/2000/svg"
   xmlns="http://www.w3.org/2000/svg"
   xmlns:sodipodi="http://sodipodi.sourceforge.net/DTD/sodipodi-0.dtd"
   xmlns:inkscape="http://www.inkscape.org/namespaces/inkscape"
   width="263"
   height="256"
   viewBox="0 0 263 256"
   version="1.1"
   id="svg112"
   sodipodi:docname="test.svg"
   inkscape:version="0.92.5 (2060ec1f9f, 2020-04-08)">
  <metadata
     id="metadata118">
    <rdf:RDF>
      <cc:Work
         rdf:about="">
        <dc:format>image/svg+xml</dc:format>
        <dc:type
           rdf:resource="http://purl.org/dc/dcmitype/StillImage" />
      </cc:Work>
    </rdf:RDF>
  </metadata>
  <defs
     id="defs116" />
  <sodipodi:namedview
     pagecolor="#ffffff"
     bordercolor="#666666"
     borderopacity="1"
     objecttolerance="10"
     gridtolerance="10"
     guidetolerance="10"
     inkscape:pageopacity="0"
     inkscape:pageshadow="2"
     inkscape:window-width="640"
     inkscape:window-height="480"
     id="namedview114"
     showgrid="false"
     inkscape:zoom="0.921875"
     inkscape:cx="131.5"
     inkscape:cy="128"
     inkscape:window-x="0"
     inkscape:window-y="0"
     inkscape:window-maximized="0"
     inkscape:current-layer="svg112" />
  <g
     fill="none"
     fill-rule="evenodd"
     id="g110">
    <rect
       id="rect2"
       rx="10"
       fill="#ebebeb"
       y="65.08"
       x="53.94"
       height="187.67"
       width="103" />
    <rect
       id="rect4"
       rx="2"
       fill="#ffffff"
       y="145.04"
       x="73.68"
       height="79.6"
       width="66.26" />
    <path
       id="path6"
       d="M156.94 195.47h-41.57a2 2 0 0 0-1.68.93l-12.41 19.41v-75.25a2 2 0 0 1 2-2h53.66v56.91z"
       fill="#dcdcdc" />
    <path
       id="path8"
       d="M146.94 65h-83c-5.523 0-10 4.477-10 10v167.66c0 5.523 4.477 10 10 10h83c5.523 0 10-4.477 10-10V75a10 10 0 0 0-10-10zm4.66 176a6.83 6.83 0 0 1-6.82 6.83H66.11a6.83 6.83 0 0 1-6.83-6.83V76.65a6.82 6.82 0 0 1 6.83-6.82h18.08a4 4 0 0 0 4 4h34.5a4 4 0 0 0 4-4h18.09a6.82 6.82 0 0 1 6.82 6.82V241z"
       fill-rule="nonzero"
       fill="#494949" />
    <rect
       id="rect10"
       rx="4"
       fill="#494949"
       y="16.18"
       x="110.32"
       height="18.92"
       width="18.92" />
    <path
       id="path12"
       d="M16.97 143.05l-5.95-11.42 5.95-11.43 5.94 11.43z"
       fill="#ababab" />
    <rect
       id="rect14"
       transform="rotate(90 141.525 21.5)"
       rx="1.58"
       fill="#999999"
       y="19.915"
       x="120.275"
       height="3.17"
       width="42.5" />
    <rect
       id="rect16"
       transform="rotate(90 141.525 66.465)"
       rx="1.58"
       fill="#999999"
       y="64.88"
       x="126.22"
       height="3.17"
       width="30.61" />
    <rect
       id="rect18"
       rx="5"
       fill="#cecece"
       y="199.08"
       x=".27"
       height="53.12"
       width="66.67" />
    <path
       id="path20"
       d="M238.78 105.23L230.25 93a2.8 2.8 0 0 0-2.3-1.2h-49.11A2.81 2.81 0 0 1 176 89V48.49a2.81 2.81 0 0 1 2.81-2.81H236a2.81 2.81 0 0 1 2.81 2.81l-.03 56.74zM200.6 190.74h-89a3 3 0 0 0-2.53 1.39l-12.11 18.95v-74.25a3 3 0 0 1 3-3H200.6a3 3 0 0 1 3 3v50.91a3 3 0 0 1-3 3z"
       fill="#f4f4f4" />
    <rect
       id="rect22"
       rx="2"
       fill="#ffffff"
       y="95.7"
       x="73.68"
       height="24.75"
       width="66.26" />
    <path
       id="path24"
       d="M36.67 36.85c0 8.62-8.3 17.33-18 17.33 0 21.79 9.46 42.76 26.44 58.57l5 4.66 5-4.66c17-15.81 26.43-36.78 26.43-58.57-9.75 0-17.26-8.71-17.26-17.33H36.67z"
       fill="#999999" />
    <path
       id="path26"
       d="M35.46 226.91c0 .21-.84 14.35-.84 14.35L47.07 245l25-7.87-2.23-12.49-34.38 2.27z"
       fill="#282828" />
    <path
       id="path28"
       d="M32.93 232.46c-1-15.37 2.75-36.15 4.37-38 1.62-1.85 13.95-7.44 18.95-7.11 5 .33 13.56 5 14.86 6.95 1.3 1.95 6.63 38.18 6.63 38.18l-44.81-.02z"
       fill="#282828" />
    <path
       id="path30"
       d="M49.81 232.46s-2.12-41.07.25-42.88a7 7 0 0 1 9.22.62c2.71 3.25.68 42.26.68 42.26H49.81z"
       fill="#494949" />
    <path
       id="path32"
       d="M55.25 227.77c7.93 0 20.87 2.1 26.37 3.4 2.72.64 5 1.2 6.54 1.6a3.36 3.36 0 0 1 2.52 3.25v.31a2.06 2.06 0 0 1-.78 1.62c-3 2.34-14 10.31-26.78 10.82-8.93.35-18.62-6-18.62-6l23.09-6.07H51.53l3.72-8.93z"
       fill="#393939" />
    <path
       id="path34"
       d="M50.69 185.5c-.38 4.57-.71 9.85 2.6 11.28 3.31 1.43 5.29-6.63 5.47-8.6.18-1.97-1-5.1-3.94-4.92-2.94.18-3.95.13-4.13 2.24z"
       fill="#d3d3d3" />
    <path
       id="path36"
       d="M55.06 184.54c-5.06-.17-2.4 6.46-9.2 5-3.83-.83-7.23-4.17-5.45-8.92 1.43-3.84 5.86-3 6.26-4 .9-2.26 2-7.52 6.64-7.24 4.64.28 4.92 4.79 6.89 6 1.97 1.21 6.87 1.67 6.92 5.58 0 2.74-4.82 7.52-8 7.36-1.83-.13-2.12-3.71-4.06-3.78z"
       fill="#999999" />
    <path
       id="path38"
       d="M178.37 73.49c-.9.51-1.66 1-2.34 1.36V88.7a3.41 3.41 0 0 0 3.41 3.41h7.33a27.83 27.83 0 0 0 2.12-6.15 35.56 35.56 0 0 0 .37-7.5l-10.89-4.97z"
       fill="#c6c6c6" />
    <circle
       id="circle40"
       fill="#494949"
       r="3.93"
       cy="84.4"
       cx="179.94" />
    <path
       id="path42"
       d="M172.86 64.84l-1.45-.66c-1.05-.47-1-2.92.2-5.45 1.2-2.53 2.94-4.21 4-3.73l1.45.66-4.2 9.18z"
       fill="#494949" />
    <path
       id="path44"
       d="M174.05 65.39l-1.46-.67c-1-.47-.94-2.91.21-5.45s2.94-4.21 4-3.73l1.45.66-4.2 9.19z"
       fill="#2d2d2d" />
    <path
       id="path46"
       d="M207 70.49l1.4.77c1 .55.74 3-.6 5.42-1.34 2.42-3.24 4-4.25 3.44l-1.4-.77 4.85-8.86z"
       fill="#494949" />
    <path
       id="path48"
       d="M205.87 69.87l1.4.76c1 .55.73 3-.61 5.43-1.34 2.43-3.24 4-4.24 3.43l-1.4-.77 4.85-8.85z"
       fill="#2d2d2d" />
    <path
       id="path50"
       d="M179.1 51.37c-2.38 1.1-7.85 14.23-7.91 15.36 0 .59 5.94 7.23 12.29 10.13 7 3.22 16.22 5.35 16.79 5.2 2.1-.52 8.63-14.52 8.51-15.67-.07-.68-8.29-8-13.48-10.34-6.64-3-15.21-5.14-16.2-4.68z"
       fill="#dddddd" />
    <path
       id="path52"
       d="M181 56.42s-4.78 9.5-5 9.93c-.22.43 6.25 5.82 8.8 7.17a110.38 110.38 0 0 0 11.92 5c.37 0 6.21-7.1 6.19-7.5-.02-.4-6.84-7-10.8-9.23-1.87-1.07-10.28-5.5-11.11-5.37zM205.53 54.14l.823.567-4.386 6.389-.824-.566z"
       fill="#2d2d2d" />
    <path
       id="path54"
       d="M208.12 54.75a2.07 2.07 0 0 1-3.25-2.56c.69-.87 2.37-1.57 3.26-.87.89.7.68 2.55-.01 3.43zM202.7 62.78c-.31.44-1.19.07-2.17-.59-.98-.66-1.57-1.52-1.3-1.92a2.18 2.18 0 0 1 3.47 2.51z"
       fill="#2d2d2d" />
    <path
       id="path56"
       d="M185.65 67.29c-.94 2-2.61 3-4.3 2.2a3.77 3.77 0 0 1-1.81-5c.94-2.05 3.06-3.09 4.75-2.32s2.29 3.07 1.36 5.12zM196.38 73.19c-.87 1.92-3.7 2.51-5.75 1.57a3.54 3.54 0 0 1-1.67-5 4.09 4.09 0 0 1 7.42 3.39v.04z"
       fill="#ffffff" />
    <ellipse
       id="ellipse58"
       transform="rotate(-65.47 181.11 67.093)"
       ry="1.33"
       rx="1.61"
       fill="#1e1e1e"
       cy="67.093"
       cx="181.11" />
    <ellipse
       id="ellipse60"
       transform="rotate(-58.59 190.331 72.2)"
       ry="1.33"
       rx="1.61"
       fill="#1e1e1e"
       cy="72.2"
       cx="190.331" />
    <path
       id="path62"
       d="M188.55 82.37c.76-.43 2.33.5 2.51 1.2.18.7-3.06 2.43-3.06 2.43s-1.14-2.66.55-3.63z"
       fill="#2d2d2d" />
    <path
       id="path64"
       d="M190.84 82.37c-.53-.37-1.66-.76-2.79 1.73-1.13 2.49.92 6.47 2 8.69-.76 1-1.12 2.32-.37 2.66.53.24 1-.32 1.59-.59.84.79 2.47 1.65 3.4 1.1 1.59-.96-.67-11.34-3.83-13.59z"
       fill="#dddddd" />
    <path
       id="path66"
       d="M194.68 90.26a33.11 33.11 0 0 0-5.76.23c.14.34.33.7.47 1a35.81 35.81 0 0 1 5.51-.16c-.07-.33-.14-.72-.22-1.07z"
       fill="#494949" />
    <path
       id="path68"
       d="M188.8 49.518l.96.283-1.453 4.93-.96-.282z"
       fill="#2d2d2d" />
    <path
       id="path70"
       d="M190.68 49.49a1.42 1.42 0 0 1-2.63-1 1.62 1.62 0 0 1 1.83-1 1.69 1.69 0 0 1 .8 2zM188.84 55.49c-.11.36-.71.33-1.43.12-.72-.21-1.22-.63-1.13-1a1.35 1.35 0 0 1 2.56.84v.04z"
       fill="#2d2d2d" />
    <path
       id="path72"
       style="mix-blend-mode:overlay;opacity:1"
       d="M193.35 95.18c-.64-1-2.24-2.32-1.92-3.06.32-.74-.41-3.7-2.11-5.18a4 4 0 0 1-1-3.36 5 5 0 0 0-.26.52c-1.2 2.63.92 6.47 2 8.69-.76 1-1.12 2.32-.37 2.66.53.24 1-.32 1.59-.59a4.76 4.76 0 0 0 2.61 1.27 5.67 5.67 0 0 0-.54-.95zM188.46 53.43l.4-1.33-.68-.47-.46 1.56c-4.31-1.35-8-2.11-8.62-1.82-.62.29-1.81 1.9-2.91 3.9l-.59-.27c-1.05-.48-2.83 1.19-4 3.73s-1.25 5-.2 5.45l.54.25a13.29 13.29 0 0 0-.76 2.3c0 .41 3 3.87 7 6.88-.82.46-1.53.87-2.16 1.26V88.7a3.41 3.41 0 0 0 3.41 3.41h.49a4.27 4.27 0 0 0 2.3-1.53c2.83-4.62-.37-7.84-.07-14.56.41-2.21 2.12-13.05 4.14-15.6 2.02-2.55 7.08-5.17 7.08-5.17l-.11-.08c-1.6-.64-3.26-1.23-4.8-1.74z"
       fill="#2e2e2e" />
    <circle
       id="circle74"
       fill="#393939"
       r="3.62"
       cy="116.2"
       cx="187.06" />
    <circle
       id="circle76"
       fill="#393939"
       r="3.62"
       cy="116.2"
       cx="206.94" />
    <circle
       id="circle78"
       fill="#999999"
       r="3.62"
       cy="19.58"
       cx="193.48" />
    <circle
       id="circle80"
       fill="#393939"
       r="3.62"
       cy="116.2"
       cx="226.82" />
    <circle
       id="circle82"
       fill="#999999"
       r="11.06"
       cy="151.26"
       cx="251.75" />
    <rect
       id="rect84"
       rx="2.92"
       fill="#cecece"
       y="144.55"
       x="113.44"
       height="5.84"
       width="69.43" />
    <rect
       id="rect86"
       rx="2.92"
       fill="#cecece"
       y="159.41"
       x="113.44"
       height="5.84"
       width="73.67" />
    <rect
       id="rect88"
       rx="2.92"
       fill="#cecece"
       y="174.26"
       x="113.44"
       height="5.84"
       width="55.51" />
    <path
       id="path90"
       d="M190.07 213.06a.43.43 0 0 1 .18-.81c4.27-.31 10.25-1.31 13.62-2.77 2.55-1.11 7.71-4 10-5.27a.43.43 0 0 1 .62.54c-1 2.41-3.31 8-4.61 11.18-.8 2-4.64 9-5.92 11.31a.43.43 0 0 1-.77 0l-3-6.64a.45.45 0 0 1 0-.42l3.53-5.44a.44.44 0 0 0-.56-.63l-5.82 2.89a.43.43 0 0 1-.41 0l-6.86-3.94z"
       fill="#cecece" />
    <path
       id="path92"
       d="M56.53 69.73a6.47 6.47 0 1 0-9.09 5.91l-2 15.47h9.25l-2-15.47a6.47 6.47 0 0 0 3.84-5.91z"
       fill="#282828" />
    <path
       id="path94"
       d="M151.6 190.74h5.34v4.73h-5.34z"
       fill="#393939" />
    <path
       id="path96"
       d="M89.9 238a2.07 2.07 0 0 0 .76-1.41c-.13 0-.26 0-.39.06a32 32 0 0 0-9.75 5.09c-2.17 1.75-10.31 5.5-15.4 5.41-5.09-.09-7.68-2.2-10.9-2.1a22.23 22.23 0 0 1-9.72-2.26s9.69 6.38 18.62 6c12.79-.53 23.81-8.5 26.78-10.79z"
       fill="#282828" />
    <path
       id="path98"
       d="M53.52 252.33c3.92.75 12.75 3.33 16.5 3.41 3.75.08 6.25-1.46 6.67-2.29.42-.83-2.84-3.21-5.84-3.71s-16.91-2-16.91-2l-.42 4.59z"
       fill="#d3d3d3" />
    <path
       id="path100"
       d="M42.31 227.77c-12.29 1-29.6 7-30.57 8.41-.97 1.41-1.06 6 .39 6.94 1.45.94 13.09 10.46 21.5 10.62 8.41.16 10.62.4 21 .07 1.94-.06 1.61-6.31 1.61-6.31s-17.79-7.11-19.73-8.25c-1.94-1.14 13.75-1.78 13.75-1.78l-7.95-9.7z"
       fill="#393939" />
    <path
       id="path102"
       d="M70.85 249.74c-1.37-.23-5-.67-8.63-1.08 2.45 1 3.95 2.19 3.69 3.55-.26 1.36-1.3 2.17-3.92 2.11a46.68 46.68 0 0 0 8 1.42c3.75.09 6.25-1.46 6.67-2.29.42-.83-2.81-3.21-5.81-3.71z"
       fill="#282828" />
    <path
       id="path104"
       d="M69 238.81H39.89a1.57 1.57 0 0 1-1.59-1.32l-2.23-18.25a2.09 2.09 0 0 1 2.17-2.26h31.51a2.09 2.09 0 0 1 2.17 2.17l-1.34 18.27a1.56 1.56 0 0 1-1.58 1.39z"
       fill="#cecece" />
    <path
       id="path106"
       d="M55.68 252.8S45.1 250.17 42.1 251c-6 1.72-12.08-.69-15.33-2.36s-5.33-5.81-9.08-6a7.21 7.21 0 0 1-6.6-4.3c-.21 1.86.07 4.12 1 4.73 1.46.9 13.09 10.46 21.5 10.62 8.41.16 10.62.4 21 .07.5.04.85-.37 1.09-.96z"
       fill="#282828" />
    <path
       id="path108"
       d="M50 241.3a152.67 152.67 0 0 1 21.92-5.53c1.35-.08.6 4.17.6 4.17L50 241.3z"
       fill="#393939" />
  </g>
</svg>
