<svg xmlns="http://www.w3.org/2000/svg" width="48" height="48" viewBox="0 0 48 48">
    <defs>
        <linearGradient id="a" x1="50%" x2="50%" y1="0%" y2="100%">
            <stop offset="0%" stop-color="#EE6174"/>
            <stop offset="100%" stop-color="#F89948"/>
        </linearGradient>
    </defs>
    <path fill="url(#a)" fill-rule="evenodd" d="M45 18a3 3 0 0 1 3 3v6a3 3 0 0 1-3 3h-4.029a17.947 17.947 0 0 1-.732 1.755l2.849 2.848a2.984 2.984 0 0 1-.005 4.249l-4.235 4.235a2.968 2.968 0 0 1-2.121.886c-.8.002-1.567-.32-2.127-.89l-2.845-2.845c-.572.275-1.157.52-1.755.733V45a3 3 0 0 1-3 3h-6a3 3 0 0 1-3-3v-4.029a17.947 17.947 0 0 1-1.752-.731L13.4 43.089a2.965 2.965 0 0 1-2.122.886c-.8.001-1.566-.32-2.126-.891l-4.235-4.235a2.985 2.985 0 0 1 0-4.249l2.845-2.845A17.947 17.947 0 0 1 7.029 30H3a3 3 0 0 1-3-3v-6a3 3 0 0 1 3-3h4.029a18.2 18.2 0 0 1 .737-1.755l-2.849-2.848a2.985 2.985 0 0 1 0-4.249l4.235-4.235a2.963 2.963 0 0 1 2.121-.885c.8-.002 1.567.318 2.127.889l2.845 2.844A18.043 18.043 0 0 1 18 7.029V3a3 3 0 0 1 3-3h6a3 3 0 0 1 3 3v4.029c.597.213 1.183.457 1.755.732l2.849-2.848a2.964 2.964 0 0 1 2.122-.885c.8-.002 1.566.32 2.126.89l4.235 4.233a2.984 2.984 0 0 1-.005 4.249l-2.844 2.845A18.2 18.2 0 0 1 40.971 18H45zm1 9v-6a1 1 0 0 0-1-1h-4.745a1 1 0 0 1-.955-.7c-.3-.962-.69-1.895-1.164-2.785a1 1 0 0 1 .175-1.176l3.361-3.36a.985.985 0 0 0 0-1.412l-4.244-4.244a.985.985 0 0 0-.707-.3.98.98 0 0 0-.7.3l-3.364 3.364a1 1 0 0 1-1.177.176c-.888-.472-1.82-.86-2.78-1.158a1 1 0 0 1-.7-.955V3a1 1 0 0 0-1-1h-6a1 1 0 0 0-1 1v4.75a1 1 0 0 1-.7.955c-.964.298-1.897.686-2.788 1.159a1 1 0 0 1-1.177-.176l-3.36-3.36a.984.984 0 0 0-1.408-.006l-4.245 4.245a.985.985 0 0 0 0 1.411l3.365 3.368a1 1 0 0 1 .176 1.176A16.262 16.262 0 0 0 8.705 19.3a1 1 0 0 1-.955.7H3a1 1 0 0 0-1 1v6a1 1 0 0 0 1 1h4.75a1 1 0 0 1 .955.7c.297.96.683 1.891 1.153 2.78a1 1 0 0 1-.176 1.177l-3.36 3.36a.985.985 0 0 0 0 1.411l4.253 4.249c.186.191.44.3.707.3a.985.985 0 0 0 .7-.3l3.364-3.364a1 1 0 0 1 1.177-.176c.888.472 1.817.86 2.777 1.158a1 1 0 0 1 .7.955V45a1 1 0 0 0 1 1h6a1 1 0 0 0 1-1v-4.745a1 1 0 0 1 .7-.955c.963-.3 1.896-.688 2.787-1.161a1 1 0 0 1 1.177.176l3.36 3.36c.186.191.441.3.708.3a.985.985 0 0 0 .7-.3l4.245-4.245a.985.985 0 0 0 0-1.412l-3.365-3.364a1 1 0 0 1-.175-1.177c.472-.888.86-1.817 1.158-2.777a1 1 0 0 1 .955-.7H45a1 1 0 0 0 1-1zm-18-5a1 1 0 0 1-1-1v-1a1 1 0 0 0-1-1h-4a1 1 0 0 0-1 1v2a1 1 0 0 0 1 1h4a3 3 0 0 1 3 3v2a3 3 0 0 1-3 3h-1v1a1 1 0 0 1-2 0v-1h-1a3 3 0 0 1-3-3v-1a1 1 0 0 1 2 0v1a1 1 0 0 0 1 1h4a1 1 0 0 0 1-1v-2a1 1 0 0 0-1-1h-4a3 3 0 0 1-3-3v-2a3 3 0 0 1 3-3h1v-1a1 1 0 0 1 2 0v1h1a3 3 0 0 1 3 3v1a1 1 0 0 1-1 1zm0-9h-4c-6.072.007-10.993 4.928-11 11a1 1 0 0 1-2 0c.008-7.176 5.824-12.992 13-13h4a1 1 0 0 1 0 2zm8 10a1 1 0 0 1 1 1c-.008 7.176-5.824 12.992-13 13h-4a1 1 0 0 1 0-2h4c6.072-.007 10.993-4.928 11-11a1 1 0 0 1 1-1zm-23 4a1 1 0 0 1 0 2h-1a1 1 0 0 1 0-2h1zm23-8a1 1 0 0 1 0 2h-1a1 1 0 0 1 0-2h1z"/>
</svg>
