<svg xmlns="http://www.w3.org/2000/svg" width="48" height="48" viewBox="0 0 48 48">
    <defs>
        <linearGradient id="a" x1="50%" x2="50%" y1="0%" y2="100%">
            <stop offset="0%" stop-color="#EE6174"/>
            <stop offset="100%" stop-color="#F89948"/>
        </linearGradient>
    </defs>
    <path fill="url(#a)" fill-rule="evenodd" d="M25 42a1 1 0 0 1 0 2c-11.04-.013-19.987-8.96-20-20V10H2a1 1 0 0 1-.753-1.659l7-8a1.035 1.035 0 0 1 1.506 0l7 8A1 1 0 0 1 16 10h-4v4a1 1 0 0 1-2 0V9a1 1 0 0 1 1-1h2.8L9 2.519 4.2 8H6a1 1 0 0 1 1 1v15c.012 9.936 8.064 17.988 18 18zm23.91-3.413a1 1 0 0 1-.157 1.071l-7 8a1 1 0 0 1-1.506 0l-7-8A1 1 0 0 1 34 38h4v-4a1 1 0 0 1 2 0v5a1 1 0 0 1-1 1h-2.8l4.8 5.481L45.8 40H44a1 1 0 0 1-1-1V24c-.012-9.936-8.064-17.988-18-18a1 1 0 0 1 0-2c11.04.013 19.987 8.96 20 20v14h3a1 1 0 0 1 .91.587zM23 31a3 3 0 0 1-3-3v-1a1 1 0 0 1 2 0v1a1 1 0 0 0 1 1h4a1 1 0 0 0 1-1v-2a1 1 0 0 0-1-1h-4a3 3 0 0 1-3-3v-2a3 3 0 0 1 3-3h1v-1a1 1 0 0 1 2 0v1h1a3 3 0 0 1 3 3v1a1 1 0 0 1-2 0v-1a1 1 0 0 0-1-1h-4a1 1 0 0 0-1 1v2a1 1 0 0 0 1 1h4a3 3 0 0 1 3 3v2a3 3 0 0 1-3 3h-1v1a1 1 0 0 1-2 0v-1h-1zm-12-7c.008-7.729 6.271-13.992 14-14 7.732 0 14 6.268 14 14s-6.268 14-14 14-14-6.268-14-14zm14-12c-6.624.007-11.993 5.376-12 12 0 6.627 5.373 12 12 12s12-5.373 12-12-5.373-12-12-12z" transform="translate(-1)"/>
</svg>
