<?xml version="1.0" encoding="UTF-8" standalone="no"?>
<svg
   xmlns:dc="http://purl.org/dc/elements/1.1/"
   xmlns:cc="http://creativecommons.org/ns#"
   xmlns:rdf="http://www.w3.org/1999/02/22-rdf-syntax-ns#"
   xmlns:svg="http://www.w3.org/2000/svg"
   xmlns="http://www.w3.org/2000/svg"
   xmlns:sodipodi="http://sodipodi.sourceforge.net/DTD/sodipodi-0.dtd"
   xmlns:inkscape="http://www.inkscape.org/namespaces/inkscape"
   width="299"
   height="254"
   viewBox="0 0 299 254"
   version="1.1"
   id="svg156"
   sodipodi:docname="benefits-6.1.svg"
   inkscape:version="0.92.5 (2060ec1f9f, 2020-04-08)">
  <metadata
     id="metadata162">
    <rdf:RDF>
      <cc:Work
         rdf:about="">
        <dc:format>image/svg+xml</dc:format>
        <dc:type
           rdf:resource="http://purl.org/dc/dcmitype/StillImage" />
      </cc:Work>
    </rdf:RDF>
  </metadata>
  <defs
     id="defs160" />
  <sodipodi:namedview
     pagecolor="#ffffff"
     bordercolor="#666666"
     borderopacity="1"
     objecttolerance="10"
     gridtolerance="10"
     guidetolerance="10"
     inkscape:pageopacity="0"
     inkscape:pageshadow="2"
     inkscape:window-width="640"
     inkscape:window-height="480"
     id="namedview158"
     showgrid="false"
     inkscape:zoom="0.92913386"
     inkscape:cx="149.5"
     inkscape:cy="127"
     inkscape:window-x="0"
     inkscape:window-y="0"
     inkscape:window-maximized="0"
     inkscape:current-layer="svg156" />
  <g
     fill="none"
     fill-rule="evenodd"
     id="g154">
    <rect
       id="rect2"
       rx="2"
       fill="#c1c1c1"
       y="247.05"
       x="16.28"
       height="6.84"
       width="279.08" />
    <path
       id="path4"
       d="M270.34 240.44l1.85-1 1.38 2.9c-.67.24-1.4.46-2.11.7l-1.12-2.6z"
       fill="#d3d3d3" />
    <path
       id="path6"
       d="M266.06 247.82l.35-.71a1 1 0 0 1 .64-.53l4.74-1.23a.53.53 0 0 0 .35-.72l-.68-1.57c.71-.24 1.44-.46 2.11-.7l1.73 3.64a1 1 0 0 1-.07 1l-.15.22a.84.84 0 0 1-.64.38l-8.06.73a.32.32 0 0 1-.32-.51z"
       fill="#494949" />
    <path
       id="path8"
       d="M246.69 239.88l2-1 1.47 3.09c-.72.26-1.49.49-2.25.75l-1.22-2.84z"
       fill="#d3d3d3" />
    <path
       id="path10"
       d="M242.13 247.76l.37-.76a1 1 0 0 1 .68-.57l5.06-1.31a.56.56 0 0 0 .37-.76l-.72-1.68c.76-.26 1.53-.49 2.25-.75l1.86 3.87c.148.324.121.7-.07 1l-.16.24a.89.89 0 0 1-.68.4l-8.6.78a.34.34 0 0 1-.36-.46z"
       fill="#494949" />
    <rect
       id="rect12"
       transform="rotate(180 246.93 60.25)"
       rx="1.58"
       fill="#ababab"
       y="58.61"
       x="233.56"
       height="3.28"
       width="26.74" />
    <rect
       id="rect14"
       transform="rotate(180 278.255 60.25)"
       rx="1.58"
       fill="#ababab"
       y="58.61"
       x="275.87"
       height="3.28"
       width="4.77" />
    <rect
       id="rect16"
       rx="8"
       fill="#5f5f5f"
       y="71.6"
       x="62"
       height="131.9"
       width="206.5" />
    <rect
       id="rect18"
       rx="5"
       fill="#ffffff"
       y="80.4"
       x="70.13"
       height="114.31"
       width="190.25" />
    <path
       id="path20"
       d="M242 198.76c-4.69 13.06-5 19.41-3.34 25.58 1.66 6.17 8.47 17.59 8.47 17.59l3.55-.72s-4.51-13.37-3.76-17.58c.75-4.21 1.91-10.2 1.95-12.59.04-2.39 3.3-5.64 3.3-5.64L242 198.76z"
       fill="#2d2d2d" />
    <path
       id="path22"
       d="M243.83 177.13c-.39-1-2.14-3.35-2.14-4 0-.65-.93-4.36-1.95-4.64-1.02-.28-3.07-.47-2.88 1.3.19 1.77 1.09 3.77 2.23 4 1.81.27 2.42 3.39 2.42 3.39l2.32-.05z"
       fill="#d3d3d3" />
    <path
       id="path24"
       d="M238 169.79a1.93 1.93 0 0 1-1.72-2.32c.24-1.31 5.62-1.62 7.57-.6 1.95 1.02 2.31 1.82 3.73 2.55 1.7.87 3.45 1.2 6.7 1.41 2.82.18 9.15-1.86 10.59.83 1.3 2.44-2.79 9.63-11.17 5.47-3.18-1.59-4.8.64-7.42-.38s-3-1.94-4.89-3.51c-1.39-1.13-2.3-3.45-3.39-3.45z"
       fill="#999999" />
    <path
       id="path26"
       d="M242.75 226.77c-1.43-2.76-.64-7.94 1.94-13.79 1.9-4.32 3.36-6.49 4.26-9.66l3.18 2.08s-3.26 3.24-3.3 5.64c-.04 2.4-1.2 8.38-1.95 12.59-.75 4.21 3.64 17.14 3.64 17.14l-1.53.72c-.99-2.15-4.94-12.22-6.24-14.72z"
       fill="#282828" />
    <path
       id="path28"
       d="M253.91 200.56c1.41 5.51 8.47 17.08 8 18.3-.47 1.22-.69 1.53-.1 2.45.25.365.565.68.93.93a3.23 3.23 0 0 1 1.26 1.66l.86 1.81 7.45 13.86-2.6 2.41s-9.77-13.1-11.94-15.71c-6.08-7.31-13.28-25.73-13.28-25.73l9.42.02z"
       fill="#393939" />
    <path
       id="path30"
       d="M32.63 217.73c1.27.32 5.67-3.39 7.09-5.14 1.42-1.75 2.34-4.69 1.56-5.44-2.41-2.29-11.09 6.9-11.09 6.9l2.44 3.68z"
       fill="#dddddd" />
    <path
       id="path32"
       style="mix-blend-mode:overlay;opacity:1"
       opacity=".49"
       d="M39 208.19c.34-1.47.36-2.45-.42-2.45-.55 0-1.43 2.34-1.43 2.34l1.85.11z"
       fill="#2e2e2e" />
    <path
       id="path34"
       d="M39 208.19c.34-1.47-.33-2.58-.86-2.43-.73.2-1.12 2.39-1.12 2.39l1.98.04z"
       fill="#dddddd" />
    <path
       id="path36"
       d="M40 212.22c.12-.16.23-.327.33-.5a13.1 13.1 0 0 1-4.13-3l-.47.35a13.71 13.71 0 0 0 4.27 3.15z"
       fill="#494949" />
    <path
       id="path38"
       style="mix-blend-mode:overlay;opacity:1"
       opacity=".49"
       d="M35.21 215.76c-.37-.59-.62-2.24-.18-2.79a2.19 2.19 0 0 0 0-2.23c-.2-.39 0-.85.35-1.44a53.73 53.73 0 0 0-5.19 4.75l2.44 3.68c.55.14 1.67-.47 2.89-1.35a4.41 4.41 0 0 0-.31-.62z"
       fill="#2e2e2e" />
    <rect
       id="rect40"
       rx="2"
       fill="#c6c6c6"
       y="240.23"
       x=".64"
       height="6.84"
       width="187.25" />
    <path
       id="path42"
       d="M34.31 226.74c.57 1.61-1.1 9.56-2.21 11.46-1.28 2.2-2.62 1.94-3.26.81-1.17-2.05-.34-9.89-.34-9.89l5.81-2.38z"
       fill="#dddddd" />
    <path
       id="path44"
       style="mix-blend-mode:overlay;opacity:1"
       opacity=".49"
       d="M28.5 229.12s-.83 7.84.34 9.89c.238.506.74.835 1.3.85a3.78 3.78 0 0 1 .1-3.69c.45-.59.57-2.79-.05-4.25a4.34 4.34 0 0 1 .63-3.75l-2.32.95z"
       fill="#2e2e2e" />
    <path
       id="path46"
       d="M21.66 211.44c-3.59 5.27-2.81 13.78-1.82 15.4 1.33 2.19 5.24 3.37 8.07 3.36 11.07-.05 8.14-12.17 6.8-14.64-1.49-2.77-4.45-6.86-5.72-6.86-1.27 0-7.33 2.74-7.33 2.74z"
       fill="#c6c6c6" />
    <ellipse
       id="ellipse48"
       transform="rotate(-13.95 30.184 218.8)"
       ry="2.91"
       rx="2.46"
       fill="#494949"
       cy="218.8"
       cx="30.184" />
    <path
       id="path50"
       d="M6.93 199.1c-1 1.17-.65 7 1.36 10.21 2.01 3.21 5.16 5.55 6.92 5.55 1.76 0 11-2.86 16-5.87 3.38-2 6.39-5.29 6.65-6.05.56-1.64-3.4-11.9-6.25-13.29-.95-.46-10.63 1.54-13.88 2.93-2.73 1.17-9.8 5.42-10.8 6.52z"
       fill="#dddddd" />
    <path
       id="path52"
       d="M37.64 200.73a34.49 34.49 0 0 0-3.21-7.76c-4.78 1.37-12.4 5.07-12.89 5.76-.49.69 3.69 7.76 4.27 7.94.58.18 5.52-1.84 8.16-3.29a33.78 33.78 0 0 0 3.67-2.65zM23.102 184.065l.964-.264 1.62 5.923-.964.264z"
       fill="#2d2d2d" />
    <path
       id="path54"
       d="M24.79 182.8a1.64 1.64 0 0 1-3.21.66c-.18-.87.26-2.24 1.14-2.42.88-.18 1.89.89 2.07 1.76zM26.87 190.18c.11.41-.57.76-1.47 1s-1.71.17-1.82-.19a1.73 1.73 0 0 1 3.29-.82v.01zM15.628 190.516l.801-.597 2.434 3.262-.802.598z"
       fill="#2d2d2d" />
    <path
       id="path56"
       d="M16.5 189.33a1.13 1.13 0 0 1-1.86 1.21 1.3 1.3 0 0 1 .23-1.64 1.33 1.33 0 0 1 1.63.43zM19.43 193.35c.18.24-.13.6-.6 1s-1 .47-1.15.26a1.07 1.07 0 0 1 1.75-1.22v-.04z"
       fill="#2d2d2d" />
    <ellipse
       id="ellipse58"
       ry="1.3"
       rx="1.98"
       fill="#2d2d2d"
       cy="218.88"
       cx="18.94" />
    <path
       id="path60"
       d="M31.7 201.45c-1 1-2.93 1.34-4 .16a3.45 3.45 0 0 1 .09-4.42 2.92 2.92 0 0 1 3.93 4.26h-.02z"
       fill="#ffffff" />
    <ellipse
       id="ellipse62"
       ry="1.14"
       rx="1.07"
       fill="#1e1e1e"
       cy="197.96"
       cx="29.62" />
    <path
       id="path64"
       d="M36.23 199.29a1.31 1.31 0 0 0 .7-.85 13.85 13.85 0 0 0-1.49-3.61 1.48 1.48 0 0 0-1.48 0 2.56 2.56 0 0 0 2.27 4.44v.02z"
       fill="#ffffff" />
    <ellipse
       id="ellipse66"
       transform="rotate(-15.3 34.867 195.856)"
       ry="1.04"
       rx="1"
       fill="#1e1e1e"
       cy="195.856"
       cx="34.867" />
    <path
       id="path68"
       style="mix-blend-mode:overlay;opacity:1"
       opacity=".49"
       d="M25.81 227.67c-.67-.75-1.35-5.83-2.49-7.49-3.65-5.32 3.56-8.55 4.56-9.46a8.48 8.48 0 0 1-5.73-.89c-2-1.12-5.65-10-5.52-11.4.25-2.78 6.68-5.11 6.44-6.87 0-.24-.72-.35-1.44-.22a37.85 37.85 0 0 0-3.88 1.24c-2.73 1.17-9.82 5.37-10.82 6.52-1 1.15-.65 7 1.36 10.21 2.01 3.21 5.16 5.55 6.92 5.55a26.36 26.36 0 0 0 5.3-1.31c-2.24 5.18-1.54 11.87-.67 13.29 1.33 2.19 5.24 3.37 8.07 3.36.47 0 .91 0 1.33-.08l2-.41s-3.79-.21-5.43-2.04z"
       fill="#2e2e2e" />
    <ellipse
       id="ellipse70"
       ry="4.45"
       rx="4.84"
       fill="#2d2d2d"
       cy="206.67"
       cx="13.01" />
    <circle
       id="circle72"
       fill="#494949"
       r="4.05"
       cy="206.67"
       cx="12.59" />
    <ellipse
       id="ellipse74"
       transform="rotate(-15.3 12.605 206.765)"
       ry="1.42"
       rx="1.17"
       fill="#2d2d2d"
       cy="206.765"
       cx="12.605" />
    <path
       id="path76"
       d="M19.18 217c-5.22-2.26-9.77 8.62-8.79 10.31.49.84 1.68.09 2.83-.63.17.93.46 1.83 1.08 1.64.62-.19.85-1.65.83-2.75a22.78 22.78 0 0 0 4.93-5.25c.39-.98-.06-2.95-.88-3.32z"
       fill="#dddddd" />
    <path
       id="path78"
       d="M15.72 225.12l.45-.39a15.06 15.06 0 0 0-4.4-2.84l-.26.52a14.17 14.17 0 0 1 4.21 2.71z"
       fill="#494949" />
    <path
       id="path80"
       d="M23.56 226.38a8.7 8.7 0 0 1 1.14 6.38c-.35 2-1.48 5.16-3.18 6.64a1.79 1.79 0 0 1-2.91-.9c-.35-1-.69-11.11 2.12-12.65a2.78 2.78 0 0 1 2.83.53z"
       fill="#dddddd" />
    <path
       id="path82"
       style="mix-blend-mode:overlay;opacity:1"
       opacity=".49"
       d="M20.83 239.35a4.21 4.21 0 0 1-.21-4.21 6.58 6.58 0 0 0 0-5.52c-.7-1.27.2-2.77 1.22-3.95a2.08 2.08 0 0 0-1.07.18c-2.81 1.54-2.47 11.65-2.12 12.65a1.8 1.8 0 0 0 2.49 1.17 3 3 0 0 0-.31-.32zM10.39 227.31a.71.71 0 0 0 .37.32 48.17 48.17 0 0 1 3.08-5.74c.66-.65 2-1.7 2-3 0-1.05 1.3-1.52 2.54-2.13-4.9-.85-8.91 8.96-7.99 10.55z"
       fill="#2e2e2e" />
    <ellipse
       id="ellipse84"
       transform="rotate(-48.66 106.287 77.796)"
       ry="11.42"
       rx="23.02"
       fill="#999999"
       cy="77.796"
       cx="106.287" />
    <ellipse
       id="ellipse86"
       transform="rotate(-48.66 105.16 76.675)"
       ry="9.19"
       rx="21.32"
       fill="#ababab"
       cy="76.675"
       cx="105.16" />
    <ellipse
       id="ellipse88"
       transform="rotate(-46.44 57.286 57.978)"
       ry="7.46"
       rx="13.31"
       fill="#999999"
       cy="57.978"
       cx="57.286" />
    <ellipse
       id="ellipse90"
       transform="rotate(-46.44 56.653 57.425)"
       ry="5.86"
       rx="12.39"
       fill="#ababab"
       cy="57.425"
       cx="56.653" />
    <ellipse
       id="ellipse92"
       transform="rotate(-42.83 151.944 41.94)"
       ry="16.28"
       rx="6.81"
       fill="#999999"
       cy="41.94"
       cx="151.944" />
    <ellipse
       id="ellipse94"
       transform="rotate(-42.83 152.479 41.386)"
       ry="15.15"
       rx="5.35"
       fill="#ababab"
       cy="41.386"
       cx="152.479" />
    <path
       id="path96"
       d="M19.11 100.94l-6.13-11.78 6.13-11.78 6.13 11.78z"
       fill="#8a8a8a" />
    <path
       id="path98"
       d="M163.82 240.23H85.38a3.29 3.29 0 0 1-2.81-5l52.29-85.47a3.29 3.29 0 0 1 2.81-1.58h88.59a3.29 3.29 0 0 1 2.81 5l-47 76.81c-2.85 4.68-7.35 8.8-12.48 10.24h-5.77zM166.24 145.8c3.25-4.23 4.27-5.8 3-11.3-1.27-5.5-.5-9.5 5-11s10.11 4.3 10.75 7.25c.85 3.88 1.75 15.25 1.75 15.25l-20.5-.2z"
       fill="#494949" />
    <path
       id="path100"
       d="M165.84 236.28H85.38a3.29 3.29 0 0 1-2.81-5l50-81.8a11 11 0 0 1 9.36-5.25h84.29a3.29 3.29 0 0 1 2.81 5l-48 78.53a17.82 17.82 0 0 1-15.19 8.52z"
       fill="#c6c6c6" />
    <path
       id="path102"
       d="M127.41 223h-20.16a4.43 4.43 0 0 1-3.79-6.72l35.48-58.81a4.43 4.43 0 0 1 3.79-2.15h24.39a2.05 2.05 0 0 1 1.75 3.11l-37.67 62.43a4.42 4.42 0 0 1-3.79 2.14zM168.91 223h-20.16a4.43 4.43 0 0 1-3.79-6.72l35.48-58.81a4.43 4.43 0 0 1 3.79-2.15h24.39a2.05 2.05 0 0 1 1.75 3.11l-37.67 62.43a4.42 4.42 0 0 1-3.79 2.14z"
       fill="#efefef" />
    <path
       id="path104"
       d="M157.79 229.4l-44-71.11a9.32 9.32 0 0 0-7.93-4.42H19.79a3.24 3.24 0 0 0-2.75 4.95l49.37 79.88a3.24 3.24 0 0 0 2.75 1.53H169.6v-4.38h-.25a13.58 13.58 0 0 1-11.56-6.45z"
       fill="#494949" />
    <path
       id="path106"
       d="M110.13 158.52a9 9 0 0 0-7.63-4.26H19.67A3.12 3.12 0 0 0 17 159l47.48 76.83a3.13 3.13 0 0 0 2.66 1.48h87.29a2.44 2.44 0 0 0 2.08-3.73l-46.38-75.06z"
       fill="#595959" />
    <circle
       id="circle108"
       fill="#1e1e1e"
       r="3.02"
       cy="131.81"
       cx="176.5" />
    <ellipse
       id="ellipse110"
       transform="rotate(-32.28 72 172.486)"
       ry="7.96"
       rx="6.13"
       fill="#1e1e1e"
       cy="172.486"
       cx="72" />
    <ellipse
       id="ellipse112"
       transform="rotate(-32.28 72 172.486)"
       ry="3.83"
       rx="2.94"
       fill="#2d2d2d"
       cy="172.486"
       cx="72" />
    <path
       id="path114"
       d="M214.19 185.2c-1.56-4 .05-4.74.52-6.08.4-1.14-.17-1.62-.17-1.62l-2.62 4.4a2.32 2.32 0 0 0-.1 2.2l1 2.14 1.37-1.04z"
       fill="#d3d3d3" />
    <path
       id="path116"
       d="M255.6 200c-4 1.39-14.17 1.67-14.17 1.67s3.24-15.19-2.18-16.94c-1.19-.39-12 3-16.4 3-4.4 0-11.17-2.37-11.17-2.37l2.19-3.19s10.66 1.3 13.64.31c2.98-.99 10.88-5.69 12.08-5.88 1.2-.19 3.77-1.43 5.09-.61 2.17 1.33 4.77 9 6 13.15.83 2.86 4.92 10.86 4.92 10.86z"
       fill="#494949" />
    <ellipse
       id="ellipse118"
       transform="rotate(-41.54 123.729 125.07)"
       ry="15.15"
       rx="11.1"
       fill="#999999"
       cy="125.07"
       cx="123.729" />
    <ellipse
       id="ellipse120"
       transform="rotate(-41.54 124.934 124.094)"
       ry="14.03"
       rx="8.94"
       fill="#ababab"
       cy="124.094"
       cx="124.934" />
    <path
       id="path122"
       d="M268.5 102.61h-64.66a4 4 0 0 0-4 4v18.17a4 4 0 0 0 4 4h64.66v-26.17z"
       fill="#dcdcdc" />
    <rect
       id="rect124"
       rx="4"
       fill="#efefef"
       y="98.28"
       x="204.33"
       height="26.17"
       width="94.17" />
    <circle
       id="circle126"
       fill="#595959"
       r="4.33"
       cy="111.36"
       cx="284.92" />
    <rect
       id="rect128"
       transform="rotate(180 243.35 111.355)"
       rx="4.33"
       fill="#ffffff"
       y="107.02"
       x="212.8"
       height="8.67"
       width="61.1" />
    <path
       id="path130"
       d="M260.38 124.45h8.13v4.33h-8.13z"
       fill="#2d2d2d" />
    <rect
       id="rect132"
       transform="rotate(90 64.88 41.365)"
       rx="1.04"
       fill="#494949"
       y="40.325"
       x="59.595"
       height="2.08"
       width="10.57" />
    <rect
       id="rect134"
       transform="rotate(-90 136.15 98.2)"
       rx="1.04"
       fill="#494949"
       y="97.16"
       x="114.9"
       height="2.08"
       width="42.5" />
    <rect
       id="rect136"
       transform="rotate(-90 136.15 63.255)"
       rx="1.04"
       fill="#494949"
       y="62.215"
       x="130.865"
       height="2.08"
       width="10.57" />
    <rect
       id="rect138"
       transform="rotate(90 96.54 48.01)"
       rx="1.04"
       fill="#494949"
       y="46.97"
       x="75.29"
       height="2.08"
       width="42.5" />
    <rect
       id="rect140"
       transform="rotate(90 96.54 82.955)"
       rx="1.04"
       fill="#494949"
       y="81.915"
       x="91.255"
       height="2.08"
       width="10.57" />
    <rect
       id="rect142"
       transform="rotate(90 124.23 21.3)"
       rx="1.04"
       fill="#494949"
       y="20.26"
       x="102.98"
       height="2.08"
       width="42.5" />
    <rect
       id="rect144"
       transform="rotate(90 124.22 56.235)"
       rx="1.04"
       fill="#494949"
       y="55.195"
       x="118.935"
       height="2.08"
       width="10.57" />
    <rect
       id="rect146"
       transform="rotate(-90 114.13 41.925)"
       rx="1.04"
       fill="#494949"
       y="40.885"
       x="108.845"
       height="2.08"
       width="10.57" />
    <rect
       id="rect148"
       transform="rotate(-90 114.12 61.08)"
       rx="1.04"
       fill="#494949"
       y="60.04"
       x="104.89"
       height="2.08"
       width="18.46" />
    <rect
       id="rect150"
       transform="rotate(180 59.99 232.76)"
       rx="1.58"
       fill="#ababab"
       y="231.12"
       x="46.62"
       height="3.28"
       width="26.74" />
    <rect
       id="rect152"
       transform="rotate(180 91.315 232.76)"
       rx="1.58"
       fill="#ababab"
       y="231.12"
       x="88.93"
       height="3.28"
       width="4.77" />
  </g>
</svg>
