<svg xmlns="http://www.w3.org/2000/svg" width="327" height="293" viewBox="0 0 327 293">
    <g fill="none" fill-rule="evenodd">
        <rect width="26.8" height="26.8" x="274.34" y=".51" fill="#2342D4" rx="4"/>
        <rect width="177.59" height="118.17" x="80.36" y="39.62" fill="#E4EDF6" rx="5"/>
        <rect width="128.68" height="92.87" x="23.4" y="110.37" fill="#EFF5FF" rx="5"/>
        <path fill="#D5DDEB" d="M153.8 115.91H80.36v36.71a5.16 5.16 0 0 0 5.16 5.17H159v-36.71a5.17 5.17 0 0 0-5.2-5.17zM183 144.57a5.18 5.18 0 0 0-5.17 5.17v8h75a5.16 5.16 0 0 0 5.16-5.17v-8.05l-74.99.05z"/>
        <rect width="18.87" height="69.97" x="97.48" y="62.13" fill="#98AEF3" rx="2"/>
        <rect width="18.87" height="69.97" x="122.37" y="62.13" fill="#98AEF3" rx="2"/>
        <rect width="18.87" height="69.97" x="147.27" y="62.13" fill="#98AEF3" rx="2"/>
        <rect width="18.87" height="69.97" x="172.17" y="62.13" fill="#98AEF3" rx="2"/>
        <rect width="18.87" height="69.97" x="197.06" y="62.13" fill="#98AEF3" rx="2"/>
        <rect width="18.87" height="69.97" x="221.96" y="62.13" fill="#98AEF3" rx="2"/>
        <path fill="#D5DDEB" d="M213.47 54.45h-47.16a5.16 5.16 0 0 1-5.16-5.16v-9.67h57.48v9.67a5.16 5.16 0 0 1-5.16 5.16z"/>
        <rect width="143.45" height="98.49" x="183.36" y="140.8" fill="#2342D4" rx="5"/>
        <rect width="128.68" height="92.87" x="23.4" y="110.37" fill="#EFF5FF" rx="5"/>
        <rect width="57.48" height="39.44" x="164.25" y="10.69" fill="#EFF5FF" rx="5"/>
        <path fill="#FFF" d="M170.44 16.8h45.09v27.21h-45.09zM190.82 148.14h128.54v83.81H190.82z"/>
        <rect width="69.52" height="23.16" x=".85" y="73.07" fill="#EFF5FF" rx="5"/>
        <path fill="#FEB1B0" d="M248.68 203.24c-5.73 3.18-14.32 6.17-15.69 7.2-1.37 1.03-2.67 15.58-1.7 18.5s5.41-1.17 7.26-4.52c1.85-3.35 2.08-7.7 3.58-7.9 1.5-.2 11.87-3.18 12.67-3.52.8-.34-6.12-9.76-6.12-9.76z"/>
        <path fill="#FCC2C2" d="M208.18 178.43c4.82-.29 14.8-1.49 17-1.49 2.2 0 22.11 7.48 24.44 8 2.33.52 11.8 11.64 14.13 13.63 2.33 1.99 9.95 7 11.11 9.32 4.59 9.18 12.14 28.92 15.48 37.93a8.18 8.18 0 0 0 6.58 5.26c8.27 1.12 18.55 2.7 18.55 2.7s.33 11.47-3.5 20.95C308.14 284.21 300.3 293 300.3 293s-47.22-31.26-49.71-33.59a22.66 22.66 0 0 1-7-13.63c-1-7-3.89-21.94-6.21-26.43-2.32-4.49-9.25-15.39-10.08-16.52-.83-1.13 2.82-3.28 5.82-3.28 3 0 12 7.82 14.46 11.81 1.58 2.53 5.17 8.74 7.59 12.94a1.26 1.26 0 0 0 2.36-.65 53.51 53.51 0 0 0-.3-6.81c-.34-.5-6.25-7.64-7.32-9.64-2.33-4.37-4.16-11.14-6-11.47-1.84-.33-15.63-8.15-17-8.15-1.37 0-11.47-1.83-14-3-2.53-1.17-7.48-5.98-4.73-6.15z"/>
        <path fill="#292665" d="M309.22 280.31a23.76 23.76 0 0 1-4.72-1.08c-4.38-1.69-14.62-11.69-20.27-13-12.16-2.84-29.16-7.25-34.33-21.71-1.84-5.15-6.26-20.55-8.26-26.07-1.91-5.29-7.08-12.21-13.7-17.09-.64.53-.94 1.08-.63 1.48.83 1.13 7.75 12 10.08 16.52s5.21 19.44 6.21 26.43a22.66 22.66 0 0 0 7 13.63c2.48 2.32 49.7 33.58 49.7 33.58a81.19 81.19 0 0 0 8.92-12.69z" style="mix-blend-mode:overlay"/>
        <path fill="#AFB8FF" d="M173.28 42a1 1 0 0 1-.48-.12 1 1 0 0 1-.39-1.36c4.48-8.11 8.43-12.05 12.06-12.05 1.68 0 3.7 1.38 6.25 3.13 3.09 2.12 6.59 4.52 9.75 4.52 3 0 7.89-9 10.43-15.36a1 1 0 1 1 1.86.74c-1.11 2.78-6.89 16.62-12.29 16.62-3.78 0-7.55-2.59-10.88-4.87-2-1.37-4.06-2.78-5.12-2.78-1.93 0-5.27 1.91-10.31 11a1 1 0 0 1-.88.53z"/>
        <rect width="43.57" height="4.3" x="246.21" y="126.17" fill="#F27762" rx="2"/>
        <rect width="6.37" height="4.3" x="294.77" y="126.17" fill="#F27762" rx="2"/>
        <path fill="#292665" d="M255.18 224.3l-2-3.39c1.52 3.31 3.49 9.94 5.76 9 2.76-1.11 2.58-5.59 2.44-8.69-.14-3.1-1.75-10.15-3.47-11.87-1.72-1.72-10.29-16.16-12.18-16.35-1.89-.19-17-8.43-20.65-8.26-3.29.15-11.45-1.41-17.56-5.21.65 1.54 3.71 4.21 5.49 5 2.49 1.16 12.63 3 14 3 1.37 0 15.14 7.81 17 8.15 1.86.34 3.66 7.1 6 11.47 1.07 2 7 9.14 7.32 9.64a53.51 53.51 0 0 1 .3 6.81 1.274 1.274 0 1 1-2.45.7z"/>
        <path fill="#37B586" d="M59.02 267.19L47.7 245.43l11.32-21.75 11.31 21.75z"/>
        <rect width="60.57" height="4.3" x="79.185" y="36.505" fill="#233FE1" rx="2" transform="rotate(90 109.47 38.655)"/>
        <rect width="6.73" height="4.3" x="106.115" y="83.025" fill="#233FE1" rx="2.08" transform="rotate(90 109.48 85.175)"/>
        <rect width="26.66" height="59" x="39.9" y="127.78" fill="#BCCEFD" rx="4"/>
        <rect width="60.86" height="24.43" x="77" y="127.78" fill="#BCCEFD" rx="4"/>
        <rect width="60.86" height="24.43" x="77" y="162.35" fill="#BCCEFD" rx="4"/>
        <rect width="36.29" height="36.29" x="92.148" y="178.086" fill="#F27762" rx="16.66" transform="rotate(6.97 110.293 196.231)"/>
        <path fill="#FFF" fill-rule="nonzero" d="M108.07 187.82l.46-3.49 2.19.3c-.14 1-.25 2-.39 3-.05.33 0 .46.37.48.37.02.74.09 1.18.14l.45-3.36 2.18.26-.42 3.4c.8.29 1.6.55 2.37.87a3.81 3.81 0 0 1 1.52 5.77 7.89 7.89 0 0 1-1.27 1c.19.11.42.26.66.38a3.22 3.22 0 0 1 1.7 3.22 4.89 4.89 0 0 1-1.44 3.56 4.15 4.15 0 0 1-2.39 1.09c-1.05.12-2.11.15-3.24.22l-.45 3.39-2.18-.27.43-3.45-1.59-.21-.45 3.44-2.18-.27.43-3.5-4.23-.57.74-2.52c.52.06 1 .09 1.56.18a.7.7 0 0 0 .86-.67c.42-3 .81-6.08 1.19-9.12a1.07 1.07 0 0 0-1-1.29l-1.61-.22.3-2.32 4.25.56zm.55 13.68l.67.09a11.66 11.66 0 0 0 3.54.07 2.41 2.41 0 0 0 1.59-.9 1.93 1.93 0 0 0-.81-2.82 10.76 10.76 0 0 0-4.11-1c-.28 0-.34.1-.36.34-.11.87-.23 1.74-.34 2.61-.07.55-.12 1.11-.18 1.61zm.86-6.79a8.62 8.62 0 0 0 3.71.07 1.77 1.77 0 0 0 1.37-1.38 1.64 1.64 0 0 0-.62-1.75 7.37 7.37 0 0 0-3.93-1l-.53 4.06z"/>
        <circle cx="136.5" cy="25.29" r="4.17" fill="#F27762"/>
        <circle cx="235.35" cy="267.54" r="3.38" fill="#F27762"/>
        <path fill="#D5DDEB" d="M258 78.5h-25a5.16 5.16 0 0 0-5.16 5.16v26.92a5.16 5.16 0 0 0 5.16 5.16h25V78.5z"/>
        <path fill="#88A1E2" d="M240.83 78.5H233a5.16 5.16 0 0 0-5.16 5.16v26.92a5.16 5.16 0 0 0 5.16 5.16h7.83V78.5z"/>
        <rect width="67.56" height="37.24" x="233.59" y="70.46" fill="#EFF5FF" rx="5"/>
        <circle cx="253.91" cy="88.54" r="7.7" fill="#F27762"/>
        <path fill="#88A1E2" d="M153.8 115.91h-1.72v16.19H159v-11a5.17 5.17 0 0 0-5.2-5.19z"/>
        <path fill="#1E32A4" d="M217.77 226h-34.63v8.14a5.16 5.16 0 0 0 5.16 5.17h34.63v-8.15a5.16 5.16 0 0 0-5.16-5.16z"/>
        <rect width="103.85" height="57.82" x="112.71" y="219.35" fill="#EFF5FF" rx="5"/>
        <path fill="#FFF" d="M122.97 227.99h83.55v40.53h-83.55z"/>
        <path fill="#233FE1" d="M202.43 232.36l-8.25 1.32 2.58 2.58-14.35 12.63c-7.48-6.67-7.94-6.7-8.35-6.73-.41-.03-.95-.07-24.62 19.09-3.35-3.46-6.85-7.14-7.28-7.72a1.09 1.09 0 0 0-.6-.5c-.61-.19-1-.32-14.28 9.22a1.067 1.067 0 1 0 1.22 1.75c5-3.57 10.59-7.49 12.46-8.62.87 1 2.89 3.16 7.65 8.06a1 1 0 0 0 1.41.08c8.53-6.9 21.3-17.15 24-19 1.24.93 4.67 3.9 7.73 6.64.397.35.993.35 1.39 0l15.15-13.34 2.87 2.86 1.27-8.32z"/>
        <rect width="12.65" height="12.65" x="50.97" y="78.33" fill="#2342D4" rx="2"/>
        <rect width="3.06" height="3.06" x="255.04" y="164.49" fill="#B0B7FA" rx="1.46"/>
        <rect width="39.38" height="3.06" x="262.99" y="164.49" fill="#E8F0FC" rx="1.46"/>
        <rect width="3.06" height="3.06" x="254.86" y="175.41" fill="#B0B7FA" rx="1.46"/>
        <rect width="39.38" height="3.06" x="262.82" y="175.41" fill="#E8F0FC" rx="1.46"/>
        <path fill="#D5DDEB" d="M217.77 226h-1.21v6h6.37v-.83a5.16 5.16 0 0 0-5.16-5.17z"/>
    </g>
</svg>
