<svg xmlns="http://www.w3.org/2000/svg" width="299" height="254" viewBox="0 0 299 254">
    <g fill="none" fill-rule="evenodd">
        <rect width="279.08" height="6.84" x="16.28" y="247.05" fill="#ACC3EA" rx="2"/>
        <path fill="#FCC2C2" d="M270.34 240.44l1.85-1 1.38 2.9c-.67.24-1.4.46-2.11.7l-1.12-2.6z"/>
        <path fill="#2342D4" d="M266.06 247.82l.35-.71a1 1 0 0 1 .64-.53l4.74-1.23a.53.53 0 0 0 .35-.72l-.68-1.57c.71-.24 1.44-.46 2.11-.7l1.73 3.64a1 1 0 0 1-.07 1l-.15.22a.84.84 0 0 1-.64.38l-8.06.73a.32.32 0 0 1-.32-.51z"/>
        <path fill="#FCC2C2" d="M246.69 239.88l2-1 1.47 3.09c-.72.26-1.49.49-2.25.75l-1.22-2.84z"/>
        <path fill="#2342D4" d="M242.13 247.76l.37-.76a1 1 0 0 1 .68-.57l5.06-1.31a.56.56 0 0 0 .37-.76l-.72-1.68c.76-.26 1.53-.49 2.25-.75l1.86 3.87c.148.324.121.7-.07 1l-.16.24a.89.89 0 0 1-.68.4l-8.6.78a.34.34 0 0 1-.36-.46z"/>
        <rect width="26.74" height="3.28" x="233.56" y="58.61" fill="#F98C7D" rx="1.58" transform="rotate(180 246.93 60.25)"/>
        <rect width="4.77" height="3.28" x="275.87" y="58.61" fill="#F98C7D" rx="1.58" transform="rotate(180 278.255 60.25)"/>
        <rect width="206.5" height="131.9" x="62" y="71.6" fill="#325BEE" rx="8"/>
        <rect width="190.25" height="114.31" x="70.13" y="80.4" fill="#FFF" rx="5"/>
        <path fill="#1323A4" d="M242 198.76c-4.69 13.06-5 19.41-3.34 25.58 1.66 6.17 8.47 17.59 8.47 17.59l3.55-.72s-4.51-13.37-3.76-17.58c.75-4.21 1.91-10.2 1.95-12.59.04-2.39 3.3-5.64 3.3-5.64L242 198.76z"/>
        <path fill="#FCC2C2" d="M243.83 177.13c-.39-1-2.14-3.35-2.14-4 0-.65-.93-4.36-1.95-4.64-1.02-.28-3.07-.47-2.88 1.3.19 1.77 1.09 3.77 2.23 4 1.81.27 2.42 3.39 2.42 3.39l2.32-.05z"/>
        <path fill="#F27762" d="M238 169.79a1.93 1.93 0 0 1-1.72-2.32c.24-1.31 5.62-1.62 7.57-.6 1.95 1.02 2.31 1.82 3.73 2.55 1.7.87 3.45 1.2 6.7 1.41 2.82.18 9.15-1.86 10.59.83 1.3 2.44-2.79 9.63-11.17 5.47-3.18-1.59-4.8.64-7.42-.38s-3-1.94-4.89-3.51c-1.39-1.13-2.3-3.45-3.39-3.45z"/>
        <path fill="#0F247C" d="M242.75 226.77c-1.43-2.76-.64-7.94 1.94-13.79 1.9-4.32 3.36-6.49 4.26-9.66l3.18 2.08s-3.26 3.24-3.3 5.64c-.04 2.4-1.2 8.38-1.95 12.59-.75 4.21 3.64 17.14 3.64 17.14l-1.53.72c-.99-2.15-4.94-12.22-6.24-14.72z"/>
        <path fill="#1E32A4" d="M253.91 200.56c1.41 5.51 8.47 17.08 8 18.3-.47 1.22-.69 1.53-.1 2.45.25.365.565.68.93.93a3.23 3.23 0 0 1 1.26 1.66l.86 1.81 7.45 13.86-2.6 2.41s-9.77-13.1-11.94-15.71c-6.08-7.31-13.28-25.73-13.28-25.73l9.42.02z"/>
        <path fill="#D3DCFF" d="M32.63 217.73c1.27.32 5.67-3.39 7.09-5.14 1.42-1.75 2.34-4.69 1.56-5.44-2.41-2.29-11.09 6.9-11.09 6.9l2.44 3.68z"/>
        <path fill="#292665" d="M39 208.19c.34-1.47.36-2.45-.42-2.45-.55 0-1.43 2.34-1.43 2.34l1.85.11z" opacity=".49" style="mix-blend-mode:overlay"/>
        <path fill="#D3DCFF" d="M39 208.19c.34-1.47-.33-2.58-.86-2.43-.73.2-1.12 2.39-1.12 2.39l1.98.04z"/>
        <path fill="#233FE1" d="M40 212.22c.12-.16.23-.327.33-.5a13.1 13.1 0 0 1-4.13-3l-.47.35a13.71 13.71 0 0 0 4.27 3.15z"/>
        <path fill="#292665" d="M35.21 215.76c-.37-.59-.62-2.24-.18-2.79a2.19 2.19 0 0 0 0-2.23c-.2-.39 0-.85.35-1.44a53.73 53.73 0 0 0-5.19 4.75l2.44 3.68c.55.14 1.67-.47 2.89-1.35a4.41 4.41 0 0 0-.31-.62z" opacity=".49" style="mix-blend-mode:overlay"/>
        <rect width="187.25" height="6.84" x=".64" y="240.23" fill="#B3C7F4" rx="2"/>
        <path fill="#D3DCFF" d="M34.31 226.74c.57 1.61-1.1 9.56-2.21 11.46-1.28 2.2-2.62 1.94-3.26.81-1.17-2.05-.34-9.89-.34-9.89l5.81-2.38z"/>
        <path fill="#292665" d="M28.5 229.12s-.83 7.84.34 9.89c.238.506.74.835 1.3.85a3.78 3.78 0 0 1 .1-3.69c.45-.59.57-2.79-.05-4.25a4.34 4.34 0 0 1 .63-3.75l-2.32.95z" opacity=".49" style="mix-blend-mode:overlay"/>
        <path fill="#B3C7F4" d="M21.66 211.44c-3.59 5.27-2.81 13.78-1.82 15.4 1.33 2.19 5.24 3.37 8.07 3.36 11.07-.05 8.14-12.17 6.8-14.64-1.49-2.77-4.45-6.86-5.72-6.86-1.27 0-7.33 2.74-7.33 2.74z"/>
        <ellipse cx="30.184" cy="218.8" fill="#233FE1" rx="2.46" ry="2.91" transform="rotate(-13.95 30.184 218.8)"/>
        <path fill="#D3DCFF" d="M6.93 199.1c-1 1.17-.65 7 1.36 10.21 2.01 3.21 5.16 5.55 6.92 5.55 1.76 0 11-2.86 16-5.87 3.38-2 6.39-5.29 6.65-6.05.56-1.64-3.4-11.9-6.25-13.29-.95-.46-10.63 1.54-13.88 2.93-2.73 1.17-9.8 5.42-10.8 6.52z"/>
        <path fill="#1323A4" d="M37.64 200.73a34.49 34.49 0 0 0-3.21-7.76c-4.78 1.37-12.4 5.07-12.89 5.76-.49.69 3.69 7.76 4.27 7.94.58.18 5.52-1.84 8.16-3.29a33.78 33.78 0 0 0 3.67-2.65zM23.102 184.065l.964-.264 1.62 5.923-.964.264z"/>
        <path fill="#1323A4" d="M24.79 182.8a1.64 1.64 0 0 1-3.21.66c-.18-.87.26-2.24 1.14-2.42.88-.18 1.89.89 2.07 1.76zM26.87 190.18c.11.41-.57.76-1.47 1s-1.71.17-1.82-.19a1.73 1.73 0 0 1 3.29-.82v.01zM15.628 190.516l.801-.597 2.434 3.262-.802.598z"/>
        <path fill="#1323A4" d="M16.5 189.33a1.13 1.13 0 0 1-1.86 1.21 1.3 1.3 0 0 1 .23-1.64 1.33 1.33 0 0 1 1.63.43zM19.43 193.35c.18.24-.13.6-.6 1s-1 .47-1.15.26a1.07 1.07 0 0 1 1.75-1.22v-.04z"/>
        <ellipse cx="18.94" cy="218.88" fill="#1323A4" rx="1.98" ry="1.3"/>
        <path fill="#FFF" d="M31.7 201.45c-1 1-2.93 1.34-4 .16a3.45 3.45 0 0 1 .09-4.42 2.92 2.92 0 0 1 3.93 4.26h-.02z"/>
        <ellipse cx="29.62" cy="197.96" fill="#0B196D" rx="1.07" ry="1.14"/>
        <path fill="#FFF" d="M36.23 199.29a1.31 1.31 0 0 0 .7-.85 13.85 13.85 0 0 0-1.49-3.61 1.48 1.48 0 0 0-1.48 0 2.56 2.56 0 0 0 2.27 4.44v.02z"/>
        <ellipse cx="34.867" cy="195.856" fill="#0B196D" rx="1" ry="1.04" transform="rotate(-15.3 34.867 195.856)"/>
        <path fill="#292665" d="M25.81 227.67c-.67-.75-1.35-5.83-2.49-7.49-3.65-5.32 3.56-8.55 4.56-9.46a8.48 8.48 0 0 1-5.73-.89c-2-1.12-5.65-10-5.52-11.4.25-2.78 6.68-5.11 6.44-6.87 0-.24-.72-.35-1.44-.22a37.85 37.85 0 0 0-3.88 1.24c-2.73 1.17-9.82 5.37-10.82 6.52-1 1.15-.65 7 1.36 10.21 2.01 3.21 5.16 5.55 6.92 5.55a26.36 26.36 0 0 0 5.3-1.31c-2.24 5.18-1.54 11.87-.67 13.29 1.33 2.19 5.24 3.37 8.07 3.36.47 0 .91 0 1.33-.08l2-.41s-3.79-.21-5.43-2.04z" opacity=".49" style="mix-blend-mode:overlay"/>
        <ellipse cx="13.01" cy="206.67" fill="#1323A4" rx="4.84" ry="4.45"/>
        <circle cx="12.59" cy="206.67" r="4.05" fill="#233FE1"/>
        <ellipse cx="12.605" cy="206.765" fill="#1323A4" rx="1.17" ry="1.42" transform="rotate(-15.3 12.605 206.765)"/>
        <path fill="#D3DCFF" d="M19.18 217c-5.22-2.26-9.77 8.62-8.79 10.31.49.84 1.68.09 2.83-.63.17.93.46 1.83 1.08 1.64.62-.19.85-1.65.83-2.75a22.78 22.78 0 0 0 4.93-5.25c.39-.98-.06-2.95-.88-3.32z"/>
        <path fill="#233FE1" d="M15.72 225.12l.45-.39a15.06 15.06 0 0 0-4.4-2.84l-.26.52a14.17 14.17 0 0 1 4.21 2.71z"/>
        <path fill="#D3DCFF" d="M23.56 226.38a8.7 8.7 0 0 1 1.14 6.38c-.35 2-1.48 5.16-3.18 6.64a1.79 1.79 0 0 1-2.91-.9c-.35-1-.69-11.11 2.12-12.65a2.78 2.78 0 0 1 2.83.53z"/>
        <path fill="#292665" d="M20.83 239.35a4.21 4.21 0 0 1-.21-4.21 6.58 6.58 0 0 0 0-5.52c-.7-1.27.2-2.77 1.22-3.95a2.08 2.08 0 0 0-1.07.18c-2.81 1.54-2.47 11.65-2.12 12.65a1.8 1.8 0 0 0 2.49 1.17 3 3 0 0 0-.31-.32zM10.39 227.31a.71.71 0 0 0 .37.32 48.17 48.17 0 0 1 3.08-5.74c.66-.65 2-1.7 2-3 0-1.05 1.3-1.52 2.54-2.13-4.9-.85-8.91 8.96-7.99 10.55z" opacity=".49" style="mix-blend-mode:overlay"/>
        <ellipse cx="106.287" cy="77.796" fill="#F27762" rx="23.02" ry="11.42" transform="rotate(-48.66 106.287 77.796)"/>
        <ellipse cx="105.16" cy="76.675" fill="#F98C7D" rx="21.32" ry="9.19" transform="rotate(-48.66 105.16 76.675)"/>
        <ellipse cx="57.286" cy="57.978" fill="#F27762" rx="13.31" ry="7.46" transform="rotate(-46.44 57.286 57.978)"/>
        <ellipse cx="56.653" cy="57.425" fill="#F98C7D" rx="12.39" ry="5.86" transform="rotate(-46.44 56.653 57.425)"/>
        <ellipse cx="151.944" cy="41.94" fill="#F27762" rx="6.81" ry="16.28" transform="rotate(-42.83 151.944 41.94)"/>
        <ellipse cx="152.479" cy="41.386" fill="#F98C7D" rx="5.35" ry="15.15" transform="rotate(-42.83 152.479 41.386)"/>
        <path fill="#37B586" d="M19.11 100.94l-6.13-11.78 6.13-11.78 6.13 11.78z"/>
        <path fill="#2342D4" d="M163.82 240.23H85.38a3.29 3.29 0 0 1-2.81-5l52.29-85.47a3.29 3.29 0 0 1 2.81-1.58h88.59a3.29 3.29 0 0 1 2.81 5l-47 76.81c-2.85 4.68-7.35 8.8-12.48 10.24h-5.77zM166.24 145.8c3.25-4.23 4.27-5.8 3-11.3-1.27-5.5-.5-9.5 5-11s10.11 4.3 10.75 7.25c.85 3.88 1.75 15.25 1.75 15.25l-20.5-.2z"/>
        <path fill="#B3C7F4" d="M165.84 236.28H85.38a3.29 3.29 0 0 1-2.81-5l50-81.8a11 11 0 0 1 9.36-5.25h84.29a3.29 3.29 0 0 1 2.81 5l-48 78.53a17.82 17.82 0 0 1-15.19 8.52z"/>
        <path fill="#E8F0FC" d="M127.41 223h-20.16a4.43 4.43 0 0 1-3.79-6.72l35.48-58.81a4.43 4.43 0 0 1 3.79-2.15h24.39a2.05 2.05 0 0 1 1.75 3.11l-37.67 62.43a4.42 4.42 0 0 1-3.79 2.14zM168.91 223h-20.16a4.43 4.43 0 0 1-3.79-6.72l35.48-58.81a4.43 4.43 0 0 1 3.79-2.15h24.39a2.05 2.05 0 0 1 1.75 3.11l-37.67 62.43a4.42 4.42 0 0 1-3.79 2.14z"/>
        <path fill="#2342D4" d="M157.79 229.4l-44-71.11a9.32 9.32 0 0 0-7.93-4.42H19.79a3.24 3.24 0 0 0-2.75 4.95l49.37 79.88a3.24 3.24 0 0 0 2.75 1.53H169.6v-4.38h-.25a13.58 13.58 0 0 1-11.56-6.45z"/>
        <path fill="#3055D8" d="M110.13 158.52a9 9 0 0 0-7.63-4.26H19.67A3.12 3.12 0 0 0 17 159l47.48 76.83a3.13 3.13 0 0 0 2.66 1.48h87.29a2.44 2.44 0 0 0 2.08-3.73l-46.38-75.06z"/>
        <circle cx="176.5" cy="131.81" r="3.02" fill="#0B196D"/>
        <ellipse cx="72" cy="172.486" fill="#0B196D" rx="6.13" ry="7.96" transform="rotate(-32.28 72 172.486)"/>
        <ellipse cx="72" cy="172.486" fill="#1323A4" rx="2.94" ry="3.83" transform="rotate(-32.28 72 172.486)"/>
        <path fill="#FCC2C2" d="M214.19 185.2c-1.56-4 .05-4.74.52-6.08.4-1.14-.17-1.62-.17-1.62l-2.62 4.4a2.32 2.32 0 0 0-.1 2.2l1 2.14 1.37-1.04z"/>
        <path fill="#2342D4" d="M255.6 200c-4 1.39-14.17 1.67-14.17 1.67s3.24-15.19-2.18-16.94c-1.19-.39-12 3-16.4 3-4.4 0-11.17-2.37-11.17-2.37l2.19-3.19s10.66 1.3 13.64.31c2.98-.99 10.88-5.69 12.08-5.88 1.2-.19 3.77-1.43 5.09-.61 2.17 1.33 4.77 9 6 13.15.83 2.86 4.92 10.86 4.92 10.86z"/>
        <ellipse cx="123.729" cy="125.07" fill="#F27762" rx="11.1" ry="15.15" transform="rotate(-41.54 123.729 125.07)"/>
        <ellipse cx="124.934" cy="124.094" fill="#F98C7D" rx="8.94" ry="14.03" transform="rotate(-41.54 124.934 124.094)"/>
        <path fill="#D5DDEB" d="M268.5 102.61h-64.66a4 4 0 0 0-4 4v18.17a4 4 0 0 0 4 4h64.66v-26.17z"/>
        <rect width="94.17" height="26.17" x="204.33" y="98.28" fill="#E8F0FC" rx="4"/>
        <circle cx="284.92" cy="111.36" r="4.33" fill="#3055D8"/>
        <rect width="61.1" height="8.67" x="212.8" y="107.02" fill="#FFF" rx="4.33" transform="rotate(180 243.35 111.355)"/>
        <path fill="#1323A4" d="M260.38 124.45h8.13v4.33h-8.13z"/>
        <rect width="10.57" height="2.08" x="59.595" y="40.325" fill="#2342D4" rx="1.04" transform="rotate(90 64.88 41.365)"/>
        <rect width="42.5" height="2.08" x="114.9" y="97.16" fill="#2342D4" rx="1.04" transform="rotate(-90 136.15 98.2)"/>
        <rect width="10.57" height="2.08" x="130.865" y="62.215" fill="#2342D4" rx="1.04" transform="rotate(-90 136.15 63.255)"/>
        <rect width="42.5" height="2.08" x="75.29" y="46.97" fill="#2342D4" rx="1.04" transform="rotate(90 96.54 48.01)"/>
        <rect width="10.57" height="2.08" x="91.255" y="81.915" fill="#2342D4" rx="1.04" transform="rotate(90 96.54 82.955)"/>
        <rect width="42.5" height="2.08" x="102.98" y="20.26" fill="#2342D4" rx="1.04" transform="rotate(90 124.23 21.3)"/>
        <rect width="10.57" height="2.08" x="118.935" y="55.195" fill="#2342D4" rx="1.04" transform="rotate(90 124.22 56.235)"/>
        <rect width="10.57" height="2.08" x="108.845" y="40.885" fill="#2342D4" rx="1.04" transform="rotate(-90 114.13 41.925)"/>
        <rect width="18.46" height="2.08" x="104.89" y="60.04" fill="#2342D4" rx="1.04" transform="rotate(-90 114.12 61.08)"/>
        <rect width="26.74" height="3.28" x="46.62" y="231.12" fill="#F98C7D" rx="1.58" transform="rotate(180 59.99 232.76)"/>
        <rect width="4.77" height="3.28" x="88.93" y="231.12" fill="#F98C7D" rx="1.58" transform="rotate(180 91.315 232.76)"/>
    </g>
</svg>
