<svg xmlns="http://www.w3.org/2000/svg" width="76" height="24" viewBox="0 0 76 24">
    <path fill="#FFF" fill-rule="nonzero" d="M69.604 8.83H66.6l-3.99-6.616.003 6.617h-4.288l-.812-1.976h-4.387l-.809 1.976h-2.453c-1.035 0-2.33-.24-3.065-.982-.74-.755-1.116-1.761-1.116-3.367 0-1.31.233-2.506 1.131-3.446C47.493.334 48.57.003 50.023.003h2.015v1.892l-1.973-.003c-.779 0-1.217.116-1.63.528-.37.367-.617 1.072-.617 2 0 .94.185 1.614.6 2.068.31.343.895.45 1.462.45h.946l2.97-6.935h3.14l3.571 8.347V.003h3.22l3.707 6.145-.003-6.145h2.173v8.828zm-27.107 0h2.158V0h-2.158v8.83zM37.659.004h-4.855v8.828h2.107V5.617h2.262c.767 0 1.23.068 1.53.387.392.415.347 1.185.347 1.71v1.117h2.122V7.079c0-.767-.054-1.173-.35-1.6-.178-.256-.575-.573-1.038-.749.555-.218 1.501-.943 1.501-2.343 0-.987-.409-1.566-1.086-1.957-.68-.388-1.471-.427-2.54-.427zm-6.315 6.983l-4.933.006V5.243l4.814.003V3.432h-4.814v-1.59h4.933V.002h-7.04v8.828h7.04V6.986zM22.732.003h-3.51L16.685 5.99 13.937.003h-3.45l.003 8.35L6.915.003h-3.14L0 8.831h2.298l.809-1.976h4.387l.811 1.976h4.289V1.91l3.065 6.92h1.853l3.056-6.911V8.83h2.164V.003zm34.024 5.014L55.318 1.51l-1.436 3.507h2.874zM37.48 3.805h-2.57V1.841h2.6c.373 0 .752.012 1.003.153.262.146.433.417.433.79 0 .38-.165.684-.433.839-.284.17-.627.182-1.033.182zM5.297 1.51l1.439 3.507H3.862L5.297 1.51zM72.11 24h-4.07v-1.892h4.055c.391 0 .672-.054.848-.215a.78.78 0 0 0 .248-.576.741.741 0 0 0-.257-.585c-.158-.134-.373-.188-.734-.197-1.97-.054-4.447.063-4.447-2.736 0-1.266.803-2.627 3.02-2.627h4.202v1.895H71.13c-.38 0-.633.012-.839.15-.224.146-.313.355-.313.638 0 .329.19.558.462.654.215.074.457.092.809.098l1.131.03c1.17.027 1.934.221 2.408.71.418.44.636.955.636 1.875 0 1.877-1.179 2.778-3.313 2.778zm-7.974-5.363l-1.128-.03c-.352-.006-.59-.024-.809-.098a.668.668 0 0 1-.46-.654c0-.283.09-.492.311-.638.206-.138.463-.15.845-.15h3.865v-1.895h-4.223c-2.218 0-3.02 1.358-3.02 2.627 0 2.802 2.477 2.682 4.443 2.736.361.01.58.063.734.197.15.125.26.322.26.585 0 .248-.11.445-.25.576-.177.161-.454.215-.848.215h-4.092V24h4.107c2.133 0 3.312-.901 3.312-2.778 0-.92-.215-1.436-.632-1.875-.475-.486-1.245-.683-2.415-.71zm-5.625 3.528l-4.933-.003v-1.743h4.816V18.6l-4.816.003v-1.59h4.933v-1.842h-7.04V24h7.04v-1.835zm-11.83-6.993h-4.859V24h2.104v-3.208l2.268-.003c.767 0 1.227.068 1.531.385.391.418.344 1.185.344 1.71V24h2.124v-1.749c-.003-.767-.053-1.173-.352-1.6-.176-.26-.573-.575-1.032-.751.549-.218 1.495-.94 1.495-2.343 0-.985-.409-1.564-1.086-1.955-.684-.39-1.472-.43-2.537-.43zm-16.133 0l-2.69 2.898-2.584-2.898h-8.487V24h8.356l2.695-2.91L30.43 24h4.104v-2.954h2.62c1.841 0 3.668-.51 3.668-2.955 0-2.441-1.874-2.919-3.537-2.919h-6.738zm15.95 3.802l-2.572.003v-1.963h2.603c.373 0 .752.012 1.005.149.263.15.43.42.43.794 0 .379-.164.683-.43.841-.286.164-.63.176-1.035.176zm-11.963.26v-2.22h2.751c.755 0 1.275.313 1.275 1.077 0 .758-.496 1.143-1.299 1.143h-2.727zm-5.336.373l3.229-3.477v7.064l-3.23-3.587zm-10.302 2.555v-1.743h4.617V18.6l-4.617.003v-1.59h5.27l2.313 2.566-2.405 2.582h-5.178z" opacity=".4"/>
</svg>
