<svg xmlns="http://www.w3.org/2000/svg" width="85" height="24" viewBox="0 0 85 24">
    <path fill="#FFF" fill-rule="nonzero" d="M61.157 10.843h23.16a8.105 8.105 0 0 1-7.566 5.36h-8.284V24h-7.31V10.843zM60.183 0h16.54a8.1 8.1 0 0 1 7.897 9.624H71.91C65.696 9.624 60.61 5.378 60.183 0zM49.364 9.496a.436.436 0 0 0-.015.033l-5.97 12.803c-.384.823-1.406 1.496-2.323 1.543v.003h-7.31V0h7.31v13.888a.487.487 0 0 0 .888.278l.002-.004a.485.485 0 0 0 .066-.141L47.83 1.546C48.22.711 49.266.031 50.193 0h7.31v23.878h-7.31V9.685a.439.439 0 0 0-.822-.2l-.007.011zm-27.295.409l-4.272 13.973H12.54L8.264 9.896a.481.481 0 0 0-.954.094v13.888H0V0h8.143c1.345 0 2.754 1.044 3.147 2.33l3.558 11.635c.177.58.464.578.64 0L19.047 2.33C19.439 1.043 20.848 0 22.193 0h8.142v23.878h-7.31V9.99v-.006a.481.481 0 0 0-.956-.08z" opacity=".4"/>
</svg>
