<svg xmlns="http://www.w3.org/2000/svg" xmlns:xlink="http://www.w3.org/1999/xlink" width="74" height="24" viewBox="0 0 74 24">
    <defs>
        <path id="a" d="M38.07 16.256c-.043-3.299 2.939-5.14 5.185-6.234 2.307-1.123 3.082-1.843 3.073-2.847-.017-1.536-1.84-2.215-3.547-2.241-2.977-.046-4.707.804-6.083 1.447l-1.073-5.018C37.005.726 39.562.17 42.213.147c6.222 0 10.294 3.072 10.316 7.834.024 6.044-8.36 6.379-8.303 9.08.02.82.801 1.694 2.514 1.916.848.113 3.188.198 5.841-1.024l1.042 4.855c-1.427.52-3.261 1.018-5.544 1.018-5.857 0-9.977-3.114-10.01-7.57m25.561 7.151a2.7 2.7 0 0 1-2.52-1.68L52.22.504h6.218l1.238 3.42h7.598l.718-3.42h5.48L68.69 23.407h-5.06m.87-6.187l1.794-8.6H61.38l3.12 8.6m-33.97 6.187L25.63.504h5.925l4.9 22.903H30.53m-8.765 0L15.597 7.818l-2.494 13.255c-.293 1.48-1.449 2.334-2.733 2.334H.288l-.14-.665c2.069-.449 4.42-1.173 5.845-1.948.872-.474 1.12-.888 1.407-2.013L12.125.504h6.262l9.6 22.903h-6.222"/>
    </defs>
    <use fill="#FFF" fill-rule="evenodd" opacity=".4" transform="matrix(1 0 0 -1 0 23.973)" xlink:href="#a"/>
</svg>
