<svg xmlns="http://www.w3.org/2000/svg" width="48" height="48" viewBox="0 0 48 48">
    <defs>
        <linearGradient id="a" x1="50%" x2="50%" y1="0%" y2="100%">
            <stop offset="0%" stop-color="#EE6174"/>
            <stop offset="100%" stop-color="#F89948"/>
        </linearGradient>
    </defs>
    <path fill="url(#a)" fill-rule="evenodd" d="M51 35.003a4 4 0 0 1 4 4v13a4 4 0 0 1-4 4H37a4 4 0 0 1-4-4v-13a4 4 0 0 1 4-4v-4a2.916 2.916 0 0 1 3-3h8a2.916 2.916 0 0 1 3 3v4zm2 17v-13a2 2 0 0 0-2-2h-8a1 1 0 1 1 0-2h6v-4a.919.919 0 0 0-1.012-1H40a.918.918 0 0 0-1 1.012v4.988a1 1 0 0 1-1 1h-1a2 2 0 0 0-2 2v13a2 2 0 0 0 2 2h14a2 2 0 0 0 2-2zm-23 2a1 1 0 0 1 0 2H13a5.006 5.006 0 0 1-5-5v-38a5.006 5.006 0 0 1 5-5h38a4.821 4.821 0 0 1 5 5 1 1 0 1 1-2 0 2.854 2.854 0 0 0-3.006-3H13a3 3 0 0 0-3 3v38a3 3 0 0 0 3 3h17zm25-38a1 1 0 0 1 1 1v14a1 1 0 1 1-2 0v-13H14a1 1 0 1 1 0-2h41zm-41-4h2a1 1 0 0 1 0 2h-2a1 1 0 1 1 0-2zm6 0h2a1 1 0 0 1 0 2h-2a1 1 0 1 1 0-2zm29 0h2a1 1 0 0 1 0 2h-2a1 1 0 1 1 0-2zm-5 29a2.993 2.993 0 0 1 1 5.816v2.184a1 1 0 1 1-2 0V46.82a2.993 2.993 0 0 1 1-5.816zm0 4a1 1 0 1 0 0-2 1 1 0 0 0 0 2z" transform="translate(-8 -8)"/>
</svg>
