<svg xmlns="http://www.w3.org/2000/svg" width="48" height="42" viewBox="0 0 48 42">
    <defs>
        <linearGradient id="a" x1="50%" x2="50%" y1="0%" y2="100%">
            <stop offset="0%" stop-color="#EE6174"/>
            <stop offset="100%" stop-color="#F89948"/>
        </linearGradient>
    </defs>
    <path fill="url(#a)" fill-rule="evenodd" d="M49.003 43.003a1 1 0 0 1 1 1v4a5.006 5.006 0 0 1-5 5h-32a5.006 5.006 0 0 1-5-5v-32a4.821 4.821 0 0 1 5-5h20a1 1 0 0 1 .707.293l2 2a1 1 0 0 1-1.414 1.414l-1.707-1.707H13.003a2.853 2.853 0 0 0-3 3.005v31.995a3 3 0 0 0 3 3h32a3 3 0 0 0 3-3v-4a1 1 0 0 1 1-1zm5-12a2 2 0 0 1 2 2v6a2 2 0 0 1-2 2h-14a2 2 0 0 1-2-2v-6a2 2 0 0 1 2-2h8v-9a3 3 0 0 0-3-3h-31a1 1 0 1 1 0-2h31a5.006 5.006 0 0 1 5 5v10a1 1 0 0 1-1 1h-9v6h14v-6h-1a1 1 0 1 1 0-2h1zm-11 4h2a1 1 0 1 1 0 2h-2a1 1 0 1 1 0-2zm-29 8a1 1 0 0 1 1 1v2h2a1 1 0 1 1 0 2h-2a1.959 1.959 0 0 1-2-2v-2a1 1 0 0 1 1-1zm30-16a1 1 0 0 1-1-1v-2h-2a1 1 0 1 1 0-2h2a1.959 1.959 0 0 1 2 2v2a1 1 0 0 1-1 1zm-23 20a1 1 0 0 1 1-1h20a1 1 0 1 1 0 2h-20a1 1 0 0 1-1-1zm15-25a1 1 0 1 1 0 2h-20a1 1 0 1 1 0-2h20z" transform="translate(-8 -11)"/>
</svg>
