<svg xmlns="http://www.w3.org/2000/svg" width="51" height="51" viewBox="0 0 51 51">
    <defs>
        <linearGradient id="a" x1="50%" x2="50%" y1="0%" y2="100%">
            <stop offset="0%" stop-color="#EE6174"/>
            <stop offset="100%" stop-color="#F89948"/>
        </linearGradient>
    </defs>
    <path fill="url(#a)" fill-rule="evenodd" d="M49.335 25.394l-5.278-3.042-4.058 4.058a3.076 3.076 0 0 1 1.466 2.619v9.738c0 .383-.071.75-.2 1.09l3.128 3.127 4.956-2.746a.998.998 0 0 1 .966 0l7.172 3.974a.996.996 0 0 1 .513.871v7.947a.996.996 0 0 1-.513.872l-7.172 3.973a.995.995 0 0 1-.966 0l-7.172-3.973a.996.996 0 0 1-.513-.872v-7.947c0-.362.197-.696.513-.871l.403-.223-2.594-2.595a3.057 3.057 0 0 1-1.597.448h-1.407a.996.996 0 1 1 0-1.992h1.407c.598 0 1.084-.486 1.084-1.083v-9.738c0-.597-.486-1.083-1.084-1.083H26.611c-.598 0-1.084.486-1.084 1.083v9.738c0 .597.486 1.083 1.084 1.083h1.407a.996.996 0 1 1 0 1.992H26.61c-.584 0-1.131-.164-1.597-.448L22.42 43.99l.403.223a.996.996 0 0 1 .513.871v7.947a.996.996 0 0 1-.513.872l-7.172 3.973a.995.995 0 0 1-.966 0l-7.172-3.973A.996.996 0 0 1 7 53.03v-7.947c0-.362.196-.696.513-.871l7.172-3.974a.998.998 0 0 1 .966 0l4.956 2.746 3.128-3.128a3.06 3.06 0 0 1-.2-1.09V29.03c0-1.106.587-2.077 1.466-2.62l-4.058-4.057-5.278 3.042a.994.994 0 0 1-.994 0L7.499 21.26A.996.996 0 0 1 7 20.397V12.13c0-.356.19-.685.499-.863l7.172-4.134a.996.996 0 0 1 .994 0l7.172 4.134a.996.996 0 0 1 .499.863v8.267c0 .356-.19.686-.499.863l-.106.062 3.992 3.992V23.92a5.784 5.784 0 0 1 5.777-5.777 5.784 5.784 0 0 1 5.777 5.777v1.394l3.992-3.992-.106-.062a.996.996 0 0 1-.499-.863V12.13c0-.356.19-.685.499-.863l7.172-4.134a.996.996 0 0 1 .994 0l7.172 4.134a.996.996 0 0 1 .499.863v8.267c0 .356-.19.686-.499.863l-7.172 4.134a.995.995 0 0 1-.994 0zm-33.17-8.555v5.969l5.179-2.986v-5.968l-5.18 2.985zm-.997-7.693L9.991 12.13l5.177 2.984 5.177-2.984-5.177-2.984zm-6.176 4.708v5.968l5.18 2.985V16.84l-5.18-2.985zm6.176 28.394l-5.117 2.835 5.117 2.835 5.117-2.835-5.117-2.835zm-6.176 4.526v5.67l5.18 2.87v-5.67l-5.18-2.87zm7.172 8.54l5.18-2.87v-5.67l-5.18 2.87v5.67zm27.492-8.54v5.67l5.18 2.87v-5.67l-5.18-2.87zm7.172 8.54l5.18-2.87v-5.67l-5.18 2.87v5.67zm-.996-13.066l-5.117 2.835 5.117 2.835 5.117-2.835-5.117-2.835zM32.5 20.135a3.79 3.79 0 0 0-3.785 3.785v2.033h7.57V23.92a3.79 3.79 0 0 0-3.785-3.785zm16.336-3.296l-5.18-2.985v5.968l5.18 2.986v-5.969zm1.992 5.969l5.18-2.986v-5.968l-5.18 2.985v5.969zm-.996-13.662l-5.177 2.984 5.177 2.984 5.177-2.984-5.177-2.984zM33.496 31.684a2.993 2.993 0 0 1 1.992 2.817A2.992 2.992 0 0 1 32.5 37.49a2.992 2.992 0 0 1-2.988-2.988c0-1.298.832-2.406 1.992-2.817v-.78a.996.996 0 1 1 1.992 0v.78zm-.996 3.813a.997.997 0 0 0 0-1.992.997.997 0 0 0 0 1.992zm0 4.35c.262 0 .52.105.704.29.185.186.292.442.292.705 0 .262-.107.52-.292.705a1.004 1.004 0 0 1-.704.291c-.262 0-.52-.106-.704-.291a1.007 1.007 0 0 1-.292-.705c0-.262.107-.519.292-.705.185-.185.442-.29.704-.29z" transform="translate(-7 -7)"/>
</svg>
