<svg xmlns="http://www.w3.org/2000/svg" width="51" height="51" viewBox="0 0 51 51">
    <defs>
        <linearGradient id="a" x1="50%" x2="50%" y1="0%" y2="100%">
            <stop offset="0%" stop-color="#EE6174"/>
            <stop offset="100%" stop-color="#F89948"/>
        </linearGradient>
    </defs>
    <path fill="url(#a)" fill-rule="evenodd" d="M51.913 32.743c2.902.612 5.087 3.191 5.087 6.272v2.005c0 .55-.446.996-.996.996h-10.36a.996.996 0 0 1 0-1.992h9.364v-1.01a4.422 4.422 0 0 0-4.418-4.417h-4.714c-1.492 6.56-7.37 11.472-14.376 11.472-4.488 0-8.513-2.016-11.22-5.19L9.125 52.036a1.743 1.743 0 0 0 0 2.462 1.743 1.743 0 0 0 2.462 0l6.265-6.266a.996.996 0 0 1 1.409 1.409l-6.266 6.266a3.722 3.722 0 0 1-2.64 1.091 3.72 3.72 0 0 1-2.639-1.091 3.737 3.737 0 0 1 0-5.28L19.08 39.263a14.66 14.66 0 0 1-1.956-4.665H12.41a4.422 4.422 0 0 0-4.418 4.418v1.01h4.184a.996.996 0 0 1 0 1.991h-5.18A.996.996 0 0 1 6 41.02v-2.005c0-3.08 2.185-5.66 5.087-6.272a4.167 4.167 0 0 1-.714-2.337v-.8a4.196 4.196 0 0 1 4.191-4.19c1.154 0 2.2.468 2.958 1.224 1.963-5.838 7.487-10.055 13.978-10.055 6.49 0 12.015 4.217 13.978 10.055a4.178 4.178 0 0 1 2.958-1.225 4.196 4.196 0 0 1 4.191 4.192v.799c0 .865-.263 1.67-.714 2.337zm-35.15-2.337v-.799c0-1.213-.986-2.2-2.199-2.2-1.213 0-2.2.987-2.2 2.2v.799c0 1.213.987 2.2 2.2 2.2s2.2-.987 2.2-2.2zM31.5 44.077c7.03 0 12.75-5.72 12.75-12.75s-5.72-12.75-12.75-12.75-12.75 5.72-12.75 12.75 5.72 12.75 12.75 12.75zm19.135-13.671v-.799c0-1.213-.987-2.2-2.2-2.2-1.212 0-2.199.987-2.199 2.2v.799c0 1.213.987 2.2 2.2 2.2 1.212 0 2.2-.987 2.2-2.2zM31.5 42.999C25.149 43 20 37.85 20 31.5S25.149 20 31.5 20 43 25.148 43 31.5 37.851 43 31.5 43zm0-2a9.5 9.5 0 1 0 0-19 9.5 9.5 0 0 0 0 19zm3.399-12.789a3.435 3.435 0 0 1-2.45 3.55v.29a.996.996 0 1 1-1.991 0v-.53c0-.793.541-1.467 1.317-1.64a1.461 1.461 0 1 0-1.783-1.426.996.996 0 1 1-1.992-.001c0-.954.4-1.874 1.097-2.525a3.425 3.425 0 0 1 2.6-.92 3.462 3.462 0 0 1 3.202 3.202zm-2.74 6.948c.185.185.291.442.291.704 0 .262-.106.52-.292.705a1.004 1.004 0 0 1-.704.291c-.263 0-.519-.106-.704-.291a1 1 0 0 1 0-1.409c.185-.185.441-.292.704-.292.262 0 .519.107.704.292zm-10.234 10.41c.185.185.291.442.291.704 0 .262-.106.519-.291.704a1.004 1.004 0 0 1-.705.292c-.262 0-.519-.107-.704-.292a1.004 1.004 0 0 1-.292-.704c0-.262.107-.519.292-.704.185-.185.442-.292.704-.292.262 0 .52.107.705.292zM31.52 6c.55 0 .996.446.996.996v3.39a.996.996 0 0 1-1.992 0v-3.39c0-.55.446-.996.996-.996zm.704 6.966c.185.185.292.442.292.704a1.001 1.001 0 0 1-.996.996c-.262 0-.519-.107-.704-.292a1.003 1.003 0 0 1-.292-.704c0-.262.106-.519.292-.704.185-.186.442-.292.704-.292.263 0 .519.106.704.292zm7.74-3.059a.996.996 0 0 1 0 1.41l-1.75 1.75a.993.993 0 0 1-1.409 0 .996.996 0 0 1 0-1.409l1.75-1.75a.996.996 0 0 1 1.41 0zM26.213 11.67a.996.996 0 0 1-1.41 1.409l-1.767-1.768a.996.996 0 0 1 1.409-1.409l1.768 1.768z" transform="translate(-6 -6)"/>
</svg>
