<svg xmlns="http://www.w3.org/2000/svg" width="51" height="51" viewBox="0 0 51 51">
    <defs>
        <linearGradient id="a" x1="50%" x2="50%" y1="0%" y2="100%">
            <stop offset="0%" stop-color="#EE6174"/>
            <stop offset="100%" stop-color="#F89948"/>
        </linearGradient>
    </defs>
    <path fill="url(#a)" fill-rule="evenodd" d="M52.556 46.644C55.639 47.148 58 49.83 58 53.053v2.95c0 .551-.446.997-.996.997H7.996A.996.996 0 0 1 7 56.004v-2.951c0-3.223 2.36-5.905 5.444-6.409a4.563 4.563 0 0 1-.87-2.684v-3.25a3.736 3.736 0 0 1 3.732-3.731h4.452c.55 0 .996.445.996.996v5.985a4.564 4.564 0 0 1-.87 2.683c.681.11 1.337.329 1.948.648a8.475 8.475 0 0 1 6.257-3.73l.03-.007a5.856 5.856 0 0 1-1.5-3.919v-4.416a4.72 4.72 0 0 1 4.715-4.715h6.05c.55 0 .997.446.997.996v8.135a5.856 5.856 0 0 1-1.5 3.919l.03.007a8.475 8.475 0 0 1 6.257 3.73 6.414 6.414 0 0 1 1.947-.648 4.564 4.564 0 0 1-.87-2.683v-3.25a3.736 3.736 0 0 1 3.733-3.731h4.452c.55 0 .996.445.996.996v5.985a4.564 4.564 0 0 1-.87 2.684zm-38.99-5.933v.552h4.117a1.08 1.08 0 0 0 1.079-1.08v-1.212h-3.456c-.96 0-1.74.78-1.74 1.74zm0 2.544v.705a2.6 2.6 0 0 0 2.598 2.598 2.6 2.6 0 0 0 2.598-2.598v-.901c-.336.126-.7.196-1.079.196h-4.117zm3.24 5.295h-1.284l.642.642.642-.642zm3.597 3.443a8.43 8.43 0 0 1 .522-2.928 4.454 4.454 0 0 0-1.36-.456l-2.697 2.696a.996.996 0 0 1-1.408 0l-2.695-2.695a4.51 4.51 0 0 0-3.773 4.443v1.955h11.41v-3.015zm12.097-8.47a3.893 3.893 0 0 0 3.889-3.888v-1.781a3.793 3.793 0 0 1-1.824.465h-5.953v1.316a3.893 3.893 0 0 0 3.888 3.889zm1.736 1.993h-3.472l1.736 1.736 1.736-1.736zm-5.625-10.297v1.107h5.954a1.826 1.826 0 0 0 1.823-1.823v-2.007h-5.054a2.726 2.726 0 0 0-2.722 2.723zm13.994 19.789v-3.015c0-3.278-2.448-5.993-5.61-6.418l-3.79 3.79a.993.993 0 0 1-1.41 0l-3.79-3.79a6.491 6.491 0 0 0-5.537 5.448h6.413a.996.996 0 0 1 0 1.993h-6.486v1.992h20.21zm3.633-14.297v.552h4.117a1.08 1.08 0 0 0 1.079-1.08v-1.212h-3.456c-.96 0-1.74.78-1.74 1.74zm0 2.544v.705a2.6 2.6 0 0 0 2.598 2.598 2.6 2.6 0 0 0 2.598-2.598v-.901c-.336.126-.7.196-1.079.196h-4.117zm3.24 5.295h-1.284l.642.642.642-.642zm-4.88 6.458h11.41v-1.955a4.51 4.51 0 0 0-3.773-4.443l-2.695 2.695a.996.996 0 0 1-1.408 0l-2.697-2.696c-.476.078-.934.231-1.36.456.337.913.522 1.9.522 2.928v3.015zm-7.189-42.5a.996.996 0 0 1 0 1.409l-5.592 5.592a.996.996 0 0 1-1.409 0l-2.817-2.817A.996.996 0 0 1 29 15.283l2.113 2.113L36 12.508a.996.996 0 0 1 1.41 0zm-.836-5.644a10.024 10.024 0 0 1 5.936 9.145c0 5.519-4.49 10.008-10.009 10.008s-10.009-4.49-10.009-10.008c0-3.927 2.314-7.51 5.893-9.126a.996.996 0 0 1 .82 1.816 8.036 8.036 0 0 0-4.72 7.31c0 4.42 3.596 8.016 8.016 8.016s8.016-3.596 8.016-8.016a8.03 8.03 0 0 0-4.755-7.326.996.996 0 1 1 .812-1.82zM32.536 6a.996.996 0 0 1-.005 1.992H32.5A.996.996 0 0 1 32.5 6h.036zm.668 45.315c.186.186.292.443.292.705 0 .262-.107.518-.292.704a1.003 1.003 0 0 1-.704.292c-.262 0-.519-.107-.704-.292a1.003 1.003 0 0 1-.292-.704c0-.262.106-.52.292-.705.185-.185.442-.292.704-.292.262 0 .519.107.704.292z" transform="translate(-7 -6)"/>
</svg>
