<svg xmlns="http://www.w3.org/2000/svg" width="51" height="51" viewBox="0 0 51 51">
    <defs>
        <linearGradient id="a" x1="50%" x2="50%" y1="0%" y2="100%">
            <stop offset="0%" stop-color="#EE6174"/>
            <stop offset="100%" stop-color="#F89948"/>
        </linearGradient>
    </defs>
    <path fill="url(#a)" fill-rule="evenodd" d="M24.101 42.538c4.707.426 8.408 4.394 8.408 9.21v4.256c0 .55-.446.996-.996.996H6.996A.996.996 0 0 1 6 56.004v-4.256c0-4.816 3.7-8.784 8.408-9.21a.995.995 0 0 1 .22-.036 6.365 6.365 0 0 1-1.763-4.4v-4.877a5.108 5.108 0 0 1 5.102-5.102h6.681c.55 0 .996.446.996.996v3.316c0 .096-.004.191-.01.286.006.046.01.092.01.14v5.24a6.366 6.366 0 0 1-1.763 4.401.996.996 0 0 1 .22.036zm-9.244-9.313v1.327h6.677a2.12 2.12 0 0 0 2.118-2.117v-2.32h-5.685a3.114 3.114 0 0 0-3.11 3.11zm0 3.32v1.557a4.403 4.403 0 0 0 4.397 4.397 4.403 4.403 0 0 0 4.398-4.397v-2.147a4.084 4.084 0 0 1-2.118.59h-6.677zm6.565 7.947h-4.336l2.168 2.168 2.168-2.168zm9.095 10.516v-3.26c0-3.69-2.77-6.743-6.337-7.196l-4.221 4.22a.996.996 0 0 1-1.409 0l-4.22-4.22a7.27 7.27 0 0 0-6.301 6.471l-.037 1.993v1.992h22.525zm18.075-34.593C53.3 20.842 57 24.81 57 29.625v4.256c0 .55-.446.996-.996.996H47.67a.996.996 0 1 1 0-1.992h7.338v-3.26c0-3.69-2.769-6.742-6.337-7.196l-4.221 4.22a.993.993 0 0 1-1.409 0l-4.22-4.22c-3.569.454-6.338 3.507-6.338 7.196v3.26h7.019a.996.996 0 1 1 0 1.992h-8.015a.996.996 0 0 1-.996-.996v-4.256c0-4.816 3.7-8.783 8.408-9.21a.998.998 0 0 1 .22-.036 6.366 6.366 0 0 1-1.763-4.4v-4.877A5.108 5.108 0 0 1 42.458 6h6.681c.55 0 .996.446.996.996v3.316c0 .096-.004.191-.01.286.006.046.01.093.01.14v5.241a6.366 6.366 0 0 1-1.763 4.4.997.997 0 0 1 .22.036zm-4.846 4.122l2.168-2.168h-4.336l2.168 2.168zm4.397-10.705a4.085 4.085 0 0 1-2.117.59h-6.678v1.557a4.402 4.402 0 0 0 4.398 4.398 4.403 4.403 0 0 0 4.397-4.398v-2.147zm0-3.52v-2.32h-5.685a3.114 3.114 0 0 0-3.11 3.11v1.327h6.678a2.12 2.12 0 0 0 2.117-2.117zM44.45 33.176c.185.186.292.443.292.705a1 1 0 0 1-1.7.704.998.998 0 0 1 .704-1.7c.262 0 .519.106.704.291zM32.636 19.938a.996.996 0 0 1-.704 1.7h-3.834a4.952 4.952 0 0 1-4.608 3.089H10.98A4.986 4.986 0 0 1 6 19.747V10.98A4.986 4.986 0 0 1 10.98 6h12.51a4.986 4.986 0 0 1 4.98 4.98v4.792l4.166 4.166zm-5.264-.292h2.155L26.77 16.89a.996.996 0 0 1-.292-.704V10.98a2.992 2.992 0 0 0-2.988-2.988H10.98a2.992 2.992 0 0 0-2.988 2.988v8.766a2.992 2.992 0 0 0 2.988 2.988h12.51c1.4 0 2.597-.952 2.91-2.315a.996.996 0 0 1 .972-.773zM52.02 38.273a4.986 4.986 0 0 1 4.98 4.98v8.767A4.986 4.986 0 0 1 52.02 57H39.51a4.986 4.986 0 0 1-4.98-4.98v-4.792l-4.166-4.166a.996.996 0 0 1 .704-1.7h3.834a4.952 4.952 0 0 1 4.608-3.089h12.51zm2.988 13.747v-8.766a2.992 2.992 0 0 0-2.988-2.988H39.51c-1.4 0-2.597.952-2.91 2.315a.996.996 0 0 1-.972.773h-2.155l2.757 2.757c.187.186.292.44.292.704v5.205a2.992 2.992 0 0 0 2.988 2.988h12.51a2.992 2.992 0 0 0 2.988-2.988zm-5.766-7.034a.996.996 0 0 1 0 1.41l-3.352 3.351a.993.993 0 0 1-1.409 0l-1.935-1.935a.996.996 0 0 1 1.408-1.409l1.232 1.231 2.648-2.648a.996.996 0 0 1 1.408 0zM20.763 12.601a3.435 3.435 0 0 1-2.449 3.55v.29a.996.996 0 1 1-1.992 0v-.531c0-.792.542-1.467 1.318-1.64a1.461 1.461 0 1 0-1.783-1.426.996.996 0 1 1-1.992 0c0-.954.4-1.874 1.097-2.525a3.425 3.425 0 0 1 2.599-.92 3.462 3.462 0 0 1 3.202 3.202zm-2.74 6.948c.185.185.292.442.292.704 0 .262-.107.52-.292.704a1.004 1.004 0 0 1-.704.292 1 1 0 0 1-.704-1.7c.185-.185.44-.292.704-.292.262 0 .519.107.704.292z" transform="translate(-6 -6)"/>
</svg>
