<svg xmlns="http://www.w3.org/2000/svg" width="323" height="234" viewBox="0 0 323 234">
    <g fill="none" fill-rule="evenodd">
        <rect width="290.23" height="125.98" x=".38" y="89.47" fill="#F2F6FC" rx="3"/>
        <path fill="#E8F0FC" d="M308.1 232c5.89-1 6.67-3 2.39-3.9-4.28-.9-45.95-4-47.68.18-2.21 5.29 12.49 2 17.46 3.38 4.97 1.38 11.33 2.65 14.32 1.35 2.99-1.3 10.48-.51 13.51-1.01z"/>
        <path fill="#B3C7F4" d="M278.1 183c-5 6.49-6.28 8.21-7.52 17.51-.8 6 .3 9.57 3.27 13.31 7.66 9.66 25.2 5.72 30.11-5 1.43-3.12 1.16-10.61-.4-16-1.27-4.44-5-10.35-5-10.35l-20.46.53z"/>
        <path fill="#1323A4" d="M293.52 216.12c-.76 1.64 1.63 2.82 2.89 3 1.26.18 4.51-.29 5-2.25.49-1.96 1.36-5.42-.59-5.2-1.95.22-7 3.78-7.3 4.45z"/>
        <path fill="#D3DCFF" d="M291.36 218.88c8.13-4.39 9.56-6.15 11.25-6.42 1.69-.27 1.25 2.61.31 6s-3.73 11.54-4.51 12.07c-.78.53-3 .95-3.8-.23-1.28-1.74-3.5-8.46-3.25-11.42z"/>
        <circle cx="288.58" cy="197.99" r="6.2" fill="#233FE1"/>
        <ellipse cx="272.823" cy="191.732" fill="#1323A4" rx="3.5" ry="1.57" transform="rotate(-56.41 272.823 191.732)"/>
        <path fill="#D3DCFF" d="M270.07 188.42c1-.19 3.1-.62 3.1 3.62 0 4.48-5.48 8.55-8.37 11 .47 1.82.09 4-1.2 4-.9 0-1.2-1.1-1.86-1.86-1.69.57-4.55.73-5.51-.63-1.69-2.39 7.93-15 13.84-16.13z"/>
        <path fill="#233FE1" d="M259.92 196.57a49.43 49.43 0 0 1 7.81 3.84c-.4.39-.8.77-1.19 1.12a54.33 54.33 0 0 0-7.61-3.64c.32-.44.64-.89.99-1.32zM264.77 174.56h-2.52c-1.8 0-3.27-3.56-3.27-8 0-4.44 1.47-8 3.27-8h2.52v16z"/>
        <path fill="#1323A4" d="M266.83 174.56h-2.52c-1.8 0-3.27-3.56-3.27-8 0-4.44 1.47-8 3.27-8h2.52v16z"/>
        <path fill="#233FE1" d="M317.47 160.31l2.51.18c1.8.13 3 3.79 2.68 8.18-.32 4.39-2 7.83-3.84 7.7l-2.51-.18 1.16-15.88z"/>
        <path fill="#1323A4" d="M315.41 160.16l2.51.18c1.8.13 3 3.79 2.68 8.18-.32 4.39-2 7.83-3.84 7.7l-2.51-.18 1.16-15.88z"/>
        <path fill="#B3C7F4" d="M264.91 151.14c-2.7 3.14-2 25.55-1.3 27.22.34.86 13.26 6.48 24.26 6.49 12.22 0 26.77-2.95 27.5-3.53 2.67-2.13 2.87-26.48 1.94-28-.54-.93-17.13-6.06-26.11-6-11.49-.02-25.2 2.52-26.29 3.82z"/>
        <path fill="#1323A4" d="M270.93 157.16s-.65 16.76-.65 17.5c0 .74 12.77 4.25 17.31 4.53a172.53 172.53 0 0 0 20.37-.65c.56-.18 4.26-14.25 4-14.81-.26-.56-14.39-5.56-21.53-6.17-3.43-.3-18.43-1.14-19.5-.4zM277.377 142.526l1.218-.172 1.134 8.019-1.218.172z"/>
        <path fill="#1323A4" d="M280.28 140.86a2.24 2.24 0 0 1-4.41.34c-.08-1 .76-2.56 2-2.65a2.66 2.66 0 0 1 2.41 2.31zM281.58 150.68c.08.59-.82.93-2 1.11-1.18.18-2.16-.1-2.25-.63a2.06 2.06 0 0 1 1.81-2.2 2.09 2.09 0 0 1 2.44 1.72z"/>
        <path fill="#FFF" d="M284.72 169.7c0 3.56-1.8 6-4.72 6a6 6 0 0 1-5.86-6c0-3.55 2.37-6.43 5.29-6.43s5.29 2.88 5.29 6.43zM304 171.14c0 3.32-3.67 6-7.22 6s-5.64-2.7-5.64-6a6.44 6.44 0 0 1 12.86 0z"/>
        <ellipse cx="276.653" cy="168.197" fill="#0B196D" rx="2.1" ry="2.55" transform="rotate(-8.11 276.653 168.197)"/>
        <ellipse cx="294.229" cy="169.452" fill="#0B196D" rx="2.55" ry="2.1" transform="rotate(-83.12 294.229 169.452)"/>
        <path fill="#1323A4" d="M304.585 137.883l1.32.232-2.112 12.036-1.32-.232z"/>
        <path fill="#1323A4" d="M308.75 137a3.262 3.262 0 1 1-6.34-1.54c.42-1.71 2.37-3.81 4.12-3.39 1.75.42 2.63 3.22 2.22 4.93zM306.23 152.07c-.15.83-1.66.87-3.51.57-1.85-.3-3.23-1.15-3.12-1.9.21-1.36 1.93-2.4 3.77-2.1a3.15 3.15 0 0 1 2.86 3.43z"/>
        <path fill="#37B586" d="M121.93 40.64l-8.91-17.13 8.91-17.13 8.91 17.13z"/>
        <path fill="#D3DCF9" d="M78.26 117.75h-50.6a2.63 2.63 0 0 1-2.8-2.44V71.18a2.63 2.63 0 0 1 2.8-2.44h50.6a2.64 2.64 0 0 1 2.8 2.44v44.13a2.64 2.64 0 0 1-2.8 2.44z"/>
        <path fill="#0F247C" fill-rule="nonzero" d="M35.48 103.93a7 7 0 0 1-1.78-5.12V87.68a7 7 0 0 1 1.79-5.13 8.33 8.33 0 0 1 10.41 0 7 7 0 0 1 1.78 5.14v11.13a7 7 0 0 1-1.79 5.13 8.33 8.33 0 0 1-10.41 0v-.02zm7.9-2.38a4 4 0 0 0 .86-2.74V87.68a3.93 3.93 0 0 0-.86-2.74 4.28 4.28 0 0 0-5.38 0 3.93 3.93 0 0 0-.86 2.74v11.13a4 4 0 0 0 .86 2.74 4.28 4.28 0 0 0 5.38 0zM53 90.38a4.47 4.47 0 0 1-1.06-3.17V85.1A4.43 4.43 0 0 1 53 81.93a4.56 4.56 0 0 1 6 0 4.49 4.49 0 0 1 1.06 3.21v2.07a4.45 4.45 0 0 1-1.07 3.18 4 4 0 0 1-3 1.13A3.91 3.91 0 0 1 53 90.38zM67.1 81h3l-13.3 24.48h-3L67.1 81zm-10.21 7.43a1.6 1.6 0 0 0 .34-1.09V84.9a1.49 1.49 0 0 0-.34-1 1.33 1.33 0 0 0-1.86 0 1.53 1.53 0 0 0-.33 1.06v2.45a1.61 1.61 0 0 0 .33 1.1c.519.5 1.341.5 1.86 0v-.08zm8.23 16.17a4.52 4.52 0 0 1-1.06-3.18v-2.1a4.52 4.52 0 0 1 1.06-3.18 4.59 4.59 0 0 1 6 0 4.52 4.52 0 0 1 1.06 3.21v2.07a4.49 4.49 0 0 1-1.06 3.19 4.6 4.6 0 0 1-6 0v-.01zm3.95-1.92a1.61 1.61 0 0 0 .33-1.09v-2.47a1.54 1.54 0 0 0-.33-1.05 1.37 1.37 0 0 0-1.87 0 1.6 1.6 0 0 0-.32 1.06v2.46a1.68 1.68 0 0 0 .32 1.1c.246.252.588.387.94.37a1.21 1.21 0 0 0 .93-.35v-.03z"/>
        <path fill="#1323A4" d="M50.22 165.31h34.84v10H50.22a4.53 4.53 0 0 1-4.53-4.53v-1a4.53 4.53 0 0 1 4.53-4.47z"/>
        <path fill="#B3C7F4" d="M104.54 229.82h114.94l35.37-92a3.44 3.44 0 0 0-3.22-4.68H141.72l-37.18 96.68z"/>
        <rect width="113.28" height="148.92" x="106.2" y="67.71" fill="#F27762" rx="6"/>
        <rect width="104.16" height="139.41" x="110.76" y="72.46" fill="#FFF" rx="3"/>
        <rect width="79.57" height="45.01" x="123.79" y="143.8" fill="#D3DCF9" rx="3"/>
        <rect width="79.57" height="6.44" x="123.79" y="127.62" fill="#D3DCF9" rx="2.87"/>
        <path fill="#B3C7F4" d="M219.48 229.82H104.54l-29.31-74.65a3.55 3.55 0 0 1 3.31-4.86h107.29a3.54 3.54 0 0 1 3.31 2.26l30.34 77.25z"/>
        <path fill="#E8F0FC" d="M217.17 229.82H102.23l-29.31-74.65a3.56 3.56 0 0 1 3.31-4.86h107.29a3.56 3.56 0 0 1 3.32 2.26l30.33 77.25z"/>
        <rect width="16.66" height="16.66" x="70.11" y="40.29" fill="#F27762" rx="2"/>
        <rect width="10.46" height="10.46" x="71.63" y="210.23" fill="#F27762" rx="2"/>
        <rect width="17.3" height="17.3" x="95.97" y="117.75" fill="#325BEE" rx="2"/>
        <path fill="#1323A4" d="M280.34 215.17c.85 1.59-.66 2.61-1.92 2.91-1.26.3-5.25-.36-5.88-2.29-.63-1.93-.84-5 .39-4.83 1.95.21 7.07 3.56 7.41 4.21z"/>
        <path fill="#D3DCFF" d="M271.93 211.33c-1.67-.16-1.49 3.72-1 7.3a31.23 31.23 0 0 0 2.08 7.13 14.08 14.08 0 0 0 2.49 4.39c.73.64 3 .77 3.67-.47a10.27 10.27 0 0 0 .79-2.21c.8-3.05 1.45-7.92 1-10.14-8.39-2.33-7.35-5.84-9.03-6zM297.86 182.17c-.44-.36-.9-.73-1.37-1.09a9.15 9.15 0 0 0 .56-2.06c.13-1.15-.16-1.75-1.17-1.86-.75-.07-1.38.55-1.81 2.18-1.88-1.22-3.59-2-4.38-1.38-3.72 2.79 2 11 4.14 13.32 3 3.35 6.49 6 7.63 6.2 2 .36 5-2.33 5.16-3.82.26-2.94-5.18-8.53-8.76-11.49z"/>
        <path fill="#233FE1" d="M290.6 186.76c.22.51.62.9.85 1.38a41.88 41.88 0 0 0 7.36-5.18l-.95-.79-.3-.24a44.86 44.86 0 0 1-6.96 4.83z"/>
        <rect width="46.97" height="4.6" x="137.635" y="70.695" fill="#0F247C" rx="2" transform="rotate(90 161.12 72.995)"/>
        <rect width="11.69" height="4.6" x="155.275" y="109.315" fill="#0F247C" rx="2" transform="rotate(90 161.12 111.615)"/>
        <rect width="46.97" height="4.6" x="159.415" y="50.965" fill="#0F247C" rx="2" transform="rotate(90 182.9 53.265)"/>
        <rect width="25.48" height="4.6" x="170.16" y="96.49" fill="#0F247C" rx="2" transform="rotate(90 182.9 98.79)"/>
        <circle cx="54.7" cy="145.1" r="4.17" fill="#37B586"/>
        <path fill="#D5DDEB" d="M126.46 196.79l-19.84-19.85v6.34H84.14l10.6 27.01h11.88v6.34z"/>
        <path fill="#233FE1" d="M63.32 202.33h48.12v6.34l19.84-19.85L111.44 169v6.34h-59.5a7.54 7.54 0 0 1-6.7-4.09l15.13 29.31a3.32 3.32 0 0 0 2.95 1.77z"/>
        <path fill="#D5DDEB" d="M212.84 67.71h-14v35.53a3.32 3.32 0 0 0 3.32 3.32h17.31V74.34a6.63 6.63 0 0 0-6.63-6.63z"/>
        <path fill="#DD685F" d="M236.58.85h18.93a5.21 5.21 0 0 1 5.21 5.21v39.72a.86.86 0 0 1-.86.86h-23.28a.86.86 0 0 1-.86-.86V1.71a.86.86 0 0 1 .86-.86z"/>
        <rect width="65.92" height="65.92" x="203.36" y="34.29" fill="#233FE1" rx="3"/>
        <rect width="54.24" height="55.58" x="209.2" y="39.46" fill="#FFF" rx="2"/>
        <path fill="#F27762" d="M223.08 7.42v47h-6.33l19.84 19.84 19.84-19.84h-6.33V7.56a7.54 7.54 0 0 1 4.08-6.71h-24.53a6.57 6.57 0 0 0-6.57 6.57z"/>
        <path fill="#DD685F" d="M198.85 67.71h4.51v4.75h-4.51zM214.92 100.2h4.51v6.35h-4.51z"/>
        <path fill="#37B586" d="M201.47 218.2h-22.78l-9.3-22.32h22.78z"/>
    </g>
</svg>
