<svg xmlns="http://www.w3.org/2000/svg" width="26" height="24" viewBox="0 0 26 24">
    <path fill="#11223E" fill-rule="evenodd" d="M20.814 23.79a1 1 0 0 1-1.216-1.588 11.184 11.184 0 0 0 2.181-2.217A11.315 11.315 0 0 0 24 13.222C24 7.02 19.071 2 13 2S2 7.02 2 13.222c0 2.479.788 4.832 2.223 6.765.623.84 1.359 1.588 2.185 2.22a1 1 0 1 1-1.215 1.588 13.184 13.184 0 0 1-2.576-2.616A13.314 13.314 0 0 1 0 13.222C0 5.924 5.816 0 13 0s13 5.924 13 13.222c0 2.91-.927 5.679-2.614 7.954-.733.988-1.6 1.87-2.572 2.614zm-4.157-13.083a1 1 0 0 1 0 1.414l-3.536 3.536a1 1 0 1 1-1.414-1.414l3.536-3.536a1 1 0 0 1 1.414 0z"/>
</svg>
