<svg xmlns="http://www.w3.org/2000/svg" width="24" height="24" viewBox="0 0 24 24">
    <path fill="#FFF" fill-rule="nonzero" d="M5.396 19.509A9.962 9.962 0 0 0 12 22c2.531 0 4.843-.94 6.604-2.491A3.002 3.002 0 0 0 16 18H8c-1.097 0-2.08.594-2.604 1.509zm-1.397-1.51A5 5 0 0 1 8 16h8a5 5 0 0 1 4 2 9.956 9.956 0 0 0 2-6c0-5.523-4.477-10-10-10S2 6.477 2 12c0 2.251.744 4.328 2 6zM12 24C5.373 24 0 18.627 0 12S5.373 0 12 0s12 5.373 12 12-5.373 12-12 12zm0-9a5 5 0 1 1 0-10 5 5 0 0 1 0 10zm0-2a3 3 0 1 0 0-6 3 3 0 0 0 0 6z" opacity=".3"/>
</svg>
