<svg xmlns="http://www.w3.org/2000/svg" width="22" height="22" viewBox="0 0 22 22">
    <g fill="none" fill-rule="evenodd">
        <path d="M-2.997-3h28v28h-28z"/>
        <path fill="#006FEE" fill-rule="nonzero" d="M6.889 11A4.116 4.116 0 0 1 11 6.89 4.115 4.115 0 0 1 15.11 11 4.115 4.115 0 0 1 11 15.113 4.116 4.116 0 0 1 6.889 11zm13.577-5.426a.18.18 0 0 1-.157.092h-8.828l-.015-.001a5.356 5.356 0 0 0-5.653 3.998.18.18 0 0 1-.33.045L2.385 4.344a.18.18 0 0 1 .015-.202A10.952 10.952 0 0 1 11 0a10.992 10.992 0 0 1 9.464 5.392.18.18 0 0 1 .002.181zm-7.84 10.65a.18.18 0 0 1 .013.202L9.542 21.79a.18.18 0 0 1-.183.088A10.998 10.998 0 0 1 0 11c0-1.89.488-3.755 1.411-5.393a.18.18 0 1 1 .313-.002l4.418 7.65a5.384 5.384 0 0 0 4.858 3.1c.486.001.969-.065 1.435-.194a.18.18 0 0 1 .19.063zm8.449-9.355a.18.18 0 0 1 .168.114c.502 1.28.757 2.632.757 4.018 0 2.916-1.13 5.664-3.181 7.736A10.933 10.933 0 0 1 11.125 22h-.002a.18.18 0 0 1-.156-.27l4.425-7.664A5.318 5.318 0 0 0 16.357 11a5.315 5.315 0 0 0-1.61-3.823.18.18 0 0 1 .127-.31h6.2z"/>
    </g>
</svg>
