<svg xmlns="http://www.w3.org/2000/svg" width="18" height="18" viewBox="0 0 18 18">
    <path fill="#FFF" fill-rule="evenodd" d="M8.14 11.217L1.357 18 0 16.643 6.783 9.86 3.731 6.807a2.398 2.398 0 0 1 0-3.391L6.444.702a2.398 2.398 0 0 1 3.392 0l3.052 3.053 2.035-2.035 1.357 1.357-2.035 2.035 3.053 3.052a2.398 2.398 0 0 1 0 3.392l-2.714 2.713a2.398 2.398 0 0 1-3.391 0L8.14 11.217zm.34-9.158a.48.48 0 0 0-.68 0L5.089 4.772a.48.48 0 0 0 0 .679l7.461 7.461a.48.48 0 0 0 .679 0L15.94 10.2a.48.48 0 0 0 0-.678L8.479 2.059zm1.017 1.018l1.356 1.356-3.391 3.392-1.357-1.357 3.392-3.391zm4.07 4.07l1.356 1.356-3.391 3.392-1.357-1.357 3.392-3.391z"/>
</svg>
