<svg xmlns="http://www.w3.org/2000/svg" width="18" height="18" viewBox="0 0 18 18">
    <path fill="#FFF" fill-rule="evenodd" d="M6.783 8.14L0 1.357 1.357 0 8.14 6.783l3.053-3.052a2.398 2.398 0 0 1 3.391 0l2.714 2.713a2.398 2.398 0 0 1 0 3.392l-3.053 3.052 2.035 2.035-1.357 1.357-2.035-2.035-3.052 3.053a2.398 2.398 0 0 1-3.392 0l-2.713-2.714a2.398 2.398 0 0 1 0-3.391L6.783 8.14zm9.158.34a.48.48 0 0 0 0-.68l-2.713-2.712a.48.48 0 0 0-.679 0l-7.461 7.461a.48.48 0 0 0 0 .679L7.8 15.94a.48.48 0 0 0 .678 0l7.462-7.462zm-1.018 1.017l-1.356 1.356-3.392-3.391 1.357-1.357 3.391 3.392zm-4.07 4.07l-1.356 1.356-3.392-3.391 1.357-1.357 3.391 3.392z"/>
</svg>
