<svg xmlns="http://www.w3.org/2000/svg" xmlns:xlink="http://www.w3.org/1999/xlink" width="22" height="22" viewBox="0 0 22 22">
    <defs>
        <rect id="a" width="22" height="22" rx="5"/>
    </defs>
    <g fill="none" fill-rule="evenodd">
        <mask id="b" fill="#fff">
            <use xlink:href="#a"/>
        </mask>
        <use fill="#b5b5b5" opacity=".4" xlink:href="#a"/>
        <g fill="#FFF" mask="url(#b)">
            <g transform="translate(5 6)">
                <ellipse cx="5.975" cy="2.412" fill-rule="nonzero" opacity=".6" rx="4.426" ry="2.412"/>
                <path d="M.689.65C.719.586.796.581.857.576c.126.01.243.071.32.169.21.228.433.44.637.673.111.122.232.234.361.337.383.374.793.72 1.227 1.036a5.358 5.358 0 0 0 2.168.99c.361.05.728.05 1.09 0 .305-.053.604-.141.89-.262a6.858 6.858 0 0 0 1.913-1.298c.24-.228.468-.46.708-.684.24-.223.433-.54.697-.792a.374.374 0 0 1 .382-.09c.05 0 .056.09.081.134.132.405.24.817.326 1.234.046.347.142.683.168 1.035.062.328.102.659.117.991.07.533.07 1.073 0 1.606a2.74 2.74 0 0 1-.112.64 4.43 4.43 0 0 1-1.995 2.759 4.12 4.12 0 0 1-1.094.45 1.228 1.228 0 0 1-.611.065.574.574 0 0 1-.423-.525v-.798a3.732 3.732 0 0 0-.07-.951 1.769 1.769 0 0 0-.729-1.15 1.559 1.559 0 0 0-1.247-.243c-.385.084-.727.3-.962.61A2.44 2.44 0 0 0 4.282 7.7v1.204a.713.713 0 0 1-.056.357.589.589 0 0 1-.463.317 2.638 2.638 0 0 1-.753-.149 4.195 4.195 0 0 1-1.568-.951 4.505 4.505 0 0 1-1.241-2.1c-.03-.15-.072-.288-.102-.437a6.895 6.895 0 0 1-.041-1.774c0-.183 0-.367.035-.55a6.6 6.6 0 0 0 .102-.728c.016-.233.092-.46.123-.689.03-.228.106-.475.106-.708C.494 1.207.583.925.69.65z"/>
            </g>
        </g>
    </g>
</svg>
