<svg xmlns="http://www.w3.org/2000/svg" width="22" height="21" viewBox="0 0 22 21">
    <g fill="none" fill-rule="evenodd" opacity=".4">
        <path d="M-2.997-4h28v28h-28z"/>
        <path fill="#11223E" fill-rule="nonzero" d="M21.781 6.825a.18.18 0 0 0-.191.104l-.246.545c-.094-.716-.267-1.87-.496-2.625a5.055 5.055 0 0 0-1.12-1.948.18.18 0 0 0-.304.166l.192.862c-.46-.481-1.2-1.171-1.932-1.508a12.56 12.56 0 0 0-.511-.232A8.64 8.64 0 0 0 11.43 0a8.616 8.616 0 0 0-7.302 4.002 1.6 1.6 0 0 1-.485-.644c-.22-.542-.332-1.15-.334-1.156a.18.18 0 0 0-.302-.098c-1.325 1.27-1.193 3.25-1.144 3.7A9.755 9.755 0 0 0 .766 7.247C.184 8.18.008 9.81.001 9.878a.18.18 0 0 0 .31.143l.388-.41a7.926 7.926 0 0 0-.124.536c-.175.864-.124 2.204-.122 2.26a.18.18 0 0 0 .344.07l.228-.483c.168 1.176.814 3.678 3.29 5.982 1.834 1.709 4.385 2.689 6.998 2.689 2.537 0 4.932-.907 6.927-2.624 2.358-2.031 3.236-4.932 3.558-7.008.347-2.241.144-3.979.135-4.051a.18.18 0 0 0-.152-.157zm-4.026.065c.003.003.247.324.3 1.145.037.614-.089 1.597-.168 2.134l-.48-.557a.18.18 0 0 0-.316.14c.001.013.165 1.401-.11 2.608a3.85 3.85 0 0 1-.51 1.243l.067-.909a.18.18 0 0 0-.344-.087c-.008.018-.84 1.806-3.122 2.514a3.384 3.384 0 0 1-.997.147c-1.215 0-2.32-.62-2.946-1.055.054.002.107.004.16.004.898 0 1.587-.387 2.142-.697.145-.082.283-.159.415-.224.797-.4 1.167-.435 1.452-.435.15 0 .266-.087.302-.229.09-.346-.327-.964-.842-1.247a1.73 1.73 0 0 0-.859-.204c-.526 0-1.178.166-2.112.419-.171.046-.34.069-.503.069-.572 0-.95-.277-1.168-.51-.291-.312-.457-.725-.433-1.077.011-.16.074-.325.456-.325.34 0 .716.14.72.141a.18.18 0 0 0 .063.012h.002a.18.18 0 0 0 .178-.21l-.05-1.579c.182-.116.617-.398 1.036-.703 1.014-.737 1.15-1.018 1.041-1.232-.144-.292-.522-.34-.96-.394-.25-.031-.534-.067-.79-.152-.535-.177-.887-.639-.967-.752-.017-.095-.057-.415.1-.688.17-.298.757-.76.97-.913a.18.18 0 0 0-.087-.326c-.018-.002-.557-.055-1.437.236-.716.24-1.272.629-1.463.773a5.273 5.273 0 0 0-.457-.062 7.176 7.176 0 0 1 5.392-2.432c1.522 0 2.96.463 4.184 1.343l-1.212.203a.18.18 0 0 0-.024.35c.016.005 1.63.515 2.835 1.444.268.21.513.481.729.808.201.43.358.875.47 1.326l-.406-.315a.18.18 0 0 0-.251.255z"/>
    </g>
</svg>
