<svg xmlns="http://www.w3.org/2000/svg" width="22" height="22" viewBox="0 0 22 22">
    <g fill="none" fill-rule="evenodd">
        <path d="M-2.997-3h28v28h-28z"/>
        <path fill="#989494" fill-rule="nonzero" d="M11 0c6.197 0 11 4.54 11 10.67 0 6.131-4.803 10.67-11 10.67-1.113 0-2.182-.146-3.185-.422a.878.878 0 0 0-.586.044l-2.183.963a.882.882 0 0 1-1.235-.78l-.06-1.956a.886.886 0 0 0-.296-.626C1.315 16.648 0 13.877 0 10.67 0 4.54 4.803 0 11 0zM4.396 13.79c-.313.492.294 1.048.757.696l3.472-2.636a.66.66 0 0 1 .795-.002l2.57 1.927c.77.578 1.872.374 2.385-.44l3.23-5.124c.311-.491-.295-1.047-.758-.695l-3.47 2.634a.66.66 0 0 1-.795.002l-2.57-1.927a1.652 1.652 0 0 0-2.385.44l-3.231 5.126z"/>
    </g>
</svg>
