<svg xmlns="http://www.w3.org/2000/svg" width="25" height="17" viewBox="0 0 25 17">
    <path fill="#FFF" fill-rule="nonzero" d="M22 7h-2V3a1 1 0 0 0-1-1H3a1 1 0 0 0-1 1v8a1 1 0 0 0 1 1h12v2H3a3 3 0 0 1-3-3V3a3 3 0 0 1 3-3h16a3 3 0 0 1 3 3v4zM11 9a2 2 0 1 1 0-4 2 2 0 0 1 0 4zm-2.629 1H3.664V8.794c2.601-1.881 3.087-2.295 3.087-2.889 0-.414-.387-.63-.827-.63-.667 0-1.17.252-1.603.657l-.854-1.026c.639-.702 1.592-.999 2.43-.999 1.412 0 2.43.792 2.43 1.998 0 .918-.658 1.701-2.152 2.745h2.196V10zM16 9a2 2 0 1 1 0-4 2 2 0 0 1 0 4zm5.182 2.768L22.95 10l1.414 1.414-1.768 1.768 1.768 1.768-1.414 1.414-1.768-1.768-1.768 1.768L18 14.95l1.768-1.768L18 11.414 19.414 10l1.768 1.768z"/>
</svg>
