<svg xmlns="http://www.w3.org/2000/svg" width="20" height="20" viewBox="0 0 20 20">
    <path fill="#11223E" fill-rule="nonzero" d="M10 20C4.477 20 0 15.523 0 10S4.477 0 10 0s10 4.477 10 10-4.477 10-10 10zm0-2a8 8 0 1 0 0-16 8 8 0 0 0 0 16zm3.977-7.755s.023.31.023.422a4.005 4.005 0 0 1-3.988 4H10a4.005 4.005 0 0 1-3.995-4.227C6.07 8.17 7.189 7.6 7.236 7.578a.221.221 0 0 1 .317.169c.003.014.208 1.37 1.114 1.564.004-.584.03-1.468.229-2.254.286-1.13 1.104-2.313 2.086-3.015a.223.223 0 0 1 .352.18c0 1.038.522 1.741 1.127 2.556.653.88 1.394 1.876 1.516 3.467zM10 14.222c.735 0 1.333-.637 1.333-1.42 0-.042-.002-.08-.005-.118-.047-.644-.313-1.022-.57-1.388-.18-.255-.364-.517-.458-.84-.212.249-.38.56-.45.852-.079.33-.085.694-.085 1.01 0 .123-.1.223-.222.223-.375 0-.605-.255-.734-.532-.069.15-.132.376-.14.706-.003.033-.002.06-.002.087 0 .783.598 1.42 1.333 1.42z"/>
</svg>
