<svg xmlns="http://www.w3.org/2000/svg" width="22" height="20" viewBox="0 0 22 20">
    <g fill="none" fill-rule="evenodd" opacity=".4">
        <path d="M-2.997-4h28v28h-28z"/>
        <path fill="#ffffff" fill-rule="nonzero" d="M11 0c6.075 0 11 4.102 11 9.162 0 5.06-4.925 9.162-11 9.163a13.06 13.06 0 0 1-3.112-.38c-1.31.869-2.839 1.47-4.467 1.755.84-.812 1.49-1.722 1.923-2.692C2.034 15.355.005 12.378 0 9.162 0 4.102 4.925 0 11 0zM5.006 11.613c1.206 0 1.881-.603 1.881-1.395 0-1.755-2.574-1.215-2.574-1.863 0-.243.27-.432.684-.432.531 0 1.026.225 1.287.504l.459-.783a2.777 2.777 0 0 0-1.755-.594c-1.143 0-1.782.639-1.782 1.368 0 1.71 2.583 1.125 2.583 1.845 0 .27-.234.468-.729.468-.54 0-1.188-.297-1.503-.594l-.495.801c.459.423 1.188.675 1.944.675zm9.27-.108V8.364c0-.891-.477-1.314-1.278-1.314-.666 0-1.242.396-1.494.792-.162-.495-.567-.792-1.206-.792-.666 0-1.242.414-1.422.675v-.567H7.733v4.347h1.143V8.58c.171-.243.504-.513.9-.513.468 0 .648.288.648.693v2.745h1.152V8.571c.162-.234.495-.504.9-.504.468 0 .648.288.648.693v2.745h1.152zm2.691.108c1.206 0 1.881-.603 1.881-1.395 0-1.755-2.574-1.215-2.574-1.863 0-.243.27-.432.684-.432.531 0 1.026.225 1.287.504l.459-.783a2.777 2.777 0 0 0-1.755-.594c-1.143 0-1.782.639-1.782 1.368 0 1.71 2.583 1.125 2.583 1.845 0 .27-.234.468-.729.468-.54 0-1.188-.297-1.503-.594l-.495.801c.459.423 1.188.675 1.944.675z"/>
    </g>
</svg>
