<svg xmlns="http://www.w3.org/2000/svg" width="172" height="40" viewBox="0 0 172 40">
    <g fill="none" fill-rule="evenodd" fill-opacity="1">
        <g>
            <rect width="40" height="40" fill="#006FEE" rx="8"/>
            <g fill="#FFF">
                <path fill-rule="nonzero" d="M18.474 10.229a13.096 13.096 0 0 1 3.104 0 12.286 12.286 0 0 1 6.21 2.578c.206.164.36.4.61.503-.487.462-.952.945-1.438 1.417a13.928 13.928 0 0 1-3.809 2.692 8.326 8.326 0 0 1-1.77.534 8.03 8.03 0 0 1-2.214 0 10.82 10.82 0 0 1-4.408-2.055 22.451 22.451 0 0 1-2.495-2.147 6.747 6.747 0 0 1-.734-.697l.206.143a11.43 11.43 0 0 1 5.65-2.804c.356-.093.72-.148 1.088-.164z" opacity=".599"/>
                <path d="M9.2 11.422c.063-.134.219-.144.343-.154a.92.92 0 0 1 .651.35c.425.472.88.913 1.294 1.396.227.25.472.484.735.698a22.416 22.416 0 0 0 2.494 2.146 10.8 10.8 0 0 0 4.408 2.055 7.96 7.96 0 0 0 2.215 0 8.346 8.346 0 0 0 1.811-.544 13.935 13.935 0 0 0 3.891-2.692c.486-.472.952-.955 1.438-1.417.487-.462.88-1.12 1.418-1.643a.75.75 0 0 1 .777-.185c.103 0 .114.185.165.278.267.84.488 1.693.663 2.556.092.72.289 1.418.34 2.147.128.679.208 1.365.24 2.055a12.858 12.858 0 0 1 0 3.328 5.78 5.78 0 0 1-.229 1.325 9.175 9.175 0 0 1-4.057 5.72 8.29 8.29 0 0 1-2.224.934c-.396.151-.824.198-1.242.134a1.185 1.185 0 0 1-.86-1.088v-1.654a7.882 7.882 0 0 0-.144-1.972 3.675 3.675 0 0 0-1.48-2.383 3.12 3.12 0 0 0-2.536-.503 3.337 3.337 0 0 0-1.956 1.263 5.12 5.12 0 0 0-.848 2.465v2.496c.025.252-.015.506-.114.74-.18.363-.535.61-.94.656a5.274 5.274 0 0 1-1.533-.307 8.502 8.502 0 0 1-3.187-1.973 9.378 9.378 0 0 1-2.525-4.354c-.062-.308-.145-.596-.207-.904a14.569 14.569 0 0 1-.083-3.677c0-.38 0-.76.072-1.14.073-.38.176-1.027.207-1.51.032-.483.186-.955.249-1.428.062-.472.217-.985.217-1.468.142-.593.321-1.177.538-1.746z"/>
            </g>
        </g>
        <path fill="#FFF" fill-rule="nonzero" d="M72.112 16.768H68.85v1.764h3.08v2.324h-3.08v1.82h3.262V25h-6.006V14.444h6.006v2.324zM76.61 25l1.792-10.556h2.716l2.114 5.628 2.1-5.628h2.716L89.84 25h-2.73l-.91-6.076L83.708 25h-1.092l-2.366-6.076L79.34 25h-2.73zm20.71-5.712h.91c1.008 0 1.512-.439 1.512-1.316s-.504-1.316-1.512-1.316h-.91v2.632zm0 5.712h-2.744V14.444h4.368c1.185 0 2.093.308 2.723.924.63.616.945 1.484.945 2.604s-.315 1.988-.945 2.604c-.63.616-1.538.924-2.723.924H97.32V25zm12.142-5.278c0 .42.08.807.238 1.162a2.91 2.91 0 0 0 1.589 1.533c.36.145.74.217 1.141.217a3.026 3.026 0 0 0 2.093-.826c.275-.261.492-.57.651-.924.159-.355.238-.742.238-1.162 0-.42-.08-.807-.238-1.162a2.883 2.883 0 0 0-.651-.924 3.026 3.026 0 0 0-2.093-.826c-.401 0-.782.072-1.141.217a2.91 2.91 0 0 0-1.589 1.533 2.813 2.813 0 0 0-.238 1.162zm-2.87 0c0-.784.145-1.514.434-2.191.29-.677.69-1.267 1.204-1.771a5.501 5.501 0 0 1 1.841-1.183c.714-.285 1.5-.427 2.359-.427.85 0 1.633.142 2.352.427a5.563 5.563 0 0 1 1.855 1.183 5.414 5.414 0 0 1 1.211 1.771c.29.677.434 1.407.434 2.191 0 .784-.145 1.514-.434 2.191a5.414 5.414 0 0 1-1.211 1.771 5.563 5.563 0 0 1-1.855 1.183 6.33 6.33 0 0 1-2.352.427c-.859 0-1.645-.142-2.359-.427a5.501 5.501 0 0 1-1.841-1.183 5.467 5.467 0 0 1-1.204-1.771 5.514 5.514 0 0 1-.434-2.191zm19.17-.56h.518c.541 0 .957-.112 1.246-.336.29-.224.434-.546.434-.966 0-.42-.145-.742-.434-.966-.29-.224-.705-.336-1.246-.336h-.518v2.604zM131.796 25h-3.416l-2.618-4.06V25h-2.744V14.444h4.27c.588 0 1.101.086 1.54.259.439.173.8.408 1.085.707.285.299.5.644.644 1.036.145.392.217.812.217 1.26 0 .803-.194 1.454-.581 1.953-.387.5-.959.838-1.715 1.015L131.796 25zm6.892-10.556V25h-2.744V14.444h2.744zm7.956 0v5.74c0 .308.012.623.035.945.023.322.093.614.21.875.117.261.301.474.553.637.252.163.607.245 1.064.245.457 0 .81-.082 1.057-.245.247-.163.432-.376.553-.637.121-.261.194-.553.217-.875.023-.322.035-.637.035-.945v-5.74h2.73v6.118c0 1.643-.376 2.842-1.127 3.598-.751.756-1.906 1.134-3.465 1.134s-2.716-.378-3.472-1.134c-.756-.756-1.134-1.955-1.134-3.598v-6.118h2.744zM157.834 25l1.792-10.556h2.716l2.114 5.628 2.1-5.628h2.716L171.064 25h-2.73l-.91-6.076L164.932 25h-1.092l-2.366-6.076-.91 6.076h-2.73z"/>
    </g>
</svg>
