<svg xmlns="http://www.w3.org/2000/svg" xmlns:xlink="http://www.w3.org/1999/xlink" width="172" height="40" viewBox="0 0 172 40">
    <defs>
        <rect id="a" width="40" height="40" rx="8"/>
    </defs>
    <g fill="none" fill-rule="evenodd" fill-opacity="0">
        <g>
            <mask id="b" fill="#fff">
                <use xlink:href="#a"/>
            </mask>
            <use fill="#006FEE" xlink:href="#a"/>
            <g fill="#FFF" mask="url(#b)">
                <g transform="translate(8 10.5)">
                    <ellipse cx="11.951" cy="4.839" fill-rule="nonzero" opacity=".6" rx="8.852" ry="4.839"/>
                    <path d="M1.378 1.305c.061-.13.214-.14.336-.15.253.021.486.143.641.339.418.457.865.885 1.272 1.352.224.243.465.468.724.676.764.75 1.584 1.444 2.452 2.077a10.701 10.701 0 0 0 4.337 1.988c.722.1 1.456.1 2.178 0A8.31 8.31 0 0 0 15.1 7.06a13.714 13.714 0 0 0 3.828-2.605c.478-.457.936-.924 1.414-1.371.48-.447.866-1.084 1.395-1.59a.747.747 0 0 1 .764-.18c.101 0 .112.18.163.27.262.812.48 1.638.651 2.474.091.696.285 1.371.335 2.077.126.657.204 1.321.235 1.989.142 1.069.142 2.152 0 3.22a5.512 5.512 0 0 1-.224 1.283 8.885 8.885 0 0 1-3.99 5.537 8.228 8.228 0 0 1-2.189.904c-.389.146-.81.19-1.221.13a1.15 1.15 0 0 1-.845-1.054v-1.6a7.509 7.509 0 0 0-.142-1.91 3.55 3.55 0 0 0-1.456-2.306 3.11 3.11 0 0 0-2.494-.487 3.288 3.288 0 0 0-1.924 1.223 4.903 4.903 0 0 0-.835 2.385v2.416c.025.244-.014.49-.112.716a1.177 1.177 0 0 1-.925.635 5.262 5.262 0 0 1-1.507-.297 8.386 8.386 0 0 1-3.135-1.909A9.044 9.044 0 0 1 .4 12.796c-.06-.299-.142-.577-.204-.875a13.875 13.875 0 0 1-.081-3.559c0-.368 0-.736.07-1.103.073-.368.174-.994.205-1.462.03-.466.183-.924.244-1.38.062-.458.214-.955.214-1.423.14-.573.316-1.138.529-1.69z"/>
                </g>
            </g>
        </g>
        <path fill="#11223E" fill-rule="nonzero" d="M72.112 16.768H68.85v1.764h3.08v2.324h-3.08v1.82h3.262V25h-6.006V14.444h6.006v2.324zM76.61 25l1.792-10.556h2.716l2.114 5.628 2.1-5.628h2.716L89.84 25h-2.73l-.91-6.076L83.708 25h-1.092l-2.366-6.076L79.34 25h-2.73zm20.71-5.712h.91c1.008 0 1.512-.439 1.512-1.316s-.504-1.316-1.512-1.316h-.91v2.632zm0 5.712h-2.744V14.444h4.368c1.185 0 2.093.308 2.723.924.63.616.945 1.484.945 2.604s-.315 1.988-.945 2.604c-.63.616-1.538.924-2.723.924H97.32V25zm12.142-5.278c0 .42.08.807.238 1.162a2.91 2.91 0 0 0 1.589 1.533c.36.145.74.217 1.141.217a3.026 3.026 0 0 0 2.093-.826c.275-.261.492-.57.651-.924.159-.355.238-.742.238-1.162 0-.42-.08-.807-.238-1.162a2.883 2.883 0 0 0-.651-.924 3.026 3.026 0 0 0-2.093-.826c-.401 0-.782.072-1.141.217a2.91 2.91 0 0 0-1.589 1.533 2.813 2.813 0 0 0-.238 1.162zm-2.87 0c0-.784.145-1.514.434-2.191.29-.677.69-1.267 1.204-1.771a5.501 5.501 0 0 1 1.841-1.183c.714-.285 1.5-.427 2.359-.427.85 0 1.633.142 2.352.427a5.563 5.563 0 0 1 1.855 1.183 5.414 5.414 0 0 1 1.211 1.771c.29.677.434 1.407.434 2.191 0 .784-.145 1.514-.434 2.191a5.414 5.414 0 0 1-1.211 1.771 5.563 5.563 0 0 1-1.855 1.183 6.33 6.33 0 0 1-2.352.427c-.859 0-1.645-.142-2.359-.427a5.501 5.501 0 0 1-1.841-1.183 5.467 5.467 0 0 1-1.204-1.771 5.514 5.514 0 0 1-.434-2.191zm19.17-.56h.518c.541 0 .957-.112 1.246-.336.29-.224.434-.546.434-.966 0-.42-.145-.742-.434-.966-.29-.224-.705-.336-1.246-.336h-.518v2.604zM131.796 25h-3.416l-2.618-4.06V25h-2.744V14.444h4.27c.588 0 1.101.086 1.54.259.439.173.8.408 1.085.707.285.299.5.644.644 1.036.145.392.217.812.217 1.26 0 .803-.194 1.454-.581 1.953-.387.5-.959.838-1.715 1.015L131.796 25zm6.892-10.556V25h-2.744V14.444h2.744zm7.956 0v5.74c0 .308.012.623.035.945.023.322.093.614.21.875.117.261.301.474.553.637.252.163.607.245 1.064.245.457 0 .81-.082 1.057-.245.247-.163.432-.376.553-.637.121-.261.194-.553.217-.875.023-.322.035-.637.035-.945v-5.74h2.73v6.118c0 1.643-.376 2.842-1.127 3.598-.751.756-1.906 1.134-3.465 1.134s-2.716-.378-3.472-1.134c-.756-.756-1.134-1.955-1.134-3.598v-6.118h2.744zM157.834 25l1.792-10.556h2.716l2.114 5.628 2.1-5.628h2.716L171.064 25h-2.73l-.91-6.076L164.932 25h-1.092l-2.366-6.076-.91 6.076h-2.73z"/>
    </g>
</svg>
