<svg xmlns="http://www.w3.org/2000/svg" width="26" height="22" viewBox="0 0 26 22">
    <g fill="#FFF" fill-rule="evenodd" fill-opacity="0">
        <ellipse cx="12.947" cy="5.323" fill-rule="nonzero" opacity=".6" rx="9.59" ry="5.323"/>
        <path d="M1.493 1.435c.066-.142.232-.153.364-.164a.98.98 0 0 1 .694.372c.453.503.937.974 1.379 1.487.241.267.503.516.783.744A23.88 23.88 0 0 0 7.37 6.158a11.513 11.513 0 0 0 4.698 2.188 8.49 8.49 0 0 0 2.36 0 8.9 8.9 0 0 0 1.93-.58 14.849 14.849 0 0 0 4.146-2.865c.518-.503 1.014-1.016 1.532-1.509.52-.491.938-1.192 1.511-1.749a.8.8 0 0 1 .828-.197c.11 0 .121.197.176.296.284.894.52 1.802.706 2.722.098.766.308 1.508.363 2.285.136.723.221 1.453.254 2.187a13.676 13.676 0 0 1 0 3.543 6.147 6.147 0 0 1-.242 1.41 9.768 9.768 0 0 1-4.323 6.091 8.839 8.839 0 0 1-2.371.994c-.421.161-.877.21-1.323.143a1.262 1.262 0 0 1-.916-1.16v-1.76a8.383 8.383 0 0 0-.153-2.099 3.912 3.912 0 0 0-1.578-2.537 3.328 3.328 0 0 0-2.702-.536 3.556 3.556 0 0 0-2.084 1.345 5.448 5.448 0 0 0-.904 2.624v2.657a1.6 1.6 0 0 1-.121.788c-.192.387-.57.65-1.003.7a5.624 5.624 0 0 1-1.633-.328 9.061 9.061 0 0 1-3.396-2.1 9.981 9.981 0 0 1-2.69-4.635c-.067-.329-.155-.635-.221-.963a15.495 15.495 0 0 1-.088-3.915c0-.404 0-.81.076-1.213a14.82 14.82 0 0 0 .221-1.608c.034-.513.199-1.016.265-1.52.067-.502.232-1.049.232-1.563.151-.63.342-1.252.573-1.859z"/>
    </g>
</svg>
