<svg xmlns="http://www.w3.org/2000/svg" xmlns:xlink="http://www.w3.org/1999/xlink" width="452" height="287" viewBox="0 0 452 287">
    <defs>
        <path id="a" d="M57.144 109.303H3.103a3 3 0 0 1-3-3V3.945a3 3 0 0 1 3-3h54.041c1.656 0 3 1.344 3 3v102.358a3 3 0 0 1-3 3"/>
        <linearGradient id="b" x1="49.985%" x2="50.075%" y1="58.829%" y2="3.42%">
            <stop offset="0%" stop-color="#FFFFFE"/>
            <stop offset="100%" stop-color="#F1F4F7"/>
        </linearGradient>
        <path id="d" d="M57.622 108.81H3.581a3 3 0 0 1-3-2.999V3.453a3 3 0 0 1 3-3h54.041a3 3 0 0 1 3 3v102.358a3 3 0 0 1-3 2.999"/>
        <linearGradient id="e" x1="49.404%" x2="51.738%" y1="83.262%" y2="-46.923%">
            <stop offset="0%" stop-color="#FFFFFE"/>
            <stop offset="100%" stop-color="#F1F4F7"/>
        </linearGradient>
        <path id="g" d="M1.54 32.43a10.923 10.923 0 0 0-1.086-.061H.435c.23-.161.593-.248 1.041-.281.016.107.037.221.064.342m1.617-.801a3.338 3.338 0 0 0-.073-.22 2.32 2.32 0 0 0-.157-.341c.035-.22.114-.383.23-.497v1.058m40.867-3.401a.773.773 0 0 1-.068-.003l-.076-.005v-.662c.61-.938 1.073-2.475 1.201-4.235.178-2.432-.337-4.534-1.201-5.256v-.623l.859.063c1.216.089 2.027 2.56 1.81 5.52-.212 2.905-1.334 5.201-2.525 5.201M34.097 9.017h-.921l1.034-5.9c-.998-.398-1.585-1.455-1.329-2.508.023-.094.053-.191.089-.288h4.184c.094.466.099.938.004 1.327-.233.961-1.094 1.601-2.054 1.628l-1.007 5.741m-4.037 0h-3.618c-.9-.098-1.752-.153-2.522-.153h-.073a64.935 64.935 0 0 0-4.055.153h-1.858c2.404-.262 4.962-.438 7.38-.449h.071c1.365 0 2.983.173 4.675.449m-12.523 0h-.84l-.485-3.399c-.669-.078-1.2-.537-1.246-1.132-.054-.693.509-1.727 1.331-1.79a1.07 1.07 0 0 1 .08-.003c.791 0 1.514.893 1.566 1.564.042.547-.34 1.04-.906 1.257l.5 3.503"/>
        <linearGradient id="h" x1="47.674%" x2="57.562%" y1="131.861%" y2="-80.813%">
            <stop offset="0%" stop-color="#FFFFFE"/>
            <stop offset="100%" stop-color="#E3E8EF"/>
        </linearGradient>
        <linearGradient id="l" x1="50%" x2="50%" y1="0%" y2="100%">
            <stop offset="0%" stop-color="#EE6174"/>
            <stop offset="100%" stop-color="#F89948"/>
        </linearGradient>
        <path id="k" d="M218.497 178.977l-.816-.1c-14.224-1.739-24.346-14.679-22.607-28.902l.1-.817c1.739-14.224 14.679-24.345 28.903-22.606l.817.099c14.223 1.739 24.344 14.679 22.605 28.903l-.1.816c-1.738 14.225-14.678 24.346-28.902 22.607"/>
        <filter id="j" width="194.7%" height="194.7%" x="-47.3%" y="-37.9%" filterUnits="objectBoundingBox">
            <feOffset dy="5" in="SourceAlpha" result="shadowOffsetOuter1"/>
            <feGaussianBlur in="shadowOffsetOuter1" result="shadowBlurOuter1" stdDeviation="7.5"/>
            <feColorMatrix in="shadowBlurOuter1" values="0 0 0 0 0.968627451 0 0 0 0 0.576470588 0 0 0 0 0.101960784 0 0 0 0.3 0"/>
        </filter>
        <path id="m" d="M1.106 20.369a1.014 1.014 0 0 1-.532-1.881c1.254-.77 2.447-1.545 3.604-2.295 5.367-3.483 10.002-6.49 16.398-6.49 3.709 0 6.492 1.712 9.44 3.526 3.325 2.046 6.765 4.163 12.063 4.163 4.603 0 10.333-3.11 16.399-6.403 7.124-3.865 15.199-8.247 23.799-9.069 5.952-.574 13.747 2.041 22.003 4.805 8.961 3 18.231 6.102 24.01 4.376 3.977-1.188 7.166-2.971 10.25-4.696 5.52-3.087 10.737-6.002 18.895-4.3 11.942 2.491 16.409 1.523 22.486-1.761a1.019 1.019 0 0 1 1.377.411c.266.494.082 1.11-.411 1.377-6.408 3.463-11.374 4.571-23.866 1.962-7.415-1.543-12.083 1.062-17.49 4.085-3.179 1.778-6.468 3.617-10.659 4.868-6.398 1.911-15.976-1.295-25.237-4.396-7.691-2.574-15.639-5.234-21.164-4.709-8.188.783-16.07 5.061-23.024 8.833-6.573 3.568-12.25 6.648-17.368 6.648-5.873 0-9.727-2.371-13.128-4.463-2.812-1.731-5.242-3.226-8.375-3.226-5.795 0-10.197 2.857-15.292 6.163-1.171.759-2.378 1.542-3.647 2.322-.165.102-.349.15-.531.15"/>
        <linearGradient id="n" x1="0%" y1="50.001%" y2="50.001%">
            <stop offset="0%" stop-color="#E78860"/>
            <stop offset="100%" stop-color="#DB325B"/>
        </linearGradient>
        <path id="p" d="M13.046 7.41a6.434 6.434 0 1 1-12.867 0 6.434 6.434 0 0 1 12.867 0"/>
        <path id="r" d="M6.531 22.314L.728 11.157 6.531 0l5.804 11.157-5.804 11.157"/>
    </defs>
    <g fill="none" fill-rule="evenodd">
        <path fill="#E4EDF1" d="M396.952 257.396h-279.18a5 5 0 0 1-4.999-5.001V73.405a5 5 0 0 1 4.999-5h279.18a5 5 0 0 1 5 5v178.99a5 5 0 0 1-5 5.001"/>
        <path fill="#293894" d="M396.873 68.405H117.852a5.078 5.078 0 0 0-5.079 5.079v9.799h289.179v-9.799a5.08 5.08 0 0 0-5.079-5.079"/>
        <path fill="#D1D7E4" d="M231.02 271.268c-12.215 1.411-14.437 6.536-5.555 7.839 8.883 1.303 114.937 2.319 117.808-3.739 1.584-3.344-13.557-5.794-21.972-4.439-8.414 1.354-22.841 5.162-33.158 3.258-10.319-1.904-25.483-2.44-31.692-.648-6.209 1.792-19.151-2.998-25.431-2.271M10.425 258.785c-11.385 1.412-12.894 4.087-4.615 5.39s88.84 5.478 92.181-.239c4.269-7.309-24.144-2.778-33.761-4.681-9.617-1.904-21.901-3.651-27.689-1.859-5.787 1.792-20.262.664-26.116 1.389" opacity=".3"/>
        <path fill="#F2BDB9" d="M60.9 148.255c1.842-1.206 3.239-3.428 3.937-5.333.698-1.905 1.587-8.571 2.666-9.777 1.08-1.207 3.429-2.541 4.826-.572 1.397 1.968 1.735 9.524.486 10.285-1.248.762-4.803-.38-5.121-.127-.318.254-2.373 7.591-2.373 7.591l-4.421-2.067"/>
        <path fill="#E4715E" d="M72.266 133.97c.761-.762 1.033-4.237-.509-3.937-3.047.594-4.003-.762-6.289.318-1.942.917-2.703 1.894-4.187 3.873-.762 1.015-2.603 1.904-1.904 2.412.698.508 2.476 1.334 1.523 2.032-.952.698-3.387 1.513-2.73 2.278 1.207 1.405 2.93.278 3.239 1.976.381 2.095 6.094-1.157 6.476-1.976.381-.818-.9-1.453-.641-2.595.259-1.143.704-.762 1.593-1.017.889-.253 3.429-3.364 3.429-3.364"/>
        <path fill="#FFFFFE" d="M181.665 199.429h-54.041a3 3 0 0 1-3-3V94.071a3 3 0 0 1 3-3h54.041a3 3 0 0 1 3 3v102.358a3 3 0 0 1-3 3"/>
        <path fill="#F2BDB9" d="M31.058 259.187l-4.161-.516a.397.397 0 0 1-.308-.571l2.859-5.791a.889.889 0 0 0-.076-.912l-.046-.063a.887.887 0 0 0-1.453.021l-5.029 7.43c2.975 2.619 5.434 1.496 8.214.402"/>
        <path fill="#26337D" d="M36.092 260.299a2.122 2.122 0 0 0-1.281-.648l-3.753-.464c-2.78 1.094-5.239 2.217-8.214-.402l-.773 1.143a.887.887 0 0 0 .734 1.384l13.736.168-.449-1.181M84.662 260.199a5.766 5.766 0 0 0-3.695-1.345l-1.428-.001c-2.621 1.177-5.796 1.875-8.607.862l.444 1.278a.726.726 0 0 0 .685.487h12.135c.678 0 .985-.845.466-1.281"/>
        <path fill="#F2BDB9" d="M79.539 258.853l-3.904-.004a2.868 2.868 0 0 1-2.647-1.772l-2.987-7.223a.724.724 0 0 0-.828-.431l-.895.198a.725.725 0 0 0-.528.946l3.182 9.148c2.811 1.013 5.986.315 8.607-.862"/>
        <path fill="#006FEE" d="M47.311 192.617c4.918 1.977 13.514 3.618 15.177.717.672-1.174.712-17.783 2.201-23.111 1.488-5.327 2.382-16.099 2.243-16.762-.138-.662-3.478-8.269-8.742-3.936-9.511 7.828-9.104 16.216-11.335 26.715-2.23 10.499.456 16.377.456 16.377"/>
        <path fill="#FFFFFE" d="M124.624 241.126v-24.813a3 3 0 0 1 3-3h190.998a3 3 0 0 1 3 3v24.813a3 3 0 0 1-3 3H127.624a3 3 0 0 1-3-3"/>
        <g transform="translate(193 18)">
            <mask id="c" fill="#fff">
                <use xlink:href="#a"/>
            </mask>
            <path fill="url(#b)" d="M57.144 109.303H3.103a3 3 0 0 1-3-3V3.945a3 3 0 0 1 3-3h54.041c1.656 0 3 1.344 3 3v102.358a3 3 0 0 1-3 3" mask="url(#c)"/>
        </g>
        <g transform="translate(261 51)">
            <mask id="f" fill="#fff">
                <use xlink:href="#d"/>
            </mask>
            <path fill="url(#e)" d="M57.622 108.81H3.581a3 3 0 0 1-3-2.999V3.453a3 3 0 0 1 3-3h54.041a3 3 0 0 1 3 3v102.358a3 3 0 0 1-3 2.999" mask="url(#f)"/>
        </g>
        <path fill="#BBC7DB" d="M308.88 120.739h-34.723a3 3 0 0 1-3-3V83.017a3 3 0 0 1 3-3h34.723a3 3 0 0 1 3 3v34.722a3 3 0 0 1-3 3" opacity=".5"/>
        <path fill="#E4715E" d="M308.88 120.739h-34.723a3 3 0 0 1-3-3V83.017a3 3 0 0 1 3-3h34.723a3 3 0 0 1 3 3v34.722a3 3 0 0 1-3 3"/>
        <g transform="translate(268 71)">
            <mask id="i" fill="#fff">
                <use xlink:href="#g"/>
            </mask>
            <path fill="url(#h)" d="M1.54 32.43a10.923 10.923 0 0 0-1.086-.061H.435c.23-.161.593-.248 1.041-.281.016.107.037.221.064.342m1.617-.801a3.338 3.338 0 0 0-.073-.22 2.32 2.32 0 0 0-.157-.341c.035-.22.114-.383.23-.497v1.058m40.867-3.401a.773.773 0 0 1-.068-.003l-.076-.005v-.662c.61-.938 1.073-2.475 1.201-4.235.178-2.432-.337-4.534-1.201-5.256v-.623l.859.063c1.216.089 2.027 2.56 1.81 5.52-.212 2.905-1.334 5.201-2.525 5.201M34.097 9.017h-.921l1.034-5.9c-.998-.398-1.585-1.455-1.329-2.508.023-.094.053-.191.089-.288h4.184c.094.466.099.938.004 1.327-.233.961-1.094 1.601-2.054 1.628l-1.007 5.741m-4.037 0h-3.618c-.9-.098-1.752-.153-2.522-.153h-.073a64.935 64.935 0 0 0-4.055.153h-1.858c2.404-.262 4.962-.438 7.38-.449h.071c1.365 0 2.983.173 4.675.449m-12.523 0h-.84l-.485-3.399c-.669-.078-1.2-.537-1.246-1.132-.054-.693.509-1.727 1.331-1.79a1.07 1.07 0 0 1 .08-.003c.791 0 1.514.893 1.566 1.564.042.547-.34 1.04-.906 1.257l.5 3.503" mask="url(#i)"/>
        </g>
        <path fill="#D62849" d="M301.829 120.443h-1.442c.044-.557.131-1.839.131-3.329 0-1.365-.073-2.904-.318-4.221.473.716 1.085 1.392 1.728 2.013.165 2.761-.099 5.537-.099 5.537m4.938-1.055c-.276 0-.485-.157-.63-.408.1-.157.205-.32.33-.464l.031.011c.311.101.682.182 1.065.223-.218.34-.426.638-.796.638m2.814-.907l-.064-.001c.164-.093.303-.212.407-.358 1.062-1.5-4.98-9.415-8.688-10.125-.154-.03-.353-.069-.565-.069-.267 0-.553.062-.796.283-.331-.151-.703-.264-1.033-.264a.965.965 0 0 0-.512.127 171.652 171.652 0 0 0-1.543-3.228 93.055 93.055 0 0 0 1.53-.168c.346.705.899 1.848 1.483 3.105a.957.957 0 0 1 .513-.128c.328 0 .699.112 1.029.262.243-.222.531-.285.799-.285.211 0 .409.039.563.069 3.708.71 9.75 8.625 8.688 10.125-.317.446-.954.627-1.643.652h-.001a4.61 4.61 0 0 1-.167.003m-29.853-7.443c-.148 0-.318-.009-.508-.026.047-.038.094-.079.139-.121a.73.73 0 0 0 .324.073.952.952 0 0 0 .181-.019l-.029.092-.107.001m1.449-3.035a.697.697 0 0 0-.496-.197.891.891 0 0 0-.176.018.78.78 0 0 0-.031-.093c-.63-1.546-4.51-2.954-7.314-3.648l.004-.011-.746-.162a32.47 32.47 0 0 0-1.059-.213 5.498 5.498 0 0 0-.202-1.068v-1.058a.678.678 0 0 1 .228-.145c.142-.056.269-.083.383-.083.358 0 .595.266.784.77.12.321.238.832.275 1.288.28.052.555.109.827.166l.231.047.747.162-.005.012c2.591.642 6.101 1.891 7.117 3.297-.204.314-.392.618-.567.918m25.093-4.614c1.086-.236 1.769-.429 1.889-.525.453-.36.801-1.666 1.058-3.436a398.183 398.183 0 0 0 1.339.096.796.796 0 0 0 .069-.003c-.25 1.571-.579 2.713-.998 3.047-.168.133-1.433.456-3.357.821m5.61-4.169l-.525-.039a2.96 2.96 0 0 0 .525-.623v.662m-38.974-1.643c-.789-.82-1.342-2.725-1.342-4.945 0-2.296.592-4.256 1.425-5.025-.243 3.213-.212 7.199-.083 9.97m38.974-8.51a1.068 1.068 0 0 0-.609-.264l-1.462-.107c-.014-2.504-.137-4.429-.337-4.77-.321-.546-8.83-3.236-15.03-3.909h3.618c.863.14 1.745.307 2.624.492.133-.022.27-.034.412-.034l.08-.458h.921l-.107.61c.212.076.403.184.579.305 4.349 1.034 8.158 2.337 8.37 2.698.201.341.323 2.267.337 4.77l.604.044v.623m-33.107-7.934c1.602-.348 3.675-.697 5.944-.976l-.02-.14h.84l.006.043.391-.043h1.858c-3.273.22-6.509.65-9.019 1.116"/>
        <path fill="#7277AB" d="M305.154 71.321h-4.184c.367-.984 1.38-2.036 2.372-2.036.106 0 .212.012.316.037.784.191 1.311 1.082 1.496 1.999"/>
        <path fill="#D1D7E4" d="M283.736 104.239c-3.25 4.5-4.062 5.687-5 12.25-.6 4.207 0 4.25 0 4.25h21.625s.625-6.5-.625-9.5-3.25-7-3.25-7h-12.75"/>
        <path fill="#3A4D8F" d="M294.268 114.114a4.187 4.187 0 1 1-8.374 0 4.187 4.187 0 0 1 8.374 0"/>
        <path fill="#26337D" d="M281.102 109.916c-.475.821-1.271 1.249-1.779.955-.508-.293-.535-1.196-.06-2.017.473-.821 1.269-1.249 1.777-.955.508.293.535 1.196.062 2.017"/>
        <path fill="#D1D7E4" d="M272.418 103.91a32.47 32.47 0 0 0-1.059-.213 5.275 5.275 0 0 0-.275-1.288c-.25-.666-.583-.916-1.166-.687-.435.171-.605.688-.378 1.708-1.375-.138-2.524-.067-2.789.48-1.25 2.583 4.218 5.449 6.035 6.136 2.598.982 5.257 1.449 5.938 1.239 1.187-.367 2.097-2.702 1.75-3.554-.688-1.688-5.251-3.212-8.056-3.821"/>
        <path fill="#3A4D8F" d="M269.74 108.478c.263.216.594.318.855.513.941-1.455 2.097-3.5 2.569-4.919l-.746-.162-.232-.047c-.418 1.174-1.494 3.139-2.446 4.615"/>
        <path fill="#D62849" d="M300.361 120.739l.026-.296a17.31 17.31 0 0 1-.026.296"/>
        <path fill="#C9233D" d="M300.387 120.443"/>
        <path fill="#B5BCD4" d="M300.361 120.739h-12.889c.001-.028.084-1.278.69-2.902a4.187 4.187 0 0 0 3.074-7.749c-.407-1.915-1.692-3.756-2.955-4.881.442.025.881.039 1.316.039h.045c2.339 0 4.804-.161 7.145-.4.339.691.925 1.898 1.543 3.228a.73.73 0 0 0-.24.242c-.484.784.451 2.578 1.443 3.275.159.445.389.88.667 1.302.245 1.317.318 2.856.318 4.221 0 1.49-.087 2.772-.131 3.329l-.026.296"/>
        <path fill="#344388" d="M290.08 118.301a4.166 4.166 0 0 1-1.918-.464 11.528 11.528 0 0 1 2.088-3.545c1.096-1.257 1.294-2.752.986-4.204a4.187 4.187 0 0 1-1.156 8.213"/>
        <path fill="#26337D" d="M298.09 108.316c.472-.765 1.834-.172 2.428.265.593.437.864 3.208-.173 3.292-1.174.096-2.873-2.555-2.255-3.557"/>
        <path fill="#D1D7E4" d="M301.236 107.997c-.613-.118-1.943-.39-1.943 2.275 0 2.812 3.436 5.362 5.25 6.908-.291 1.143-.057 2.504.756 2.504.562 0 .752-.689 1.168-1.168 1.061.358 2.85.461 3.457-.394 1.062-1.5-4.98-9.415-8.688-10.125"/>
        <path fill="#3A4D8F" d="M307.607 113.114c-1.582.639-3.777 1.64-4.9 2.412.253.245.503.479.745.698 1.065-.679 3.226-1.672 4.775-2.284a26.155 26.155 0 0 0-.62-.826"/>
        <path fill="#C9233D" d="M306.137 118.98c.1-.157.205-.32.33-.464l.031.011-.031-.011c-.125.144-.23.307-.33.464"/>
        <path fill="#292C6C" d="M299.531 111.584c-.785-.553-1.523-1.784-1.558-2.664.719.349.818.309 1.32.663l.032.024a6.333 6.333 0 0 0-.032.665c0 .445.086.883.238 1.312"/>
        <path fill="#B5BCD4" d="M305.299 119.684c-.591 0-.876-.718-.876-1.55 0-.312.04-.641.12-.954-1.524-1.3-4.189-3.31-5.002-5.589l-.01-.007a3.917 3.917 0 0 1-.238-1.312c0-.246.011-.467.032-.665.673.49.582.909.717 1.727.136.832.404.977 2.208 1.999 1.225.696 2.194.5 2.754.928-.894.429-1.731.876-2.297 1.265.253.245.503.479.745.698.493-.314 1.221-.696 2.015-1.076.158.845 1.658 1.977 2.116 2.352.219.179.476.734.698 1.274a5.435 5.435 0 0 1-1.783-.247l-.031-.011c-.125.144-.23.307-.33.464-.234.367-.445.704-.838.704"/>
        <path fill="#344388" d="M303.452 116.224a30.326 30.326 0 0 1-.745-.698c.566-.389 1.403-.836 2.297-1.265.221.168.378.433.463.887-.794.38-1.522.762-2.015 1.076"/>
        <path fill="#3A4D8F" d="M274.003 98.301h-1.698c-1.22 0-2.208-2.405-2.208-5.373 0-2.968.988-5.373 2.208-5.373h1.698v10.746"/>
        <path fill="#26337D" d="M275.395 98.301h-1.699c-1.219 0-2.208-2.405-2.208-5.373 0-2.968.989-5.373 2.208-5.373h1.699v10.746"/>
        <path fill="#3A4D8F" d="M309.577 88.679l1.694.124c1.216.089 2.027 2.56 1.81 5.52-.216 2.96-1.377 5.287-2.593 5.198l-1.694-.124.783-10.718"/>
        <path fill="#26337D" d="M308.189 88.578l1.695.124c1.216.088 2.026 2.56 1.809 5.52-.215 2.959-1.377 5.287-2.592 5.198l-1.695-.124.783-10.718"/>
        <path fill="#D1D7E4" d="M274.097 82.489c-1.819 2.122-1.313 17.25-.875 18.375.226.582 8.948 4.376 16.375 4.382 8.25.007 18.074-1.993 18.562-2.382 1.806-1.438 1.938-17.875 1.313-18.938-.37-.628-11.563-4.09-17.625-4.062-7.756.036-17 1.75-17.75 2.625"/>
        <path fill="#26337D" d="M278.159 86.551s-.437 11.313-.437 11.813 8.625 2.875 11.687 3.062c4.321.265 13.375-.312 13.75-.437s2.875-9.625 2.688-10c-.188-.375-9.716-3.75-14.537-4.167-2.295-.198-12.401-.771-13.151-.271M284.266 81.696l-.824.117-.771-5.415.823-.118.772 5.416"/>
        <path fill="#26337D" d="M284.476 75.553c.053.694-.571 1.307-1.392 1.37-.822.064-1.532-.447-1.586-1.141-.054-.694.51-1.727 1.332-1.79.821-.063 1.592.867 1.646 1.561M285.349 82.178c.053.401-.548.633-1.331.753-.783.119-1.462-.073-1.52-.429-.104-.651.44-1.365 1.223-1.485.782-.121 1.525.398 1.628 1.161"/>
        <path fill="#FFFFFE" d="M287.472 95.02c0 2.399-1.215 4.031-3.188 4.031-1.972 0-3.956-1.632-3.956-4.031s1.6-4.344 3.572-4.344c1.973 0 3.572 1.945 3.572 4.344M300.472 95.989c0 2.244-2.477 4.062-4.875 4.062s-3.808-1.818-3.808-4.062 1.944-4.063 4.342-4.063c2.397 0 4.341 1.819 4.341 4.063"/>
        <path fill="#222551" d="M285.303 96.883c.134.94-.386 1.791-1.16 1.901-.775.111-1.511-.562-1.645-1.501-.134-.94.386-1.791 1.16-1.902.774-.11 1.51.562 1.645 1.502M296.337 98.345c-.114.943-.836 1.631-1.612 1.537-.777-.094-1.314-.934-1.201-1.876.115-.943.836-1.631 1.613-1.537.776.094 1.313.934 1.2 1.876"/>
        <path fill="#D62849" d="M298.317 104.678c3.258-.387 6.149-.896 7.946-1.287l.007-.002c-1.796.391-4.691.902-7.953 1.289"/>
        <path fill="#C9233D" d="M306.263 103.391c1.089-.238 1.776-.431 1.896-.527.453-.361.801-1.666 1.058-3.436-.257 1.77-.605 3.076-1.058 3.436-.12.096-.803.289-1.889.525l-.007.002"/>
        <path fill="#B5BCD4" d="M296.787 104.846"/>
        <path fill="#828DB9" d="M289.642 105.246h-.045.045c2.339 0 4.804-.161 7.145-.4-2.341.239-4.806.4-7.145.4"/>
        <path fill="#344388" d="M309.217 99.428l.001-.007-.001.007"/>
        <path fill="#292C6C" d="M309.218 99.421c.416-2.872.593-6.964.593-10.229 0 3.265-.177 7.357-.593 10.229"/>
        <path fill="#B5BCD4" d="M289.642 105.246h-.045c-.435 0 6.151-.374 6.889-1.007.415-.355 2.622-1.511 4.117-3.036 1.442-.089 2.437-.175 2.556-.214.375-.125 2.875-9.625 2.688-10-.094-.188-2.53-1.128-5.543-2.072.208-.424.453-.877.739-1.362.956-1.625-3.67-4.983-6.728-7.552 6.21.65 14.833 3.374 15.157 3.924.213.363.338 2.522.339 5.265 0 3.265-.177 7.357-.593 10.229l-.001.007c-.257 1.77-.605 3.075-1.058 3.436-.12.096-.807.289-1.896.527-1.797.391-4.688.9-7.946 1.287-.503.059-1.013.116-1.53.168-2.341.239-4.806.4-7.145.4"/>
        <path fill="#292C6C" d="M300.603 101.203c1.191-1.213 1.93-2.66.954-4.12-.392-.585-.78-1.108-1.121-1.616a3.925 3.925 0 0 0-1.012-2.125c-.256-1.126-.081-2.469.88-4.425 3.013.944 5.449 1.884 5.543 2.072.187.375-2.313 9.875-2.688 10-.119.039-1.114.125-2.556.214"/>
        <path fill="#FFFFFE" d="M300.436 95.467c-.463-.692-.837-1.358-1.012-2.125a3.925 3.925 0 0 1 1.012 2.125"/>
        <path fill="#26337D" d="M300.366 81.812l-.893-.157 1.424-8.126.895.157-1.426 8.126"/>
        <path fill="#26337D" d="M303.69 72.944c-.28 1.157-1.465 1.861-2.647 1.575-1.181-.288-1.911-1.457-1.63-2.614.281-1.156 1.597-2.573 2.778-2.286 1.181.286 1.781 2.169 1.499 3.325M301.994 83.117c-.104.561-1.127.591-2.37.386-1.242-.204-2.185-.778-2.106-1.282.142-.92 1.301-1.621 2.545-1.417 1.243.204 2.129 1.244 1.931 2.313"/>
        <path fill="#B5BCD4" d="M278.26 111.334c-1.057 0-3.287-.461-5.474-1.288a17.028 17.028 0 0 1-2.191-1.056 35.44 35.44 0 0 0 1.28-2.141c.308-.037.61-.054.906-.054 2.235 0 4.087.99 4.813 1.752.55.58 1.727.96 2.566 1.169-.333.726-.85 1.387-1.436 1.569a1.687 1.687 0 0 1-.464.049m-7.672-2.348a21.505 21.505 0 0 1-.399-.233c.139.072.276.142.399.233m-.846-.51c-1.802-1.155-3.517-2.736-3.093-4.254.844 1.601 1.879 2.886 3.529 2.886.134 0 .272-.008.414-.026-.281.485-.571.96-.85 1.394"/>
        <path fill="#344388" d="M270.595 108.99l-.007-.004c-.123-.091-.26-.161-.399-.233a18.075 18.075 0 0 1-.447-.277c.279-.434.569-.909.85-1.394.145-.018.295-.045.45-.082.281-.068.559-.117.833-.151a35.44 35.44 0 0 1-1.28 2.141"/>
        <path fill="#FFFFFE" d="M387.101 199.429H333.06a3 3 0 0 1-3-3V94.071a3 3 0 0 1 3-3h54.041a3 3 0 0 1 3 3v102.358a3 3 0 0 1-3 3M387.101 244.126h-54.229a3 3 0 0 1-3-3v-24.813a3 3 0 0 1 3-3h54.229a3 3 0 0 1 3 3v24.813a3 3 0 0 1-3 3"/>
        <path fill="#384C8E" d="M48.097 187.577h11.597s3.555 34.37 10.413 56.549c1.3 4.206 2.708 6.603 2.708 6.603l-7.11 1.524s-13.207-28.782-15.577-38.94c-2.37-10.16-2.031-25.736-2.031-25.736"/>
        <path fill="#BBC7DB" d="M309.01 71.321h-34.983a2.87 2.87 0 0 1-2.87-2.87v-.091a2.87 2.87 0 0 1 2.87-2.87h34.983a2.87 2.87 0 0 1 2.87 2.87v.091a2.87 2.87 0 0 1-2.87 2.87M377.524 111.462h-34.982a2.87 2.87 0 0 1-2.87-2.869v-.092a2.87 2.87 0 0 1 2.87-2.869h34.982a2.87 2.87 0 0 1 2.871 2.869v.092a2.87 2.87 0 0 1-2.871 2.869M240.484 115.868h-34.722a3 3 0 0 1-3-3V78.146a3 3 0 0 1 3-3h34.722c1.658 0 3 1.342 3 3v34.722a3 3 0 0 1-3 3M240.614 37.939h-34.982a2.87 2.87 0 0 1-2.87-2.87v-.091a2.87 2.87 0 0 1 2.87-2.87h34.982a2.87 2.87 0 0 1 2.87 2.87v.091a2.87 2.87 0 0 1-2.87 2.87M240.614 52.136h-34.982a2.87 2.87 0 0 1-2.87-2.87v-.091a2.87 2.87 0 0 1 2.87-2.87h34.982a2.87 2.87 0 0 1 2.87 2.87v.091a2.87 2.87 0 0 1-2.87 2.87M240.614 66.333h-34.982a2.87 2.87 0 0 1-2.87-2.87v-.09a2.87 2.87 0 0 1 2.87-2.871h34.982a2.87 2.87 0 0 1 2.87 2.871v.09a2.87 2.87 0 0 1-2.87 2.87" opacity=".5"/>
        <path fill="#EFA9A7" d="M351.262 48.775c-4.348 6.956-11.957 15.434-12.826 17.391-.871 1.957 6.521 18.696 9.347 21.305 2.826 2.609 5.218-4.566 5.218-9.348 0-4.783-2.392-9.708-.87-10.832 1.521-1.125 11.087-10.69 11.739-11.56.652-.869-12.608-6.956-12.608-6.956"/>
        <path fill="#F2BDB9" d="M291.696 47.036c6.941-3.08 23.478-11.087 26.087-11.74 2.609-.652 23.696-4.347 26.956-4.565 3.262-.217 11.74 5.652 17.392 6.522 5.652.87 15.435 1.304 18.478 2.826 3.044 1.521 34.407 32.446 38.479 33.261 3.261.652 26.957-5.435 28.044-5.435 1.087 0 5.652 18.044 3.913 30.87-.992 7.315-6.739 19.852-8.262 20.722-.77.44-8.789-1.312-17.082-3.064-8.082-1.707-16.424-3.415-18.57-3.093-4.348.653-20.217.435-26.522-1.304-6.304-1.739-24.13-28.913-29.131-31.305-5-2.391-22.173-15.869-22.391-17.173-.217-1.305.218-3.696 1.522-3.913 1.304-.218 12.392-1.087 16.522.434 4.131 1.522 19.565 15.064 20.87 15.032.445-.011.965.141 1.458.293.953.294 1.803.587 1.803-.293 0-1.336-3.044-6.119-3.479-8.293-.434-2.174.218-7.173-.869-7.173s-11.522-3.696-13.696-4.131c-2.174-.435-6.304-4.565-7.174-4.565-.869 0-6.956-.218-9.348 0-1.161.105-2.99-.661-4.837-1.427-1.956-.812-3.933-1.623-5.163-1.399-2.391.435-15.652 3.478-20 3.26-4.348-.217-12.826-2.608-13.913-2.608-1.087 0-2.419-1.149-1.087-1.739"/>
        <path fill="#344388" d="M371.16 75.516a.008.008 0 0 1-.004-.002c.065-.089.103-.212.106-.386-.003.173-.039.299-.102.388"/>
        <path fill="#25244F" d="M348.628 52.671c-1.195-.928-2.203-1.722-2.584-1.722.381 0 1.389.793 2.584 1.721v.001"/>
        <path fill="#E57293" d="M361.616 58.112c-3.321-1.071-7.173-2.353-8.398-2.598-1.221-.244-3.059-1.654-4.59-2.843v-.001c1.531 1.19 3.369 2.6 4.59 2.844 1.225.245 5.077 1.527 8.398 2.598"/>
        <path fill="#25244F" d="M336.471 50.958c-.041 0-.084 0-.126-.002a2.442 2.442 0 0 0 .126.002m.352-.02c.795-.064 1.943-.086 3.164-.086-1.221 0-2.37.022-3.164.086m-4.606-1.268l-.319-.132.319.132m-5.487-1.553"/>
        <path fill="#E98FAA" d="M376.36 77.556c-1.236 0-3.266-.947-5.2-2.04.063-.089.099-.215.102-.388v-.001-.007-.009c0-1.336-3.044-6.119-3.479-8.293-.434-2.174.218-7.173-.869-7.173-.474 0-2.727-.704-5.298-1.533-3.321-1.071-7.173-2.353-8.398-2.598-1.221-.244-3.059-1.654-4.59-2.844-1.195-.928-2.203-1.721-2.584-1.721-.134 0-.39-.005-.738-.013-1.159-.027-3.328-.084-5.309-.084h-.01c-1.221 0-2.369.022-3.164.086l-.018.001-.004.001-.041.003-.009.001-.028.002-.027.003-.013.001a2.442 2.442 0 0 1-.212.008c-.041 0-.084 0-.126-.002-1.053-.044-2.514-.619-4.023-1.243l-.044-.018-.033-.013-.004-.002-.024-.01-.319-.132a.64.64 0 0 0-.039-.016c-1.732-.719-3.48-1.437-4.712-1.437l-.094.001c-.113.004-.22.014-.323.031l-.034.006-.015.002a2.222 2.222 0 0 1-.09.017l-.01.002-.042.008-.029.006h-.001c-2.726.522-14.681 3.237-19.333 3.236-.154 0-.3-.003-.437-.009h-.002l-.023-.001-.018-.001h-.014l-.002-.001c-2.509-.128-6.376-.973-9.414-1.668 4.004-1.052 7.331-2.166 8.995-2.678 2.826-.87 7.175-.218 10.435-1.087 2.939-.784 12.937-4.039 18.386-4.039.598 0 1.141.04 1.614.126 4.783.869 12.45 7.303 19.051 8.869 6.602 1.565 18.341.913 21.167 12.218 2.826 11.304 2.391 13.478 0 14.348a1.62 1.62 0 0 1-.554.085"/>
        <path fill="#25244F" d="M441.785 119.541c-1.131-.091-3.097-.433-5.54-.913 2.443.48 4.409.822 5.54.913m-14.202-2.71l-1.882-.398c-7.413-1.566-15.045-3.132-17.914-3.132 2.87 0 10.502 1.566 17.914 3.132l1.882.398M401.952 113.658c2.236-.043 4.078-.152 5.179-.318l.012-.001-.012.001c-1.101.166-2.942.275-5.179.318"/>
        <path fill="#E6EEF3" d="M399.727 113.679"/>
        <path fill="#25244F" d="M407.151 113.338"/>
        <path fill="#E57293" d="M352.666 81.545c-.45-.375-.848-.651-1.188-.814l-.013-.006.013.006c.34.163.738.439 1.188.814"/>
        <path fill="#E98FAA" d="M442.302 119.565a6.4 6.4 0 0 1-.496-.022l-.004-.001-.017-.001c-1.131-.091-3.097-.433-5.54-.913-2.512-.493-5.529-1.133-8.662-1.797l-1.882-.398c-7.412-1.566-15.044-3.132-17.914-3.132-.249 0-.462.012-.636.037l-.008.001-.012.001c-1.101.166-2.943.275-5.179.318-.706.014-1.451.021-2.225.021h-.015c-6.403-.001-14.767-.477-19.001-1.615a.164.164 0 0 1-.011-.003l-.091-.025c-.512-.141-1.1-.45-1.752-.901-1.607-1.111-3.598-3.081-5.776-5.503-7.066-7.86-16.104-20.495-20.415-24.087-.45-.375-.848-.651-1.188-.814l-.013-.006-.012-.006c-4.419-2.129-18.149-12.743-21.581-16.183a7.696 7.696 0 0 1 1.859-.226c2.516 0 4.782 1.195 7.45 2.042 4.391 1.395 13.967 6.095 17.65 12.19 2.968 4.913 16.17 14.798 23.778 15.668.669.076 1.442.111 2.299.111 3.924 0 9.619-.722 15.201-1.444 5.583-.722 11.052-1.444 14.526-1.444.929 0 1.715.051 2.322.168 5.652 1.087 20.001 9.612 27.609 10.435.975.105 1.958.151 2.934.151 1.703 0 3.382-.139 4.939-.345-1.7 6.878-5.818 15.799-7.396 17.438l-.004.004-.001.001-.005.005v.001a.008.008 0 0 0-.004.004l-.002.001-.016.017-.003.002-.002.003-.003.002-.002.003-.003.002-.002.002-.004.004-.001.001-.004.004-.001.001-.005.005-.002.002a.014.014 0 0 1-.004.003l-.001.001-.004.004-.001.001-.004.004-.001.001a.008.008 0 0 0-.004.004l-.002.001-.004.004-.016.014-.001.001-.004.004h-.001l-.004.004-.001.001-.004.004h-.001l-.02.017-.005.004v.001l-.005.003v.001l-.005.004-.02.015-.004.004h-.001l-.004.003-.001.001-.019.013-.004.003-.001.001-.004.003-.004.003h-.001l-.004.003h-.001l-.013.009h-.001l-.003.003h-.002l-.003.002-.001.001-.003.002-.001.001-.003.001-.002.001a.014.014 0 0 1-.004.003l-.004.002-.004.002-.004.002-.004.002h-.001l-.003.002h-.001l-.003.002-.002.001-.002.001-.003.001h-.002l-.003.002h-.001l-.004.002h-.001a1.072 1.072 0 0 1-.309.047H442.414l-.004.001h-.023l-.085.001"/>
        <path fill="#BBC7DB" d="M377.488 187.488h-34.722a3 3 0 0 1-3-3v-61.515a3 3 0 0 1 3-3h34.722a3 3 0 0 1 3 3v61.515c0 1.658-1.342 3-3 3" opacity=".5"/>
        <path fill="#26337D" d="M65.705 252.253l1.437-.308a5.64 5.64 0 0 0-.196-.979c-1.002-3.319-6.998-28.935-9.918-33.379-2.921-4.444-3.153-22.682-2.413-30.01h-6.518s-.339 15.576 2.031 25.736c2.37 10.158 15.577 38.94 15.577 38.94"/>
        <path fill="#384C8E" d="M37.769 188.339c1.693 8.466 4.232 24.635.169 37.502-4.064 12.867-12.529 24.888-12.529 24.888l5.079 3.217s16.593-15.915 19.64-22.009c3.048-6.096 5.164-39.281 4.487-44.36l-16.846.762"/>
        <path fill="#AEAFCC" d="M42.425 185.969c0 3.811 11.174 3.936 13.206 3.809 2.032-.127 3.936-.592 4.063-2.201.127-1.608-.525-14.306.754-17.608 1.278-3.302 5.414-17.624 5.245-18.895-.169-1.269-4.348-4.654-6.634-2.876-2.286 1.778-16.634 33.199-16.634 37.771"/>
        <path fill="#006FEE" d="M45.227 197.761c2.907-1.654 2.622-2.735 3.299-6.459.677-3.725 6.326-17.609 8.874-22.518 2.548-4.91 7.921-17.784 7.921-18.462 0-.676-2.823-5.287-8.863-2.124-10.912 5.714-15.414 18.681-19.748 28.501-4.333 9.82-4.123 16.669-4.123 16.669 4.409 2.943 9.732 6.046 12.64 4.393z"/>
        <path fill="#D2DAE3" d="M261.906 125.607l-149.134-18.41v76.106l139.968 17.29a5.165 5.165 0 0 0 5.754-4.5l7.913-64.732a5.165 5.165 0 0 0-4.501-5.754"/>
        <path fill="#F1F6F9" d="M248.418 194.134l-167.704-20.5a5.085 5.085 0 0 1-4.43-5.664l7.932-64.892a5.085 5.085 0 0 1 5.664-4.43l167.705 20.5a5.086 5.086 0 0 1 4.43 5.664l-7.932 64.891a5.085 5.085 0 0 1-5.665 4.431"/>
        <path fill="#BBC7DB" d="M103.626 126.378l-8.379-1.024a3 3 0 0 1-2.614-3.342l1.024-8.381a3 3 0 0 1 3.342-2.613l8.38 1.024a3 3 0 0 1 2.614 3.342l-1.025 8.38a3 3 0 0 1-3.342 2.614M101.305 145.373l-8.381-1.025a3 3 0 0 1-2.613-3.342l1.024-8.38a3 3 0 0 1 3.342-2.614l8.38 1.025a3 3 0 0 1 2.614 3.341l-1.025 8.381a3 3 0 0 1-3.341 2.614M98.983 164.367l-8.38-1.024a3 3 0 0 1-2.614-3.342l1.024-8.38a3 3 0 0 1 3.342-2.614l8.38 1.024a3 3 0 0 1 2.614 3.342l-1.024 8.381a3 3 0 0 1-3.342 2.613M177.883 131.054l-55.259-6.755a2.808 2.808 0 0 1-2.447-3.128l.011-.088a2.808 2.808 0 0 1 3.128-2.447l55.259 6.755a2.807 2.807 0 0 1 2.446 3.128l-.01.088a2.809 2.809 0 0 1-3.128 2.447M175.561 150.049l-55.259-6.756a2.808 2.808 0 0 1-2.447-3.127l.011-.089a2.808 2.808 0 0 1 3.128-2.446l55.259 6.755a2.808 2.808 0 0 1 2.447 3.128l-.011.088a2.81 2.81 0 0 1-3.128 2.447M173.239 169.043l-55.259-6.755a2.807 2.807 0 0 1-2.446-3.128l.01-.088a2.809 2.809 0 0 1 3.128-2.447l55.259 6.755a2.808 2.808 0 0 1 2.447 3.128l-.011.089a2.808 2.808 0 0 1-3.128 2.446" opacity=".5"/>
        <g>
            <use fill="#000" filter="url(#j)" xlink:href="#k"/>
            <use fill="url(#l)" xlink:href="#k"/>
        </g>
        <path fill="#FFFFFE" d="M220.101 150.563c1.857.253 3.619.622 5.397.096 1.018-.301 1.753-.879 1.989-1.999.223-1.056-.09-1.94-.906-2.54-1.689-1.24-3.702-1.346-5.71-1.518l-.77 5.961zm-1.241 9.86c.385.051.674.086.962.128 1.711.245 3.422.387 5.145.098.936-.156 1.744-.539 2.309-1.303.984-1.332.431-3.255-1.166-4.087-1.867-.974-3.91-1.228-5.968-1.415-.412-.037-.495.14-.536.498-.148 1.262-.334 2.519-.493 3.78-.095.755-.167 1.513-.253 2.301zm-.8-19.88l.669-5.059 3.172.435c-.192 1.491-.354 2.9-.565 4.301-.072.482.071.668.54.7.541.038 1.08.118 1.719.191l.646-4.873 3.165.374-.61 4.944c1.164.42 2.324.798 3.453 1.255 3.213 1.298 4.385 5.681 2.211 8.384-.481.598-1.2 1.003-1.849 1.529.28.164.612.375.958.559 1.875 1.001 2.557 2.689 2.471 4.667-.085 1.936-.585 3.783-2.095 5.173a6.076 6.076 0 0 1-3.472 1.59c-1.529.176-3.072.216-4.711.322l-.643 4.92-3.175-.393.62-5.009c-.776-.106-1.507-.204-2.299-.313l-.663 5.006c-1.066-.134-2.081-.262-3.16-.396l.629-5.09-6.152-.82 1.072-3.66c.754.083 1.519.125 2.267.262.63.116 1.142-.21 1.249-.98.613-4.413 1.173-8.832 1.738-13.249.131-1.026-.392-1.695-1.438-1.868-.757-.125-1.52-.214-2.349-.328l.436-3.369 6.166.795z"/>
        <path fill="#006FEE" d="M256.544 169.568c3.217 1.918 6.258 4.464 6.893 4.464.634 0 11.936-7.809 14.983-8.698 3.048-.889 4.508 2.477 4.508 2.477l-17.989 11.287a2.609 2.609 0 0 1-2.847-.049l-6.196-4.186.648-5.295"/>
        <path fill="#F2BDB9" d="M89.77 177.393c5.333.634 8.44.005 9.598-.313 1.383-.381.005-1.252-1.524-1.438-1.528-.187-4.265-.207-3.869-.67.681-.797 2.129-2.543 1.084-2.061-.513.236-1.505.903-2.603 1.418-1.141.534-2.686.662-2.686.662v2.402"/>
        <path fill="#006FEE" d="M55.865 153.914c-.239 3.94 12.379 22.531 13.861 23.674 1.35 1.042 16.892 1.45 19.632 1.515a.405.405 0 0 0 .412-.41v-4.407a.403.403 0 0 0-.372-.407c-2.241-.17-13.937-1.183-16.005-3.924-2.29-3.033-10.017-19.795-12.302-20.43-2.286-.635-5.099 2.302-5.226 4.389"/>
        <path fill="#F2BDB9" d="M274.547 147.811c-1.904.635-2.434.148-2.688 1.291-.254 1.142-.613 5.629.276 6.899.888 1.27 3.809.869 4.825 1.323 1.016.454 1.798 2.233 1.725 4.137-.075 1.905-.709 5.588-.709 5.588l6.546-1.07s-3.752-8.074-4.133-9.343c-.381-1.27-2.286-6.984-3.175-6.984-.889 0-2.667-1.841-2.667-1.841"/>
        <path fill="#27377F" d="M270.929 147.345c.603-2.838 4.253-6.201 6.285-6.836 2.031-.634.401 4.529 1.471 4.741 1.069.211 2.719-.042 3.227.592.508.636-1.141 2.27-1.016 2.794.233.973 1.502 1.122 1.103 3.048-.218 1.048-3.775 4.444-3.899 3.555-.124-.888-.886-3.682-2.79-3.555-1.906.127-4.052-.381-4.381-1.397-.33-1.016-.154-2.224 0-2.942"/>
        <path fill="#F2BDB9" d="M289.849 274.377l4.16-.516a.398.398 0 0 0 .308-.571l-2.859-5.791a.89.89 0 0 1 .076-.911l.046-.064a.886.886 0 0 1 1.453.023l5.03 7.43c-2.976 2.618-5.435 1.495-8.214.4"/>
        <path fill="#26337D" d="M284.814 275.489a2.126 2.126 0 0 1 1.282-.647l3.753-.465c2.779 1.095 5.238 2.218 8.214-.4l.773 1.141a.887.887 0 0 1-.734 1.384l-13.737.169.449-1.182M273.836 274.359c-2.333.987-5.081.982-7.909-.021l-.314.039-3.754.465c-.489.06-.941.29-1.28.647l-.45 1.182 13.303-.178a.887.887 0 0 0 .734-1.384l-.33-.75"/>
        <path fill="#F2BDB9" d="M273.836 274.359l-3.522-8.011c-.345-.51-1.411-.394-1.771.105 0 0-.151.785-.006 1.08l1.545 5.757a.398.398 0 0 1-.309.571l-3.846.477c2.828 1.003 5.576 1.008 7.909.021"/>
        <path fill="#006FEE" d="M281.404 189.271c-1.972-7.889-3.932-16.732-2.188-24.677l-.899.272c-3.174 18.793 5.288 28.129 2.579 34.563a10.14 10.14 0 0 1-.765 1.422c.589.15 1.171.324 1.754.496 1.515-3.849 1.368-8.379-.481-12.076"/>
        <path fill="#AEAFCC" d="M280.422 164.229l-1.206.365c-1.744 7.945.216 16.788 2.188 24.677 1.849 3.697 1.996 8.227.481 12.076 1.043.307 2.079.632 3.103.971 4.937-11.813-3.454-25.406-4.566-38.089"/>
        <path fill="#006FEE" d="M283.313 163.353l-2.891.876c1.112 12.683 9.503 26.276 4.566 38.089 5.127 1.7 10.037 3.492 14.875 2.284.087-.566.145-1.107.165-1.618.339-8.296-16.715-39.631-16.715-39.631"/>
        <path fill="#F2BDB9" d="M255.5 191.111c-.928.393-1.787.853-2.73 1.397-.903-.54-3.061-1.857-3.725-1.904-.75-.054.938 1.625 1.757 2.857-1.861.141-6.268-.058-5.707.707.699.952 6.03 1.403 7.807.895 1.779-.508 4.46-2.365 4.46-2.365l-1.862-1.587"/>
        <path fill="#006FEE" d="M278.685 172.8s-10.614 10.502-12.773 11.899c-2.158 1.397-12.622 7.114-12.622 7.114l2.718 4.568s12.698-5.333 16.381-7.237c3.682-1.906 15.237-12.445 15.364-14.096.127-1.651-2.067-6.835-4.19-6.264-2.123.57-4.878 4.016-4.878 4.016"/>
        <path fill="#AEAFCC" d="M278.317 164.866l-.51-1.513 1.164-.284.245 1.525-.899.272M280.147 163.058l.275 1.171 2.891-.876-.258-1.468-2.661.755a.35.35 0 0 0-.247.418"/>
        <g transform="translate(133 218)">
            <mask id="o" fill="#fff">
                <use xlink:href="#m"/>
            </mask>
            <path fill="url(#n)" d="M1.106 20.369a1.014 1.014 0 0 1-.532-1.881c1.254-.77 2.447-1.545 3.604-2.295 5.367-3.483 10.002-6.49 16.398-6.49 3.709 0 6.492 1.712 9.44 3.526 3.325 2.046 6.765 4.163 12.063 4.163 4.603 0 10.333-3.11 16.399-6.403 7.124-3.865 15.199-8.247 23.799-9.069 5.952-.574 13.747 2.041 22.003 4.805 8.961 3 18.231 6.102 24.01 4.376 3.977-1.188 7.166-2.971 10.25-4.696 5.52-3.087 10.737-6.002 18.895-4.3 11.942 2.491 16.409 1.523 22.486-1.761a1.019 1.019 0 0 1 1.377.411c.266.494.082 1.11-.411 1.377-6.408 3.463-11.374 4.571-23.866 1.962-7.415-1.543-12.083 1.062-17.49 4.085-3.179 1.778-6.468 3.617-10.659 4.868-6.398 1.911-15.976-1.295-25.237-4.396-7.691-2.574-15.639-5.234-21.164-4.709-8.188.783-16.07 5.061-23.024 8.833-6.573 3.568-12.25 6.648-17.368 6.648-5.873 0-9.727-2.371-13.128-4.463-2.812-1.731-5.242-3.226-8.375-3.226-5.795 0-10.197 2.857-15.292 6.163-1.171.759-2.378 1.542-3.647 2.322-.165.102-.349.15-.531.15" mask="url(#o)"/>
        </g>
        <path fill="#BBC7DB" d="M338.653 221.438h-.046a1.458 1.458 0 0 1-1.458-1.458v-.045c0-.806.653-1.459 1.458-1.459h.046c.806 0 1.459.653 1.459 1.459v.045c0 .806-.653 1.458-1.459 1.458M338.653 227.28h-.046a1.459 1.459 0 0 1-1.458-1.459v-.046c0-.805.653-1.458 1.458-1.458h.046c.806 0 1.459.653 1.459 1.458v.046c0 .806-.653 1.459-1.459 1.459M338.653 233.121h-.046a1.458 1.458 0 0 1-1.458-1.458v-.047c0-.804.653-1.458 1.458-1.458h.046a1.46 1.46 0 0 1 1.459 1.458v.047c0 .806-.653 1.458-1.459 1.458M338.653 238.962h-.046a1.458 1.458 0 0 1-1.458-1.458v-.046c0-.806.653-1.459 1.458-1.459h.046c.806 0 1.459.653 1.459 1.459v.046c0 .806-.653 1.458-1.459 1.458M381.531 221.438h-35.219a1.458 1.458 0 0 1-1.459-1.458v-.045c0-.806.653-1.459 1.459-1.459h35.219c.806 0 1.458.653 1.458 1.459v.045c0 .806-.652 1.458-1.458 1.458M381.531 227.28h-35.219a1.459 1.459 0 0 1-1.459-1.459v-.046c0-.805.653-1.458 1.459-1.458h35.219c.806 0 1.458.653 1.458 1.458v.046c0 .806-.652 1.459-1.458 1.459M381.531 233.121h-35.219a1.458 1.458 0 0 1-1.459-1.458v-.047a1.46 1.46 0 0 1 1.459-1.458h35.219c.806 0 1.458.654 1.458 1.458v.047c0 .806-.652 1.458-1.458 1.458M381.531 238.962h-35.219a1.458 1.458 0 0 1-1.459-1.458v-.046c0-.806.653-1.459 1.459-1.459h35.219c.806 0 1.458.653 1.458 1.459v.046c0 .806-.652 1.458-1.458 1.458" opacity=".5"/>
        <path fill="#27377F" d="M289.023 234.983c1.035-7.308 9.519-21.772 10.84-30.381-4.838 1.208-9.748-.584-14.875-2.284-.164.394-.164.394 0 0-1.596-.529-3.214-1.049-4.857-1.467-4.425 7.046-20.952 20.799-21.583 26.64-.678 6.265 9.957 42.031 9.957 42.031h3.757s-3.781-30.856-2.38-35.935c1.4-5.079 12.095-18.291 12.095-18.291s-5.652 13.593-4.636 19.687c1.015 6.096 13.797 34.539 13.797 34.539l4.149-1.354s-7.366-25.397-6.264-33.185"/>
        <path fill="#293894" d="M107.881 54.162a6.178 6.178 0 1 1-12.356 0 6.18 6.18 0 0 1 12.356 0M438.403 187.749a5.189 5.189 0 1 1-10.377 0 5.189 5.189 0 0 1 10.377 0"/>
        <g transform="translate(160 273)">
            <mask id="q" fill="#fff">
                <use xlink:href="#p"/>
            </mask>
            <path fill="#006FEE" d="M13.046 7.41a6.434 6.434 0 1 1-12.867 0 6.434 6.434 0 0 1 12.867 0" mask="url(#q)"/>
        </g>
        <g transform="translate(280)">
            <mask id="s" fill="#fff">
                <use xlink:href="#r"/>
            </mask>
            <path fill="#006FEE" d="M6.531 22.314L.728 11.157 6.531 0l5.804 11.157-5.804 11.157" mask="url(#s)"/>
        </g>
        <path fill="#FFFFFE" d="M128.133 75.895a1.924 1.924 0 1 1-3.849 0 1.924 1.924 0 0 1 3.849 0"/>
        <path fill="#D1D8E5" d="M136.467 75.895a1.924 1.924 0 1 1-3.848 0 1.924 1.924 0 0 1 3.848 0"/>
        <path fill="#E4715E" d="M144.802 75.895a1.924 1.924 0 1 1-3.849 0 1.924 1.924 0 0 1 3.849 0"/>
    </g>
</svg>
