<?xml version="1.0" standalone="no"?><!-- Generator: Gravit.io --><svg xmlns="http://www.w3.org/2000/svg" xmlns:xlink="http://www.w3.org/1999/xlink" style="isolation:isolate" viewBox="432.563 359.813 40 40" width="40" height="40"><defs><clipPath id="_clipPath_L3dMUSr1bl2uy5vo4yFadN1Gtx8c80hG"><rect x="432.563" y="359.813" width="40" height="40"/></clipPath></defs><g clip-path="url(#_clipPath_L3dMUSr1bl2uy5vo4yFadN1Gtx8c80hG)"><linearGradient id="_lgradient_4" x1="0.4999999999999999" y1="0" x2="0.49999999999999994" y2="1" gradientTransform="matrix(40,0,0,40,432.563,359.813)" gradientUnits="userSpaceOnUse"><stop offset="0%" stop-opacity="1" style="stop-color:rgb(238,97,116)"/><stop offset="100%" stop-opacity="1" style="stop-color:rgb(248,153,72)"/></linearGradient><rect x="432.563" y="359.813" width="40" height="40" transform="matrix(1,0,0,1,0,0)" fill="url(#_lgradient_4)"/><clipPath id="_clipPath_8qBuN0CoY8rjmPzrrxRTMwrMVTv7mS9J"><rect x="432.563" y="359.813" width="40" height="40" transform="matrix(1,0,0,1,0,0)" fill="url(#_lgradient_4)"/></clipPath><g clip-path="url(#_clipPath_8qBuN0CoY8rjmPzrrxRTMwrMVTv7mS9J)"><path d=" M 444.333 366.813 L 461.667 366.813 C 464.06 366.813 466 368.753 466 371.146 L 466 388.479 C 466 390.872 464.06 392.813 461.667 392.813 L 444.333 392.813 C 441.94 392.813 440 390.872 440 388.479 L 440 371.146 C 440 368.753 441.94 366.813 444.333 366.813 Z  M 444.333 368.979 C 443.137 368.979 442.167 369.949 442.167 371.146 L 442.167 388.479 C 442.167 389.676 443.137 390.646 444.333 390.646 L 461.667 390.646 C 462.863 390.646 463.833 389.676 463.833 388.479 L 463.833 371.146 C 463.833 369.949 462.863 368.979 461.667 368.979 L 444.333 368.979 Z  M 445.417 372.229 L 453 372.229 L 453 378.729 L 445.417 378.729 L 445.417 372.229 Z  M 447.583 376.563 L 450.833 376.563 L 450.833 374.396 L 447.583 374.396 L 447.583 376.563 Z  M 455.167 372.229 L 460.583 372.229 L 460.583 374.396 L 455.167 374.396 L 455.167 372.229 Z  M 455.167 376.563 L 460.583 376.563 L 460.583 378.729 L 455.167 378.729 L 455.167 376.563 Z  M 445.417 380.896 L 460.583 380.896 L 460.583 383.063 L 445.417 383.063 L 445.417 380.896 Z  M 445.417 385.229 L 460.583 385.229 L 460.583 387.396 L 445.417 387.396 L 445.417 385.229 Z " fill="rgb(255,255,255)"/></g></g></svg>