<svg xmlns="http://www.w3.org/2000/svg" width="73" height="79" viewBox="0 0 73 79">
    <g fill="none" fill-rule="nonzero">
        <path fill="#F3933D" d="M13 24.613l-4.823 3.405L13 31.474v-6.86zm0-7.344V15a8 8 0 0 1 8-8h6.548L37.026.31l9.2 6.69H52a8 8 0 0 1 8 8v2.018l9.705 7.058A8 8 0 0 1 73 30.546V71a8 8 0 0 1-8 8H8a8 8 0 0 1-8-8V30.59a8 8 0 0 1 3.387-6.535L13 17.269zm47 7.168v7.037l4.874-3.492L60 24.437zm-6 11.335V15a2 2 0 0 0-2-2h-7.605l-.042.057-.079-.057H21a2 2 0 0 0-2 2v20.772L36.5 48.31 54 35.772zM6 33.84V71a2 2 0 0 0 2 2h57a2 2 0 0 0 2-2V33.84L38.247 54.439a3 3 0 0 1-3.494 0L6 33.839z"/>
        <path fill="#FFF" d="M30.414 26.586a2 2 0 0 0-2.828 2.828l5 5a2 2 0 0 0 2.828 0l10-10a2 2 0 0 0-2.828-2.828L34 30.172l-3.586-3.586z"/>
    </g>
</svg>
