<svg xmlns="http://www.w3.org/2000/svg" width="72" height="72" viewBox="0 0 72 72">
    <g fill="#11223E" fill-rule="nonzero" opacity=".1">
        <path d="M36 72c19.882 0 36-16.118 36-36S55.882 0 36 0 0 16.118 0 36c.021 19.873 16.127 35.979 36 36zm0-66c16.569 0 30 13.431 30 30 0 16.569-13.431 30-30 30C19.431 66 6 52.569 6 36 6.018 19.439 19.439 6.018 36 6z"/>
        <path d="M20.215 48.024a3 3 0 1 1-4.43-4.048l7.957-8.706 4.059 5.463 8.512-13.21 6.357 8.471 8.938-11.805a3 3 0 1 1 4.784 3.622L42.648 45.963l-5.96-7.944-8.536 13.248-4.888-6.58-3.05 3.337z"/>
    </g>
</svg>
