<svg xmlns="http://www.w3.org/2000/svg" width="72" height="72" viewBox="0 0 72 72">
    <g fill="#ffffff" fill-rule="nonzero" opacity=".1">
        <path d="M36 72c19.882 0 36-16.118 36-36S55.882 0 36 0 0 16.118 0 36c.021 19.873 16.127 35.979 36 36zm0-66c16.569 0 30 13.431 30 30 0 16.569-13.431 30-30 30C19.431 66 6 52.569 6 36 6.018 19.439 19.439 6.018 36 6z"/>
        <path d="M36.199 42.5H45a1.5 1.5 0 0 0 1.5-1.5V28a1.5 1.5 0 0 0-1.5-1.5H27a1.5 1.5 0 0 0-1.5 1.5v13a1.5 1.5 0 0 0 1.5 1.5h5.5v2.642l3.699-2.642zM27 47.5a6.5 6.5 0 0 1-6.5-6.5V28a6.5 6.5 0 0 1 6.5-6.5h18a6.5 6.5 0 0 1 6.5 6.5v13a6.5 6.5 0 0 1-6.5 6.5h-7.199L27.5 54.858V47.5H27z"/>
    </g>
</svg>
