<?xml version="1.0" encoding="UTF-8"?>
<svg width="128px" height="128px" viewBox="0 0 128 128" version="1.1" xmlns="http://www.w3.org/2000/svg" xmlns:xlink="http://www.w3.org/1999/xlink">
    <!-- Generator: Sketch 52 (66869) - http://www.bohemiancoding.com/sketch -->
    <title>01</title>
    <desc>Created with Sketch.</desc>
    <defs>
        <rect id="path-1" x="0" y="0" width="128" height="128" rx="64"></rect>
        <mask id="mask-2" maskContentUnits="userSpaceOnUse" maskUnits="objectBoundingBox" x="0" y="0" width="128" height="128" fill="white">
            <use xlink:href="#path-1"></use>
        </mask>
        <mask id="mask-4" maskContentUnits="userSpaceOnUse" maskUnits="objectBoundingBox" x="0" y="0" width="128" height="128" fill="white">
            <use xlink:href="#path-1"></use>
        </mask>
    </defs>
    <g id="New-version" stroke="none" stroke-width="1" fill="none" fill-rule="evenodd">
        <g id="-g-Emporium_Profile02" transform="translate(-276.000000, -179.000000)">
            <g id="Content" transform="translate(100.000000, 0.000000)">
                <g id="Me02" transform="translate(40.000000, 139.000000)">
                    <g id="01">
                        <g transform="translate(136.000000, 40.000000)" id="ava">
                            <g>
                                <mask id="mask-3" fill="white">
                                    <use xlink:href="#path-1"></use>
                                </mask>
                                <g id="Rectangle-49" stroke="#006FEE" mask="url(#mask-2)" stroke-width="2" fill-opacity="0.05" fill="#006FEE" stroke-dasharray="3,4">
                                    <use mask="url(#mask-4)" xlink:href="#path-1"></use>
                                </g>
                                <g id="Group-3" mask="url(#mask-3)" fill-rule="nonzero" stroke="#006FEE" stroke-width="2">
                                    <g transform="translate(44.000000, 48.000000)">
                                        <path d="M24.5857864,1 L15.4142136,1 L11.4142136,5 L8,5 C4.13400675,5 1,8.13400675 1,12 L1,24 C1,27.8659932 4.13400675,31 8,31 L32,31 C35.8659932,31 39,27.8659932 39,24 L39,12 C39,8.13400675 35.8659932,5 32,5 L28.5857864,5 L24.5857864,1 Z" id="Rectangle"></path>
                                        <circle id="Oval" cx="20" cy="17" r="6"></circle>
                                    </g>
                                </g>
                            </g>
                        </g>
                    </g>
                </g>
            </g>
        </g>
    </g>
</svg>