<svg xmlns="http://www.w3.org/2000/svg" width="72" height="72" viewBox="0 0 72 72">
    <g fill="#ffffff" fill-rule="nonzero" opacity=".1">
        <path d="M36 72c19.882 0 36-16.118 36-36S55.882 0 36 0 0 16.118 0 36c.021 19.873 16.127 35.979 36 36zm0-66c16.569 0 30 13.431 30 30 0 16.569-13.431 30-30 30C19.431 66 6 52.569 6 36 6.018 19.439 19.439 6.018 36 6z"/>
        <path d="M45 50a3 3 0 0 1-3 3H18a3 3 0 0 1-3-3v-3a9 9 0 0 1 9-9h12a9 9 0 0 1 9 9v3zm-6-3a3 3 0 0 0-3-3H24a3 3 0 0 0-3 3h18zM30.5 36a8.5 8.5 0 1 1 0-17 8.5 8.5 0 0 1 0 17zm0-6a2.5 2.5 0 1 0 0-5 2.5 2.5 0 0 0 0 5zM56.467 49.87a3 3 0 1 1-6 0v-2.976a2.956 2.956 0 0 0-2.217-2.86 3 3 0 0 1 1.5-5.809 8.956 8.956 0 0 1 6.717 8.667v2.978zM42.256 24.906a3 3 0 1 1 1.488-5.812 8.925 8.925 0 0 1 0 17.292 3 3 0 0 1-1.488-5.812 2.925 2.925 0 0 0 0-5.668z"/>
    </g>
</svg>
