<svg xmlns="http://www.w3.org/2000/svg" width="72" height="72" viewBox="0 0 72 72">
    <g fill="none" fill-rule="evenodd" opacity=".1">
        <g fill="#FFF" fill-rule="nonzero">
            <g>
                <g>
                    <path d="M36 0c19.882 0 36 16.118 36 36S55.882 72 36 72C16.127 71.979.021 55.873 0 36 0 16.118 16.118 0 36 0zm0 6C19.439 6.018 6.018 19.439 6 36c0 16.569 13.431 30 30 30 16.569 0 30-13.431 30-30C66 19.431 52.569 6 36 6zm15 42c1.657 0 3 1.343 3 3 0 1.539-1.158 2.807-2.65 2.98L51 54H21c-1.657 0-3-1.343-3-3 0-1.539 1.158-2.807 2.65-2.98L21 48h30zM39 18v13.755l3.879-3.876c1.081-1.082 2.783-1.165 3.96-.25l.282.25c1.082 1.081 1.165 2.783.25 3.96l-.25.282L36 43.243 24.879 32.12c-1.172-1.171-1.172-3.07 0-4.242 1.081-1.082 2.783-1.165 3.96-.25l.282.25L33 31.755V18h6z" transform="translate(-152 -107) translate(108 107) translate(44)"/>
                </g>
            </g>
        </g>
    </g>
</svg>
