<?xml version="1.0" encoding="UTF-8"?>
<svg width="72px" height="72px" viewBox="0 0 72 72" version="1.1" xmlns="http://www.w3.org/2000/svg" xmlns:xlink="http://www.w3.org/1999/xlink">
    <!-- Generator: sketchtool 61.2 (101010) - https://sketch.com -->
    <title>C428066E-9475-4B21-A675-B0256CB8A0A4</title>
    <desc>Created with sketchtool.</desc>
    <g id="✅-FAQ" stroke="none" stroke-width="1" fill="none" fill-rule="evenodd" opacity="0.100000001">
        <g id="[m]help-search-empty" transform="translate(-152.000000, -266.000000)" fill="#FFFFFF" fill-rule="nonzero">
            <g id="Group-5" transform="translate(41.000000, 266.000000)">
                <g id="search-empty" transform="translate(111.000000, 0.000000)">
                    <path d="M36,72 C55.882251,72 72,55.882251 72,36 C72,16.117749 55.882251,0 36,0 C16.117749,0 0,16.117749 0,36 C0.0214945428,55.8733409 16.1266591,71.9785055 36,72 Z M36,6 C52.5685425,6 66,19.4314575 66,36 C66,52.5685425 52.5685425,66 36,66 C19.4314575,66 6,52.5685425 6,36 C6.01818711,19.4389967 19.4389967,6.01818711 36,6 Z" id="Combined-Shape"></path>
                    <g id="icon" transform="translate(22.000000, 22.000000)">
                        <path d="M12,-1.0658141e-14 C18.627417,-1.0658141e-14 24,5.372583 24,12 C24,14.9228608 22.9550132,17.6016519 21.2182645,19.6831483 L25.767767,24.232233 C26.7440777,25.2085438 26.7440777,26.7914562 25.767767,27.767767 C24.7914562,28.7440777 23.2085438,28.7440777 22.232233,27.767767 L17.2559161,22.7907657 C15.6686373,23.5653359 13.8850793,24 12,24 C5.372583,24 5.32907052e-15,18.627417 5.32907052e-15,12 C5.32907052e-15,5.372583 5.372583,-1.0658141e-14 12,-1.0658141e-14 Z M12,5 C8.13400675,5 5,8.13400675 5,12 C5,15.8659932 8.13400675,19 12,19 C15.8659932,19 19,15.8659932 19,12 C19,8.13400675 15.8659932,5 12,5 Z" id="Combined-Shape"></path>
                    </g>
                </g>
            </g>
        </g>
    </g>
</svg>