<svg xmlns="http://www.w3.org/2000/svg" width="73" height="72" viewBox="0 0 73 72">
    <g fill="#11223E" fill-rule="nonzero" opacity=".1">
        <path d="M36.5 72c19.882 0 36-16.118 36-36S56.382 0 36.5 0 .5 16.118.5 36c.021 19.873 16.127 35.979 36 36zm0-66c16.569 0 30 13.431 30 30 0 16.569-13.431 30-30 30-16.569 0-30-13.431-30-30 .018-16.561 13.439-29.982 30-30z"/>
        <path d="M36.5 45.167L26.833 50l2.006-10.4L22 32.278l9.765-1.684L36.5 21l4.735 9.594L51 32.278 44.161 39.6 46.167 50z"/>
    </g>
</svg>
